<svg xmlns="http://www.w3.org/2000/svg" width="38" height="49" fill="none">
  <path fill="#F2BB4E" d="M24.1366 1h4.2531v.74013h.6805v3.37171h3.4875v.6579h.7655v4.11184h-.7655v.65792h-3.4875v3.3717h-.6805v.6579h-1.4461v.7401h-.6804v.6579h-.6806v.6579h-.6804v.6579h-.7656v.7402h-.6805v.6578h-.6805v.6579h-.6804v.6579h-.7656v.7401h-.6805v.6579h-.6805v.6579h-.6805v.6579h-1.446v-.6579h-.6805v-.6579h-.6805v-.6579h-.6805v-.7401h-.7655v-.6579h-.6805v-.6579h-.6805v-.6578h-.6805v-.7402h-.7655v-.6579h-.6805v-.6579h-.6805v-.6579h-.6805v-.7401h-.76554v-.6579h-.68053v-1.3158h-.68047V8.48358h.68047V7.16779h.68053v-.74016h.76554v-.65789h1.361v-.6579h4.253v.6579h.6805v.65789h.6805v.74016h.6805v.65789h1.446V5.76974h.6805v-.6579h3.4875V1.74013h.6805V1Z"/>
  <path fill="#AE2431" d="M31.1968 15.3093h3.4874v.6579h.6805v.6579h.6805v16.9408h-.6805v.7401h-.6805v.6579h-1.3609v.6579h-2.1265v.6579h-2.1266v.7402h-2.1265v-.7402h-.6805V19.339h.6805v-.6579h.7655v-.6579h.6805v-.7402h.6805v-.6579h.6805v-.6579h1.4461v-.6579Z"/>
  <path fill="#37351A" d="M5.93357 16.625h2.12652v.6579h.68048v.7402h.68047v.6578h.76556v.6579h.6805v15.625h-.6805v.6579h-.76556v.6579H8.06009v.7401H5.93357v.6579H3.80704v.6579H1.76555v-.6579H1V20.7368h.76555v-.7401h.68049v-.6579h.68048v-.6579h.68052v-.6578h.76553v-.7402h1.361v-.6579Z"/>
  <path fill="#81B0D2" d="M12.2285 21.3948h.7655v.6579h.6806v.6579h.6804v.7401h.6805v.6579h.7656v.6579h.6805v.6579h.6804v.7401h.6806v.6579h1.446v-.6579h.6805v-.7401h.6805v-.6579h.6804v-.6579h.7656v-.6579h.6805v-.7401h.6805v-.6579h.6805v-.6579h.7655v16.9408h-.7655v.6579h-2.0415v-.6579h-1.446v-.6579h-1.361v-.6579h-1.446v-.7402h-1.361v-.6579h-1.4461v-.6579h-1.3609v-.6579h-1.4461V21.3948Z"/>
  <path fill="#F65858" d="M12.9937 7.82568h2.807v.6579h.6805v.65789h.6805v.74011h.6805v.65792h5.614v4.0296h-.6805v.7401h-.6805v.6579h.6805v.6579h-.6805v.6579h-.7655v.7402h-.6805v.6578h-.6805v.6579h-.6805v.6579h-1.446v-.6579h-.6805v-.6579h-.6805v-.6578h-.6805v-.7402h-.7655v-.6579h-.6805v-.6579h-.6805v-.6579h-.6805v-.7401h-.7656v-.6579h-.6804v-.6579h-.6805V9.88158h.6805v-.74011h.6804v-.65789h.7656v-.6579Z"/>
  <path fill="#4B2C33" d="M31.8774 21.3948h2.807v3.3717h-1.361v.6579h-2.807v.7401h-.7656v1.9737h-.6804v.7402h.6804v.6578h-.6804v.6579h.6804v.6579h.7656v-.6579h1.361v-.6579h2.807v-.6578h.6805v4.6874h-.6805v1.398h-1.361v.6579h-2.1265v.6579h-2.1265v.7402h-2.1266V23.4507h.7656v-.7401h2.0414v-.6579h2.1266v-.6579Z"/>
  <path fill="#38597D" d="M22.7757 22.7106h.6805v.7401h-.6805v-.7401Zm-.6805.7401h.6805v.6579h-.6805v-.6579Zm-.7655.6579h.7655v.6579h-.7655v-.6579Zm-.6806.6579h.6806v.6579h-.6806v-.6579Zm-.6804.6579h.6804v.7401h-.6804v-.7401Zm-2.807.7401h.6804v.6579h-.6804v-.6579Zm2.1265 0h.6805v.6579h-.6805v-.6579Zm-1.4461.6579h1.4461v.6579h-1.4461v-.6579Zm6.2946-5.4276h.7655v16.9408h-.7655v.6579h-2.0415v-.6579h-1.4461v-.6579h-1.3609v-.6579h-1.4461v-.7402h-1.361v-.6579h-1.446v-.6579h-1.361v-1.398h-.6804v-3.3717h2.807v.6579h2.0414v.7401h.6805v1.3158h-.6805v.6579h.6805v.7401h2.8071v.6579h2.1265v.6579h.6805V22.7106h-.6805v-.6579h.6805v-.6579Z"/>
  <path fill="#fff" d="M25.5828 2.39819h1.361v.6579h.7655V5.7699h.6805v.6579h2.8071v.74016h.6804v1.31579h-.6804v.65789h-2.8071v.74011h-.6805v3.37165h-2.1265v.6579h-.6805v-.6579h-.7655v-.6579h.7655v-2.0559h-.7655v-.65785h-.6805v-.74011h-1.361v.74011h-.7656v-.74011h-.6804v-.65789h-.6805v-.6579h.6805v-.65789h.6804V6.4278h2.8071v-.6579h.7655V3.05609h.6805v-.6579Z"/>
  <path fill="#181614" d="M6.61409 25.4243h1.44606v6.1678h.68047v.6579h.68053v-.6579h.76555v3.3717h-.76555v.6579h-1.361v.6579H5.93362v.7401h-4.168V32.25h2.04147v-.6579h1.44606v-.7401h1.36094v-1.9737h-.68047v.6579h-1.361v-.6579h-.76553v-.7401h2.12653v-.6579h.68047v-2.056Z"/>
  <path fill="#826855" d="M11.5476 5.11182h4.253v.65789h.6805v.6579h.6805v.74015h.6805v.6579h1.446v1.31579h-1.446v-.6579h-.6805v-.65789h-.6805v-.6579h-1.446v-.74015h-2.807v.74015h-1.361v.6579h-.6805v1.31579h-.76554v3.45385h.76554v1.3158h.6805v.6579h.6805v.7402h.6805v.6579h.7655v.6579h.6805v.6579h.6805v.7401h.6805v.6579h.7655v.6579h.6805v.6579h.6805v.7401h.6805v.6579h1.446v-.6579h.6805v-.7401h.6805v-.6579h.6805v-.6579h.7656v-.6579h.6804v-.7401h.6805v-.6579h.6805v-.6579h.7656v-.6579h.6804v-.7402h1.361v.7402h-.6804v.6579h-.6806v.6579h-.6804v.6579h-.7656v.7401h-.6805v.6579h-.6805v.6579h-.6804v.6579h-.7656v.7401h-.6805v.6579h-.6805v.6579h-.6805v.6579h-1.446v-.6579h-.6805v-.6579h-.6805v-.6579h-.6805v-.7401h-.7655v-.6579h-.6805v-.6579h-.6805v-.6579h-.6805v-.7401h-.7655v-.6579h-.6805v-.6579h-.6805v-.6579h-.6805v-.7402h-.76554v-.6579h-.68053v-1.3158h-.68047V8.48355h.68047V7.16776h.68053v-.74015h.76554v-.6579h1.361v-.65789Z"/>
  <path fill="#D47459" d="M5.93357 16.625h2.12652v.6579H5.93357v-.6579Zm-1.361.6579h1.361v.7402h-1.361v-.7402Zm3.48752 0h.68048v.7402h-.68048v-.7402Zm-4.25305.7402h.76553v.6578h-.76553v-.6578Zm4.93353 0h.68047v.6578h-.68047v-.6578Zm-5.61405.6578h.68052v.6579h-.68052v-.6579Zm6.29452 0h.76556v.6579h-.76556v-.6579Zm-6.975.6579h.68048v.6579h-.68048v-.6579Zm7.74056 0h.6805v15.625h-.6805v-15.625Zm-8.42105.6579h.68049v.7401h-.68049v-.7401ZM1 20.7368h.76555v9.4573h2.04149v-.6579h2.12653v-.6579h.68047v1.9737h-1.361v.7401h-1.446v.6579H1.76555v4.7697h4.16802v.6579H3.80704v.6579H1.76555v-.6579H1V20.7368Zm8.42104 14.227h.76556v.6579h-.76556v-.6579Zm-1.36095.6579h1.36095v.6579H8.06009v-.6579Zm-2.12652.6579h2.12652v.7401H5.93357v-.7401Z"/>
  <path fill="#30232A" d="M31.8774 21.3948h2.807v3.3717h-1.361v.6579h-2.807v.7401h-1.446v1.3158h-2.1266v-4.0296h.7656v-.7401h2.0414v-.6579h2.1266v-.6579Z"/>
  <path fill="#161616" d="M5.93362 17.283h2.12653v.7401h.68047v.6579h.68053v.6579h.76555v2.0559h-.76555v.6579h-1.361v-1.3158H5.93362v.6579h-1.361v1.3158h-.76553v.7401h-.68047v.6579h-.68051v.6579h-.68049v-4.0296h.68049v-.7401h.68051v-.6579h.68047v-.6579h.76553v-.6579h1.361v-.7401Z"/>
  <path fill="#FFB964" d="M31.1968 15.3093h3.4874v.6579h-3.4874v-.6579Zm-1.4461.6579h1.4461v.6579h-1.4461v-.6579Zm4.9335 0h.6805v.6579h-.6805v-.6579Zm-5.614.6579h.6805v.6579h-.6805v-.6579Zm6.2945 0h.6805v16.9408h-.6805V16.6251Zm-6.975.6579h.6805v.7402h-.6805v-.7402Zm-.6805.7402h.6805v.6579h-.6805v-.6579Zm-.7655.6579h.7655v.6579h-.7655v-.6579Zm-.6805.6579h.6805v16.9407h-.6805V19.339Zm8.421 14.2269h.6805v.7401h-.6805v-.7401Z"/>
  <path fill="#A92531" d="M33.3234 24.7666h2.0414v4.1119h-.6804v.6579h-2.8071v.6579h-1.3609v.6579h-.7656v-.6579h-.6805v-.6579h.6805v-.6579h-.6805v-.7402h.6805v-1.9736h.7656v-.7402h2.807v-.6579Z"/>
  <path fill="#FFD88B" d="M24.1366 1h4.253v.74013h.6805v3.37171h3.4875v.6579h.7655v1.39805h-.6804V7.25h-.0851v-.08221h-.6805v-.74016h-.6805v-.65789h-2.807V3.05592h-.6805v-.65789h-.7655v-.6579h-1.361v.6579h-.6805v3.37171h-.7655v.65789h-2.807v.74016h-.6806v.65789h-.6804v-.65789h-.6805V5.76974h.6805v-.6579h3.4875V1.74013h.6805V1Z"/>
  <path fill="#AA7A57" d="M12.9937 7.82568h2.807v.6579h.6805v.65789h.6805v.74011h.6805v.65792h2.1265v.6579h-.6805v.6579h-1.446v-.6579h-.6805v-.6579h-.6805v-.65792h-.6805v-.74011h-2.807v.74011h-.7656v.65792h-.6804v2.0559h.6804v.6579h.7656v.6579h.6805v.6579h.6805v.7401h.6805v.6579h.7655v.6579h.6805v.6579h.6805v.7402h.6805v.6578h2.1265v.6579h-.6805v.6579h-1.446v-.6579h-.6805v-.6579h-.6805v-.6578h-.6805v-.7402h-.7655v-.6579h-.6805v-.6579h-.6805v-.6579h-.6805v-.7401h-.7656v-.6579h-.6804v-.6579h-.6805V9.88158h.6805v-.74011h.6804v-.65789h.7656v-.6579Z"/>
  <path fill="#FFD88B" d="M25.5828 1.74023h1.361v.6579h-1.361v-.6579Zm-.6805.6579h.6805v.65789h-.6805v-.65789Zm2.0415 0h.7655v.65789h-.7655v-.65789Zm.7655.65789h.6806v2.71382h-.6806V3.05602Zm.6806 2.71382h2.807v.65789h-2.807v-.65789Zm2.807.65789h.6804v.74016h-.6804v-.74016Zm.6804.74016h.6806v.08221h.085v-.08221h.6805v2.71379h-.7655v.65792h-3.4876v3.3717h-.6804v.6579h-1.4461v-.6579h-1.361v-.6579h2.1265V9.88168h.6806v-.7401h2.807v-.6579h.6804V7.16789Z"/>
  <path fill="#DB5656" d="M12.9939 9.1416h1.361v.74011h-.6805v.65789h-.6805v.6579h-.7655v.6579h.7655v.7401h.6805v.6579h.6805v.6579h.6805v.6579h.7655v.7401h.6805v.6579h.6805v.6579h.6805v.6579h1.446v-.6579h.6805v-.6579h.6805v-.6579h.6805v-.7401h.7655v-.6579h.6806v-.6579h.6804v1.3158h-.6804v.7401h-.6806v.6579h.6806v.6579h-.6806v.6579h-.7655v.7402h-.6805v.6579h-2.807v-.6579h-.6805v-.7402h-.6805v-.6579h-.6805v-.6579h-.7655v-.6579h-.6805v-.7401h-.6805v-.6579h-.6805v-.6579h-.7655v-.6579h-.6805v-2.0559h.6805v-.65789h.7655V9.1416Z"/>
  <path fill="#FFB964" d="M5.93357 16.625h2.12652v.6579H5.93357v-.6579Zm-1.361.6579h1.361v.7402h-1.361v-.7402Zm3.48752 0h.68048v.7402h-.68048v-.7402Zm-4.25305.7402h.76553v.6578h-.76553v-.6578Zm4.93353 0h.68047v.6578h-.68047v-.6578Zm-5.61405.6578h.68052v.6579h-.68052v-.6579Zm6.29452 0h.76556v.6579h-.76556v-.6579Zm-6.975.6579h.68048v.6579h-.68048v-.6579Zm7.74056 0h.6805V32.25h-.6805V19.3388Zm-8.42105.6579h.68049v.7401h-.68049v-.7401ZM1 20.7368h.76555V30.852H1V20.7368Z"/>
  <path fill="#F2BB4E" d="M12.2284 6.42773h1.446v1.39806h-.6804v.65789h-.7656v.6579h-.6805v.7401h-.6805v3.37172h.6805v.6579h.6805v.6579h.7656v.7401h.6804v.6579h.6806v.6579h.6804v.6579h.7656v.7402h.6805v.6579h.6805v.6578h.6804v.6579h-1.3609v-.6579h-.6805v-.6578h-.7656v-.6579h-.6804v-.7402h-.6806v-.6579h-.6804v-.6579h-.7656v-.6579h-.6805v-.7401h-.6805v-.6579h-.6804v-1.3158h-.76561V9.14158h.76561V7.82579h.6804v-.6579h1.361v-.74016Z"/>
  <path fill="#BE5254" d="M24.1366 21.3948h.7655v16.9408h-.7655v-15.625h-.6805v-.6579h.6805v-.6579Zm-1.361 1.3158h.6805v.7401h-.6805v-.7401Zm-.6805.7401h.6805v.6579h-.6805v-.6579Zm-.7655.6579h.7655v.6579h-.7655v-.6579Zm-.6805.6579h.6805v.6579h-.6805v-.6579Zm-.6805.6579h.6805v.7401h-.6805v-.7401Zm-2.807.7401h.6805v.6579h-.6805v-.6579Zm2.1265 0h.6805v.6579h-.6805v-.6579Zm-1.446.6579h1.446v.6579h-1.446v-.6579Z"/>
  <path fill="#A6C2D8" d="M23.4559 22.7107h.6806v7.4836h-1.361v-.6579h-1.4461v-2.056h-.6805v-.6579h.6805v-2.0559h.7656v-.6579h.6805v-.6579h.6804v-.7401Z"/>
  <path fill="#F2BB4E" d="M23.4561 13.2534h.6805v.6579h.7655v.0823h.0852v-.0823h1.9563v.6579h-1.3609v.7402h-.6806v.6579h-.7655v.6579h-.6805v.6578h-.6805v.7402h-.6805v.6579h-.7655v.6579h-.6805v.6579h-.6805v.7401h-.6805v.6579h-1.446v-.6579h-.6805v-.7401h2.1265v-.6579h.6805v-.6579h.6805v-.6579h.6805v-.7402h.7655v-.6578h.6805v-.6579h-.6805v-.6579h.6805v-.7402h.6805v-1.3158Z"/>
  <path fill="#A6C2D8" d="M18.5228 31.592h2.1265v.6579h2.807v.6579h.6805v2.7138h-.6805v-.6579h-2.1265v-.6579h-2.807v-.7401h-.6805v-.6579h.6805V31.592Z"/>
  <path fill="#826855" d="M25.5828 14.5691h1.361v.7401h-.6805v.6579h-.6805v.6579h-.6804v.6579h-.7656v.7402h-.6805v.6579h-.6805v.6579h-.6805v.6579h-.7655v.7401h-.6805v.6579h-.6805v.6579h-.6805v.6579h-1.446v-.6579h-.6805v-.6579h-.6805v-.6579h-.6805v-.7401h1.361v.7401h.6805v.6579h1.446v-.6579h.6805v-.7401h.6805v-.6579h.6805v-.6579h.7655v-.6579h.6805v-.7402h.6805v-.6579h.6805v-.6579h.7656v-.6579h.6804v-.7401Z"/>
  <path fill="#5983A0" d="M12.9937 30.1941h2.807v.6579h2.0414v.7401h.6805v1.3158h-.6805v.6579h-2.0414v-.6579h-2.1266V32.25h-.6804v-2.0559Z"/>
  <path fill="#38351B" d="M9.42118 32.908h.76552v2.0559h-.76552v.6578h-1.361v.6579H5.93366v.7402H4.57265v-.7402h-.76552v-.6579h.76552v-.6578h.68053v-.6579h1.36095v-.7401h2.80705v-.6579Z"/>
  <path fill="#EC9A5F" d="M12.2285 21.3948h.7655v.6579h.6806v.6579h-.6806v10.8552h.6806v.7401h-1.4461V21.3948Zm1.4461 1.3158h.6804v.7401h-.6804v-.7401Zm.6804.7401h.6805v.6579h-.6805v-.6579Zm.6805.6579h.7656v.6579h-.7656v-.6579Zm.7656.6579h.6805v.6579h-.6805v-.6579Zm.6805.6579h.6804v.7401h-.6804v-.7401Z"/>
  <path fill="#181614" d="M3.80709 18.6809h.76553v.6579h-.76553v-.6579Zm-.68047.6579h.68047v.6579h.76553v2.7138h-.76553v.7401h-.68047v.6579h-.68051v.6579h-.68049v-4.0296h.68049v-.7401h.68051v-.6579Z"/>
  <path fill="#7E312C" d="M29.0704 26.1646h.6804v1.9736h-.6804v.7402h.6804v.6579h-.6804v.6579h.6804v.6579h-1.3609v.7401h-1.4461v-4.1119h2.1266v-1.3157Z"/>
  <path fill="#9A2A2F" d="M31.1969 15.967h3.4876v.6579h.6804v.6579h-2.807v.7402h-2.0414v.6579h-2.1266v-.6579h.6805v-.7402h.6805v-.6579h1.446v-.6579Zm-3.4874 2.7139h.6804v.6579h-.6804v-.6579Z"/>
  <path fill="#864A39" d="M11.5479 13.2534h1.446v.6579h.6805v.6579h.6805v.7402h.6805v.6579h.7655v.6579h.6805v.6578h.6805v.7402h.6805v.6579h2.1265v.6579h-.6805v.6579h-1.446v-.6579h-.6805v-.6579h-.6805v-.6579h-.6805v-.7402h-.7655v-.6578h-.6805v-.6579h-.6805v-.6579h-.6805v-.7402h-.7655v-.6579h-.6805v-.6579Z"/>
  <path fill="#AA7A57" d="M9.4212 12.5955h.7655v1.3157h.6805v.6579h.6805v.7402h.6805v.6579h.7656v.6579h.6804v.6579h.6805v.7401h.6805v.6579h.7656v.6579h.6804v.6579h-1.446v-.6579h-.6805v-.6579h-.6805v-.6579h-.6804v-.7401h-.7656v-.6579h-.6805v-.6579h-.6805v-.6579h-.6805v-.7402h-.7655v-.6579h-.68048v-.6578h.68048v-.6579Z"/>
  <path fill="#A22730" d="M28.3899 18.6809h1.3609v1.3158h-.6804v1.398h.6804v.6579h-.6804v.6579h-1.361v.7401h-.7656v-4.1118h1.4461v-.6579Z"/>
  <path fill="#432930" d="M33.3234 32.908h1.361v2.0559h-1.361v.6578h-2.1265v.6579h-2.1265v-.6579h.6804v-.6578h1.4461v-.6579h2.1265v-1.398Zm-6.3796 3.3716h2.1266v.7402h-2.1266v-.7402Z"/>
  <path fill="#9C8A29" d="M5.93362 28.8784h.68047v1.9737H5.25315v.7401H3.80709v.6579H1.76562v-2.0559h2.04147v-.6579h2.12653v-.6579Z"/>
  <path fill="#38597D" d="M12.9937 22.7107h.6804v.7401h.6805v.6579h.6805v.6579h.7656v.6579h-.7656v2.0559h-2.0414v-4.7697Zm2.0414 4.7697h.7656v.6579h-.7656v-.6579Z"/>
  <path fill="#D47459" d="M35.3646 22.7107h.6805V33.566h-.6805V22.7107Zm-.6805 10.8553h.6805v.7401h-.6805v-.7401Z"/>
  <path fill="#5C572D" d="M8.06006 28.1382h2.12654v3.4539h-.76554v.6579h-.68053v-.6579h-.68047v-3.4539Z"/>
  <path fill="#FFF4DE" d="M11.5479 14.5691h1.446v.7401h.6805v.6579h.6805v.6579h.6805v.6579h.7655v.7402h.6805v.6579h.6805v.6579h.6805v.6579h-1.361v-.6579h-.6805v-.6579h-.7655v-.6579h-.6805v-.7402h-.6805v-.6579h-.6805v-.6579h-.7655v-.6579h-.6805v-.7401Z"/>
  <path fill="#CD6957" d="M26.2632 25.4243h.6805v10.8553h-.6805V25.4243Z"/>
  <path fill="#FFB964" d="M24.1366 21.3948h.7655v3.3717h-.7655v-2.0559h-.6805v-.6579h.6805v-.6579Zm-1.361 1.3158h.6805v.7401h-.6805v-.7401Zm-.6805.7401h.6805v.6579h-.6805v-.6579Zm-.7655.6579h.7655v.6579h-.7655v-.6579Zm-.6805.6579h.6805v.6579h-.6805v-.6579Zm-.6805.6579h.6805v.7401h-.6805v-.7401Zm-2.807.7401h.6805v.6579h-.6805v-.6579Zm2.1265 0h.6805v.6579h-.6805v-.6579Zm-1.446.6579h1.446v.6579h-1.446v-.6579Z"/>
  <path fill="#F2BB4E" d="M25.5828 1.74023h1.361v.6579h-1.361v-.6579Zm-.6805.6579h.6805v.65789h-.6805v-.65789Zm2.0415 0h.7655v.65789h-.7655v-.65789Zm.7655.65789h.6806v2.71382h-.6806V3.05602Zm.6806 2.71382h2.807v.65789h-2.807v-.65789Zm2.807.65789h.6804v.74016h-.6804v-.74016Zm.6804.74016h.6806v1.31579h-.6806V7.16789Z"/>
  <path fill="#FFD88B" d="M28.4747 3.05591h.5955v2.05592h3.4874v.65789h.7656v1.39806h-.6805v.08221h-.0851v-.08221h-.6804v-.74016h-.6805v-.6579h-2.8071V3.13815h.0851v-.08224Z"/>
  <path fill="#FFB964" d="M12.2285 21.3948h.7655v.6579h.6806v.6579h-.6806v3.4539h-.7655v-4.7697Zm1.4461 1.3158h.6804v.7401h-.6804v-.7401Zm.6804.7401h.6805v.6579h-.6805v-.6579Zm.6805.6579h.7656v.6579h-.7656v-.6579Zm.7656.6579h.6805v.6579h-.6805v-.6579Zm.6805.6579h.6804v.7401h-.6804v-.7401Z"/>
  <path fill="#CD6957" d="M10.1867 32.25h.6805v2.7138h-.6805V32.25Zm-.76552 2.7138h.76552v.6579h-.76552v-.6579Zm-1.361.6579h1.361v.6579h-1.361v-.6579Zm-2.12652.6579h2.12652v.7401H5.93366v-.7401Zm-2.12653.7401h2.12653v.6579H3.80713v-.6579Z"/>
  <path fill="#AA7A57" d="M15.0352 7.82568h.7655v.6579h.6805v.65789h.6805v.74011h.6805v.65792h2.1265v.6579h-.6805v.6579h-1.446v-.6579h-.6805v-.6579h-.6805v-.65792h-.6805v-.74011h-.7655V7.82568Z"/>
  <path fill="#A6C2D8" d="M15.0352 25.4243h1.446v.7402h.6805v.6579h.6805v.6579h.6804v.6579h-2.7219v-.6579h-.7655v-2.056Z"/>
  <path fill="#494440" d="M5.25318 34.3059h1.36095v1.3158h1.44605v.6579H5.93365v.7402h-1.361v-.7402h-.76552v-.6579h.76552v-.6579h.68053v-.6579Z"/>
  <path fill="#7BAAB3" d="M12.9937 27.4802h2.0414v2.056h.7656v.6579h-2.807v-2.7139Z"/>
  <path fill="#EC9A5F" d="M1 23.4507h.76555v7.4014H1v-7.4014Z"/>
  <path fill="#F2BB4E" d="M32.5579 9.1416h.7656v.74011h-.7656V9.1416Zm-3.4875.74011h3.4875v.65789h-3.4875v-.65789Zm-.6805.65789h.6805v3.3717h-.6805v-3.3717Zm-.6804 3.3717h.6804v.6579h-.6804v-.6579ZM24.1366 1h.7655v.74013h-.7655V1Zm-.6805.74013h.6805v3.37171h-.6805V1.74013Zm-3.4875 3.37171h3.4875v.6579h-3.4875v-.6579Zm-.6805.6579h.6805v.65789h-.6805v-.65789Z"/>
  <path fill="#DE845C" d="M10.1865 24.7666h.6805v7.4836h-.6805v-7.4836Z"/>
  <path fill="#DB5656" d="M19.9686 10.5396h1.361v.6578h-.6805v.6579h-.6805v.7401h-.6805v.6579h-1.446v-.6579h-.6805v-.7401h2.1265v-.6579h.6805v-.6578Z"/>
  <path fill="#675243" d="M15.8008 19.9968h1.361v.7401h.6805v.6579h2.1265v.6579h-.6805v.6579h-1.446v-.6579h-.6805v-.6579h-.6805v-.6579h-.6805v-.7401Z"/>
  <path fill="#FFD88B" d="M13.6738 6.42773h1.361v.74016h1.4461v.6579h.6805v.65789h.6804v.6579h-1.3609v-.6579h-.6805v-.65789h-2.1266V6.42773Z"/>
  <path fill="#5B562C" d="M5.25318 24.1086h1.36095v2.056H4.57265v-.7402h-.76552v-.6579h1.44605v-.6579Z"/>
  <path fill="#C86156" d="M24.1362 24.7666h.7656v5.4277h-.7656v-5.4277Z"/>
  <path fill="#D7976A" d="M17.1616 9.1416h2.807v.74011h.6805v.65789h-2.807v-.65789h-.6805V9.1416Z"/>
  <path fill="#FF8181" d="M14.355 9.1416h1.446v.74011h.6805v.65789h.6805v.6579h.6805v.6579h-1.361v-.6579h-.6805v-.6579h-.7655v-.65789h-.6805V9.1416Z"/>
  <path fill="#A65F4C" d="M21.3296 15.967h1.446v.6579h-.6805v.6579h-.7655v.7402h-.6806v.6579h-1.3609v-.6579h.6805v-.7402h.6804v-.6579h.6806v-.6579Z"/>
  <path fill="#D7976A" d="M23.4562 13.2534h.6805v.6579h.7656v.6579h-.7656v.7402h-.6805v.6579h-1.361v-.6579h.6805v-.7402h.6805v-1.3158Z"/>
  <path fill="#CD6957" d="M35.3646 29.5361h.6805v4.0296h-.6805v-4.0296Zm-.6805 4.0296h.6805v.7401h-.6805v-.7401Z"/>
  <path fill="#B12232" d="M34.6841 19.9968h.6805v4.7697h-.6805v-4.7697Z"/>
  <path fill="#753027" d="M34.6841 28.8784h.6805v4.6875h-.6805v-4.6875Z"/>
  <path fill="#EC9A5F" d="M35.3647 18.0232h.6805v4.6875h-.6805v-4.6875Z"/>
  <path fill="#D7976A" d="M17.1616 19.9968h2.807v.7401h-.6805v.6579h-1.446v-.6579h-.6805v-.7401Z"/>
  <path fill="#D47459" d="M29.0704 35.6218h2.1265v.6579h-2.1265v-.6579Zm-2.1266.6579h2.1266v.7402h-2.1266v-.7402Z"/>
  <path fill="#F2BB4E" d="M19.2881 7.16772h.6805v1.31579h.6804v.6579h.6806v.7401h-.5955v.08221h-.0851v-.08221h-.6804v-.7401h-.6805V7.16772Z"/>
  <path fill="#932B2D" d="M34.6841 24.7666h.6805v4.1119h-.6805v-4.1119Z"/>
  <path fill="#A65F4C" d="M17.1616 10.5396h2.807v.6578h-.6805v.6579h-1.446v-.6579h-.6805v-.6578Z"/>
  <path fill="#81B0D2" d="M23.4562 22.7107h.6805v2.0559h-2.0415v-.6579h.6805v-.6579h.6805v-.7401Z"/>
  <path fill="#D47459" d="M5.93366 36.2795h1.44605v.7402H5.93366v-.7402Zm-2.12653.7402h2.12653v.6579H3.80713v-.6579Z"/>
  <path fill="#FFF4DE" d="M31.1968 5.11182h1.361v.65789h.7655v1.39805h-.7655v-.74015h-.6805v-.6579h-.6805v-.65789ZM26.9438 1h1.4461v.74013h.6805v1.31579h-.6805v-.65789h-.6805v-.6579h-.7656V1Z"/>
  <path fill="#4F4947" d="M5.9337 35.6218h2.12653v.6579H5.9337v-.6579Zm-1.36095.6579H5.9337v.7402H4.57275v-.7402Z"/>
  <path fill="#A65F4C" d="M10.8672 10.5396h.6805v2.0558h.6804v.6579h-1.3609v-2.7137Z"/>
  <path fill="#D7976A" d="M10.867 7.16772h1.361v.6579h-.6805v.65789h-.6805v.6579h-.6805V7.82562h.6805v-.6579Z"/>
  <path fill="#CD6957" d="M12.2285 32.25h.7655v1.3158h.6806v.7401h-1.4461V32.25Z"/>
  <path fill="#C45B55" d="M24.1362 30.1941h.7656v2.7138h-.7656v-2.7138Z"/>
  <path fill="#EC9A5F" d="M12.2285 26.1646h.7655v2.7138h-.7655v-2.7138Z"/>
  <path fill="#826855" d="M14.355 18.6809h1.446v.6579h.6805v.6579h-1.446v-.6579h-.6805v-.6579Z"/>
  <path fill="#675243" d="M8.74053 11.1975h.68053v2.0559h-.68053v-.6579h-.68047v-.7401h.68047v-.6579Z"/>
  <path fill="#C15754" d="M26.2632 33.5659h.6805v2.7138h-.6805v-2.7138Z"/>
  <path fill="#FFB964" d="M10.1865 29.5361h.6805v2.7138h-.6805v-2.7138Z"/>
  <path fill="#A72530" d="M34.6841 17.283h.6805v2.7138h-.6805V17.283Z"/>
  <path fill="#FFD88B" d="M15.8008 18.6809h1.361v.6579h.6805v.6579h-1.361v-.6579h-.6805v-.6579Zm-5.6143-5.4275h1.361v.6579h.6805v.6579h-1.361v-.6579h-.6805v-.6579Z"/>
  <path fill="#A65F4C" d="M13.6738 7.82568h1.361v1.31579h-1.361V7.82568Z"/>
  <path fill="#C15754" d="M24.1362 32.908h.7656v2.0559h-.7656V32.908Z"/>
  <path fill="#DE845C" d="M24.1362 24.7666h.7656v2.0559h-.7656v-2.0559Z"/>
  <path fill="#FFD88B" d="M24.1362 10.5396h.7656v2.0558h-.7656v-2.0558Z"/>
  <path fill="#D7976A" d="M9.42139 11.8552h1.44601v1.398h-.6804v-.6579h-.76561v-.7401Z"/>
  <path fill="#DE845C" d="M1 28.8784h.76555v1.9737H1v-1.9737Z"/>
  <path fill="#FFF4DE" d="M19.9688 7.82568h.6805v.6579h-.6805v-.6579Zm.6805.6579h.6804v.65789h-.6804v-.65789Zm.6804.65789h.7656v.74011h-.7656v-.74011Z"/>
  <path fill="#30232A" d="M26.9438 35.6218h2.1266v.6579h-2.1266v-.6579Z"/>
  <path fill="#DE845C" d="M31.1968 34.9639h2.1265v.6579h-2.1265v-.6579Z"/>
  <path fill="#EC9A5F" d="M10.1865 27.4802h.6805v2.056h-.6805v-2.056Z"/>
  <path fill="#CD6957" d="M26.2632 25.4243h.6805v2.056h-.6805v-2.056Z"/>
  <path fill="#D47459" d="M35.3647 22.7107h.6805v2.0559h-.6805v-2.0559Z"/>
  <path fill="#753027" d="M29.0704 17.283h.6805v.7401h-.6805v-.7401Zm-.6805.7401h.6805v.6579h-.6805v-.6579Zm-.6804.6579h.6804v.6579h-.6804v-.6579Z"/>
  <path fill="#D47459" d="M22.0952 38.3357h2.0415v.6579h-2.0415v-.6579Z"/>
  <path fill="#7BAAB3" d="M22.0952 37.6777h2.0415v.6579h-2.0415v-.6579Z"/>
  <path fill="#DE845C" d="M1.76562 37.6777h2.04147v.6579H1.76562v-.6579Z"/>
  <path fill="#6D6260" d="M1.76562 37.0198h2.04147v.6579H1.76562v-.6579Z"/>
  <path fill="#C45B55" d="M26.2632 31.592h.6805v1.9737h-.6805V31.592Z"/>
  <path fill="#C86156" d="M26.9438 36.2795h1.4461v.7402h-1.4461v-.7402Zm-9.1015 0h1.446v.7402h-1.446v-.7402Z"/>
  <path fill="#C45B55" d="M1 36.2795h.76555v1.3981H1v-1.3981Z"/>
  <path fill="#D7976A" d="M32.5579 9.1416h.7655v.74011h-.7655V9.1416Zm-.6805.74011h.6805v.65789h-.6805v-.65789ZM24.1365 1h.7656v.74013h-.7656V1Zm-.6804.74013h.6804v.6579h-.6804v-.6579Z"/>
  <path fill="#C15754" d="M24.1362 37.0198h.7656v1.3158h-.7656v-1.3158Z"/>
  <path fill="#D47459" d="M12.2285 32.25h.7655v1.3158h-.7655V32.25Z"/>
  <path fill="#CD6957" d="M24.1362 26.8225h.7656v1.3158h-.7656v-1.3158Z"/>
  <path fill="#FFF4DE" d="M23.4561 9.1416h.6804v.74011h-.6804V9.1416Zm.6804.74011h.7656v.65789h-.7656v-.65789Z"/>
  <path fill="#FFD88B" d="M22.0952 9.1416h1.361v.74011h-1.361V9.1416Z"/>
  <path fill="#C15754" d="M20.6489 37.6777h1.4461v.6579h-1.4461v-.6579Z"/>
  <path fill="#D47459" d="M15.0352 34.9639h1.446v.6579h-1.446v-.6579Zm20.3294-2.0559h.6805v.6579h-.6805v-.6579Zm-.6805.6579h.6805v.7401h-.6805v-.7401Zm.6806-5.4277h.6805v1.398h-.6805v-1.398Z"/>
  <path fill="#C45B55" d="M26.2632 27.4802h.6805v1.3981h-.6805v-1.3981Z"/>
  <path fill="#5A552C" d="M1.76562 25.4243h.68049v1.3981h-.68049v-1.3981Z"/>
  <path fill="#FFF4DE" d="M24.1362 12.5955h.7656v.6579h-.7656v-.6579Zm.7656.6579h.6805v.6578h-.6805v-.6578Z"/>
  <path fill="#FFD88B" d="M19.9688 8.48364h.6805v.6579h-.6805v-.6579Zm.6805.6579h.6804v.7401h-.6804v-.7401Z"/>
  <path fill="#D7976A" d="M31.8774 5.11182h.6805v.65789h-.6805v-.65789Zm.6805.65789h.7655v.6579h-.7655v-.6579ZM27.7095 1h.6804v.74013h-.6804V1Zm.6804.74013h.6805v.6579h-.6805v-.6579Z"/>
  <path fill="#C15754" d="M19.2881 37.0198h1.3609v.6579h-1.3609v-.6579Z"/>
  <path fill="#BF5454" d="M26.2632 34.9639h.6805v1.3158h-.6805v-1.3158Z"/>
  <path fill="#CD6957" d="M16.481 35.6218h1.361v.6579h-1.361v-.6579Z"/>
  <path fill="#DE845C" d="M33.3232 34.3059h1.361v.6579h-1.361v-.6579Z"/>
  <path fill="#CD6957" d="M13.6738 34.3059h1.361v.6579h-1.361v-.6579Z"/>
  <path fill="#DE845C" d="M10.1865 32.25h.6805v1.3158h-.6805V32.25Z"/>
  <path fill="#CD6957" d="M35.3647 31.592h.6805v1.3158h-.6805V31.592Z"/>
  <path fill="#D47459" d="M26.2632 28.8784h.6805v1.3158h-.6805v-1.3158Z"/>
  <path fill="#EC9A5F" d="M17.1616 26.1646h.6805v.6578h-.6805v-.6578Zm.6805.6578h.6805v.6579h-.6805v-.6579Z"/>
  <path fill="#D7976A" d="M28.3899 13.2534h.6805v.6579h-.6805v-.6579Zm-.6804.6579h.6804v.6579h-.6804v-.6579Zm-7.7409-8.79948h.6804v.65789h-.6804v-.65789Zm-.6805.65789h.6805v.6579h-.6805v-.6579Z"/>
  <path fill="#FFB964" d="M12.2285 28.1382h.7655v.7401h-.7655v-.7401ZM1 28.1382h.76555v.7401H1v-.7401Z"/>
  <path fill="#CD6957" d="M3.80713 37.0198h.76552v.6579h-.76552v-.6579Z"/>
  <path fill="#C86156" d="M1 37.0198h.76555v.6579H1v-.6579Z"/>
  <path fill="#CD6957" d="M27.7095 36.2795h.6804v.7402h-.6804v-.7402Z"/>
  <path fill="#2C2828" d="M1.76562 36.2795h.68049v.7402h-.68049v-.7402Z"/>
  <path fill="#D47459" d="M1 35.6218h.76555v.6579H1v-.6579Z"/>
  <path fill="#CD6957" d="M1 34.9639h.76555v.6579H1v-.6579Z"/>
  <path fill="#C45B55" d="M24.1362 34.3059h.7656v.6579h-.7656v-.6579Zm0-2.0559h.7656v.6579h-.7656V32.25Z"/>
  <path fill="#DE845C" d="M12.2285 32.25h.7655v.6579h-.7655V32.25Z"/>
  <path fill="#C86156" d="M24.1362 31.592h.7656v.6579h-.7656v-.6579Zm11.2285-.7399h.6805v.7401h-.6805v-.7401Zm-11.2285-1.316h.7656v.6579h-.7656v-.6579Z"/>
  <path fill="#C15754" d="M24.1362 28.8784h.7656v.6579h-.7656v-.6579Z"/>
  <path fill="#EC9A5F" d="M1 28.8784h.76555v.6579H1v-.6579Z"/>
  <path fill="#DE845C" d="M26.2632 25.4243h.6805v.7402h-.6805v-.7402Zm-2.8071 12.9114h.6804v.6579h-.6804v-.6579Z"/>
  <path fill="#C45B55" d="M22.0952 38.3357h.6805v.6579h-.6805v-.6579Z"/>
  <path fill="#C86156" d="M20.6489 37.6777h.6805v.6579h-.6805v-.6579Z"/>
  <path fill="#CD6957" d="M1.76562 37.6777h.68049v.6579h-.68049v-.6579Z"/>
  <path fill="#7BAAB3" d="M20.6489 37.0198h.6805v.6579h-.6805v-.6579Z"/>
  <path fill="#BF5454" d="M19.2881 37.0198h.6805v.6579h-.6805v-.6579Z"/>
  <path fill="#DE845C" d="M4.57275 37.0198h.68048v.6579h-.68048v-.6579Zm25.94335-1.398h.6805v.6579h-.6805v-.6579Z"/>
  <path fill="#C86156" d="M16.481 35.6218h.6804v.6579h-.6804v-.6579Z"/>
  <path fill="#CD6957" d="M31.1968 34.9639h.6805v.6579h-.6805v-.6579Z"/>
  <path fill="#BE5254" d="M26.2632 34.9639h.6805v.6579h-.6805v-.6579Z"/>
  <path fill="#504A48" d="M8.74072 34.9639h.68048v.6579h-.68048v-.6579Z"/>
  <path fill="#5C460B" d="M1.76562 34.9639h.68049v.6579h-.68049v-.6579Z"/>
  <path fill="#FFB964" d="M33.3232 34.3059h.6805v.6579h-.6805v-.6579Z"/>
  <path fill="#D47459" d="M13.6738 34.3059h.6806v.6579h-.6806v-.6579Z"/>
  <path fill="#663524" d="M34.6841 32.908h.6805v.6579h-.6805v-.6579Z"/>
  <path fill="#C86156" d="M26.2632 32.908h.6805v.6579h-.6805v-.6579Z"/>
  <path fill="#5C460B" d="M1.76562 32.908h.68049v.6579h-.68049v-.6579Z"/>
  <path fill="#EC9A5F" d="M10.1865 32.25h.6805v.6579h-.6805V32.25Z"/>
  <path fill="#C86156" d="M26.2632 31.592h.6805v.6579h-.6805v-.6579Zm9.1015-2.0559h.6805v.6579h-.6805v-.6579Z"/>
  <path fill="#DE845C" d="M35.3647 27.4802h.6805v.6579h-.6805v-.6579Z"/>
  <path fill="#C86156" d="M26.2632 27.4802h.6805v.6579h-.6805v-.6579Z"/>
  <path fill="#5A552C" d="M1.76562 27.4802h.68049v.6579h-.68049v-.6579Z"/>
  <path fill="#CD6957" d="M35.3647 26.8225h.6805v.6579h-.6805v-.6579Z"/>
  <path fill="#D47459" d="M26.2632 26.1646h.6805v.6578h-.6805v-.6578Z"/>
  <path fill="#DE845C" d="M35.3647 24.7666h.6805v.6579h-.6805v-.6579Z"/>
  <path fill="#EC9A5F" d="M10.1865 24.7666h.6805v.6579h-.6805v-.6579Z"/>
  <path fill="#CD6957" d="M35.3647 24.1086h.6805v.6579h-.6805v-.6579Z"/>
  <path fill="#753027" d="M34.6841 16.625h.6805v.6579h-.6805v-.6579Z"/>
  <path fill="#191614" d="M9.42139 31.592h.08505v.0823h-.08505v-.0823Z"/>
  <path fill="#9C8B2A" d="M5.93359 28.8784h.08506v.0822h-.08506v-.0822Z"/>
  <path fill="#5C582D" d="M8.06006 28.1382h.08505v.0822h-.08505v-.0822Z"/>
  <path fill="#36351A" d="M1.76562 28.1382h.08507v.0822h-.08507v-.0822Zm0-1.3157h.08507v.0823h-.08507v-.0823Z"/>
  <path fill="#191614" d="M6.61426 25.4243h.08505v.0823h-.08505v-.0823Z"/>
  <path fill="#36351A" d="M1.76562 24.7666h.08507v.0823h-.08507v-.0823Zm.68067-.658h.08506v.0823h-.08506v-.0823Zm.68017-.6579h.08506v.0822h-.08506v-.0822Z"/>
  <path fill="#38351B" d="M9.42139 21.3948h.08505v.0822h-.08505v-.0822Z"/>
  <mask id="a" width="38" height="8" x=".649414" y="40.658" fill="#000" maskUnits="userSpaceOnUse">
    <path fill="#fff" d="M.649414 40.658h38v8h-38z"/>
    <path d="M1.64941 46.3141v-4.5934h.95545v1.7271h.02915c.04187-.0928.10243-.1869.18169-.2827.08074-.0971.18537-.1779.314-.2422.13005-.0658.29152-.0987.48442-.0987.25121 0 .48295.0658.69526.1974.21232.1301.38206.3267.50916.5899.12705.2616.19063.5898.19063.9846 0 .3842-.06205.7087-.18616.9733-.12263.2632-.29005.4628-.50242.5989-.21079.1346-.44705.2018-.70868.2018-.18542 0-.34316-.0306-.47326-.0919-.12858-.0613-.234-.1383-.31621-.231-.08227-.0942-.14507-.1892-.18843-.2849H2.5914v.5518h-.94199Zm.93526-1.7225c0 .2048.02841.3835.08523.536.05681.1525.13906.2714.24669.3566.10769.0838.23853.1256.39253.1256.15547 0 .28705-.0426.39474-.1278.10763-.0867.1891-.2064.24447-.3589.05679-.154.08521-.3311.08521-.5315 0-.1989-.02768-.3738-.083-.5248-.05532-.151-.13679-.2692-.24447-.3544-.10763-.0852-.23995-.1279-.39695-.1279-.15553 0-.28711.0411-.39474.1234-.10616.0822-.18767.1988-.24448.3499-.05682.151-.08523.329-.08523.5338Zm3.91982 3.0143c-.12111 0-.23474-.0097-.34095-.0291-.10463-.0179-.19137-.0412-.26016-.0696l.21532-.7132c.11216.0344.2131.0531.30279.0561.09121.003.16968-.0179.23547-.0628.06732-.0449.1219-.1211.16374-.2288l.0561-.1457-1.23579-3.5437h1.00474l.71326 2.5299h.03585l.71994-2.5299h1.01153l-1.33895 3.8173c-.06431.1854-.15179.3469-.26242.4844-.10916.1391-.24747.246-.41495.3207-.16742.0763-.36931.1144-.60552.1144Zm6.20791-1.2918-1.3546-4.5934h1.3905l.628 2.826h.0359l.7446-2.826h1.0945l.7446 2.835h.0359l.628-2.835h1.3905l-1.3546 4.5934h-1.1932l-.7805-2.5658h-.0359l-.7805 2.5658h-1.1932Zm8.8389-4.5934h1.247v2.9426c0 .3499-.0837.6527-.2512.9084-.1659.2542-.3977.4508-.6952.5898-.2976.1376-.643.2064-1.0363.2064-.3962 0-.7431-.0688-1.0406-.2064-.2976-.139-.5293-.3356-.6953-.5898-.1645-.2557-.2467-.5585-.2467-.9084v-2.9426h1.247v2.835c0 .1421.0314.2692.0942.3813.0628.1106.1496.1973.2602.2601.1121.0629.2392.0942.3812.0942.1436 0 .2707-.0313.3814-.0942.1106-.0628.1973-.1495.2601-.2601.0628-.1121.0942-.2392.0942-.3813v-2.835Zm6.6684 2.2967c0 .5114-.0994.9428-.2983 1.2941-.1989.3499-.4673.6153-.8052.7963-.3379.1794-.7147.2691-1.1303.2691-.4187 0-.797-.0905-1.1349-.2714-.3365-.1824-.6041-.4486-.803-.7985-.1974-.3514-.296-.7812-.296-1.2896 0-.5113.0986-.942.296-1.2919.1989-.3513.4665-.6168.803-.7962.3379-.1809.7162-.2713 1.1349-.2713.4156 0 .7924.0904 1.1303.2713.3379.1794.6063.4449.8052.7962.1989.3499.2983.7806.2983 1.2919Zm-1.2829 0c0-.2751-.0366-.5069-.1099-.6953-.0718-.1899-.1787-.3334-.3207-.4306-.1406-.0986-.314-.148-.5203-.148-.2064 0-.3806.0494-.5226.148-.1406.0972-.2475.2407-.3208.4306-.0717.1884-.1076.4202-.1076.6953s.0359.5077.1076.6975c.0733.1884.1802.332.3208.4306.142.0973.3162.1458.5226.1458.2063 0 .3797-.0485.5203-.1458.142-.0986.2489-.2422.3207-.4306.0733-.1898.1099-.4224.1099-.6975Zm1.8973-1.2919v-1.0048h3.9923v1.0048h-1.3816v3.5886h-1.2291v-3.5886h-1.3816Zm4.8405 3.5886v-4.5934h3.3104v1.0048h-2.0634v.7895h1.893v1.0048h-1.893v.7895h2.0545v1.0048h-3.3015Z"/>
  </mask>
  <path fill="#F2BB4E" d="M1.64941 46.3141v-4.5934h.95545v1.7271h.02915c.04187-.0928.10243-.1869.18169-.2827.08074-.0971.18537-.1779.314-.2422.13005-.0658.29152-.0987.48442-.0987.25121 0 .48295.0658.69526.1974.21232.1301.38206.3267.50916.5899.12705.2616.19063.5898.19063.9846 0 .3842-.06205.7087-.18616.9733-.12263.2632-.29005.4628-.50242.5989-.21079.1346-.44705.2018-.70868.2018-.18542 0-.34316-.0306-.47326-.0919-.12858-.0613-.234-.1383-.31621-.231-.08227-.0942-.14507-.1892-.18843-.2849H2.5914v.5518h-.94199Zm.93526-1.7225c0 .2048.02841.3835.08523.536.05681.1525.13906.2714.24669.3566.10769.0838.23853.1256.39253.1256.15547 0 .28705-.0426.39474-.1278.10763-.0867.1891-.2064.24447-.3589.05679-.154.08521-.3311.08521-.5315 0-.1989-.02768-.3738-.083-.5248-.05532-.151-.13679-.2692-.24447-.3544-.10763-.0852-.23995-.1279-.39695-.1279-.15553 0-.28711.0411-.39474.1234-.10616.0822-.18767.1988-.24448.3499-.05682.151-.08523.329-.08523.5338Zm3.91982 3.0143c-.12111 0-.23474-.0097-.34095-.0291-.10463-.0179-.19137-.0412-.26016-.0696l.21532-.7132c.11216.0344.2131.0531.30279.0561.09121.003.16968-.0179.23547-.0628.06732-.0449.1219-.1211.16374-.2288l.0561-.1457-1.23579-3.5437h1.00474l.71326 2.5299h.03585l.71994-2.5299h1.01153l-1.33895 3.8173c-.06431.1854-.15179.3469-.26242.4844-.10916.1391-.24747.246-.41495.3207-.16742.0763-.36931.1144-.60552.1144Zm6.20791-1.2918-1.3546-4.5934h1.3905l.628 2.826h.0359l.7446-2.826h1.0945l.7446 2.835h.0359l.628-2.835h1.3905l-1.3546 4.5934h-1.1932l-.7805-2.5658h-.0359l-.7805 2.5658h-1.1932Zm8.8389-4.5934h1.247v2.9426c0 .3499-.0837.6527-.2512.9084-.1659.2542-.3977.4508-.6952.5898-.2976.1376-.643.2064-1.0363.2064-.3962 0-.7431-.0688-1.0406-.2064-.2976-.139-.5293-.3356-.6953-.5898-.1645-.2557-.2467-.5585-.2467-.9084v-2.9426h1.247v2.835c0 .1421.0314.2692.0942.3813.0628.1106.1496.1973.2602.2601.1121.0629.2392.0942.3812.0942.1436 0 .2707-.0313.3814-.0942.1106-.0628.1973-.1495.2601-.2601.0628-.1121.0942-.2392.0942-.3813v-2.835Zm6.6684 2.2967c0 .5114-.0994.9428-.2983 1.2941-.1989.3499-.4673.6153-.8052.7963-.3379.1794-.7147.2691-1.1303.2691-.4187 0-.797-.0905-1.1349-.2714-.3365-.1824-.6041-.4486-.803-.7985-.1974-.3514-.296-.7812-.296-1.2896 0-.5113.0986-.942.296-1.2919.1989-.3513.4665-.6168.803-.7962.3379-.1809.7162-.2713 1.1349-.2713.4156 0 .7924.0904 1.1303.2713.3379.1794.6063.4449.8052.7962.1989.3499.2983.7806.2983 1.2919Zm-1.2829 0c0-.2751-.0366-.5069-.1099-.6953-.0718-.1899-.1787-.3334-.3207-.4306-.1406-.0986-.314-.148-.5203-.148-.2064 0-.3806.0494-.5226.148-.1406.0972-.2475.2407-.3208.4306-.0717.1884-.1076.4202-.1076.6953s.0359.5077.1076.6975c.0733.1884.1802.332.3208.4306.142.0973.3162.1458.5226.1458.2063 0 .3797-.0485.5203-.1458.142-.0986.2489-.2422.3207-.4306.0733-.1898.1099-.4224.1099-.6975Zm1.8973-1.2919v-1.0048h3.9923v1.0048h-1.3816v3.5886h-1.2291v-3.5886h-1.3816Zm4.8405 3.5886v-4.5934h3.3104v1.0048h-2.0634v.7895h1.893v1.0048h-1.893v.7895h2.0545v1.0048h-3.3015Z"/>
  <path stroke="#162748" stroke-width="2" d="M1.64941 46.3141v-4.5934h.95545v1.7271h.02915c.04187-.0928.10243-.1869.18169-.2827.08074-.0971.18537-.1779.314-.2422.13005-.0658.29152-.0987.48442-.0987.25121 0 .48295.0658.69526.1974.21232.1301.38206.3267.50916.5899.12705.2616.19063.5898.19063.9846 0 .3842-.06205.7087-.18616.9733-.12263.2632-.29005.4628-.50242.5989-.21079.1346-.44705.2018-.70868.2018-.18542 0-.34316-.0306-.47326-.0919-.12858-.0613-.234-.1383-.31621-.231-.08227-.0942-.14507-.1892-.18843-.2849H2.5914v.5518h-.94199Zm.93526-1.7225c0 .2048.02841.3835.08523.536.05681.1525.13906.2714.24669.3566.10769.0838.23853.1256.39253.1256.15547 0 .28705-.0426.39474-.1278.10763-.0867.1891-.2064.24447-.3589.05679-.154.08521-.3311.08521-.5315 0-.1989-.02768-.3738-.083-.5248-.05532-.151-.13679-.2692-.24447-.3544-.10763-.0852-.23995-.1279-.39695-.1279-.15553 0-.28711.0411-.39474.1234-.10616.0822-.18767.1988-.24448.3499-.05682.151-.08523.329-.08523.5338Zm3.91982 3.0143c-.12111 0-.23474-.0097-.34095-.0291-.10463-.0179-.19137-.0412-.26016-.0696l.21532-.7132c.11216.0344.2131.0531.30279.0561.09121.003.16968-.0179.23547-.0628.06732-.0449.1219-.1211.16374-.2288l.0561-.1457-1.23579-3.5437h1.00474l.71326 2.5299h.03585l.71994-2.5299h1.01153l-1.33895 3.8173c-.06431.1854-.15179.3469-.26242.4844-.10916.1391-.24747.246-.41495.3207-.16742.0763-.36931.1144-.60552.1144Zm6.20791-1.2918-1.3546-4.5934h1.3905l.628 2.826h.0359l.7446-2.826h1.0945l.7446 2.835h.0359l.628-2.835h1.3905l-1.3546 4.5934h-1.1932l-.7805-2.5658h-.0359l-.7805 2.5658h-1.1932Zm8.8389-4.5934h1.247v2.9426c0 .3499-.0837.6527-.2512.9084-.1659.2542-.3977.4508-.6952.5898-.2976.1376-.643.2064-1.0363.2064-.3962 0-.7431-.0688-1.0406-.2064-.2976-.139-.5293-.3356-.6953-.5898-.1645-.2557-.2467-.5585-.2467-.9084v-2.9426h1.247v2.835c0 .1421.0314.2692.0942.3813.0628.1106.1496.1973.2602.2601.1121.0629.2392.0942.3812.0942.1436 0 .2707-.0313.3814-.0942.1106-.0628.1973-.1495.2601-.2601.0628-.1121.0942-.2392.0942-.3813v-2.835Zm6.6684 2.2967c0 .5114-.0994.9428-.2983 1.2941-.1989.3499-.4673.6153-.8052.7963-.3379.1794-.7147.2691-1.1303.2691-.4187 0-.797-.0905-1.1349-.2714-.3365-.1824-.6041-.4486-.803-.7985-.1974-.3514-.296-.7812-.296-1.2896 0-.5113.0986-.942.296-1.2919.1989-.3513.4665-.6168.803-.7962.3379-.1809.7162-.2713 1.1349-.2713.4156 0 .7924.0904 1.1303.2713.3379.1794.6063.4449.8052.7962.1989.3499.2983.7806.2983 1.2919Zm-1.2829 0c0-.2751-.0366-.5069-.1099-.6953-.0718-.1899-.1787-.3334-.3207-.4306-.1406-.0986-.314-.148-.5203-.148-.2064 0-.3806.0494-.5226.148-.1406.0972-.2475.2407-.3208.4306-.0717.1884-.1076.4202-.1076.6953s.0359.5077.1076.6975c.0733.1884.1802.332.3208.4306.142.0973.3162.1458.5226.1458.2063 0 .3797-.0485.5203-.1458.142-.0986.2489-.2422.3207-.4306.0733-.1898.1099-.4224.1099-.6975Zm1.8973-1.2919v-1.0048h3.9923v1.0048h-1.3816v3.5886h-1.2291v-3.5886h-1.3816Zm4.8405 3.5886v-4.5934h3.3104v1.0048h-2.0634v.7895h1.893v1.0048h-1.893v.7895h2.0545v1.0048h-3.3015Z" mask="url(#a)"/>
</svg>
