<svg width="80" height="95" viewBox="0 0 80 95" fill="none" xmlns="http://www.w3.org/2000/svg">
<g clip-path="url(#clip0_426_2)">
<mask id="mask0_426_2" style="mask-type:luminance" maskUnits="userSpaceOnUse" x="0" y="0" width="80" height="95">
<path d="M80 0H0V95H80V0Z" fill="white"/>
</mask>
<g mask="url(#mask0_426_2)">
<path d="M50.5855 3.75H58.6663V5.15625H59.9592V11.5625H66.5855V12.8125H68.04V20.625H66.5855V21.875H59.9592V28.2812H58.6663V29.5312H55.9188V30.9375H54.6259V32.1875H53.3329V33.4375H52.04V34.6875H50.5855V36.0938H49.2925V37.3438H47.9996V38.5938H46.7067V39.8438H45.2521V41.25H43.9592V42.5H42.6663V43.75H41.3733V45H38.6259V43.75H37.3329V42.5H36.04V41.25H34.7471V39.8438H33.2925V38.5938H31.9996V37.3438H30.7067V36.0938H29.4137V34.6875H27.9592V33.4375H26.6663V32.1875H25.3733V30.9375H24.0804V29.5312H22.6259V28.2812H21.3329V25.7812H20.04V17.9688H21.3329V15.4688H22.6259V14.0625H24.0804V12.8125H26.6663V11.5625H34.7471V12.8125H36.04V14.0625H37.3329V15.4688H38.6259V16.7188H41.3733V12.8125H42.6663V11.5625H49.2925V5.15625H50.5855V3.75Z" fill="#F2BB4E"/>
<path d="M63.9998 30.9375H70.626V32.1875H71.9189V33.4375H73.2119V65.625H71.9189V67.0312H70.626V68.2812H68.0402V69.5312H63.9998V70.7812H59.9594V72.1875H55.9189V70.7812H54.626V38.5938H55.9189V37.3438H57.3735V36.0938H58.6664V34.6875H59.9594V33.4375H61.2523V32.1875H63.9998V30.9375Z" fill="#AE2431"/>
<path d="M15.9998 33.4375H20.0402V34.6875H21.3331V36.0938H22.626V37.3438H24.0806V38.5938H25.3735V68.2812H24.0806V69.5312H22.626V70.7812H20.0402V72.1875H15.9998V73.4375H11.9594V74.6875H8.08053V73.4375H6.62598V41.25H8.08053V39.8438H9.37346V38.5938H10.6664V37.3438H11.9594V36.0938H13.4139V34.6875H15.9998V33.4375Z" fill="#37351A"/>
<path d="M27.9595 42.5H29.414V43.75H30.707V45H31.9999V46.4062H33.2928V47.6562H34.7474V48.9062H36.0403V50.1562H37.3332V51.5625H38.6262V52.8125H41.3736V51.5625H42.6666V50.1562H43.9595V48.9062H45.2524V47.6562H46.707V46.4062H47.9999V45H49.2928V43.75H50.5858V42.5H52.0403V74.6875H50.5858V75.9375H46.707V74.6875H43.9595V73.4375H41.3736V72.1875H38.6262V70.7812H36.0403V69.5312H33.2928V68.2812H30.707V67.0312H27.9595V42.5Z" fill="#81B0D2"/>
<path d="M29.4139 16.7188H34.7472V17.9688H36.0401V19.2188H37.3331V20.625H38.626V21.875H49.2927V29.5312H47.9997V30.9375H46.7068V32.1875H47.9997V33.4375H46.7068V34.6875H45.2523V36.0938H43.9593V37.3438H42.6664V38.5938H41.3735V39.8438H38.626V38.5938H37.3331V37.3438H36.0401V36.0938H34.7472V34.6875H33.2927V33.4375H31.9997V32.1875H30.7068V30.9375H29.4139V29.5312H27.9593V28.2812H26.6664V27.0312H25.3735V20.625H26.6664V19.2188H27.9593V17.9688H29.4139V16.7188Z" fill="#F65858"/>
<path d="M65.2926 42.5H70.626V48.9062H68.0401V50.1562H62.7068V51.5625H61.2522V55.3125H59.9593V56.7188H61.2522V57.9688H59.9593V59.2188H61.2522V60.4688H62.7068V59.2188H65.2926V57.9688H70.626V56.7188H71.9189V65.625H70.626V68.2812H68.0401V69.5312H63.9997V70.7812H59.9593V72.1875H55.9189V46.4062H57.3734V45H61.2522V43.75H65.2926V42.5Z" fill="#4B2C33"/>
<path d="M47.9999 45H49.2929V46.4062H47.9999V45ZM46.707 46.4062H47.9999V47.6562H46.707V46.4062ZM45.2525 47.6562H46.707V48.9062H45.2525V47.6562ZM43.9595 48.9062H45.2525V50.1562H43.9595V48.9062ZM42.6666 50.1562H43.9595V51.5625H42.6666V50.1562ZM37.3333 51.5625H38.6262V52.8125H37.3333V51.5625ZM41.3737 51.5625H42.6666V52.8125H41.3737V51.5625ZM38.6262 52.8125H41.3737V54.0625H38.6262V52.8125ZM50.5858 42.5H52.0403V74.6875H50.5858V75.9375H46.707V74.6875H43.9595V73.4375H41.3737V72.1875H38.6262V70.7812H36.0403V69.5312H33.2929V68.2812H30.707V65.625H29.4141V59.2188H34.7474V60.4688H38.6262V61.875H39.9191V64.375H38.6262V65.625H39.9191V67.0312H45.2525V68.2812H49.2929V69.5312H50.5858V45H49.2929V43.75H50.5858V42.5Z" fill="#38597D"/>
<path d="M53.3332 6.40625H55.9191V7.65625H57.3736V12.8125H58.6665V14.0625H63.9999V15.4688H65.2928V17.9688H63.9999V19.2188H58.6665V20.625H57.3736V27.0312H53.3332V28.2812H52.0403V27.0312H50.5857V25.7812H52.0403V21.875H50.5857V20.625H49.2928V19.2188H46.7069V20.625H45.2524V19.2188H43.9595V17.9688H42.6665V16.7188H43.9595V15.4688H45.2524V14.0625H50.5857V12.8125H52.0403V7.65625H53.3332V6.40625Z" fill="white"/>
<path d="M17.2927 50.1562H20.0402V61.875H21.3331V63.125H22.6261V61.875H24.0806V68.2812H22.6261V69.5312H20.0402V70.7812H15.9998V72.1875H8.08057V63.125H11.9594V61.875H14.7069V60.4688H17.2927V56.7188H15.9998V57.9688H13.4139V56.7188H11.9594V55.3125H15.9998V54.0625H17.2927V50.1562Z" fill="#181614"/>
<path d="M26.6663 11.5625H34.7471V12.8125H36.04V14.0625H37.3329V15.4688H38.6259V16.7188H41.3733V19.2188H38.6259V17.9688H37.3329V16.7188H36.04V15.4688H33.2925V14.0625H27.9592V15.4688H25.3733V16.7188H24.0804V19.2188H22.6259V25.7812H24.0804V28.2812H25.3733V29.5312H26.6663V30.9375H27.9592V32.1875H29.4137V33.4375H30.7067V34.6875H31.9996V36.0938H33.2925V37.3438H34.7471V38.5938H36.04V39.8438H37.3329V41.25H38.6259V42.5H41.3733V41.25H42.6663V39.8438H43.9592V38.5938H45.2521V37.3438H46.7067V36.0938H47.9996V34.6875H49.2925V33.4375H50.5855V32.1875H52.04V30.9375H53.3329V29.5312H55.9188V30.9375H54.6259V32.1875H53.3329V33.4375H52.04V34.6875H50.5855V36.0938H49.2925V37.3438H47.9996V38.5938H46.7067V39.8438H45.2521V41.25H43.9592V42.5H42.6663V43.75H41.3733V45H38.6259V43.75H37.3329V42.5H36.04V41.25H34.7471V39.8438H33.2925V38.5938H31.9996V37.3438H30.7067V36.0938H29.4137V34.6875H27.9592V33.4375H26.6663V32.1875H25.3733V30.9375H24.0804V29.5312H22.6259V28.2812H21.3329V25.7812H20.04V17.9688H21.3329V15.4688H22.6259V14.0625H24.0804V12.8125H26.6663V11.5625Z" fill="#826855"/>
<path d="M15.9998 33.4375H20.0402V34.6875H15.9998V33.4375ZM13.4139 34.6875H15.9998V36.0938H13.4139V34.6875ZM20.0402 34.6875H21.3331V36.0938H20.0402V34.6875ZM11.9594 36.0938H13.4139V37.3438H11.9594V36.0938ZM21.3331 36.0938H22.626V37.3438H21.3331V36.0938ZM10.6664 37.3438H11.9594V38.5938H10.6664V37.3438ZM22.626 37.3438H24.0806V38.5938H22.626V37.3438ZM9.37346 38.5938H10.6664V39.8438H9.37346V38.5938ZM24.0806 38.5938H25.3735V68.2812H24.0806V38.5938ZM8.08053 39.8438H9.37346V41.25H8.08053V39.8438ZM6.62598 41.25H8.08053V59.2188H11.9594V57.9688H15.9998V56.7188H17.2927V60.4688H14.7068V61.875H11.9594V63.125H8.08053V72.1875H15.9998V73.4375H11.9594V74.6875H8.08053V73.4375H6.62598V41.25ZM22.626 68.2812H24.0806V69.5312H22.626V68.2812ZM20.0402 69.5312H22.626V70.7812H20.0402V69.5312ZM15.9998 70.7812H20.0402V72.1875H15.9998V70.7812Z" fill="#D47459"/>
<path d="M65.2926 42.5H70.626V48.9062H68.0401V50.1562H62.7068V51.5625H59.9593V54.0625H55.9189V46.4062H57.3734V45H61.2522V43.75H65.2926V42.5Z" fill="#30232A"/>
<path d="M15.9998 34.6875H20.0402V36.0938H21.3331V37.3438H22.6261V38.5938H24.0806V42.5H22.6261V43.75H20.0402V41.25H15.9998V42.5H13.4139V45H11.9594V46.4062H10.6665V47.6562H9.3735V48.9062H8.08057V41.25H9.3735V39.8438H10.6665V38.5938H11.9594V37.3438H13.4139V36.0938H15.9998V34.6875Z" fill="#161616"/>
<path d="M63.9998 30.9375H70.626V32.1875H63.9998V30.9375ZM61.2523 32.1875H63.9998V33.4375H61.2523V32.1875ZM70.626 32.1875H71.9189V33.4375H70.626V32.1875ZM59.9594 33.4375H61.2523V34.6875H59.9594V33.4375ZM71.9189 33.4375H73.2119V65.625H71.9189V33.4375ZM58.6664 34.6875H59.9594V36.0938H58.6664V34.6875ZM57.3735 36.0938H58.6664V37.3438H57.3735V36.0938ZM55.9189 37.3438H57.3735V38.5938H55.9189V37.3438ZM54.626 38.5938H55.9189V70.7812H54.626V38.5938ZM70.626 65.625H71.9189V67.0312H70.626V65.625Z" fill="#FFB964"/>
<path d="M68.0403 48.9062H71.9191V56.7188H70.6262V57.9688H65.2928V59.2188H62.707V60.4688H61.2524V59.2188H59.9595V57.9688H61.2524V56.7188H59.9595V55.3125H61.2524V51.5625H62.707V50.1562H68.0403V48.9062Z" fill="#A92531"/>
<path d="M50.5856 3.75H58.6664V5.15625H59.9593V11.5625H66.5856V12.8125H68.0401V15.4688H66.7472V15.625H66.5856V15.4688H65.2927V14.0625H63.9997V12.8125H58.6664V7.65625H57.3735V6.40625H55.9189V5.15625H53.3331V6.40625H52.0401V12.8125H50.5856V14.0625H45.2523V15.4688H43.9593V16.7188H42.6664V15.4688H41.3735V12.8125H42.6664V11.5625H49.2927V5.15625H50.5856V3.75Z" fill="#FFD88B"/>
<path d="M29.4139 16.7188H34.7472V17.9688H36.0401V19.2188H37.3331V20.625H38.626V21.875H42.6664V23.125H41.3735V24.375H38.626V23.125H37.3331V21.875H36.0401V20.625H34.7472V19.2188H29.4139V20.625H27.9593V21.875H26.6664V25.7812H27.9593V27.0312H29.4139V28.2812H30.7068V29.5312H31.9997V30.9375H33.2927V32.1875H34.7472V33.4375H36.0401V34.6875H37.3331V36.0938H38.626V37.3438H42.6664V38.5938H41.3735V39.8438H38.626V38.5938H37.3331V37.3438H36.0401V36.0938H34.7472V34.6875H33.2927V33.4375H31.9997V32.1875H30.7068V30.9375H29.4139V29.5312H27.9593V28.2812H26.6664V27.0312H25.3735V20.625H26.6664V19.2188H27.9593V17.9688H29.4139V16.7188Z" fill="#AA7A57"/>
<path d="M53.3329 5.15625H55.9188V6.40625H53.3329V5.15625ZM52.04 6.40625H53.3329V7.65625H52.04V6.40625ZM55.9188 6.40625H57.3733V7.65625H55.9188V6.40625ZM57.3733 7.65625H58.6663V12.8125H57.3733V7.65625ZM58.6663 12.8125H63.9996V14.0625H58.6663V12.8125ZM63.9996 14.0625H65.2925V15.4688H63.9996V14.0625ZM65.2925 15.4688H66.5855V15.625H66.7471V15.4688H68.04V20.625H66.5855V21.875H59.9592V28.2812H58.6663V29.5312H55.9188V28.2812H53.3329V27.0312H57.3733V20.625H58.6663V19.2188H63.9996V17.9688H65.2925V15.4688Z" fill="#FFD88B"/>
<path d="M29.414 19.2188H31.9999V20.625H30.7069V21.875H29.414V23.125H27.9595V24.375H29.414V25.7812H30.7069V27.0312H31.9999V28.2812H33.2928V29.5312H34.7473V30.9375H36.0403V32.1875H37.3332V33.4375H38.6261V34.6875H41.3736V33.4375H42.6665V32.1875H43.9595V30.9375H45.2524V29.5312H46.7069V28.2812H47.9999V27.0312H49.2928V29.5312H47.9999V30.9375H46.7069V32.1875H47.9999V33.4375H46.7069V34.6875H45.2524V36.0938H43.9595V37.3438H38.6261V36.0938H37.3332V34.6875H36.0403V33.4375H34.7473V32.1875H33.2928V30.9375H31.9999V29.5312H30.7069V28.2812H29.414V27.0312H27.9595V25.7812H26.6665V21.875H27.9595V20.625H29.414V19.2188Z" fill="#DB5656"/>
<path d="M15.9998 33.4375H20.0402V34.6875H15.9998V33.4375ZM13.4139 34.6875H15.9998V36.0938H13.4139V34.6875ZM20.0402 34.6875H21.3331V36.0938H20.0402V34.6875ZM11.9594 36.0938H13.4139V37.3438H11.9594V36.0938ZM21.3331 36.0938H22.626V37.3438H21.3331V36.0938ZM10.6664 37.3438H11.9594V38.5938H10.6664V37.3438ZM22.626 37.3438H24.0806V38.5938H22.626V37.3438ZM9.37346 38.5938H10.6664V39.8438H9.37346V38.5938ZM24.0806 38.5938H25.3735V63.125H24.0806V38.5938ZM8.08053 39.8438H9.37346V41.25H8.08053V39.8438ZM6.62598 41.25H8.08053V60.4688H6.62598V41.25Z" fill="#FFB964"/>
<path d="M27.9594 14.0625H30.7068V16.7188H29.4139V17.9688H27.9594V19.2188H26.6664V20.625H25.3735V27.0312H26.6664V28.2812H27.9594V29.5312H29.4139V30.9375H30.7068V32.1875H31.9998V33.4375H33.2927V34.6875H34.7472V36.0938H36.0402V37.3438H37.3331V38.5938H38.626V39.8438H36.0402V38.5938H34.7472V37.3438H33.2927V36.0938H31.9998V34.6875H30.7068V33.4375H29.4139V32.1875H27.9594V30.9375H26.6664V29.5312H25.3735V28.2812H24.0806V25.7812H22.626V19.2188H24.0806V16.7188H25.3735V15.4688H27.9594V14.0625Z" fill="#F2BB4E"/>
<path d="M50.5855 42.5H52.04V74.6875H50.5855V45H49.2926V43.75H50.5855V42.5ZM47.9996 45H49.2926V46.4062H47.9996V45ZM46.7067 46.4062H47.9996V47.6562H46.7067V46.4062ZM45.2522 47.6562H46.7067V48.9062H45.2522V47.6562ZM43.9592 48.9062H45.2522V50.1562H43.9592V48.9062ZM42.6663 50.1562H43.9592V51.5625H42.6663V50.1562ZM37.333 51.5625H38.6259V52.8125H37.333V51.5625ZM41.3734 51.5625H42.6663V52.8125H41.3734V51.5625ZM38.6259 52.8125H41.3734V54.0625H38.6259V52.8125Z" fill="#BE5254"/>
<path d="M49.2928 45H50.5858V59.2188H47.9999V57.9688H45.2524V54.0625H43.9595V52.8125H45.2524V48.9062H46.707V47.6562H47.9999V46.4062H49.2928V45Z" fill="#A6C2D8"/>
<path d="M49.2926 27.0312H50.5855V28.2812H52.04V28.4375H52.2017V28.2812H55.9188V29.5312H53.333V30.9375H52.04V32.1875H50.5855V33.4375H49.2926V34.6875H47.9996V36.0938H46.7067V37.3438H45.2522V38.5938H43.9592V39.8438H42.6663V41.25H41.3734V42.5H38.6259V41.25H37.333V39.8438H41.3734V38.5938H42.6663V37.3438H43.9592V36.0938H45.2522V34.6875H46.7067V33.4375H47.9996V32.1875H46.7067V30.9375H47.9996V29.5312H49.2926V27.0312Z" fill="#F2BB4E"/>
<path d="M39.9189 61.875H43.9594V63.125H49.2927V64.375H50.5856V69.5312H49.2927V68.2812H45.2523V67.0312H39.9189V65.625H38.626V64.375H39.9189V61.875Z" fill="#A6C2D8"/>
<path d="M53.333 29.5312H55.9189V30.9375H54.6259V32.1875H53.333V33.4375H52.0401V34.6875H50.5855V36.0938H49.2926V37.3438H47.9997V38.5938H46.7067V39.8438H45.2522V41.25H43.9593V42.5H42.6663V43.75H41.3734V45H38.6259V43.75H37.333V42.5H36.0401V41.25H34.7471V39.8438H37.333V41.25H38.6259V42.5H41.3734V41.25H42.6663V39.8438H43.9593V38.5938H45.2522V37.3438H46.7067V36.0938H47.9997V34.6875H49.2926V33.4375H50.5855V32.1875H52.0401V30.9375H53.333V29.5312Z" fill="#826855"/>
<path d="M29.4141 59.2188H34.7474V60.4688H38.6262V61.875H39.9191V64.375H38.6262V65.625H34.7474V64.375H30.707V63.125H29.4141V59.2188Z" fill="#5983A0"/>
<path d="M22.6262 64.375H24.0807V68.2812H22.6262V69.5312H20.0403V70.7812H15.9999V72.1875H13.414V70.7812H11.9595V69.5312H13.414V68.2812H14.707V67.0312H17.2928V65.625H22.6262V64.375Z" fill="#38351B"/>
<path d="M27.9595 42.5H29.414V43.75H30.707V45H29.414V65.625H30.707V67.0312H27.9595V42.5ZM30.707 45H31.9999V46.4062H30.707V45ZM31.9999 46.4062H33.2928V47.6562H31.9999V46.4062ZM33.2928 47.6562H34.7474V48.9062H33.2928V47.6562ZM34.7474 48.9062H36.0403V50.1562H34.7474V48.9062ZM36.0403 50.1562H37.3332V51.5625H36.0403V50.1562Z" fill="#EC9A5F"/>
<path d="M11.9594 37.3438H13.4139V38.5938H11.9594V37.3438ZM10.6665 38.5938H11.9594V39.8438H13.4139V45H11.9594V46.4062H10.6665V47.6562H9.3735V48.9062H8.08057V41.25H9.3735V39.8438H10.6665V38.5938Z" fill="#181614"/>
<path d="M59.9593 51.5625H61.2522V55.3125H59.9593V56.7188H61.2522V57.9688H59.9593V59.2188H61.2522V60.4688H58.6664V61.875H55.9189V54.0625H59.9593V51.5625Z" fill="#7E312C"/>
<path d="M63.9997 32.1875H70.626V33.4375H71.9189V34.6875H66.5856V36.0938H62.7068V37.3438H58.6664V36.0938H59.9593V34.6875H61.2523V33.4375H63.9997V32.1875ZM57.3735 37.3438H58.6664V38.5938H57.3735V37.3438Z" fill="#9A2A2F"/>
<path d="M26.6665 27.0312H29.414V28.2812H30.7069V29.5312H31.9999V30.9375H33.2928V32.1875H34.7473V33.4375H36.0403V34.6875H37.3332V36.0938H38.6261V37.3438H42.6665V38.5938H41.3736V39.8438H38.6261V38.5938H37.3332V37.3438H36.0403V36.0938H34.7473V34.6875H33.2928V33.4375H31.9999V32.1875H30.7069V30.9375H29.414V29.5312H27.9595V28.2812H26.6665V27.0312Z" fill="#864A39"/>
<path d="M22.6259 25.7812H24.0804V28.2812H25.3734V29.5312H26.6663V30.9375H27.9592V32.1875H29.4138V33.4375H30.7067V34.6875H31.9996V36.0938H33.2926V37.3438H34.7471V38.5938H36.04V39.8438H33.2926V38.5938H31.9996V37.3438H30.7067V36.0938H29.4138V34.6875H27.9592V33.4375H26.6663V32.1875H25.3734V30.9375H24.0804V29.5312H22.6259V28.2812H21.333V27.0312H22.6259V25.7812Z" fill="#AA7A57"/>
<path d="M58.6664 37.3438H61.2522V39.8438H59.9593V42.5H61.2522V43.75H59.9593V45H57.3734V46.4062H55.9189V38.5938H58.6664V37.3438Z" fill="#A22730"/>
<path d="M68.0401 64.375H70.626V68.2812H68.0401V69.5312H63.9997V70.7812H59.9593V69.5312H61.2522V68.2812H63.9997V67.0312H68.0401V64.375ZM55.9189 70.7812H59.9593V72.1875H55.9189V70.7812Z" fill="#432930"/>
<path d="M15.9998 56.7188H17.2927V60.4688H14.7069V61.875H11.9594V63.125H8.08057V59.2188H11.9594V57.9688H15.9998V56.7188Z" fill="#9C8A29"/>
<path d="M29.4141 45H30.707V46.4062H31.9999V47.6562H33.2929V48.9062H34.7474V50.1562H33.2929V54.0625H29.4141V45ZM33.2929 54.0625H34.7474V55.3125H33.2929V54.0625Z" fill="#38597D"/>
<path d="M71.9189 45H73.2119V65.625H71.9189V45ZM70.626 65.625H71.9189V67.0312H70.626V65.625Z" fill="#D47459"/>
<path d="M20.04 55.3125H24.0804V61.875H22.6259V63.125H21.3329V61.875H20.04V55.3125Z" fill="#5C572D"/>
<path d="M26.6665 29.5312H29.414V30.9375H30.7069V32.1875H31.9999V33.4375H33.2928V34.6875H34.7473V36.0938H36.0403V37.3438H37.3332V38.5938H38.6261V39.8438H36.0403V38.5938H34.7473V37.3438H33.2928V36.0938H31.9999V34.6875H30.7069V33.4375H29.414V32.1875H27.9595V30.9375H26.6665V29.5312Z" fill="#FFF4DE"/>
<path d="M54.626 50.1562H55.9189V70.7812H54.626V50.1562Z" fill="#CD6957"/>
<path d="M50.5855 42.5H52.04V48.9062H50.5855V45H49.2926V43.75H50.5855V42.5ZM47.9996 45H49.2926V46.4062H47.9996V45ZM46.7067 46.4062H47.9996V47.6562H46.7067V46.4062ZM45.2522 47.6562H46.7067V48.9062H45.2522V47.6562ZM43.9592 48.9062H45.2522V50.1562H43.9592V48.9062ZM42.6663 50.1562H43.9592V51.5625H42.6663V50.1562ZM37.333 51.5625H38.6259V52.8125H37.333V51.5625ZM41.3734 51.5625H42.6663V52.8125H41.3734V51.5625ZM38.6259 52.8125H41.3734V54.0625H38.6259V52.8125Z" fill="#FFB964"/>
<path d="M53.3329 5.15625H55.9188V6.40625H53.3329V5.15625ZM52.04 6.40625H53.3329V7.65625H52.04V6.40625ZM55.9188 6.40625H57.3733V7.65625H55.9188V6.40625ZM57.3733 7.65625H58.6663V12.8125H57.3733V7.65625ZM58.6663 12.8125H63.9996V14.0625H58.6663V12.8125ZM63.9996 14.0625H65.2925V15.4688H63.9996V14.0625ZM65.2925 15.4688H66.5855V17.9688H65.2925V15.4688Z" fill="#F2BB4E"/>
<path d="M58.8281 7.65625H59.9595V11.5625H66.5857V12.8125H68.0403V15.4688H66.7473V15.625H66.5857V15.4688H65.2928V14.0625H63.9999V12.8125H58.6665V7.8125H58.8281V7.65625Z" fill="#FFD88B"/>
<path d="M27.9595 42.5H29.414V43.75H30.707V45H29.414V51.5625H27.9595V42.5ZM30.707 45H31.9999V46.4062H30.707V45ZM31.9999 46.4062H33.2928V47.6562H31.9999V46.4062ZM33.2928 47.6562H34.7474V48.9062H33.2928V47.6562ZM34.7474 48.9062H36.0403V50.1562H34.7474V48.9062ZM36.0403 50.1562H37.3332V51.5625H36.0403V50.1562Z" fill="#FFB964"/>
<path d="M24.0807 63.125H25.3736V68.2812H24.0807V63.125ZM22.6262 68.2812H24.0807V69.5312H22.6262V68.2812ZM20.0403 69.5312H22.6262V70.7812H20.0403V69.5312ZM15.9999 70.7812H20.0403V72.1875H15.9999V70.7812ZM11.9595 72.1875H15.9999V73.4375H11.9595V72.1875Z" fill="#CD6957"/>
<path d="M33.293 16.7188H34.7475V17.9688H36.0404V19.2188H37.3334V20.625H38.6263V21.875H42.6667V23.125H41.3738V24.375H38.6263V23.125H37.3334V21.875H36.0404V20.625H34.7475V19.2188H33.293V16.7188Z" fill="#AA7A57"/>
<path d="M33.293 50.1562H36.0404V51.5625H37.3334V52.8125H38.6263V54.0625H39.9192V55.3125H34.7475V54.0625H33.293V50.1562Z" fill="#A6C2D8"/>
<path d="M14.707 67.0312H17.2928V69.5312H20.0403V70.7812H15.9999V72.1876H13.414V70.7812H11.9595V69.5312H13.414V68.2812H14.707V67.0312Z" fill="#494440"/>
<path d="M29.4141 54.0625H33.2929V57.9688H34.7474V59.2188H29.4141V54.0625Z" fill="#7BAAB3"/>
<path d="M6.62598 46.4062H8.08053V60.4688H6.62598V46.4062Z" fill="#EC9A5F"/>
<path d="M66.5856 19.2188H68.0401V20.625H66.5856V19.2188ZM59.9593 20.625H66.5856V21.875H59.9593V20.625ZM58.6664 21.875H59.9593V28.2812H58.6664V21.875ZM57.3735 28.2812H58.6664V29.5312H57.3735V28.2812Z" fill="#F2BB4E"/>
<path d="M50.5856 3.75H52.0401V5.15625H50.5856V3.75ZM49.2927 5.15625H50.5856V11.5625H49.2927V5.15625ZM42.6664 11.5625H49.2927V12.8125H42.6664V11.5625ZM41.3735 12.8125H42.6664V14.0625H41.3735V12.8125Z" fill="#F2BB4E"/>
<path d="M24.0806 48.9062H25.3735V63.125H24.0806V48.9062Z" fill="#DE845C"/>
<path d="M42.6663 21.875H45.2522V23.125H43.9592V24.375H42.6663V25.7812H41.3734V27.0312H38.6259V25.7812H37.333V24.375H41.3734V23.125H42.6663V21.875Z" fill="#DB5656"/>
<path d="M34.7471 39.8438H37.333V41.25H38.6259V42.5H42.6663V43.75H41.3734V45H38.6259V43.75H37.333V42.5H36.0401V41.25H34.7471V39.8438Z" fill="#675243"/>
<path d="M30.7065 14.0625H33.2924V15.4688H36.0399V16.7188H37.3328V17.9688H38.6257V19.2188H36.0399V17.9688H34.7469V16.7188H30.7065V14.0625Z" fill="#FFD88B"/>
<path d="M14.707 47.6562H17.2928V51.5625H13.414V50.1562H11.9595V48.9062H14.707V47.6562Z" fill="#5B562C"/>
<path d="M50.5854 48.9062H52.0401V59.2188H50.5854V48.9062Z" fill="#C86156"/>
<path d="M37.333 19.2188H42.6663V20.625H43.9592V21.875H38.6259V20.625H37.333V19.2188Z" fill="#D7976A"/>
<path d="M32 19.2188H34.7475V20.625H36.0404V21.875H37.3333V23.125H38.6263V24.375H36.0404V23.125H34.7475V21.875H33.2929V20.625H32V19.2188Z" fill="#FF8181"/>
<path d="M45.2523 32.1875H47.9997V33.4375H46.7068V34.6875H45.2523V36.0938H43.9593V37.3438H41.3735V36.0938H42.6664V34.6875H43.9593V33.4375H45.2523V32.1875Z" fill="#A65F4C"/>
<path d="M49.2924 27.0312H50.5853V28.2812H52.0399V29.5312H50.5853V30.9375H49.2924V32.1875H46.7065V30.9375H47.9995V29.5312H49.2924V27.0312Z" fill="#D7976A"/>
<path d="M71.9189 57.9688H73.2119V65.625H71.9189V57.9688ZM70.626 65.625H71.9189V67.0311H70.626V65.625Z" fill="#CD6957"/>
<path d="M70.626 39.8438H71.9189V48.9062H70.626V39.8438Z" fill="#B12232"/>
<path d="M70.626 56.7188H71.9189V65.625H70.626V56.7188Z" fill="#753027"/>
<path d="M71.9189 36.0938H73.2118V45H71.9189V36.0938Z" fill="#EC9A5F"/>
<path d="M37.333 39.8438H42.6663V41.25H41.3734V42.5H38.6259V41.25H37.333V39.8438Z" fill="#D7976A"/>
<path d="M59.9593 69.5312H63.9997V70.7812H59.9593V69.5312ZM55.9189 70.7812H59.9593V72.1876H55.9189V70.7812Z" fill="#D47459"/>
<path d="M41.3735 15.4688H42.6664V17.9688H43.9593V19.2188H45.2523V20.625H44.121V20.7812H43.9593V20.625H42.6664V19.2188H41.3735V15.4688Z" fill="#F2BB4E"/>
<path d="M70.626 48.9062H71.9189V56.7188H70.626V48.9062Z" fill="#932B2D"/>
<path d="M37.333 21.875H42.6663V23.125H41.3734V24.375H38.6259V23.125H37.333V21.875Z" fill="#A65F4C"/>
<path d="M49.2924 45H50.5853V48.9062H46.7065V47.6562H47.9995V46.4062H49.2924V45Z" fill="#81B0D2"/>
<path d="M15.9999 70.7812H18.7474V72.1876H15.9999V70.7812ZM11.9595 72.1876H15.9999V73.4376H11.9595V72.1876Z" fill="#D47459"/>
<path d="M64 11.5625H66.5859V12.8125H68.0404V15.4688H66.5859V14.0625H65.2929V12.8125H64V11.5625Z" fill="#FFF4DE"/>
<path d="M55.9189 3.75H58.6664V5.15625H59.9593V7.65625H58.6664V6.40625H57.3734V5.15625H55.9189V3.75Z" fill="#FFF4DE"/>
<path d="M15.9999 69.5312H20.0403V70.7812H15.9999V69.5312ZM13.4141 70.7812H15.9999V72.1876H13.4141V70.7812Z" fill="#4F4947"/>
<path d="M25.3735 21.875H26.6664V25.7812H27.9593V27.0312H25.3735V21.875Z" fill="#A65F4C"/>
<path d="M25.3735 15.4688H27.9594V16.7188H26.6665V17.9688H25.3735V19.2188H24.0806V16.7188H25.3735V15.4688Z" fill="#D7976A"/>
<path d="M27.9595 63.125H29.414V65.625H30.707V67.0312H27.9595V63.125Z" fill="#CD6957"/>
<path d="M50.5854 59.2188H52.0401V64.375H50.5854V59.2188Z" fill="#C45B55"/>
<path d="M27.9595 51.5625H29.414V56.7188H27.9595V51.5625Z" fill="#EC9A5F"/>
<path d="M32 37.3438H34.7475V38.5938H36.0404V39.8438H33.2929V38.5938H32V37.3438Z" fill="#826855"/>
<path d="M21.3329 23.125H22.6259V27.0312H21.3329V25.7812H20.04V24.375H21.3329V23.125Z" fill="#675243"/>
<path d="M54.626 65.625H55.9189V70.7812H54.626V65.625Z" fill="#C15754"/>
<path d="M24.0806 57.9688H25.3735V63.125H24.0806V57.9688Z" fill="#FFB964"/>
<path d="M70.626 34.6875H71.9189V39.8438H70.626V34.6875Z" fill="#A72530"/>
<path d="M34.7471 37.3438H37.333V38.5938H38.6259V39.8438H36.0401V38.5938H34.7471V37.3438Z" fill="#FFD88B"/>
<path d="M24.0806 27.0312H26.6665V28.2812H27.9594V29.5312H25.3735V28.2812H24.0806V27.0312Z" fill="#FFD88B"/>
<path d="M30.7065 16.7188H33.2924V19.2188H30.7065V16.7188Z" fill="#A65F4C"/>
<path d="M50.5854 64.375H52.0401V68.2812H50.5854V64.375Z" fill="#C15754"/>
<path d="M50.5854 48.9062H52.0401V52.8125H50.5854V48.9062Z" fill="#DE845C"/>
<path d="M50.5854 21.875H52.0401V25.7812H50.5854V21.875Z" fill="#FFD88B"/>
<path d="M22.626 24.375H25.3735V27.0312H24.0806V25.7812H22.626V24.375Z" fill="#D7976A"/>
<path d="M6.62598 56.7188H8.08053V60.4688H6.62598V56.7188Z" fill="#DE845C"/>
<path d="M42.6665 16.7188H43.9595V17.9688H42.6665V16.7188ZM43.9595 17.9688H45.2524V19.2188H43.9595V17.9688ZM45.2524 19.2188H46.7069V20.625H45.2524V19.2188Z" fill="#FFF4DE"/>
<path d="M55.9189 69.5312H59.9593V70.7812H55.9189V69.5312Z" fill="#30232A"/>
<path d="M64 68.2812H68.0404V69.5312H64V68.2812Z" fill="#DE845C"/>
<path d="M24.0806 54.0625H25.3735V57.9688H24.0806V54.0625Z" fill="#EC9A5F"/>
<path d="M54.626 50.1562H55.9189V54.0625H54.626V50.1562Z" fill="#CD6957"/>
<path d="M71.9189 45H73.2118V48.9062H71.9189V45Z" fill="#D47459"/>
<path d="M59.9593 34.6875H61.2523V36.0938H59.9593V34.6875ZM58.6664 36.0938H59.9593V37.3438H58.6664V36.0938ZM57.3735 37.3438H58.6664V38.5938H57.3735V37.3438Z" fill="#753027"/>
<path d="M46.7065 74.6875H50.5853V75.9375H46.7065V74.6875Z" fill="#D47459"/>
<path d="M46.7065 73.4375H50.5853V74.6875H46.7065V73.4375Z" fill="#7BAAB3"/>
<path d="M8.08057 73.4375H11.9594V74.6875H8.08057V73.4375Z" fill="#DE845C"/>
<path d="M8.08057 72.1875H11.9594V73.4375H8.08057V72.1875Z" fill="#6D6260"/>
<path d="M54.626 61.875H55.9189V65.625H54.626V61.875Z" fill="#C45B55"/>
<path d="M55.9189 70.7812H58.6664V72.1876H55.9189V70.7812Z" fill="#C86156"/>
<path d="M38.626 70.7812H41.3735V72.1876H38.626V70.7812Z" fill="#C86156"/>
<path d="M6.62598 70.7812H8.08053V73.4376H6.62598V70.7812Z" fill="#C45B55"/>
<path d="M66.5859 19.2188H68.0404V20.625H66.5859V19.2188ZM65.293 20.625H66.5859V21.875H65.293V20.625Z" fill="#D7976A"/>
<path d="M50.5859 3.75H52.0404V5.15625H50.5859V3.75ZM49.293 5.15625H50.5859V6.40625H49.293V5.15625Z" fill="#D7976A"/>
<path d="M50.5854 72.1875H52.0401V74.6875H50.5854V72.1875Z" fill="#C15754"/>
<path d="M27.9595 63.125H29.414V65.625H27.9595V63.125Z" fill="#D47459"/>
<path d="M50.5854 52.8125H52.0401V55.3125H50.5854V52.8125Z" fill="#CD6957"/>
<path d="M49.293 19.2188H50.5859V20.625H49.293V19.2188ZM50.5859 20.625H52.0404V21.875H50.5859V20.625Z" fill="#FFF4DE"/>
<path d="M46.7065 19.2188H49.2924V20.625H46.7065V19.2188Z" fill="#FFD88B"/>
<path d="M43.9595 73.4375H46.707V74.6875H43.9595V73.4375Z" fill="#C15754"/>
<path d="M33.293 68.2812H36.0404V69.5312H33.293V68.2812Z" fill="#D47459"/>
<path d="M71.9189 64.375H73.2119V65.625H71.9189V64.375ZM70.626 65.625H71.9189V67.0312H70.626V65.625Z" fill="#D47459"/>
<path d="M71.9189 55.3125H73.2118V57.9688H71.9189V55.3125Z" fill="#D47459"/>
<path d="M54.626 54.0625H55.9189V56.7188H54.626V54.0625Z" fill="#C45B55"/>
<path d="M8.08057 50.1562H9.3735V52.8125H8.08057V50.1562Z" fill="#5A552C"/>
<path d="M50.5854 25.7812H52.0401V27.0312H50.5854V25.7812ZM52.0401 27.0312H53.333V28.2812H52.0401V27.0312Z" fill="#FFF4DE"/>
<path d="M42.6665 17.9688H43.9595V19.2188H42.6665V17.9688ZM43.9595 19.2188H45.2524V20.625H43.9595V19.2188Z" fill="#FFD88B"/>
<path d="M65.293 11.5625H66.5859V12.8125H65.293V11.5625ZM66.5859 12.8125H68.0404V14.0625H66.5859V12.8125Z" fill="#D7976A"/>
<path d="M57.3735 3.75H58.6664V5.15625H57.3735V3.75ZM58.6664 5.15625H59.9593V6.40625H58.6664V5.15625Z" fill="#D7976A"/>
<path d="M41.3735 72.1875H43.9593V73.4375H41.3735V72.1875Z" fill="#C15754"/>
<path d="M54.626 68.2812H55.9189V70.7812H54.626V68.2812Z" fill="#BF5454"/>
<path d="M36.04 69.5312H38.6259V70.7812H36.04V69.5312Z" fill="#CD6957"/>
<path d="M68.04 67.0312H70.6259V68.2812H68.04V67.0312Z" fill="#DE845C"/>
<path d="M30.7065 67.0312H33.2924V68.2812H30.7065V67.0312Z" fill="#CD6957"/>
<path d="M24.0806 63.125H25.3735V65.625H24.0806V63.125Z" fill="#DE845C"/>
<path d="M71.9189 61.875H73.2118V64.375H71.9189V61.875Z" fill="#CD6957"/>
<path d="M54.626 56.7188H55.9189V59.2188H54.626V56.7188Z" fill="#D47459"/>
<path d="M37.333 51.5625H38.6259V52.8125H37.333V51.5625ZM38.6259 52.8125H39.9188V54.0625H38.6259V52.8125Z" fill="#EC9A5F"/>
<path d="M58.6664 27.0312H59.9593V28.2812H58.6664V27.0312ZM57.3735 28.2812H58.6664V29.5312H57.3735V28.2812Z" fill="#D7976A"/>
<path d="M42.6664 11.5625H43.9593V12.8125H42.6664V11.5625ZM41.3735 12.8125H42.6664V14.0625H41.3735V12.8125Z" fill="#D7976A"/>
<path d="M27.9595 55.3125H29.414V56.7188H27.9595V55.3125Z" fill="#FFB964"/>
<path d="M6.62598 55.3125H8.08053V56.7188H6.62598V55.3125Z" fill="#FFB964"/>
<path d="M11.9595 72.1875H13.414V73.4375H11.9595V72.1875Z" fill="#CD6957"/>
<path d="M6.62598 72.1875H8.08053V73.4375H6.62598V72.1875Z" fill="#C86156"/>
<path d="M57.3735 70.7812H58.6664V72.1876H57.3735V70.7812Z" fill="#CD6957"/>
<path d="M8.08057 70.7812H9.3735V72.1876H8.08057V70.7812Z" fill="#2C2828"/>
<path d="M6.62598 69.5312H8.08053V70.7812H6.62598V69.5312Z" fill="#D47459"/>
<path d="M6.62598 68.2812H8.08053V69.5312H6.62598V68.2812Z" fill="#CD6957"/>
<path d="M50.5854 67.0312H52.0401V68.2812H50.5854V67.0312Z" fill="#C45B55"/>
<path d="M50.5854 63.125H52.0401V64.375H50.5854V63.125Z" fill="#C45B55"/>
<path d="M27.9595 63.125H29.414V64.375H27.9595V63.125Z" fill="#DE845C"/>
<path d="M50.5854 61.875H52.0401V63.125H50.5854V61.875Z" fill="#C86156"/>
<path d="M71.9189 60.4688H73.2118V61.875H71.9189V60.4688Z" fill="#C86156"/>
<path d="M50.5854 57.9688H52.0401V59.2188H50.5854V57.9688Z" fill="#C86156"/>
<path d="M50.5854 56.7188H52.0401V57.9688H50.5854V56.7188Z" fill="#C15754"/>
<path d="M6.62598 56.7188H8.08053V57.9688H6.62598V56.7188Z" fill="#EC9A5F"/>
<path d="M54.626 50.1562H55.9189V51.5625H54.626V50.1562Z" fill="#DE845C"/>
<path d="M49.293 74.6875H50.5859V75.9375H49.293V74.6875Z" fill="#DE845C"/>
<path d="M46.7065 74.6875H47.9995V75.9375H46.7065V74.6875Z" fill="#C45B55"/>
<path d="M43.9595 73.4375H45.2524V74.6875H43.9595V73.4375Z" fill="#C86156"/>
<path d="M8.08057 73.4375H9.3735V74.6875H8.08057V73.4375Z" fill="#CD6957"/>
<path d="M43.9595 72.1875H45.2524V73.4375H43.9595V72.1875Z" fill="#7BAAB3"/>
<path d="M41.3735 72.1875H42.6664V73.4375H41.3735V72.1875Z" fill="#BF5454"/>
<path d="M13.4141 72.1875H14.707V73.4375H13.4141V72.1875Z" fill="#DE845C"/>
<path d="M62.7065 69.5312H63.9995V70.7812H62.7065V69.5312Z" fill="#DE845C"/>
<path d="M36.04 69.5312H37.3329V70.7812H36.04V69.5312Z" fill="#C86156"/>
<path d="M64 68.2812H65.2929V69.5312H64V68.2812Z" fill="#CD6957"/>
<path d="M54.626 68.2812H55.9189V69.5312H54.626V68.2812Z" fill="#BE5254"/>
<path d="M21.333 68.2812H22.6259V69.5312H21.333V68.2812Z" fill="#504A48"/>
<path d="M8.08057 68.2812H9.3735V69.5312H8.08057V68.2812Z" fill="#5C460B"/>
<path d="M68.04 67.0312H69.3329V68.2812H68.04V67.0312Z" fill="#FFB964"/>
<path d="M30.7065 67.0312H31.9995V68.2812H30.7065V67.0312Z" fill="#D47459"/>
<path d="M70.626 64.375H71.9189V65.625H70.626V64.375Z" fill="#663524"/>
<path d="M54.626 64.375H55.9189V65.625H54.626V64.375Z" fill="#C86156"/>
<path d="M8.08057 64.375H9.3735V65.625H8.08057V64.375Z" fill="#5C460B"/>
<path d="M24.0806 63.125H25.3735V64.375H24.0806V63.125Z" fill="#EC9A5F"/>
<path d="M54.626 61.875H55.9189V63.125H54.626V61.875Z" fill="#C86156"/>
<path d="M71.9189 57.9688H73.2118V59.2188H71.9189V57.9688Z" fill="#C86156"/>
<path d="M71.9189 54.0625H73.2118V55.3125H71.9189V54.0625Z" fill="#DE845C"/>
<path d="M54.626 54.0625H55.9189V55.3125H54.626V54.0625Z" fill="#C86156"/>
<path d="M8.08057 54.0625H9.3735V55.3125H8.08057V54.0625Z" fill="#5A552C"/>
<path d="M71.9189 52.8125H73.2118V54.0625H71.9189V52.8125Z" fill="#CD6957"/>
<path d="M54.626 51.5625H55.9189V52.8125H54.626V51.5625Z" fill="#D47459"/>
<path d="M71.9189 48.9062H73.2118V50.1562H71.9189V48.9062Z" fill="#DE845C"/>
<path d="M24.0806 48.9062H25.3735V50.1562H24.0806V48.9062Z" fill="#EC9A5F"/>
<path d="M71.9189 47.6562H73.2118V48.9062H71.9189V47.6562Z" fill="#CD6957"/>
<path d="M70.626 33.4375H71.9189V34.6875H70.626V33.4375Z" fill="#753027"/>
<path d="M22.626 61.875H22.7876V62.0312H22.626V61.875Z" fill="#191614"/>
<path d="M16 56.7188H16.1616V56.875H16V56.7188Z" fill="#9C8B2A"/>
<path d="M20.04 55.3125H20.2016V55.4688H20.04V55.3125Z" fill="#5C582D"/>
<path d="M8.08057 55.3125H8.24219V55.4688H8.08057V55.3125Z" fill="#36351A"/>
<path d="M8.08057 52.8125H8.24219V52.9688H8.08057V52.8125Z" fill="#36351A"/>
<path d="M17.293 50.1562H17.4546V50.3125H17.293V50.1562Z" fill="#191614"/>
<path d="M8.08057 48.9062H8.24219V49.0625H8.08057V48.9062Z" fill="#36351A"/>
<path d="M9.37354 47.6562H9.53516V47.8125H9.37354V47.6562Z" fill="#36351A"/>
<path d="M10.6665 46.4062H10.8281V46.5625H10.6665V46.4062Z" fill="#36351A"/>
<path d="M22.626 42.5H22.7876V42.6562H22.626V42.5Z" fill="#38351B"/>
<path d="M7.85938 89.8466V81.1193H9.67472V84.4006H9.73011C9.80965 84.2244 9.92472 84.0455 10.0753 83.8636C10.2287 83.679 10.4275 83.5256 10.6719 83.4034C10.919 83.2784 11.2258 83.2159 11.5923 83.2159C12.0696 83.2159 12.5099 83.3409 12.9133 83.5909C13.3167 83.8381 13.6392 84.2117 13.8807 84.7117C14.1221 85.2088 14.2429 85.8324 14.2429 86.5824C14.2429 87.3125 14.125 87.929 13.8892 88.4318C13.6562 88.9318 13.3381 89.3111 12.9346 89.5696C12.5341 89.8253 12.0852 89.9531 11.5881 89.9531C11.2358 89.9531 10.9361 89.8949 10.6889 89.7784C10.4446 89.6619 10.2443 89.5156 10.0881 89.3395C9.93181 89.1605 9.81249 88.9801 9.73011 88.7983H9.64915V89.8466H7.85938ZM9.63636 86.5739C9.63636 86.9631 9.69034 87.3026 9.7983 87.5923C9.90625 87.8821 10.0625 88.108 10.267 88.2699C10.4716 88.429 10.7202 88.5085 11.0128 88.5085C11.3082 88.5085 11.5582 88.4276 11.7628 88.2656C11.9673 88.1009 12.1221 87.8736 12.2273 87.5838C12.3352 87.2912 12.3892 86.9546 12.3892 86.5739C12.3892 86.196 12.3366 85.8636 12.2315 85.5767C12.1264 85.2898 11.9716 85.0653 11.767 84.9034C11.5625 84.7415 11.3111 84.6605 11.0128 84.6605C10.7173 84.6605 10.4673 84.7386 10.2628 84.8949C10.0611 85.0511 9.90625 85.2727 9.7983 85.5597C9.69034 85.8466 9.63636 86.1847 9.63636 86.5739ZM17.084 92.3011C16.8539 92.3011 16.638 92.2827 16.4362 92.2457C16.2374 92.2117 16.0726 92.1676 15.9419 92.1136L16.351 90.7585C16.5641 90.8239 16.7559 90.8594 16.9263 90.8651C17.0996 90.8707 17.2487 90.831 17.3737 90.7457C17.5016 90.6605 17.6053 90.5156 17.6848 90.3111L17.7914 90.0341L15.4434 83.3011H17.3524L18.7076 88.108H18.7757L20.1436 83.3011H22.0655L19.5215 90.554C19.3993 90.9063 19.2331 91.2131 19.0229 91.4744C18.8155 91.7386 18.5527 91.9418 18.2345 92.0838C17.9164 92.2287 17.5328 92.3011 17.084 92.3011ZM28.8791 89.8466L26.3052 81.1193H28.9473L30.1405 86.4886H30.2086L31.6234 81.1193H33.703L35.1177 86.5057H35.1859L36.3791 81.1193H39.0211L36.4473 89.8466H34.1802L32.6973 84.9716H32.6291L31.1461 89.8466H28.8791ZM45.673 81.1193H48.0423V86.7102C48.0423 87.375 47.8832 87.9503 47.565 88.4361C47.2497 88.919 46.8093 89.2926 46.244 89.5568C45.6786 89.8182 45.0224 89.9489 44.2752 89.9489C43.5224 89.9489 42.8633 89.8182 42.298 89.5568C41.7326 89.2926 41.2923 88.919 40.9769 88.4361C40.6644 87.9503 40.5082 87.375 40.5082 86.7102V81.1193H42.8775V86.5057C42.8775 86.7756 42.9372 87.0171 43.0565 87.2301C43.1758 87.4403 43.3406 87.6051 43.5508 87.7244C43.7639 87.8438 44.0053 87.9034 44.2752 87.9034C44.548 87.9034 44.7894 87.8438 44.9997 87.7244C45.2099 87.6051 45.3747 87.4403 45.494 87.2301C45.6133 87.0171 45.673 86.7756 45.673 86.5057V81.1193ZM58.3429 85.483C58.3429 86.4546 58.154 87.2742 57.7761 87.9418C57.3983 88.6065 56.8883 89.1108 56.2463 89.4546C55.6042 89.7955 54.8883 89.9659 54.0986 89.9659C53.3031 89.9659 52.5844 89.794 51.9423 89.4503C51.3031 89.1037 50.7946 88.598 50.4167 87.9332C50.0417 87.2656 49.8542 86.4489 49.8542 85.483C49.8542 84.5114 50.0417 83.6932 50.4167 83.0284C50.7946 82.3608 51.3031 81.8565 51.9423 81.5156C52.5844 81.1719 53.3031 81 54.0986 81C54.8883 81 55.6042 81.1719 56.2463 81.5156C56.8883 81.8565 57.3983 82.3608 57.7761 83.0284C58.154 83.6932 58.3429 84.5114 58.3429 85.483ZM55.9054 85.483C55.9054 84.9602 55.8358 84.5199 55.6966 84.1619C55.5602 83.8011 55.3571 83.5284 55.0872 83.3438C54.8202 83.1563 54.4906 83.0625 54.0986 83.0625C53.7065 83.0625 53.3756 83.1563 53.1057 83.3438C52.8386 83.5284 52.6355 83.8011 52.4963 84.1619C52.3599 84.5199 52.2917 84.9602 52.2917 85.483C52.2917 86.0057 52.3599 86.4475 52.4963 86.8082C52.6355 87.1662 52.8386 87.4389 53.1057 87.6264C53.3756 87.8111 53.7065 87.9034 54.0986 87.9034C54.4906 87.9034 54.8202 87.8111 55.0872 87.6264C55.3571 87.4389 55.5602 87.1662 55.6966 86.8082C55.8358 86.4475 55.9054 86.0057 55.9054 85.483ZM59.5103 83.0284V81.1193H67.0956V83.0284H64.4706V89.8466H62.1353V83.0284H59.5103ZM68.7072 89.8466V81.1193H74.997V83.0284H71.0766V84.5284H74.6732V86.4375H71.0766V87.9375H74.98V89.8466H68.7072Z" fill="#F2BB4E"/>
</g>
</g>
<defs>
<clipPath id="clip0_426_2">
<rect width="80" height="95" fill="white"/>
</clipPath>
</defs>
</svg>
