<svg width="80" height="80" viewBox="0 0 80 80" fill="none" xmlns="http://www.w3.org/2000/svg">
<path d="M49 4H48V5H49V4Z" fill="#D7976A"/>
<path d="M50 4H49V5H50V4Z" fill="#FFD88B"/>
<path d="M51 4H50V5H51V4Z" fill="#FFD88B"/>
<path d="M52 4H51V5H52V4Z" fill="#FFD88B"/>
<path d="M53 4H52V5H53V4Z" fill="#FFF4DE"/>
<path d="M54 4H53V5H54V4Z" fill="#D7976A"/>
<path d="M48 5H47V6H48V5Z" fill="#D7976A"/>
<path d="M49 5H48V6H49V5Z" fill="#FFD88B"/>
<path d="M50 5H49V6H50V5Z" fill="#FFD88B"/>
<path d="M51 5H50V6H51V5Z" fill="#F2BB4E"/>
<path d="M52 5H51V6H52V5Z" fill="#F2BB4E"/>
<path d="M53 5H52V6H53V5Z" fill="#FFD88B"/>
<path d="M54 5H53V6H54V5Z" fill="#FFF4DE"/>
<path d="M55 5H54V6H55V5Z" fill="#D7976A"/>
<path d="M48 6H47V7H48V6Z" fill="#F2BB4E"/>
<path d="M49 6H48V7H49V6Z" fill="#FFD88B"/>
<path d="M50 6H49V7H50V6Z" fill="#F2BB4E"/>
<path d="M51 6H50V7H51V6Z" fill="white"/>
<path d="M52 6H51V7H52V6Z" fill="white"/>
<path d="M53 6H52V7H53V6Z" fill="#F2BB4E"/>
<path d="M54 6H53V7H54V6Z" fill="#FFD88B"/>
<path d="M55 6H54V7H55V6Z" fill="#FFF4DE"/>
<path d="M48 7H47V8H48V7Z" fill="#F2BB4E"/>
<path d="M49 7H48V8H49V7Z" fill="#FFD88B"/>
<path d="M50 7H49V8H50V7Z" fill="white"/>
<path d="M51 7H50V8H51V7Z" fill="white"/>
<path d="M52 7H51V8H52V7Z" fill="white"/>
<path d="M53 7H52V8H53V7Z" fill="white"/>
<path d="M54 7H53V8H54V7Z" fill="#F2BB4E"/>
<path d="M55 7H54V8H55V7Z" fill="#FFD88B"/>
<path d="M48 8H47V9H48V8Z" fill="#F2BB4E"/>
<path d="M49 8H48V9H49V8Z" fill="#FFD88B"/>
<path d="M50 8H49V9H50V8Z" fill="white"/>
<path d="M51 8H50V9H51V8Z" fill="white"/>
<path d="M52 8H51V9H52V8Z" fill="white"/>
<path d="M53 8H52V9H53V8Z" fill="white"/>
<path d="M54 8H53V9H54V8Z" fill="#F2BB4E"/>
<path d="M55 8H54V9H55V8Z" fill="#FFD88B"/>
<path d="M48 9H47V10H48V9Z" fill="#F2BB4E"/>
<path d="M49 9H48V10H49V9Z" fill="#FFD88B"/>
<path d="M50 9H49V10H50V9Z" fill="white"/>
<path d="M51 9H50V10H51V9Z" fill="white"/>
<path d="M52 9H51V10H52V9Z" fill="white"/>
<path d="M53 9H52V10H53V9Z" fill="white"/>
<path d="M54 9H53V10H54V9Z" fill="#F2BB4E"/>
<path d="M55 9H54V10H55V9Z" fill="#FFD88B"/>
<path d="M31 10H30V11H31V10Z" fill="#826855"/>
<path d="M32 10H31V11H32V10Z" fill="#826855"/>
<path d="M33 10H32V11H33V10Z" fill="#826855"/>
<path d="M34 10H33V11H34V10Z" fill="#826855"/>
<path d="M35 10H34V11H35V10Z" fill="#826855"/>
<path d="M36 10H35V11H36V10Z" fill="#826855"/>
<path d="M43 10H42V11H43V10Z" fill="#D7976A"/>
<path d="M44 10H43V11H44V10Z" fill="#F2BB4E"/>
<path d="M45 10H44V11H45V10Z" fill="#F2BB4E"/>
<path d="M46 10H45V11H46V10Z" fill="#F2BB4E"/>
<path d="M47 10H46V11H47V10Z" fill="#F2BB4E"/>
<path d="M48 10H47V11H48V10Z" fill="#FFD88B"/>
<path d="M49 10H48V11H49V10Z" fill="#FFD88B"/>
<path d="M50 10H49V11H50V10Z" fill="white"/>
<path d="M51 10H50V11H51V10Z" fill="white"/>
<path d="M52 10H51V11H52V10Z" fill="white"/>
<path d="M53 10H52V11H53V10Z" fill="white"/>
<path d="M54 10H53V11H54V10Z" fill="#F2BB4E"/>
<path d="M55 10H54V11H55V10Z" fill="#FFD88B"/>
<path d="M56 10H55V11H56V10Z" fill="#FFD88B"/>
<path d="M57 10H56V11H57V10Z" fill="#FFD88B"/>
<path d="M58 10H57V11H58V10Z" fill="#FFD88B"/>
<path d="M59 10H58V11H59V10Z" fill="#FFF4DE"/>
<path d="M60 10H59V11H60V10Z" fill="#D7976A"/>
<path d="M29 11H28V12H29V11Z" fill="#826855"/>
<path d="M30 11H29V12H30V11Z" fill="#826855"/>
<path d="M31 11H30V12H31V11Z" fill="#826855"/>
<path d="M32 11H31V12H32V11Z" fill="#826855"/>
<path d="M33 11H32V12H33V11Z" fill="#826855"/>
<path d="M34 11H33V12H34V11Z" fill="#826855"/>
<path d="M35 11H34V12H35V11Z" fill="#826855"/>
<path d="M36 11H35V12H36V11Z" fill="#826855"/>
<path d="M37 11H36V12H37V11Z" fill="#826855"/>
<path d="M42 11H41V12H42V11Z" fill="#D7976A"/>
<path d="M43 11H42V12H43V11Z" fill="#FFD88B"/>
<path d="M44 11H43V12H44V11Z" fill="#FFD88B"/>
<path d="M45 11H44V12H45V11Z" fill="#FFD88B"/>
<path d="M46 11H45V12H46V11Z" fill="#FFD88B"/>
<path d="M47 11H46V12H47V11Z" fill="#FFD88B"/>
<path d="M48 11H47V12H48V11Z" fill="#FFD88B"/>
<path d="M49 11H48V12H49V11Z" fill="white"/>
<path d="M50 11H49V12H50V11Z" fill="white"/>
<path d="M51 11H50V12H51V11Z" fill="white"/>
<path d="M52 11H51V12H52V11Z" fill="white"/>
<path d="M53 11H52V12H53V11Z" fill="white"/>
<path d="M54 11H53V12H54V11Z" fill="white"/>
<path d="M55 11H54V12H55V11Z" fill="#F2BB4E"/>
<path d="M56 11H55V12H56V11Z" fill="#F2BB4E"/>
<path d="M57 11H56V12H57V11Z" fill="#F2BB4E"/>
<path d="M58 11H57V12H58V11Z" fill="#F2BB4E"/>
<path d="M59 11H58V12H59V11Z" fill="#FFD88B"/>
<path d="M60 11H59V12H60V11Z" fill="#FFF4DE"/>
<path d="M61 11H60V12H61V11Z" fill="#D7976A"/>
<path d="M28 12H27V13H28V12Z" fill="#826855"/>
<path d="M29 12H28V13H29V12Z" fill="#826855"/>
<path d="M30 12H29V13H30V12Z" fill="#826855"/>
<path d="M31 12H30V13H31V12Z" fill="#826855"/>
<path d="M32 12H31V13H32V12Z" fill="#F2BB4E"/>
<path d="M33 12H32V13H33V12Z" fill="#F2BB4E"/>
<path d="M34 12H33V13H34V12Z" fill="#FFD88B"/>
<path d="M35 12H34V13H35V12Z" fill="#FFD88B"/>
<path d="M36 12H35V13H36V12Z" fill="#826855"/>
<path d="M37 12H36V13H37V12Z" fill="#826855"/>
<path d="M38 12H37V13H38V12Z" fill="#826855"/>
<path d="M42 12H41V13H42V12Z" fill="#FFD88B"/>
<path d="M43 12H42V13H43V12Z" fill="#FFD88B"/>
<path d="M44 12H43V13H44V12Z" fill="#FFD88B"/>
<path d="M45 12H44V13H45V12Z" fill="white"/>
<path d="M46 12H45V13H46V12Z" fill="white"/>
<path d="M47 12H46V13H47V12Z" fill="white"/>
<path d="M48 12H47V13H48V12Z" fill="white"/>
<path d="M49 12H48V13H49V12Z" fill="white"/>
<path d="M50 12H49V13H50V12Z" fill="white"/>
<path d="M51 12H50V13H51V12Z" fill="white"/>
<path d="M52 12H51V13H52V12Z" fill="white"/>
<path d="M53 12H52V13H53V12Z" fill="white"/>
<path d="M54 12H53V13H54V12Z" fill="white"/>
<path d="M55 12H54V13H55V12Z" fill="white"/>
<path d="M56 12H55V13H56V12Z" fill="white"/>
<path d="M57 12H56V13H57V12Z" fill="white"/>
<path d="M58 12H57V13H58V12Z" fill="white"/>
<path d="M59 12H58V13H59V12Z" fill="#F2BB4E"/>
<path d="M60 12H59V13H60V12Z" fill="#FFD88B"/>
<path d="M61 12H60V13H61V12Z" fill="#FFF4DE"/>
<path d="M27 13H26V14H27V13Z" fill="#826855"/>
<path d="M28 13H27V14H28V13Z" fill="#826855"/>
<path d="M29 13H28V14H29V13Z" fill="#826855"/>
<path d="M30 13H29V14H30V13Z" fill="#D7976A"/>
<path d="M31 13H30V14H31V13Z" fill="#D7976A"/>
<path d="M32 13H31V14H32V13Z" fill="#F2BB4E"/>
<path d="M33 13H32V14H33V13Z" fill="#F2BB4E"/>
<path d="M34 13H33V14H34V13Z" fill="#FFD88B"/>
<path d="M35 13H34V14H35V13Z" fill="#FFD88B"/>
<path d="M36 13H35V14H36V13Z" fill="#FFD88B"/>
<path d="M37 13H36V14H37V13Z" fill="#FFD88B"/>
<path d="M38 13H37V14H38V13Z" fill="#826855"/>
<path d="M39 13H38V14H39V13Z" fill="#826855"/>
<path d="M42 13H41V14H42V13Z" fill="#F2BB4E"/>
<path d="M43 13H42V14H43V13Z" fill="#FFD88B"/>
<path d="M44 13H43V14H44V13Z" fill="white"/>
<path d="M45 13H44V14H45V13Z" fill="white"/>
<path d="M46 13H45V14H46V13Z" fill="white"/>
<path d="M47 13H46V14H47V13Z" fill="white"/>
<path d="M48 13H47V14H48V13Z" fill="white"/>
<path d="M49 13H48V14H49V13Z" fill="white"/>
<path d="M50 13H49V14H50V13Z" fill="white"/>
<path d="M51 13H50V14H51V13Z" fill="white"/>
<path d="M52 13H51V14H52V13Z" fill="white"/>
<path d="M53 13H52V14H53V13Z" fill="white"/>
<path d="M54 13H53V14H54V13Z" fill="white"/>
<path d="M55 13H54V14H55V13Z" fill="white"/>
<path d="M56 13H55V14H56V13Z" fill="white"/>
<path d="M57 13H56V14H57V13Z" fill="white"/>
<path d="M58 13H57V14H58V13Z" fill="white"/>
<path d="M59 13H58V14H59V13Z" fill="white"/>
<path d="M60 13H59V14H60V13Z" fill="#F2BB4E"/>
<path d="M61 13H60V14H61V13Z" fill="#FFD88B"/>
<path d="M27 14H26V15H27V14Z" fill="#826855"/>
<path d="M28 14H27V15H28V14Z" fill="#826855"/>
<path d="M29 14H28V15H29V14Z" fill="#D7976A"/>
<path d="M30 14H29V15H30V14Z" fill="#D7976A"/>
<path d="M31 14H30V15H31V14Z" fill="#F2BB4E"/>
<path d="M32 14H31V15H32V14Z" fill="#F2BB4E"/>
<path d="M33 14H32V15H33V14Z" fill="#AA7A57"/>
<path d="M34 14H33V15H34V14Z" fill="#A65F4C"/>
<path d="M35 14H34V15H35V14Z" fill="#A65F4C"/>
<path d="M36 14H35V15H36V14Z" fill="#AA7A57"/>
<path d="M37 14H36V15H37V14Z" fill="#FFD88B"/>
<path d="M38 14H37V15H38V14Z" fill="#FFD88B"/>
<path d="M39 14H38V15H39V14Z" fill="#826855"/>
<path d="M40 14H39V15H40V14Z" fill="#826855"/>
<path d="M41 14H40V15H41V14Z" fill="#826855"/>
<path d="M42 14H41V15H42V14Z" fill="#F2BB4E"/>
<path d="M43 14H42V15H43V14Z" fill="#FFF4DE"/>
<path d="M44 14H43V15H44V14Z" fill="white"/>
<path d="M45 14H44V15H45V14Z" fill="white"/>
<path d="M46 14H45V15H46V14Z" fill="white"/>
<path d="M47 14H46V15H47V14Z" fill="white"/>
<path d="M48 14H47V15H48V14Z" fill="white"/>
<path d="M49 14H48V15H49V14Z" fill="white"/>
<path d="M50 14H49V15H50V14Z" fill="white"/>
<path d="M51 14H50V15H51V14Z" fill="white"/>
<path d="M52 14H51V15H52V14Z" fill="white"/>
<path d="M53 14H52V15H53V14Z" fill="white"/>
<path d="M54 14H53V15H54V14Z" fill="white"/>
<path d="M55 14H54V15H55V14Z" fill="white"/>
<path d="M56 14H55V15H56V14Z" fill="white"/>
<path d="M57 14H56V15H57V14Z" fill="white"/>
<path d="M58 14H57V15H58V14Z" fill="white"/>
<path d="M59 14H58V15H59V14Z" fill="white"/>
<path d="M60 14H59V15H60V14Z" fill="#F2BB4E"/>
<path d="M61 14H60V15H61V14Z" fill="#FFD88B"/>
<path d="M26 15H25V16H26V15Z" fill="#826855"/>
<path d="M27 15H26V16H27V15Z" fill="#826855"/>
<path d="M28 15H27V16H28V15Z" fill="#826855"/>
<path d="M29 15H28V16H29V15Z" fill="#D7976A"/>
<path d="M30 15H29V16H30V15Z" fill="#F2BB4E"/>
<path d="M31 15H30V16H31V15Z" fill="#F2BB4E"/>
<path d="M32 15H31V16H32V15Z" fill="#AA7A57"/>
<path d="M33 15H32V16H33V15Z" fill="#AA7A57"/>
<path d="M34 15H33V16H34V15Z" fill="#A65F4C"/>
<path d="M35 15H34V16H35V15Z" fill="#A65F4C"/>
<path d="M36 15H35V16H36V15Z" fill="#AA7A57"/>
<path d="M37 15H36V16H37V15Z" fill="#AA7A57"/>
<path d="M38 15H37V16H38V15Z" fill="#FFD88B"/>
<path d="M39 15H38V16H39V15Z" fill="#FFD88B"/>
<path d="M40 15H39V16H40V15Z" fill="#826855"/>
<path d="M41 15H40V16H41V15Z" fill="#826855"/>
<path d="M42 15H41V16H42V15Z" fill="#F2BB4E"/>
<path d="M43 15H42V16H43V15Z" fill="#FFD88B"/>
<path d="M44 15H43V16H44V15Z" fill="#FFF4DE"/>
<path d="M45 15H44V16H45V15Z" fill="white"/>
<path d="M46 15H45V16H46V15Z" fill="white"/>
<path d="M47 15H46V16H47V15Z" fill="white"/>
<path d="M48 15H47V16H48V15Z" fill="white"/>
<path d="M49 15H48V16H49V15Z" fill="white"/>
<path d="M50 15H49V16H50V15Z" fill="white"/>
<path d="M51 15H50V16H51V15Z" fill="white"/>
<path d="M52 15H51V16H52V15Z" fill="white"/>
<path d="M53 15H52V16H53V15Z" fill="white"/>
<path d="M54 15H53V16H54V15Z" fill="white"/>
<path d="M55 15H54V16H55V15Z" fill="white"/>
<path d="M56 15H55V16H56V15Z" fill="white"/>
<path d="M57 15H56V16H57V15Z" fill="white"/>
<path d="M58 15H57V16H58V15Z" fill="white"/>
<path d="M59 15H58V16H59V15Z" fill="#FFD88B"/>
<path d="M60 15H59V16H60V15Z" fill="#FFD88B"/>
<path d="M61 15H60V16H61V15Z" fill="#FFD88B"/>
<path d="M26 16H25V17H26V16Z" fill="#826855"/>
<path d="M27 16H26V17H27V16Z" fill="#826855"/>
<path d="M28 16H27V17H28V16Z" fill="#F2BB4E"/>
<path d="M29 16H28V17H29V16Z" fill="#F2BB4E"/>
<path d="M30 16H29V17H30V16Z" fill="#F2BB4E"/>
<path d="M31 16H30V17H31V16Z" fill="#AA7A57"/>
<path d="M32 16H31V17H32V16Z" fill="#AA7A57"/>
<path d="M33 16H32V17H33V16Z" fill="#DB5656"/>
<path d="M34 16H33V17H34V16Z" fill="#DB5656"/>
<path d="M35 16H34V17H35V16Z" fill="#FF8181"/>
<path d="M36 16H35V17H36V16Z" fill="#FF8181"/>
<path d="M37 16H36V17H37V16Z" fill="#AA7A57"/>
<path d="M38 16H37V17H38V16Z" fill="#AA7A57"/>
<path d="M39 16H38V17H39V16Z" fill="#D7976A"/>
<path d="M40 16H39V17H40V16Z" fill="#D7976A"/>
<path d="M41 16H40V17H41V16Z" fill="#D7976A"/>
<path d="M42 16H41V17H42V16Z" fill="#D7976A"/>
<path d="M43 16H42V17H43V16Z" fill="#F2BB4E"/>
<path d="M44 16H43V17H44V16Z" fill="#FFD88B"/>
<path d="M45 16H44V17H45V16Z" fill="#FFF4DE"/>
<path d="M46 16H45V17H46V16Z" fill="#FFD88B"/>
<path d="M47 16H46V17H47V16Z" fill="#FFD88B"/>
<path d="M48 16H47V17H48V16Z" fill="#FFF4DE"/>
<path d="M49 16H48V17H49V16Z" fill="white"/>
<path d="M50 16H49V17H50V16Z" fill="white"/>
<path d="M51 16H50V17H51V16Z" fill="white"/>
<path d="M52 16H51V17H52V16Z" fill="white"/>
<path d="M53 16H52V17H53V16Z" fill="white"/>
<path d="M54 16H53V17H54V16Z" fill="white"/>
<path d="M55 16H54V17H55V16Z" fill="#FFD88B"/>
<path d="M56 16H55V17H56V16Z" fill="#FFD88B"/>
<path d="M57 16H56V17H57V16Z" fill="#FFD88B"/>
<path d="M58 16H57V17H58V16Z" fill="#FFD88B"/>
<path d="M59 16H58V17H59V16Z" fill="#FFD88B"/>
<path d="M60 16H59V17H60V16Z" fill="#FFD88B"/>
<path d="M61 16H60V17H61V16Z" fill="#D7976A"/>
<path d="M26 17H25V18H26V17Z" fill="#826855"/>
<path d="M27 17H26V18H27V17Z" fill="#826855"/>
<path d="M28 17H27V18H28V17Z" fill="#F2BB4E"/>
<path d="M29 17H28V18H29V17Z" fill="#F2BB4E"/>
<path d="M30 17H29V18H30V17Z" fill="#AA7A57"/>
<path d="M31 17H30V18H31V17Z" fill="#AA7A57"/>
<path d="M32 17H31V18H32V17Z" fill="#DB5656"/>
<path d="M33 17H32V18H33V17Z" fill="#DB5656"/>
<path d="M34 17H33V18H34V17Z" fill="#F65858"/>
<path d="M35 17H34V18H35V17Z" fill="#F65858"/>
<path d="M36 17H35V18H36V17Z" fill="#FF8181"/>
<path d="M37 17H36V18H37V17Z" fill="#FF8181"/>
<path d="M38 17H37V18H38V17Z" fill="#AA7A57"/>
<path d="M39 17H38V18H39V17Z" fill="#AA7A57"/>
<path d="M40 17H39V18H40V17Z" fill="#D7976A"/>
<path d="M41 17H40V18H41V17Z" fill="#D7976A"/>
<path d="M42 17H41V18H42V17Z" fill="#D7976A"/>
<path d="M43 17H42V18H43V17Z" fill="#D7976A"/>
<path d="M44 17H43V18H44V17Z" fill="#F2BB4E"/>
<path d="M45 17H44V18H45V17Z" fill="#F2BB4E"/>
<path d="M46 17H45V18H46V17Z" fill="#F2BB4E"/>
<path d="M47 17H46V18H47V17Z" fill="#F2BB4E"/>
<path d="M48 17H47V18H48V17Z" fill="#F2BB4E"/>
<path d="M49 17H48V18H49V17Z" fill="#FFF4DE"/>
<path d="M50 17H49V18H50V17Z" fill="white"/>
<path d="M51 17H50V18H51V17Z" fill="white"/>
<path d="M52 17H51V18H52V17Z" fill="white"/>
<path d="M53 17H52V18H53V17Z" fill="white"/>
<path d="M54 17H53V18H54V17Z" fill="#FFD88B"/>
<path d="M55 17H54V18H55V17Z" fill="#FFD88B"/>
<path d="M56 17H55V18H56V17Z" fill="#F2BB4E"/>
<path d="M57 17H56V18H57V17Z" fill="#F2BB4E"/>
<path d="M58 17H57V18H58V17Z" fill="#F2BB4E"/>
<path d="M59 17H58V18H59V17Z" fill="#F2BB4E"/>
<path d="M60 17H59V18H60V17Z" fill="#D7976A"/>
<path d="M26 18H25V19H26V18Z" fill="#826855"/>
<path d="M27 18H26V19H27V18Z" fill="#826855"/>
<path d="M28 18H27V19H28V18Z" fill="#F2BB4E"/>
<path d="M29 18H28V19H29V18Z" fill="#F2BB4E"/>
<path d="M30 18H29V19H30V18Z" fill="#A65F4C"/>
<path d="M31 18H30V19H31V18Z" fill="#DB5656"/>
<path d="M32 18H31V19H32V18Z" fill="#DB5656"/>
<path d="M33 18H32V19H33V18Z" fill="#F65858"/>
<path d="M34 18H33V19H34V18Z" fill="#F65858"/>
<path d="M35 18H34V19H35V18Z" fill="#F65858"/>
<path d="M36 18H35V19H36V18Z" fill="#F65858"/>
<path d="M37 18H36V19H37V18Z" fill="#FF8181"/>
<path d="M38 18H37V19H38V18Z" fill="#FF8181"/>
<path d="M39 18H38V19H39V18Z" fill="#A65F4C"/>
<path d="M40 18H39V19H40V18Z" fill="#A65F4C"/>
<path d="M41 18H40V19H41V18Z" fill="#A65F4C"/>
<path d="M42 18H41V19H42V18Z" fill="#A65F4C"/>
<path d="M43 18H42V19H43V18Z" fill="#DB5656"/>
<path d="M44 18H43V19H44V18Z" fill="#DB5656"/>
<path d="M45 18H44V19H45V18Z" fill="#F65858"/>
<path d="M46 18H45V19H46V18Z" fill="#F65858"/>
<path d="M47 18H46V19H47V18Z" fill="#F65858"/>
<path d="M48 18H47V19H48V18Z" fill="#F2BB4E"/>
<path d="M49 18H48V19H49V18Z" fill="#FFD88B"/>
<path d="M50 18H49V19H50V18Z" fill="white"/>
<path d="M51 18H50V19H51V18Z" fill="white"/>
<path d="M52 18H51V19H52V18Z" fill="white"/>
<path d="M53 18H52V19H53V18Z" fill="white"/>
<path d="M54 18H53V19H54V18Z" fill="#FFD88B"/>
<path d="M55 18H54V19H55V18Z" fill="#F2BB4E"/>
<path d="M26 19H25V20H26V19Z" fill="#826855"/>
<path d="M27 19H26V20H27V19Z" fill="#675243"/>
<path d="M28 19H27V20H28V19Z" fill="#F2BB4E"/>
<path d="M29 19H28V20H29V19Z" fill="#F2BB4E"/>
<path d="M30 19H29V20H30V19Z" fill="#A65F4C"/>
<path d="M31 19H30V20H31V19Z" fill="#DB5656"/>
<path d="M32 19H31V20H32V19Z" fill="#F65858"/>
<path d="M33 19H32V20H33V19Z" fill="#F65858"/>
<path d="M34 19H33V20H34V19Z" fill="#F65858"/>
<path d="M35 19H34V20H35V19Z" fill="#F65858"/>
<path d="M36 19H35V20H36V19Z" fill="#F65858"/>
<path d="M37 19H36V20H37V19Z" fill="#F65858"/>
<path d="M38 19H37V20H38V19Z" fill="#FF8181"/>
<path d="M39 19H38V20H39V19Z" fill="#FF8181"/>
<path d="M40 19H39V20H40V19Z" fill="#A65F4C"/>
<path d="M41 19H40V20H41V19Z" fill="#A65F4C"/>
<path d="M42 19H41V20H42V19Z" fill="#DB5656"/>
<path d="M43 19H42V20H43V19Z" fill="#DB5656"/>
<path d="M44 19H43V20H44V19Z" fill="#F65858"/>
<path d="M45 19H44V20H45V19Z" fill="#F65858"/>
<path d="M46 19H45V20H46V19Z" fill="#F65858"/>
<path d="M47 19H46V20H47V19Z" fill="#F65858"/>
<path d="M48 19H47V20H48V19Z" fill="#F2BB4E"/>
<path d="M49 19H48V20H49V19Z" fill="#FFD88B"/>
<path d="M50 19H49V20H50V19Z" fill="white"/>
<path d="M51 19H50V20H51V19Z" fill="white"/>
<path d="M52 19H51V20H52V19Z" fill="white"/>
<path d="M53 19H52V20H53V19Z" fill="white"/>
<path d="M54 19H53V20H54V19Z" fill="#FFD88B"/>
<path d="M55 19H54V20H55V19Z" fill="#F2BB4E"/>
<path d="M26 20H25V21H26V20Z" fill="#675243"/>
<path d="M27 20H26V21H27V20Z" fill="#675243"/>
<path d="M28 20H27V21H28V20Z" fill="#D7976A"/>
<path d="M29 20H28V21H29V20Z" fill="#D7976A"/>
<path d="M30 20H29V21H30V20Z" fill="#A65F4C"/>
<path d="M31 20H30V21H31V20Z" fill="#DB5656"/>
<path d="M32 20H31V21H32V20Z" fill="#DB5656"/>
<path d="M33 20H32V21H33V20Z" fill="#F65858"/>
<path d="M34 20H33V21H34V20Z" fill="#F65858"/>
<path d="M35 20H34V21H35V20Z" fill="#F65858"/>
<path d="M36 20H35V21H36V20Z" fill="#F65858"/>
<path d="M37 20H36V21H37V20Z" fill="#F65858"/>
<path d="M38 20H37V21H38V20Z" fill="#F65858"/>
<path d="M39 20H38V21H39V20Z" fill="#DB5656"/>
<path d="M40 20H39V21H40V20Z" fill="#DB5656"/>
<path d="M41 20H40V21H41V20Z" fill="#DB5656"/>
<path d="M42 20H41V21H42V20Z" fill="#DB5656"/>
<path d="M43 20H42V21H43V20Z" fill="#F65858"/>
<path d="M44 20H43V21H44V20Z" fill="#F65858"/>
<path d="M45 20H44V21H45V20Z" fill="#F65858"/>
<path d="M46 20H45V21H46V20Z" fill="#F65858"/>
<path d="M47 20H46V21H47V20Z" fill="#F65858"/>
<path d="M48 20H47V21H48V20Z" fill="#F2BB4E"/>
<path d="M49 20H48V21H49V20Z" fill="#FFD88B"/>
<path d="M50 20H49V21H50V20Z" fill="white"/>
<path d="M51 20H50V21H51V20Z" fill="white"/>
<path d="M52 20H51V21H52V20Z" fill="white"/>
<path d="M53 20H52V21H53V20Z" fill="white"/>
<path d="M54 20H53V21H54V20Z" fill="#FFD88B"/>
<path d="M55 20H54V21H55V20Z" fill="#F2BB4E"/>
<path d="M27 21H26V22H27V21Z" fill="#675243"/>
<path d="M28 21H27V22H28V21Z" fill="#AA7A57"/>
<path d="M29 21H28V22H29V21Z" fill="#D7976A"/>
<path d="M30 21H29V22H30V21Z" fill="#A65F4C"/>
<path d="M31 21H30V22H31V21Z" fill="#A65F4C"/>
<path d="M32 21H31V22H32V21Z" fill="#DB5656"/>
<path d="M33 21H32V22H33V21Z" fill="#DB5656"/>
<path d="M34 21H33V22H34V21Z" fill="#F65858"/>
<path d="M35 21H34V22H35V21Z" fill="#F65858"/>
<path d="M36 21H35V22H36V21Z" fill="#F65858"/>
<path d="M37 21H36V22H37V21Z" fill="#F65858"/>
<path d="M38 21H37V22H38V21Z" fill="#F65858"/>
<path d="M39 21H38V22H39V21Z" fill="#F65858"/>
<path d="M40 21H39V22H40V21Z" fill="#DB5656"/>
<path d="M41 21H40V22H41V21Z" fill="#DB5656"/>
<path d="M42 21H41V22H42V21Z" fill="#F65858"/>
<path d="M43 21H42V22H43V21Z" fill="#F65858"/>
<path d="M44 21H43V22H44V21Z" fill="#F65858"/>
<path d="M45 21H44V22H45V21Z" fill="#F65858"/>
<path d="M46 21H45V22H46V21Z" fill="#F65858"/>
<path d="M47 21H46V22H47V21Z" fill="#F65858"/>
<path d="M48 21H47V22H48V21Z" fill="#F2BB4E"/>
<path d="M49 21H48V22H49V21Z" fill="#FFF4DE"/>
<path d="M50 21H49V22H50V21Z" fill="white"/>
<path d="M51 21H50V22H51V21Z" fill="white"/>
<path d="M52 21H51V22H52V21Z" fill="white"/>
<path d="M53 21H52V22H53V21Z" fill="white"/>
<path d="M54 21H53V22H54V21Z" fill="#FFD88B"/>
<path d="M55 21H54V22H55V21Z" fill="#F2BB4E"/>
<path d="M27 22H26V23H27V22Z" fill="#AA7A57"/>
<path d="M28 22H27V23H28V22Z" fill="#AA7A57"/>
<path d="M29 22H28V23H29V22Z" fill="#FFD88B"/>
<path d="M30 22H29V23H30V22Z" fill="#FFD88B"/>
<path d="M31 22H30V23H31V22Z" fill="#864A39"/>
<path d="M32 22H31V23H32V22Z" fill="#864A39"/>
<path d="M33 22H32V23H33V22Z" fill="#DB5656"/>
<path d="M34 22H33V23H34V22Z" fill="#DB5656"/>
<path d="M35 22H34V23H35V22Z" fill="#F65858"/>
<path d="M36 22H35V23H36V22Z" fill="#F65858"/>
<path d="M37 22H36V23H37V22Z" fill="#F65858"/>
<path d="M38 22H37V23H38V22Z" fill="#F65858"/>
<path d="M39 22H38V23H39V22Z" fill="#F65858"/>
<path d="M40 22H39V23H40V22Z" fill="#F65858"/>
<path d="M41 22H40V23H41V22Z" fill="#F65858"/>
<path d="M42 22H41V23H42V22Z" fill="#F65858"/>
<path d="M43 22H42V23H43V22Z" fill="#F65858"/>
<path d="M44 22H43V23H44V22Z" fill="#F65858"/>
<path d="M45 22H44V23H45V22Z" fill="#F65858"/>
<path d="M46 22H45V23H46V22Z" fill="#F65858"/>
<path d="M47 22H46V23H47V22Z" fill="#DB5656"/>
<path d="M48 22H47V23H48V22Z" fill="#D7976A"/>
<path d="M49 22H48V23H49V22Z" fill="#F2BB4E"/>
<path d="M50 22H49V23H50V22Z" fill="#FFF4DE"/>
<path d="M51 22H50V23H51V22Z" fill="#FFD88B"/>
<path d="M52 22H51V23H52V22Z" fill="#FFD88B"/>
<path d="M53 22H52V23H53V22Z" fill="#FFD88B"/>
<path d="M54 22H53V23H54V22Z" fill="#FFD88B"/>
<path d="M55 22H54V23H55V22Z" fill="#D7976A"/>
<path d="M28 23H27V24H28V23Z" fill="#AA7A57"/>
<path d="M29 23H28V24H29V23Z" fill="#AA7A57"/>
<path d="M30 23H29V24H30V23Z" fill="#FFD88B"/>
<path d="M31 23H30V24H31V23Z" fill="#FFD88B"/>
<path d="M32 23H31V24H32V23Z" fill="#864A39"/>
<path d="M33 23H32V24H33V23Z" fill="#864A39"/>
<path d="M34 23H33V24H34V23Z" fill="#DB5656"/>
<path d="M35 23H34V24H35V23Z" fill="#DB5656"/>
<path d="M36 23H35V24H36V23Z" fill="#F65858"/>
<path d="M37 23H36V24H37V23Z" fill="#F65858"/>
<path d="M38 23H37V24H38V23Z" fill="#F65858"/>
<path d="M39 23H38V24H39V23Z" fill="#F65858"/>
<path d="M40 23H39V24H40V23Z" fill="#F65858"/>
<path d="M41 23H40V24H41V23Z" fill="#F65858"/>
<path d="M42 23H41V24H42V23Z" fill="#F65858"/>
<path d="M43 23H42V24H43V23Z" fill="#F65858"/>
<path d="M44 23H43V24H44V23Z" fill="#F65858"/>
<path d="M45 23H44V24H45V23Z" fill="#F65858"/>
<path d="M46 23H45V24H46V23Z" fill="#DB5656"/>
<path d="M47 23H46V24H47V23Z" fill="#DB5656"/>
<path d="M48 23H47V24H48V23Z" fill="#D7976A"/>
<path d="M49 23H48V24H49V23Z" fill="#D7976A"/>
<path d="M50 23H49V24H50V23Z" fill="#F2BB4E"/>
<path d="M51 23H50V24H51V23Z" fill="#F2BB4E"/>
<path d="M52 23H51V24H52V23Z" fill="#F2BB4E"/>
<path d="M53 23H52V24H53V23Z" fill="#FFD88B"/>
<path d="M54 23H53V24H54V23Z" fill="#D7976A"/>
<path d="M29 24H28V25H29V24Z" fill="#AA7A57"/>
<path d="M30 24H29V25H30V24Z" fill="#AA7A57"/>
<path d="M31 24H30V25H31V24Z" fill="#FFF4DE"/>
<path d="M32 24H31V25H32V24Z" fill="#FFF4DE"/>
<path d="M33 24H32V25H33V24Z" fill="#864A39"/>
<path d="M34 24H33V25H34V24Z" fill="#864A39"/>
<path d="M35 24H34V25H35V24Z" fill="#DB5656"/>
<path d="M36 24H35V25H36V24Z" fill="#DB5656"/>
<path d="M37 24H36V25H37V24Z" fill="#F65858"/>
<path d="M38 24H37V25H38V24Z" fill="#F65858"/>
<path d="M39 24H38V25H39V24Z" fill="#F65858"/>
<path d="M40 24H39V25H40V24Z" fill="#F65858"/>
<path d="M41 24H40V25H41V24Z" fill="#F65858"/>
<path d="M42 24H41V25H42V24Z" fill="#F65858"/>
<path d="M43 24H42V25H43V24Z" fill="#F65858"/>
<path d="M44 24H43V25H44V24Z" fill="#F65858"/>
<path d="M45 24H44V25H45V24Z" fill="#DB5656"/>
<path d="M46 24H45V25H46V24Z" fill="#DB5656"/>
<path d="M47 24H46V25H47V24Z" fill="#D7976A"/>
<path d="M48 24H47V25H48V24Z" fill="#D7976A"/>
<path d="M49 24H48V25H49V24Z" fill="#F2BB4E"/>
<path d="M50 24H49V25H50V24Z" fill="#F2BB4E"/>
<path d="M51 24H50V25H51V24Z" fill="#826855"/>
<path d="M52 24H51V25H52V24Z" fill="#826855"/>
<path d="M30 25H29V26H30V25Z" fill="#AA7A57"/>
<path d="M31 25H30V26H31V25Z" fill="#AA7A57"/>
<path d="M32 25H31V26H32V25Z" fill="#FFF4DE"/>
<path d="M33 25H32V26H33V25Z" fill="#FFF4DE"/>
<path d="M34 25H33V26H34V25Z" fill="#864A39"/>
<path d="M35 25H34V26H35V25Z" fill="#864A39"/>
<path d="M36 25H35V26H36V25Z" fill="#DB5656"/>
<path d="M37 25H36V26H37V25Z" fill="#DB5656"/>
<path d="M38 25H37V26H38V25Z" fill="#F65858"/>
<path d="M39 25H38V26H39V25Z" fill="#F65858"/>
<path d="M40 25H39V26H40V25Z" fill="#F65858"/>
<path d="M41 25H40V26H41V25Z" fill="#F65858"/>
<path d="M42 25H41V26H42V25Z" fill="#F65858"/>
<path d="M43 25H42V26H43V25Z" fill="#F65858"/>
<path d="M44 25H43V26H44V25Z" fill="#DB5656"/>
<path d="M45 25H44V26H45V25Z" fill="#DB5656"/>
<path d="M46 25H45V26H46V25Z" fill="#D7976A"/>
<path d="M47 25H46V26H47V25Z" fill="#D7976A"/>
<path d="M48 25H47V26H48V25Z" fill="#F2BB4E"/>
<path d="M49 25H48V26H49V25Z" fill="#F2BB4E"/>
<path d="M50 25H49V26H50V25Z" fill="#826855"/>
<path d="M51 25H50V26H51V25Z" fill="#826855"/>
<path d="M59 25H58V26H59V25Z" fill="#FFB964"/>
<path d="M60 25H59V26H60V25Z" fill="#FFB964"/>
<path d="M61 25H60V26H61V25Z" fill="#FFB964"/>
<path d="M62 25H61V26H62V25Z" fill="#FFB964"/>
<path d="M63 25H62V26H63V25Z" fill="#FFB964"/>
<path d="M31 26H30V27H31V26Z" fill="#AA7A57"/>
<path d="M32 26H31V27H32V26Z" fill="#AA7A57"/>
<path d="M33 26H32V27H33V26Z" fill="#FFF4DE"/>
<path d="M34 26H33V27H34V26Z" fill="#FFF4DE"/>
<path d="M35 26H34V27H35V26Z" fill="#864A39"/>
<path d="M36 26H35V27H36V26Z" fill="#864A39"/>
<path d="M37 26H36V27H37V26Z" fill="#DB5656"/>
<path d="M38 26H37V27H38V26Z" fill="#DB5656"/>
<path d="M39 26H38V27H39V26Z" fill="#F65858"/>
<path d="M40 26H39V27H40V26Z" fill="#F65858"/>
<path d="M41 26H40V27H41V26Z" fill="#F65858"/>
<path d="M42 26H41V27H42V26Z" fill="#F65858"/>
<path d="M43 26H42V27H43V26Z" fill="#DB5656"/>
<path d="M44 26H43V27H44V26Z" fill="#DB5656"/>
<path d="M45 26H44V27H45V26Z" fill="#A65F4C"/>
<path d="M46 26H45V27H46V26Z" fill="#A65F4C"/>
<path d="M47 26H46V27H47V26Z" fill="#F2BB4E"/>
<path d="M48 26H47V27H48V26Z" fill="#F2BB4E"/>
<path d="M49 26H48V27H49V26Z" fill="#826855"/>
<path d="M50 26H49V27H50V26Z" fill="#826855"/>
<path d="M57 26H56V27H57V26Z" fill="#FFB964"/>
<path d="M58 26H57V27H58V26Z" fill="#FFB964"/>
<path d="M59 26H58V27H59V26Z" fill="#9A2A2F"/>
<path d="M60 26H59V27H60V26Z" fill="#9A2A2F"/>
<path d="M61 26H60V27H61V26Z" fill="#9A2A2F"/>
<path d="M62 26H61V27H62V26Z" fill="#9A2A2F"/>
<path d="M63 26H62V27H63V26Z" fill="#9A2A2F"/>
<path d="M64 26H63V27H64V26Z" fill="#FFB964"/>
<path d="M23 27H22V28H23V27Z" fill="#FFB964"/>
<path d="M24 27H23V28H24V27Z" fill="#FFB964"/>
<path d="M25 27H24V28H25V27Z" fill="#FFB964"/>
<path d="M32 27H31V28H32V27Z" fill="#AA7A57"/>
<path d="M33 27H32V28H33V27Z" fill="#AA7A57"/>
<path d="M34 27H33V28H34V27Z" fill="#FFF4DE"/>
<path d="M35 27H34V28H35V27Z" fill="#FFF4DE"/>
<path d="M36 27H35V28H36V27Z" fill="#864A39"/>
<path d="M37 27H36V28H37V27Z" fill="#864A39"/>
<path d="M38 27H37V28H38V27Z" fill="#DB5656"/>
<path d="M39 27H38V28H39V27Z" fill="#DB5656"/>
<path d="M40 27H39V28H40V27Z" fill="#F65858"/>
<path d="M41 27H40V28H41V27Z" fill="#F65858"/>
<path d="M42 27H41V28H42V27Z" fill="#DB5656"/>
<path d="M43 27H42V28H43V27Z" fill="#DB5656"/>
<path d="M44 27H43V28H44V27Z" fill="#A65F4C"/>
<path d="M45 27H44V28H45V27Z" fill="#A65F4C"/>
<path d="M46 27H45V28H46V27Z" fill="#F2BB4E"/>
<path d="M47 27H46V28H47V27Z" fill="#F2BB4E"/>
<path d="M48 27H47V28H48V27Z" fill="#826855"/>
<path d="M49 27H48V28H49V27Z" fill="#826855"/>
<path d="M56 27H55V28H56V27Z" fill="#FFB964"/>
<path d="M57 27H56V28H57V27Z" fill="#9A2A2F"/>
<path d="M58 27H57V28H58V27Z" fill="#9A2A2F"/>
<path d="M59 27H58V28H59V27Z" fill="#9A2A2F"/>
<path d="M60 27H59V28H60V27Z" fill="#9A2A2F"/>
<path d="M61 27H60V28H61V27Z" fill="#9A2A2F"/>
<path d="M62 27H61V28H62V27Z" fill="#9A2A2F"/>
<path d="M63 27H62V28H63V27Z" fill="#9A2A2F"/>
<path d="M64 27H63V28H64V27Z" fill="#753027"/>
<path d="M65 27H64V28H65V27Z" fill="#FFB964"/>
<path d="M21 28H20V29H21V28Z" fill="#FFB964"/>
<path d="M22 28H21V29H22V28Z" fill="#FFB964"/>
<path d="M23 28H22V29H23V28Z" fill="#161616"/>
<path d="M24 28H23V29H24V28Z" fill="#161616"/>
<path d="M25 28H24V29H25V28Z" fill="#161616"/>
<path d="M26 28H25V29H26V28Z" fill="#FFB964"/>
<path d="M33 28H32V29H33V28Z" fill="#AA7A57"/>
<path d="M34 28H33V29H34V28Z" fill="#AA7A57"/>
<path d="M35 28H34V29H35V28Z" fill="#FFF4DE"/>
<path d="M36 28H35V29H36V28Z" fill="#FFF4DE"/>
<path d="M37 28H36V29H37V28Z" fill="#864A39"/>
<path d="M38 28H37V29H38V28Z" fill="#864A39"/>
<path d="M39 28H38V29H39V28Z" fill="#DB5656"/>
<path d="M40 28H39V29H40V28Z" fill="#DB5656"/>
<path d="M41 28H40V29H41V28Z" fill="#DB5656"/>
<path d="M42 28H41V29H42V28Z" fill="#DB5656"/>
<path d="M43 28H42V29H43V28Z" fill="#A65F4C"/>
<path d="M44 28H43V29H44V28Z" fill="#A65F4C"/>
<path d="M45 28H44V29H45V28Z" fill="#F2BB4E"/>
<path d="M46 28H45V29H46V28Z" fill="#F2BB4E"/>
<path d="M47 28H46V29H47V28Z" fill="#826855"/>
<path d="M48 28H47V29H48V28Z" fill="#826855"/>
<path d="M55 28H54V29H55V28Z" fill="#FFB964"/>
<path d="M56 28H55V29H56V28Z" fill="#753027"/>
<path d="M57 28H56V29H57V28Z" fill="#9A2A2F"/>
<path d="M58 28H57V29H58V28Z" fill="#9A2A2F"/>
<path d="M59 28H58V29H59V28Z" fill="#9A2A2F"/>
<path d="M60 28H59V29H60V28Z" fill="#9A2A2F"/>
<path d="M61 28H60V29H61V28Z" fill="#AE2431"/>
<path d="M62 28H61V29H62V28Z" fill="#AE2431"/>
<path d="M63 28H62V29H63V28Z" fill="#AE2431"/>
<path d="M64 28H63V29H64V28Z" fill="#A72530"/>
<path d="M65 28H64V29H65V28Z" fill="#FFB964"/>
<path d="M20 29H19V30H20V29Z" fill="#FFB964"/>
<path d="M21 29H20V30H21V29Z" fill="#161616"/>
<path d="M22 29H21V30H22V29Z" fill="#161616"/>
<path d="M23 29H22V30H23V29Z" fill="#161616"/>
<path d="M24 29H23V30H24V29Z" fill="#161616"/>
<path d="M25 29H24V30H25V29Z" fill="#161616"/>
<path d="M26 29H25V30H26V29Z" fill="#161616"/>
<path d="M27 29H26V30H27V29Z" fill="#FFB964"/>
<path d="M34 29H33V30H34V29Z" fill="#AA7A57"/>
<path d="M35 29H34V30H35V29Z" fill="#AA7A57"/>
<path d="M36 29H35V30H36V29Z" fill="#FFF4DE"/>
<path d="M37 29H36V30H37V29Z" fill="#FFF4DE"/>
<path d="M38 29H37V30H38V29Z" fill="#864A39"/>
<path d="M39 29H38V30H39V29Z" fill="#864A39"/>
<path d="M40 29H39V30H40V29Z" fill="#DB5656"/>
<path d="M41 29H40V30H41V29Z" fill="#DB5656"/>
<path d="M42 29H41V30H42V29Z" fill="#A65F4C"/>
<path d="M43 29H42V30H43V29Z" fill="#A65F4C"/>
<path d="M44 29H43V30H44V29Z" fill="#F2BB4E"/>
<path d="M45 29H44V30H45V29Z" fill="#F2BB4E"/>
<path d="M46 29H45V30H46V29Z" fill="#826855"/>
<path d="M47 29H46V30H47V29Z" fill="#826855"/>
<path d="M54 29H53V30H54V29Z" fill="#FFB964"/>
<path d="M55 29H54V30H55V29Z" fill="#753027"/>
<path d="M56 29H55V30H56V29Z" fill="#9A2A2F"/>
<path d="M57 29H56V30H57V29Z" fill="#9A2A2F"/>
<path d="M58 29H57V30H58V29Z" fill="#AE2431"/>
<path d="M59 29H58V30H59V29Z" fill="#AE2431"/>
<path d="M60 29H59V30H60V29Z" fill="#AE2431"/>
<path d="M61 29H60V30H61V29Z" fill="#AE2431"/>
<path d="M62 29H61V30H62V29Z" fill="#AE2431"/>
<path d="M63 29H62V30H63V29Z" fill="#AE2431"/>
<path d="M64 29H63V30H64V29Z" fill="#A72530"/>
<path d="M65 29H64V30H65V29Z" fill="#EC9A5F"/>
<path d="M19 30H18V31H19V30Z" fill="#FFB964"/>
<path d="M20 30H19V31H20V30Z" fill="#181614"/>
<path d="M21 30H20V31H21V30Z" fill="#161616"/>
<path d="M22 30H21V31H22V30Z" fill="#161616"/>
<path d="M23 30H22V31H23V30Z" fill="#161616"/>
<path d="M24 30H23V31H24V30Z" fill="#161616"/>
<path d="M25 30H24V31H25V30Z" fill="#161616"/>
<path d="M26 30H25V31H26V30Z" fill="#161616"/>
<path d="M27 30H26V31H27V30Z" fill="#161616"/>
<path d="M28 30H27V31H28V30Z" fill="#FFB964"/>
<path d="M35 30H34V31H35V30Z" fill="#826855"/>
<path d="M36 30H35V31H36V30Z" fill="#826855"/>
<path d="M37 30H36V31H37V30Z" fill="#FFD88B"/>
<path d="M38 30H37V31H38V30Z" fill="#FFD88B"/>
<path d="M39 30H38V31H39V30Z" fill="#864A39"/>
<path d="M40 30H39V31H40V30Z" fill="#864A39"/>
<path d="M41 30H40V31H41V30Z" fill="#864A39"/>
<path d="M42 30H41V31H42V30Z" fill="#864A39"/>
<path d="M43 30H42V31H43V30Z" fill="#F2BB4E"/>
<path d="M44 30H43V31H44V30Z" fill="#F2BB4E"/>
<path d="M45 30H44V31H45V30Z" fill="#826855"/>
<path d="M46 30H45V31H46V30Z" fill="#826855"/>
<path d="M53 30H52V31H53V30Z" fill="#FFB964"/>
<path d="M54 30H53V31H54V30Z" fill="#753027"/>
<path d="M55 30H54V31H55V30Z" fill="#A22730"/>
<path d="M56 30H55V31H56V30Z" fill="#A22730"/>
<path d="M57 30H56V31H57V30Z" fill="#AE2431"/>
<path d="M58 30H57V31H58V30Z" fill="#AE2431"/>
<path d="M59 30H58V31H59V30Z" fill="#AE2431"/>
<path d="M60 30H59V31H60V30Z" fill="#AE2431"/>
<path d="M61 30H60V31H61V30Z" fill="#AE2431"/>
<path d="M62 30H61V31H62V30Z" fill="#AE2431"/>
<path d="M63 30H62V31H63V30Z" fill="#AE2431"/>
<path d="M64 30H63V31H64V30Z" fill="#A72530"/>
<path d="M65 30H64V31H65V30Z" fill="#EC9A5F"/>
<path d="M18 31H17V32H18V31Z" fill="#FFB964"/>
<path d="M19 31H18V32H19V31Z" fill="#181614"/>
<path d="M20 31H19V32H20V31Z" fill="#161616"/>
<path d="M21 31H20V32H21V31Z" fill="#161616"/>
<path d="M22 31H21V32H22V31Z" fill="#161616"/>
<path d="M23 31H22V32H23V31Z" fill="#161616"/>
<path d="M24 31H23V32H24V31Z" fill="#161616"/>
<path d="M25 31H24V32H25V31Z" fill="#161616"/>
<path d="M26 31H25V32H26V31Z" fill="#161616"/>
<path d="M27 31H26V32H27V31Z" fill="#161616"/>
<path d="M28 31H27V32H28V31Z" fill="#161616"/>
<path d="M29 31H28V32H29V31Z" fill="#FFB964"/>
<path d="M36 31H35V32H36V31Z" fill="#826855"/>
<path d="M37 31H36V32H37V31Z" fill="#826855"/>
<path d="M38 31H37V32H38V31Z" fill="#FFD88B"/>
<path d="M39 31H38V32H39V31Z" fill="#FFD88B"/>
<path d="M40 31H39V32H40V31Z" fill="#864A39"/>
<path d="M41 31H40V32H41V31Z" fill="#864A39"/>
<path d="M42 31H41V32H42V31Z" fill="#F2BB4E"/>
<path d="M43 31H42V32H43V31Z" fill="#F2BB4E"/>
<path d="M44 31H43V32H44V31Z" fill="#826855"/>
<path d="M45 31H44V32H45V31Z" fill="#826855"/>
<path d="M52 31H51V32H52V31Z" fill="#FFB964"/>
<path d="M53 31H52V32H53V31Z" fill="#A22730"/>
<path d="M54 31H53V32H54V31Z" fill="#A22730"/>
<path d="M55 31H54V32H55V31Z" fill="#A22730"/>
<path d="M56 31H55V32H56V31Z" fill="#A22730"/>
<path d="M57 31H56V32H57V31Z" fill="#AE2431"/>
<path d="M58 31H57V32H58V31Z" fill="#AE2431"/>
<path d="M59 31H58V32H59V31Z" fill="#AE2431"/>
<path d="M60 31H59V32H60V31Z" fill="#AE2431"/>
<path d="M61 31H60V32H61V31Z" fill="#AE2431"/>
<path d="M62 31H61V32H62V31Z" fill="#AE2431"/>
<path d="M63 31H62V32H63V31Z" fill="#AE2431"/>
<path d="M64 31H63V32H64V31Z" fill="#A72530"/>
<path d="M65 31H64V32H65V31Z" fill="#EC9A5F"/>
<path d="M17 32H16V33H17V32Z" fill="#FFB964"/>
<path d="M18 32H17V33H18V32Z" fill="#181614"/>
<path d="M19 32H18V33H19V32Z" fill="#181614"/>
<path d="M20 32H19V33H20V32Z" fill="#181614"/>
<path d="M21 32H20V33H21V32Z" fill="#161616"/>
<path d="M22 32H21V33H22V32Z" fill="#161616"/>
<path d="M23 32H22V33H23V32Z" fill="#161616"/>
<path d="M24 32H23V33H24V32Z" fill="#161616"/>
<path d="M25 32H24V33H25V32Z" fill="#161616"/>
<path d="M26 32H25V33H26V32Z" fill="#161616"/>
<path d="M27 32H26V33H27V32Z" fill="#161616"/>
<path d="M28 32H27V33H28V32Z" fill="#161616"/>
<path d="M29 32H28V33H29V32Z" fill="#FFB964"/>
<path d="M37 32H36V33H37V32Z" fill="#675243"/>
<path d="M38 32H37V33H38V32Z" fill="#675243"/>
<path d="M39 32H38V33H39V32Z" fill="#D7976A"/>
<path d="M40 32H39V33H40V32Z" fill="#D7976A"/>
<path d="M41 32H40V33H41V32Z" fill="#D7976A"/>
<path d="M42 32H41V33H42V32Z" fill="#D7976A"/>
<path d="M43 32H42V33H43V32Z" fill="#826855"/>
<path d="M44 32H43V33H44V32Z" fill="#826855"/>
<path d="M52 32H51V33H52V32Z" fill="#FFB964"/>
<path d="M53 32H52V33H53V32Z" fill="#A22730"/>
<path d="M54 32H53V33H54V32Z" fill="#A22730"/>
<path d="M55 32H54V33H55V32Z" fill="#A22730"/>
<path d="M56 32H55V33H56V32Z" fill="#AE2431"/>
<path d="M57 32H56V33H57V32Z" fill="#AE2431"/>
<path d="M58 32H57V33H58V32Z" fill="#AE2431"/>
<path d="M59 32H58V33H59V32Z" fill="#AE2431"/>
<path d="M60 32H59V33H60V32Z" fill="#AE2431"/>
<path d="M61 32H60V33H61V32Z" fill="#AE2431"/>
<path d="M62 32H61V33H62V32Z" fill="#AE2431"/>
<path d="M63 32H62V33H63V32Z" fill="#AE2431"/>
<path d="M64 32H63V33H64V32Z" fill="#B12232"/>
<path d="M65 32H64V33H65V32Z" fill="#EC9A5F"/>
<path d="M16 33H15V34H16V33Z" fill="#FFB964"/>
<path d="M17 33H16V34H17V33Z" fill="#181614"/>
<path d="M18 33H17V34H18V33Z" fill="#181614"/>
<path d="M19 33H18V34H19V33Z" fill="#181614"/>
<path d="M20 33H19V34H20V33Z" fill="#181614"/>
<path d="M21 33H20V34H21V33Z" fill="#161616"/>
<path d="M22 33H21V34H22V33Z" fill="#161616"/>
<path d="M23 33H22V34H23V33Z" fill="#37351A"/>
<path d="M24 33H23V34H24V33Z" fill="#38351B"/>
<path d="M25 33H24V34H25V33Z" fill="#38351B"/>
<path d="M26 33H25V34H26V33Z" fill="#161616"/>
<path d="M27 33H26V34H27V33Z" fill="#161616"/>
<path d="M28 33H27V34H28V33Z" fill="#161616"/>
<path d="M29 33H28V34H29V33Z" fill="#FFB964"/>
<path d="M38 33H37V34H38V33Z" fill="#675243"/>
<path d="M39 33H38V34H39V33Z" fill="#675243"/>
<path d="M40 33H39V34H40V33Z" fill="#D7976A"/>
<path d="M41 33H40V34H41V33Z" fill="#D7976A"/>
<path d="M42 33H41V34H42V33Z" fill="#826855"/>
<path d="M43 33H42V34H43V33Z" fill="#826855"/>
<path d="M52 33H51V34H52V33Z" fill="#FFB964"/>
<path d="M53 33H52V34H53V33Z" fill="#A22730"/>
<path d="M54 33H53V34H54V33Z" fill="#A22730"/>
<path d="M55 33H54V34H55V33Z" fill="#A22730"/>
<path d="M56 33H55V34H56V33Z" fill="#AE2431"/>
<path d="M57 33H56V34H57V33Z" fill="#AE2431"/>
<path d="M58 33H57V34H58V33Z" fill="#AE2431"/>
<path d="M59 33H58V34H59V33Z" fill="#AE2431"/>
<path d="M60 33H59V34H60V33Z" fill="#AE2431"/>
<path d="M61 33H60V34H61V33Z" fill="#AE2431"/>
<path d="M62 33H61V34H62V33Z" fill="#AE2431"/>
<path d="M63 33H62V34H63V33Z" fill="#AE2431"/>
<path d="M64 33H63V34H64V33Z" fill="#B12232"/>
<path d="M65 33H64V34H65V33Z" fill="#EC9A5F"/>
<path d="M16 34H15V35H16V34Z" fill="#FFB964"/>
<path d="M17 34H16V35H17V34Z" fill="#181614"/>
<path d="M18 34H17V35H18V34Z" fill="#181614"/>
<path d="M19 34H18V35H19V34Z" fill="#181614"/>
<path d="M20 34H19V35H20V34Z" fill="#181614"/>
<path d="M21 34H20V35H21V34Z" fill="#37351A"/>
<path d="M22 34H21V35H22V34Z" fill="#37351A"/>
<path d="M23 34H22V35H23V34Z" fill="#37351A"/>
<path d="M24 34H23V35H24V34Z" fill="#38351B"/>
<path d="M25 34H24V35H25V34Z" fill="#38351B"/>
<path d="M26 34H25V35H26V34Z" fill="#161616"/>
<path d="M27 34H26V35H27V34Z" fill="#161616"/>
<path d="M28 34H27V35H28V34Z" fill="#38351B"/>
<path d="M29 34H28V35H29V34Z" fill="#FFB964"/>
<path d="M32 34H31V35H32V34Z" fill="#FFB964"/>
<path d="M39 34H38V35H39V34Z" fill="#675243"/>
<path d="M40 34H39V35H40V34Z" fill="#675243"/>
<path d="M41 34H40V35H41V34Z" fill="#675243"/>
<path d="M42 34H41V35H42V34Z" fill="#675243"/>
<path d="M49 34H48V35H49V34Z" fill="#FFB964"/>
<path d="M52 34H51V35H52V34Z" fill="#FFB964"/>
<path d="M53 34H52V35H53V34Z" fill="#A22730"/>
<path d="M54 34H53V35H54V34Z" fill="#A22730"/>
<path d="M55 34H54V35H55V34Z" fill="#A22730"/>
<path d="M56 34H55V35H56V34Z" fill="#A22730"/>
<path d="M57 34H56V35H57V34Z" fill="#AE2431"/>
<path d="M58 34H57V35H58V34Z" fill="#AE2431"/>
<path d="M59 34H58V35H59V34Z" fill="#AE2431"/>
<path d="M60 34H59V35H60V34Z" fill="#30232A"/>
<path d="M61 34H60V35H61V34Z" fill="#30232A"/>
<path d="M62 34H61V35H62V34Z" fill="#30232A"/>
<path d="M63 34H62V35H63V34Z" fill="#30232A"/>
<path d="M64 34H63V35H64V34Z" fill="#B12232"/>
<path d="M65 34H64V35H65V34Z" fill="#EC9A5F"/>
<path d="M16 35H15V36H16V35Z" fill="#FFB964"/>
<path d="M17 35H16V36H17V35Z" fill="#181614"/>
<path d="M18 35H17V36H18V35Z" fill="#181614"/>
<path d="M19 35H18V36H19V35Z" fill="#181614"/>
<path d="M20 35H19V36H20V35Z" fill="#181614"/>
<path d="M21 35H20V36H21V35Z" fill="#37351A"/>
<path d="M22 35H21V36H22V35Z" fill="#37351A"/>
<path d="M23 35H22V36H23V35Z" fill="#37351A"/>
<path d="M24 35H23V36H24V35Z" fill="#38351B"/>
<path d="M25 35H24V36H25V35Z" fill="#38351B"/>
<path d="M26 35H25V36H26V35Z" fill="#38351B"/>
<path d="M27 35H26V36H27V35Z" fill="#38351B"/>
<path d="M28 35H27V36H28V35Z" fill="#38351B"/>
<path d="M29 35H28V36H29V35Z" fill="#FFB964"/>
<path d="M32 35H31V36H32V35Z" fill="#FFB964"/>
<path d="M33 35H32V36H33V35Z" fill="#FFB964"/>
<path d="M40 35H39V36H40V35Z" fill="#675243"/>
<path d="M41 35H40V36H41V35Z" fill="#675243"/>
<path d="M48 35H47V36H48V35Z" fill="#FFB964"/>
<path d="M49 35H48V36H49V35Z" fill="#FFB964"/>
<path d="M52 35H51V36H52V35Z" fill="#FFB964"/>
<path d="M53 35H52V36H53V35Z" fill="#A22730"/>
<path d="M54 35H53V36H54V35Z" fill="#A22730"/>
<path d="M55 35H54V36H55V35Z" fill="#A22730"/>
<path d="M56 35H55V36H56V35Z" fill="#AE2431"/>
<path d="M57 35H56V36H57V35Z" fill="#30232A"/>
<path d="M58 35H57V36H58V35Z" fill="#30232A"/>
<path d="M59 35H58V36H59V35Z" fill="#30232A"/>
<path d="M60 35H59V36H60V35Z" fill="#30232A"/>
<path d="M61 35H60V36H61V35Z" fill="#30232A"/>
<path d="M62 35H61V36H62V35Z" fill="#30232A"/>
<path d="M63 35H62V36H63V35Z" fill="#30232A"/>
<path d="M64 35H63V36H64V35Z" fill="#B12232"/>
<path d="M65 35H64V36H65V35Z" fill="#EC9A5F"/>
<path d="M16 36H15V37H16V36Z" fill="#FFB964"/>
<path d="M17 36H16V37H17V36Z" fill="#181614"/>
<path d="M18 36H17V37H18V36Z" fill="#181614"/>
<path d="M19 36H18V37H19V36Z" fill="#181614"/>
<path d="M20 36H19V37H20V36Z" fill="#37351A"/>
<path d="M21 36H20V37H21V36Z" fill="#37351A"/>
<path d="M22 36H21V37H22V36Z" fill="#37351A"/>
<path d="M23 36H22V37H23V36Z" fill="#38351B"/>
<path d="M24 36H23V37H24V36Z" fill="#38351B"/>
<path d="M25 36H24V37H25V36Z" fill="#38351B"/>
<path d="M26 36H25V37H26V36Z" fill="#38351B"/>
<path d="M27 36H26V37H27V36Z" fill="#38351B"/>
<path d="M28 36H27V37H28V36Z" fill="#38351B"/>
<path d="M29 36H28V37H29V36Z" fill="#FFB964"/>
<path d="M32 36H31V37H32V36Z" fill="#FFB964"/>
<path d="M33 36H32V37H33V36Z" fill="#38597D"/>
<path d="M34 36H33V37H34V36Z" fill="#FFB964"/>
<path d="M47 36H46V37H47V36Z" fill="#FFB964"/>
<path d="M48 36H47V37H48V36Z" fill="#81B0D2"/>
<path d="M49 36H48V37H49V36Z" fill="#FFB964"/>
<path d="M52 36H51V37H52V36Z" fill="#FFB964"/>
<path d="M53 36H52V37H53V36Z" fill="#A22730"/>
<path d="M54 36H53V37H54V36Z" fill="#30232A"/>
<path d="M55 36H54V37H55V36Z" fill="#30232A"/>
<path d="M56 36H55V37H56V36Z" fill="#30232A"/>
<path d="M57 36H56V37H57V36Z" fill="#30232A"/>
<path d="M58 36H57V37H58V36Z" fill="#30232A"/>
<path d="M59 36H58V37H59V36Z" fill="#30232A"/>
<path d="M60 36H59V37H60V36Z" fill="#30232A"/>
<path d="M61 36H60V37H61V36Z" fill="#30232A"/>
<path d="M62 36H61V37H62V36Z" fill="#30232A"/>
<path d="M63 36H62V37H63V36Z" fill="#30232A"/>
<path d="M64 36H63V37H64V36Z" fill="#B12232"/>
<path d="M65 36H64V37H65V36Z" fill="#D47459"/>
<path d="M16 37H15V38H16V37Z" fill="#EC9A5F"/>
<path d="M17 37H16V38H17V37Z" fill="#181614"/>
<path d="M18 37H17V38H18V37Z" fill="#181614"/>
<path d="M19 37H18V38H19V37Z" fill="#36351A"/>
<path d="M20 37H19V38H20V37Z" fill="#36351A"/>
<path d="M21 37H20V38H21V37Z" fill="#37351A"/>
<path d="M22 37H21V38H22V37Z" fill="#37351A"/>
<path d="M23 37H22V38H23V37Z" fill="#37351A"/>
<path d="M24 37H23V38H24V37Z" fill="#38351B"/>
<path d="M25 37H24V38H25V37Z" fill="#38351B"/>
<path d="M26 37H25V38H26V37Z" fill="#38351B"/>
<path d="M27 37H26V38H27V37Z" fill="#38351B"/>
<path d="M28 37H27V38H28V37Z" fill="#38351B"/>
<path d="M29 37H28V38H29V37Z" fill="#FFB964"/>
<path d="M32 37H31V38H32V37Z" fill="#FFB964"/>
<path d="M33 37H32V38H33V37Z" fill="#38597D"/>
<path d="M34 37H33V38H34V37Z" fill="#38597D"/>
<path d="M35 37H34V38H35V37Z" fill="#FFB964"/>
<path d="M46 37H45V38H46V37Z" fill="#FFB964"/>
<path d="M47 37H46V38H47V37Z" fill="#81B0D2"/>
<path d="M48 37H47V38H48V37Z" fill="#81B0D2"/>
<path d="M49 37H48V38H49V37Z" fill="#FFB964"/>
<path d="M52 37H51V38H52V37Z" fill="#FFB964"/>
<path d="M53 37H52V38H53V37Z" fill="#30232A"/>
<path d="M54 37H53V38H54V37Z" fill="#30232A"/>
<path d="M55 37H54V38H55V37Z" fill="#30232A"/>
<path d="M56 37H55V38H56V37Z" fill="#30232A"/>
<path d="M57 37H56V38H57V37Z" fill="#30232A"/>
<path d="M58 37H57V38H58V37Z" fill="#30232A"/>
<path d="M59 37H58V38H59V37Z" fill="#30232A"/>
<path d="M60 37H59V38H60V37Z" fill="#30232A"/>
<path d="M61 37H60V38H61V37Z" fill="#30232A"/>
<path d="M62 37H61V38H62V37Z" fill="#30232A"/>
<path d="M63 37H62V38H63V37Z" fill="#30232A"/>
<path d="M64 37H63V38H64V37Z" fill="#B12232"/>
<path d="M65 37H64V38H65V37Z" fill="#D47459"/>
<path d="M16 38H15V39H16V38Z" fill="#EC9A5F"/>
<path d="M17 38H16V39H17V38Z" fill="#181614"/>
<path d="M18 38H17V39H18V38Z" fill="#36351A"/>
<path d="M19 38H18V39H19V38Z" fill="#36351A"/>
<path d="M20 38H19V39H20V38Z" fill="#36351A"/>
<path d="M21 38H20V39H21V38Z" fill="#37351A"/>
<path d="M22 38H21V39H22V38Z" fill="#5B562C"/>
<path d="M23 38H22V39H23V38Z" fill="#5B562C"/>
<path d="M24 38H23V39H24V38Z" fill="#38351B"/>
<path d="M25 38H24V39H25V38Z" fill="#38351B"/>
<path d="M26 38H25V39H26V38Z" fill="#38351B"/>
<path d="M27 38H26V39H27V38Z" fill="#38351B"/>
<path d="M28 38H27V39H28V38Z" fill="#38351B"/>
<path d="M29 38H28V39H29V38Z" fill="#FFB964"/>
<path d="M32 38H31V39H32V38Z" fill="#FFB964"/>
<path d="M33 38H32V39H33V38Z" fill="#38597D"/>
<path d="M34 38H33V39H34V38Z" fill="#38597D"/>
<path d="M35 38H34V39H35V38Z" fill="#38597D"/>
<path d="M36 38H35V39H36V38Z" fill="#FFB964"/>
<path d="M45 38H44V39H45V38Z" fill="#FFB964"/>
<path d="M46 38H45V39H46V38Z" fill="#81B0D2"/>
<path d="M47 38H46V39H47V38Z" fill="#81B0D2"/>
<path d="M48 38H47V39H48V38Z" fill="#81B0D2"/>
<path d="M49 38H48V39H49V38Z" fill="#FFB964"/>
<path d="M52 38H51V39H52V38Z" fill="#FFB964"/>
<path d="M53 38H52V39H53V38Z" fill="#30232A"/>
<path d="M54 38H53V39H54V38Z" fill="#30232A"/>
<path d="M55 38H54V39H55V38Z" fill="#30232A"/>
<path d="M56 38H55V39H56V38Z" fill="#30232A"/>
<path d="M57 38H56V39H57V38Z" fill="#30232A"/>
<path d="M58 38H57V39H58V38Z" fill="#30232A"/>
<path d="M59 38H58V39H59V38Z" fill="#30232A"/>
<path d="M60 38H59V39H60V38Z" fill="#30232A"/>
<path d="M61 38H60V39H61V38Z" fill="#30232A"/>
<path d="M62 38H61V39H62V38Z" fill="#30232A"/>
<path d="M63 38H62V39H63V38Z" fill="#30232A"/>
<path d="M64 38H63V39H64V38Z" fill="#B12232"/>
<path d="M65 38H64V39H65V38Z" fill="#CD6957"/>
<path d="M16 39H15V40H16V39Z" fill="#EC9A5F"/>
<path d="M17 39H16V40H17V39Z" fill="#36351A"/>
<path d="M18 39H17V40H18V39Z" fill="#36351A"/>
<path d="M19 39H18V40H19V39Z" fill="#36351A"/>
<path d="M20 39H19V40H20V39Z" fill="#5B562C"/>
<path d="M21 39H20V40H21V39Z" fill="#5B562C"/>
<path d="M22 39H21V40H22V39Z" fill="#5B562C"/>
<path d="M23 39H22V40H23V39Z" fill="#5B562C"/>
<path d="M24 39H23V40H24V39Z" fill="#38351B"/>
<path d="M25 39H24V40H25V39Z" fill="#38351B"/>
<path d="M26 39H25V40H26V39Z" fill="#38351B"/>
<path d="M27 39H26V40H27V39Z" fill="#39361B"/>
<path d="M28 39H27V40H28V39Z" fill="#39361B"/>
<path d="M29 39H28V40H29V39Z" fill="#EC9A5F"/>
<path d="M32 39H31V40H32V39Z" fill="#FFB964"/>
<path d="M33 39H32V40H33V39Z" fill="#38597D"/>
<path d="M34 39H33V40H34V39Z" fill="#38597D"/>
<path d="M35 39H34V40H35V39Z" fill="#38597D"/>
<path d="M36 39H35V40H36V39Z" fill="#38597D"/>
<path d="M37 39H36V40H37V39Z" fill="#FFB964"/>
<path d="M44 39H43V40H44V39Z" fill="#FFB964"/>
<path d="M45 39H44V40H45V39Z" fill="#A6C2D8"/>
<path d="M46 39H45V40H46V39Z" fill="#A6C2D8"/>
<path d="M47 39H46V40H47V39Z" fill="#A6C2D8"/>
<path d="M48 39H47V40H48V39Z" fill="#A6C2D8"/>
<path d="M49 39H48V40H49V39Z" fill="#DE845C"/>
<path d="M52 39H51V40H52V39Z" fill="#FFB964"/>
<path d="M53 39H52V40H53V39Z" fill="#30232A"/>
<path d="M54 39H53V40H54V39Z" fill="#30232A"/>
<path d="M55 39H54V40H55V39Z" fill="#30232A"/>
<path d="M56 39H55V40H56V39Z" fill="#30232A"/>
<path d="M57 39H56V40H57V39Z" fill="#30232A"/>
<path d="M58 39H57V40H58V39Z" fill="#30232A"/>
<path d="M59 39H58V40H59V39Z" fill="#30232A"/>
<path d="M60 39H59V40H60V39Z" fill="#30232A"/>
<path d="M61 39H60V40H61V39Z" fill="#30232A"/>
<path d="M62 39H61V40H62V39Z" fill="#A92531"/>
<path d="M63 39H62V40H63V39Z" fill="#A92531"/>
<path d="M64 39H63V40H64V39Z" fill="#932B2D"/>
<path d="M65 39H64V40H65V39Z" fill="#DE845C"/>
<path d="M16 40H15V41H16V40Z" fill="#EC9A5F"/>
<path d="M17 40H16V41H17V40Z" fill="#5A552C"/>
<path d="M18 40H17V41H18V40Z" fill="#36351A"/>
<path d="M19 40H18V41H19V40Z" fill="#36351A"/>
<path d="M20 40H19V41H20V40Z" fill="#36351A"/>
<path d="M21 40H20V41H21V40Z" fill="#5B562C"/>
<path d="M22 40H21V41H22V40Z" fill="#5B562C"/>
<path d="M23 40H22V41H23V40Z" fill="#5B562C"/>
<path d="M24 40H23V41H24V40Z" fill="#191614"/>
<path d="M25 40H24V41H25V40Z" fill="#191614"/>
<path d="M26 40H25V41H26V40Z" fill="#39361B"/>
<path d="M27 40H26V41H27V40Z" fill="#39361B"/>
<path d="M28 40H27V41H28V40Z" fill="#39361B"/>
<path d="M29 40H28V41H29V40Z" fill="#DE845C"/>
<path d="M32 40H31V41H32V40Z" fill="#FFB964"/>
<path d="M33 40H32V41H33V40Z" fill="#38597D"/>
<path d="M34 40H33V41H34V40Z" fill="#38597D"/>
<path d="M35 40H34V41H35V40Z" fill="#38597D"/>
<path d="M36 40H35V41H36V40Z" fill="#A6C2D8"/>
<path d="M37 40H36V41H37V40Z" fill="#A6C2D8"/>
<path d="M38 40H37V41H38V40Z" fill="#FFB964"/>
<path d="M43 40H42V41H43V40Z" fill="#FFB964"/>
<path d="M44 40H43V41H44V40Z" fill="#81B0D2"/>
<path d="M45 40H44V41H45V40Z" fill="#A6C2D8"/>
<path d="M46 40H45V41H46V40Z" fill="#A6C2D8"/>
<path d="M47 40H46V41H47V40Z" fill="#A6C2D8"/>
<path d="M48 40H47V41H48V40Z" fill="#A6C2D8"/>
<path d="M49 40H48V41H49V40Z" fill="#DE845C"/>
<path d="M52 40H51V41H52V40Z" fill="#DE845C"/>
<path d="M53 40H52V41H53V40Z" fill="#30232A"/>
<path d="M54 40H53V41H54V40Z" fill="#30232A"/>
<path d="M55 40H54V41H55V40Z" fill="#30232A"/>
<path d="M56 40H55V41H56V40Z" fill="#30232A"/>
<path d="M57 40H56V41H57V40Z" fill="#30232A"/>
<path d="M58 40H57V41H58V40Z" fill="#A92531"/>
<path d="M59 40H58V41H59V40Z" fill="#A92531"/>
<path d="M60 40H59V41H60V40Z" fill="#A92531"/>
<path d="M61 40H60V41H61V40Z" fill="#A92531"/>
<path d="M62 40H61V41H62V40Z" fill="#A92531"/>
<path d="M63 40H62V41H63V40Z" fill="#A92531"/>
<path d="M64 40H63V41H64V40Z" fill="#932B2D"/>
<path d="M65 40H64V41H65V40Z" fill="#D47459"/>
<path d="M16 41H15V42H16V41Z" fill="#EC9A5F"/>
<path d="M17 41H16V42H17V41Z" fill="#5A552C"/>
<path d="M18 41H17V42H18V41Z" fill="#36351A"/>
<path d="M19 41H18V42H19V41Z" fill="#36351A"/>
<path d="M20 41H19V42H20V41Z" fill="#36351A"/>
<path d="M21 41H20V42H21V41Z" fill="#37351A"/>
<path d="M22 41H21V42H22V41Z" fill="#37351A"/>
<path d="M23 41H22V42H23V41Z" fill="#37351A"/>
<path d="M24 41H23V42H24V41Z" fill="#191614"/>
<path d="M25 41H24V42H25V41Z" fill="#191614"/>
<path d="M26 41H25V42H26V41Z" fill="#39361B"/>
<path d="M27 41H26V42H27V41Z" fill="#39361B"/>
<path d="M28 41H27V42H28V41Z" fill="#39361B"/>
<path d="M29 41H28V42H29V41Z" fill="#DE845C"/>
<path d="M32 41H31V42H32V41Z" fill="#EC9A5F"/>
<path d="M33 41H32V42H33V41Z" fill="#38597D"/>
<path d="M34 41H33V42H34V41Z" fill="#38597D"/>
<path d="M35 41H34V42H35V41Z" fill="#38597D"/>
<path d="M36 41H35V42H36V41Z" fill="#A6C2D8"/>
<path d="M37 41H36V42H37V41Z" fill="#A6C2D8"/>
<path d="M38 41H37V42H38V41Z" fill="#A6C2D8"/>
<path d="M39 41H38V42H39V41Z" fill="#EC9A5F"/>
<path d="M42 41H41V42H42V41Z" fill="#FFB964"/>
<path d="M43 41H42V42H43V41Z" fill="#81B0D2"/>
<path d="M44 41H43V42H44V41Z" fill="#81B0D2"/>
<path d="M45 41H44V42H45V41Z" fill="#A6C2D8"/>
<path d="M46 41H45V42H46V41Z" fill="#A6C2D8"/>
<path d="M47 41H46V42H47V41Z" fill="#A6C2D8"/>
<path d="M48 41H47V42H48V41Z" fill="#A6C2D8"/>
<path d="M49 41H48V42H49V41Z" fill="#DE845C"/>
<path d="M52 41H51V42H52V41Z" fill="#D47459"/>
<path d="M53 41H52V42H53V41Z" fill="#30232A"/>
<path d="M54 41H53V42H54V41Z" fill="#30232A"/>
<path d="M55 41H54V42H55V41Z" fill="#30232A"/>
<path d="M56 41H55V42H56V41Z" fill="#7E312C"/>
<path d="M57 41H56V42H57V41Z" fill="#A92531"/>
<path d="M58 41H57V42H58V41Z" fill="#A92531"/>
<path d="M59 41H58V42H59V41Z" fill="#A92531"/>
<path d="M60 41H59V42H60V41Z" fill="#A92531"/>
<path d="M61 41H60V42H61V41Z" fill="#A92531"/>
<path d="M62 41H61V42H62V41Z" fill="#A92531"/>
<path d="M63 41H62V42H63V41Z" fill="#A92531"/>
<path d="M64 41H63V42H64V41Z" fill="#932B2D"/>
<path d="M65 41H64V42H65V41Z" fill="#D47459"/>
<path d="M16 42H15V43H16V42Z" fill="#EC9A5F"/>
<path d="M17 42H16V43H17V42Z" fill="#36351A"/>
<path d="M18 42H17V43H18V42Z" fill="#36351A"/>
<path d="M19 42H18V43H19V42Z" fill="#36351A"/>
<path d="M20 42H19V43H20V42Z" fill="#36351A"/>
<path d="M21 42H20V43H21V42Z" fill="#37351A"/>
<path d="M22 42H21V43H22V42Z" fill="#37351A"/>
<path d="M23 42H22V43H23V42Z" fill="#37351A"/>
<path d="M24 42H23V43H24V42Z" fill="#191614"/>
<path d="M25 42H24V43H25V42Z" fill="#191614"/>
<path d="M26 42H25V43H26V42Z" fill="#39361B"/>
<path d="M27 42H26V43H27V42Z" fill="#39361B"/>
<path d="M28 42H27V43H28V42Z" fill="#39361B"/>
<path d="M29 42H28V43H29V42Z" fill="#DE845C"/>
<path d="M32 42H31V43H32V42Z" fill="#EC9A5F"/>
<path d="M33 42H32V43H33V42Z" fill="#38597D"/>
<path d="M34 42H33V43H34V42Z" fill="#38597D"/>
<path d="M35 42H34V43H35V42Z" fill="#38597D"/>
<path d="M36 42H35V43H36V42Z" fill="#A6C2D8"/>
<path d="M37 42H36V43H37V42Z" fill="#A6C2D8"/>
<path d="M38 42H37V43H38V42Z" fill="#A6C2D8"/>
<path d="M39 42H38V43H39V42Z" fill="#A6C2D8"/>
<path d="M40 42H39V43H40V42Z" fill="#EC9A5F"/>
<path d="M41 42H40V43H41V42Z" fill="#FFB964"/>
<path d="M42 42H41V43H42V42Z" fill="#81B0D2"/>
<path d="M43 42H42V43H43V42Z" fill="#81B0D2"/>
<path d="M44 42H43V43H44V42Z" fill="#A6C2D8"/>
<path d="M45 42H44V43H45V42Z" fill="#A6C2D8"/>
<path d="M46 42H45V43H46V42Z" fill="#A6C2D8"/>
<path d="M47 42H46V43H47V42Z" fill="#A6C2D8"/>
<path d="M48 42H47V43H48V42Z" fill="#A6C2D8"/>
<path d="M49 42H48V43H49V42Z" fill="#CD6957"/>
<path d="M52 42H51V43H52V42Z" fill="#CD6957"/>
<path d="M53 42H52V43H53V42Z" fill="#30232A"/>
<path d="M54 42H53V43H54V42Z" fill="#30232A"/>
<path d="M55 42H54V43H55V42Z" fill="#30232A"/>
<path d="M56 42H55V43H56V42Z" fill="#7E312C"/>
<path d="M57 42H56V43H57V42Z" fill="#A92531"/>
<path d="M58 42H57V43H58V42Z" fill="#A92531"/>
<path d="M59 42H58V43H59V42Z" fill="#A92531"/>
<path d="M60 42H59V43H60V42Z" fill="#A92531"/>
<path d="M61 42H60V43H61V42Z" fill="#A92531"/>
<path d="M62 42H61V43H62V42Z" fill="#A92531"/>
<path d="M63 42H62V43H63V42Z" fill="#A92531"/>
<path d="M64 42H63V43H64V42Z" fill="#932B2D"/>
<path d="M65 42H64V43H65V42Z" fill="#CD6957"/>
<path d="M16 43H15V44H16V43Z" fill="#EC9A5F"/>
<path d="M17 43H16V44H17V43Z" fill="#5A552C"/>
<path d="M18 43H17V44H18V43Z" fill="#36351A"/>
<path d="M19 43H18V44H19V43Z" fill="#36351A"/>
<path d="M20 43H19V44H20V43Z" fill="#36351A"/>
<path d="M21 43H20V44H21V43Z" fill="#37351A"/>
<path d="M22 43H21V44H22V43Z" fill="#37351A"/>
<path d="M23 43H22V44H23V43Z" fill="#181614"/>
<path d="M24 43H23V44H24V43Z" fill="#191614"/>
<path d="M25 43H24V44H25V43Z" fill="#191614"/>
<path d="M26 43H25V44H26V43Z" fill="#39361B"/>
<path d="M27 43H26V44H27V43Z" fill="#39361B"/>
<path d="M28 43H27V44H28V43Z" fill="#39361B"/>
<path d="M29 43H28V44H29V43Z" fill="#EC9A5F"/>
<path d="M32 43H31V44H32V43Z" fill="#EC9A5F"/>
<path d="M33 43H32V44H33V43Z" fill="#7BAAB3"/>
<path d="M34 43H33V44H34V43Z" fill="#7BAAB3"/>
<path d="M35 43H34V44H35V43Z" fill="#7BAAB3"/>
<path d="M36 43H35V44H36V43Z" fill="#38597D"/>
<path d="M37 43H36V44H37V43Z" fill="#A6C2D8"/>
<path d="M38 43H37V44H38V43Z" fill="#A6C2D8"/>
<path d="M39 43H38V44H39V43Z" fill="#A6C2D8"/>
<path d="M40 43H39V44H40V43Z" fill="#A6C2D8"/>
<path d="M41 43H40V44H41V43Z" fill="#81B0D2"/>
<path d="M42 43H41V44H42V43Z" fill="#81B0D2"/>
<path d="M43 43H42V44H43V43Z" fill="#81B0D2"/>
<path d="M44 43H43V44H44V43Z" fill="#81B0D2"/>
<path d="M45 43H44V44H45V43Z" fill="#A6C2D8"/>
<path d="M46 43H45V44H46V43Z" fill="#A6C2D8"/>
<path d="M47 43H46V44H47V43Z" fill="#A6C2D8"/>
<path d="M48 43H47V44H48V43Z" fill="#A6C2D8"/>
<path d="M49 43H48V44H49V43Z" fill="#CD6957"/>
<path d="M52 43H51V44H52V43Z" fill="#C86156"/>
<path d="M53 43H52V44H53V43Z" fill="#7E312C"/>
<path d="M54 43H53V44H54V43Z" fill="#7E312C"/>
<path d="M55 43H54V44H55V43Z" fill="#7E312C"/>
<path d="M56 43H55V44H56V43Z" fill="#7E312C"/>
<path d="M57 43H56V44H57V43Z" fill="#A92531"/>
<path d="M58 43H57V44H58V43Z" fill="#A92531"/>
<path d="M59 43H58V44H59V43Z" fill="#A92531"/>
<path d="M60 43H59V44H60V43Z" fill="#A92531"/>
<path d="M61 43H60V44H61V43Z" fill="#A92531"/>
<path d="M62 43H61V44H62V43Z" fill="#A92531"/>
<path d="M63 43H62V44H63V43Z" fill="#A92531"/>
<path d="M64 43H63V44H64V43Z" fill="#932B2D"/>
<path d="M65 43H64V44H65V43Z" fill="#DE845C"/>
<path d="M16 44H15V45H16V44Z" fill="#FFB964"/>
<path d="M17 44H16V45H17V44Z" fill="#36351A"/>
<path d="M18 44H17V45H18V44Z" fill="#36351A"/>
<path d="M19 44H18V45H19V44Z" fill="#36351A"/>
<path d="M20 44H19V45H20V44Z" fill="#181614"/>
<path d="M21 44H20V45H21V44Z" fill="#181614"/>
<path d="M22 44H21V45H22V44Z" fill="#181614"/>
<path d="M23 44H22V45H23V44Z" fill="#191614"/>
<path d="M24 44H23V45H24V44Z" fill="#191614"/>
<path d="M25 44H24V45H25V44Z" fill="#191614"/>
<path d="M26 44H25V45H26V44Z" fill="#5C582D"/>
<path d="M27 44H26V45H27V44Z" fill="#5C582D"/>
<path d="M28 44H27V45H28V44Z" fill="#5C582D"/>
<path d="M29 44H28V45H29V44Z" fill="#EC9A5F"/>
<path d="M32 44H31V45H32V44Z" fill="#FFB964"/>
<path d="M33 44H32V45H33V44Z" fill="#7BAAB3"/>
<path d="M34 44H33V45H34V44Z" fill="#7BAAB3"/>
<path d="M35 44H34V45H35V44Z" fill="#7BAAB3"/>
<path d="M36 44H35V45H36V44Z" fill="#81B0D2"/>
<path d="M37 44H36V45H37V44Z" fill="#81B0D2"/>
<path d="M38 44H37V45H38V44Z" fill="#81B0D2"/>
<path d="M39 44H38V45H39V44Z" fill="#81B0D2"/>
<path d="M40 44H39V45H40V44Z" fill="#81B0D2"/>
<path d="M41 44H40V45H41V44Z" fill="#81B0D2"/>
<path d="M42 44H41V45H42V44Z" fill="#81B0D2"/>
<path d="M43 44H42V45H43V44Z" fill="#81B0D2"/>
<path d="M44 44H43V45H44V44Z" fill="#81B0D2"/>
<path d="M45 44H44V45H45V44Z" fill="#A6C2D8"/>
<path d="M46 44H45V45H46V44Z" fill="#A6C2D8"/>
<path d="M47 44H46V45H47V44Z" fill="#A6C2D8"/>
<path d="M48 44H47V45H48V44Z" fill="#A6C2D8"/>
<path d="M49 44H48V45H49V44Z" fill="#C86156"/>
<path d="M52 44H51V45H52V44Z" fill="#C45B55"/>
<path d="M53 44H52V45H53V44Z" fill="#7E312C"/>
<path d="M54 44H53V45H54V44Z" fill="#7E312C"/>
<path d="M55 44H54V45H55V44Z" fill="#7E312C"/>
<path d="M56 44H55V45H56V44Z" fill="#A92531"/>
<path d="M57 44H56V45H57V44Z" fill="#A92531"/>
<path d="M58 44H57V45H58V44Z" fill="#A92531"/>
<path d="M59 44H58V45H59V44Z" fill="#A92531"/>
<path d="M60 44H59V45H60V44Z" fill="#A92531"/>
<path d="M61 44H60V45H61V44Z" fill="#A92531"/>
<path d="M62 44H61V45H62V44Z" fill="#A92531"/>
<path d="M63 44H62V45H63V44Z" fill="#A92531"/>
<path d="M64 44H63V45H64V44Z" fill="#932B2D"/>
<path d="M65 44H64V45H65V44Z" fill="#D47459"/>
<path d="M16 45H15V46H16V45Z" fill="#EC9A5F"/>
<path d="M17 45H16V46H17V45Z" fill="#36351A"/>
<path d="M18 45H17V46H18V45Z" fill="#36351A"/>
<path d="M19 45H18V46H19V45Z" fill="#36351A"/>
<path d="M20 45H19V46H20V45Z" fill="#36351A"/>
<path d="M21 45H20V46H21V45Z" fill="#181614"/>
<path d="M22 45H21V46H22V45Z" fill="#181614"/>
<path d="M23 45H22V46H23V45Z" fill="#9C8B2A"/>
<path d="M24 45H23V46H24V45Z" fill="#191614"/>
<path d="M25 45H24V46H25V45Z" fill="#191614"/>
<path d="M26 45H25V46H26V45Z" fill="#5C582D"/>
<path d="M27 45H26V46H27V45Z" fill="#5C582D"/>
<path d="M28 45H27V46H28V45Z" fill="#5C582D"/>
<path d="M29 45H28V46H29V45Z" fill="#EC9A5F"/>
<path d="M32 45H31V46H32V45Z" fill="#EC9A5F"/>
<path d="M33 45H32V46H33V45Z" fill="#7BAAB3"/>
<path d="M34 45H33V46H34V45Z" fill="#7BAAB3"/>
<path d="M35 45H34V46H35V45Z" fill="#7BAAB3"/>
<path d="M36 45H35V46H36V45Z" fill="#81B0D2"/>
<path d="M37 45H36V46H37V45Z" fill="#81B0D2"/>
<path d="M38 45H37V46H38V45Z" fill="#81B0D2"/>
<path d="M39 45H38V46H39V45Z" fill="#81B0D2"/>
<path d="M40 45H39V46H40V45Z" fill="#81B0D2"/>
<path d="M41 45H40V46H41V45Z" fill="#81B0D2"/>
<path d="M42 45H41V46H42V45Z" fill="#81B0D2"/>
<path d="M43 45H42V46H43V45Z" fill="#81B0D2"/>
<path d="M44 45H43V46H44V45Z" fill="#81B0D2"/>
<path d="M45 45H44V46H45V45Z" fill="#A6C2D8"/>
<path d="M46 45H45V46H46V45Z" fill="#A6C2D8"/>
<path d="M47 45H46V46H47V45Z" fill="#A6C2D8"/>
<path d="M48 45H47V46H48V45Z" fill="#A6C2D8"/>
<path d="M49 45H48V46H49V45Z" fill="#C15754"/>
<path d="M52 45H51V46H52V45Z" fill="#D47459"/>
<path d="M53 45H52V46H53V45Z" fill="#7E312C"/>
<path d="M54 45H53V46H54V45Z" fill="#7E312C"/>
<path d="M55 45H54V46H55V45Z" fill="#7E312C"/>
<path d="M56 45H55V46H56V45Z" fill="#7E312C"/>
<path d="M57 45H56V46H57V45Z" fill="#A92531"/>
<path d="M58 45H57V46H58V45Z" fill="#A92531"/>
<path d="M59 45H58V46H59V45Z" fill="#A92531"/>
<path d="M60 45H59V46H60V45Z" fill="#A92531"/>
<path d="M61 45H60V46H61V45Z" fill="#A92531"/>
<path d="M62 45H61V46H62V45Z" fill="#A92531"/>
<path d="M63 45H62V46H63V45Z" fill="#A92531"/>
<path d="M64 45H63V46H64V45Z" fill="#753027"/>
<path d="M65 45H64V46H65V45Z" fill="#D47459"/>
<path d="M16 46H15V47H16V46Z" fill="#DE845C"/>
<path d="M17 46H16V47H17V46Z" fill="#36351A"/>
<path d="M18 46H17V47H18V46Z" fill="#36351A"/>
<path d="M19 46H18V47H19V46Z" fill="#36351A"/>
<path d="M20 46H19V47H20V46Z" fill="#9C8A29"/>
<path d="M21 46H20V47H21V46Z" fill="#9C8B2A"/>
<path d="M22 46H21V47H22V46Z" fill="#9C8B2A"/>
<path d="M23 46H22V47H23V46Z" fill="#9C8B2A"/>
<path d="M24 46H23V47H24V46Z" fill="#191614"/>
<path d="M25 46H24V47H25V46Z" fill="#191614"/>
<path d="M26 46H25V47H26V46Z" fill="#5C582D"/>
<path d="M27 46H26V47H27V46Z" fill="#5C582D"/>
<path d="M28 46H27V47H28V46Z" fill="#5C582D"/>
<path d="M29 46H28V47H29V46Z" fill="#FFB964"/>
<path d="M32 46H31V47H32V46Z" fill="#EC9A5F"/>
<path d="M33 46H32V47H33V46Z" fill="#7BAAB3"/>
<path d="M34 46H33V47H34V46Z" fill="#7BAAB3"/>
<path d="M35 46H34V47H35V46Z" fill="#7BAAB3"/>
<path d="M36 46H35V47H36V46Z" fill="#7BAAB3"/>
<path d="M37 46H36V47H37V46Z" fill="#81B0D2"/>
<path d="M38 46H37V47H38V46Z" fill="#81B0D2"/>
<path d="M39 46H38V47H39V46Z" fill="#81B0D2"/>
<path d="M40 46H39V47H40V46Z" fill="#81B0D2"/>
<path d="M41 46H40V47H41V46Z" fill="#81B0D2"/>
<path d="M42 46H41V47H42V46Z" fill="#81B0D2"/>
<path d="M43 46H42V47H43V46Z" fill="#81B0D2"/>
<path d="M44 46H43V47H44V46Z" fill="#81B0D2"/>
<path d="M45 46H44V47H45V46Z" fill="#81B0D2"/>
<path d="M46 46H45V47H46V46Z" fill="#81B0D2"/>
<path d="M47 46H46V47H47V46Z" fill="#A6C2D8"/>
<path d="M48 46H47V47H48V46Z" fill="#A6C2D8"/>
<path d="M49 46H48V47H49V46Z" fill="#C86156"/>
<path d="M52 46H51V47H52V46Z" fill="#D47459"/>
<path d="M53 46H52V47H53V46Z" fill="#7E312C"/>
<path d="M54 46H53V47H54V46Z" fill="#7E312C"/>
<path d="M55 46H54V47H55V46Z" fill="#7E312C"/>
<path d="M56 46H55V47H56V46Z" fill="#A92531"/>
<path d="M57 46H56V47H57V46Z" fill="#A92531"/>
<path d="M58 46H57V47H58V46Z" fill="#A92531"/>
<path d="M59 46H58V47H59V46Z" fill="#A92531"/>
<path d="M60 46H59V47H60V46Z" fill="#4B2C33"/>
<path d="M61 46H60V47H61V46Z" fill="#4B2C33"/>
<path d="M62 46H61V47H62V46Z" fill="#4B2C33"/>
<path d="M63 46H62V47H63V46Z" fill="#4B2C33"/>
<path d="M64 46H63V47H64V46Z" fill="#753027"/>
<path d="M65 46H64V47H65V46Z" fill="#C86156"/>
<path d="M16 47H15V48H16V47Z" fill="#DE845C"/>
<path d="M17 47H16V48H17V47Z" fill="#9C8A29"/>
<path d="M18 47H17V48H18V47Z" fill="#9C8A29"/>
<path d="M19 47H18V48H19V47Z" fill="#9C8A29"/>
<path d="M20 47H19V48H20V47Z" fill="#9C8B2A"/>
<path d="M21 47H20V48H21V47Z" fill="#9C8B2A"/>
<path d="M22 47H21V48H22V47Z" fill="#9C8B2A"/>
<path d="M23 47H22V48H23V47Z" fill="#9C8B2A"/>
<path d="M24 47H23V48H24V47Z" fill="#191614"/>
<path d="M25 47H24V48H25V47Z" fill="#191614"/>
<path d="M26 47H25V48H26V47Z" fill="#5C572D"/>
<path d="M27 47H26V48H27V47Z" fill="#5C572D"/>
<path d="M28 47H27V48H28V47Z" fill="#5C572D"/>
<path d="M29 47H28V48H29V47Z" fill="#FFB964"/>
<path d="M32 47H31V48H32V47Z" fill="#EC9A5F"/>
<path d="M33 47H32V48H33V47Z" fill="#5983A0"/>
<path d="M34 47H33V48H34V47Z" fill="#5983A0"/>
<path d="M35 47H34V48H35V47Z" fill="#5983A0"/>
<path d="M36 47H35V48H36V47Z" fill="#5983A0"/>
<path d="M37 47H36V48H37V47Z" fill="#81B0D2"/>
<path d="M38 47H37V48H38V47Z" fill="#81B0D2"/>
<path d="M39 47H38V48H39V47Z" fill="#81B0D2"/>
<path d="M40 47H39V48H40V47Z" fill="#81B0D2"/>
<path d="M41 47H40V48H41V47Z" fill="#81B0D2"/>
<path d="M42 47H41V48H42V47Z" fill="#81B0D2"/>
<path d="M43 47H42V48H43V47Z" fill="#81B0D2"/>
<path d="M44 47H43V48H44V47Z" fill="#81B0D2"/>
<path d="M45 47H44V48H45V47Z" fill="#81B0D2"/>
<path d="M46 47H45V48H46V47Z" fill="#81B0D2"/>
<path d="M47 47H46V48H47V47Z" fill="#81B0D2"/>
<path d="M48 47H47V48H48V47Z" fill="#81B0D2"/>
<path d="M49 47H48V48H49V47Z" fill="#C45B55"/>
<path d="M52 47H51V48H52V47Z" fill="#CD6957"/>
<path d="M53 47H52V48H53V47Z" fill="#7E312C"/>
<path d="M54 47H53V48H54V47Z" fill="#7E312C"/>
<path d="M55 47H54V48H55V47Z" fill="#7E312C"/>
<path d="M56 47H55V48H56V47Z" fill="#7E312C"/>
<path d="M57 47H56V48H57V47Z" fill="#A92531"/>
<path d="M58 47H57V48H58V47Z" fill="#4B2C33"/>
<path d="M59 47H58V48H59V47Z" fill="#4B2C33"/>
<path d="M60 47H59V48H60V47Z" fill="#4B2C33"/>
<path d="M61 47H60V48H61V47Z" fill="#4B2C33"/>
<path d="M62 47H61V48H62V47Z" fill="#4B2C33"/>
<path d="M63 47H62V48H63V47Z" fill="#4B2C33"/>
<path d="M64 47H63V48H64V47Z" fill="#753027"/>
<path d="M65 47H64V48H65V47Z" fill="#CD6957"/>
<path d="M16 48H15V49H16V48Z" fill="#D47459"/>
<path d="M17 48H16V49H17V48Z" fill="#9C8A29"/>
<path d="M18 48H17V49H18V48Z" fill="#9C8A29"/>
<path d="M19 48H18V49H19V48Z" fill="#9C8A29"/>
<path d="M20 48H19V49H20V48Z" fill="#9C8A29"/>
<path d="M21 48H20V49H21V48Z" fill="#9C8B2A"/>
<path d="M22 48H21V49H22V48Z" fill="#181614"/>
<path d="M23 48H22V49H23V48Z" fill="#181614"/>
<path d="M24 48H23V49H24V48Z" fill="#191614"/>
<path d="M25 48H24V49H25V48Z" fill="#191614"/>
<path d="M26 48H25V49H26V48Z" fill="#5C572D"/>
<path d="M27 48H26V49H27V48Z" fill="#5C572D"/>
<path d="M28 48H27V49H28V48Z" fill="#5C572D"/>
<path d="M29 48H28V49H29V48Z" fill="#FFB964"/>
<path d="M32 48H31V49H32V48Z" fill="#EC9A5F"/>
<path d="M33 48H32V49H33V48Z" fill="#5983A0"/>
<path d="M34 48H33V49H34V48Z" fill="#5983A0"/>
<path d="M35 48H34V49H35V48Z" fill="#5983A0"/>
<path d="M36 48H35V49H36V48Z" fill="#5983A0"/>
<path d="M37 48H36V49H37V48Z" fill="#5983A0"/>
<path d="M38 48H37V49H38V48Z" fill="#5983A0"/>
<path d="M39 48H38V49H39V48Z" fill="#5983A0"/>
<path d="M40 48H39V49H40V48Z" fill="#81B0D2"/>
<path d="M41 48H40V49H41V48Z" fill="#81B0D2"/>
<path d="M42 48H41V49H42V48Z" fill="#81B0D2"/>
<path d="M43 48H42V49H43V48Z" fill="#81B0D2"/>
<path d="M44 48H43V49H44V48Z" fill="#81B0D2"/>
<path d="M45 48H44V49H45V48Z" fill="#81B0D2"/>
<path d="M46 48H45V49H46V48Z" fill="#81B0D2"/>
<path d="M47 48H46V49H47V48Z" fill="#81B0D2"/>
<path d="M48 48H47V49H48V48Z" fill="#81B0D2"/>
<path d="M49 48H48V49H49V48Z" fill="#C45B55"/>
<path d="M52 48H51V49H52V48Z" fill="#CD6957"/>
<path d="M53 48H52V49H53V48Z" fill="#7E312C"/>
<path d="M54 48H53V49H54V48Z" fill="#7E312C"/>
<path d="M55 48H54V49H55V48Z" fill="#4B2C33"/>
<path d="M56 48H55V49H56V48Z" fill="#4B2C33"/>
<path d="M57 48H56V49H57V48Z" fill="#4B2C33"/>
<path d="M58 48H57V49H58V48Z" fill="#4B2C33"/>
<path d="M59 48H58V49H59V48Z" fill="#4B2C33"/>
<path d="M60 48H59V49H60V48Z" fill="#4B2C33"/>
<path d="M61 48H60V49H61V48Z" fill="#4B2C33"/>
<path d="M62 48H61V49H62V48Z" fill="#4B2C33"/>
<path d="M63 48H62V49H63V48Z" fill="#4B2C33"/>
<path d="M64 48H63V49H64V48Z" fill="#753027"/>
<path d="M65 48H64V49H65V48Z" fill="#C86156"/>
<path d="M16 49H15V50H16V49Z" fill="#D47459"/>
<path d="M17 49H16V50H17V49Z" fill="#9C8A29"/>
<path d="M18 49H17V50H18V49Z" fill="#9C8A29"/>
<path d="M19 49H18V50H19V49Z" fill="#9C8A29"/>
<path d="M20 49H19V50H20V49Z" fill="#181614"/>
<path d="M21 49H20V50H21V49Z" fill="#181614"/>
<path d="M22 49H21V50H22V49Z" fill="#181614"/>
<path d="M23 49H22V50H23V49Z" fill="#181614"/>
<path d="M24 49H23V50H24V49Z" fill="#191614"/>
<path d="M25 49H24V50H25V49Z" fill="#191614"/>
<path d="M26 49H25V50H26V49Z" fill="#191614"/>
<path d="M27 49H26V50H27V49Z" fill="#5C572D"/>
<path d="M28 49H27V50H28V49Z" fill="#191614"/>
<path d="M29 49H28V50H29V49Z" fill="#FFB964"/>
<path d="M32 49H31V50H32V49Z" fill="#EC9A5F"/>
<path d="M33 49H32V50H33V49Z" fill="#5983A0"/>
<path d="M34 49H33V50H34V49Z" fill="#5983A0"/>
<path d="M35 49H34V50H35V49Z" fill="#5983A0"/>
<path d="M36 49H35V50H36V49Z" fill="#5983A0"/>
<path d="M37 49H36V50H37V49Z" fill="#5983A0"/>
<path d="M38 49H37V50H38V49Z" fill="#5983A0"/>
<path d="M39 49H38V50H39V49Z" fill="#5983A0"/>
<path d="M40 49H39V50H40V49Z" fill="#5983A0"/>
<path d="M41 49H40V50H41V49Z" fill="#A6C2D8"/>
<path d="M42 49H41V50H42V49Z" fill="#A6C2D8"/>
<path d="M43 49H42V50H43V49Z" fill="#A6C2D8"/>
<path d="M44 49H43V50H44V49Z" fill="#81B0D2"/>
<path d="M45 49H44V50H45V49Z" fill="#81B0D2"/>
<path d="M46 49H45V50H46V49Z" fill="#81B0D2"/>
<path d="M47 49H46V50H47V49Z" fill="#81B0D2"/>
<path d="M48 49H47V50H48V49Z" fill="#81B0D2"/>
<path d="M49 49H48V50H49V49Z" fill="#C86156"/>
<path d="M52 49H51V50H52V49Z" fill="#C86156"/>
<path d="M53 49H52V50H53V49Z" fill="#4B2C33"/>
<path d="M54 49H53V50H54V49Z" fill="#4B2C33"/>
<path d="M55 49H54V50H55V49Z" fill="#4B2C33"/>
<path d="M56 49H55V50H56V49Z" fill="#4B2C33"/>
<path d="M57 49H56V50H57V49Z" fill="#4B2C33"/>
<path d="M58 49H57V50H58V49Z" fill="#4B2C33"/>
<path d="M59 49H58V50H59V49Z" fill="#4B2C33"/>
<path d="M60 49H59V50H60V49Z" fill="#4B2C33"/>
<path d="M61 49H60V50H61V49Z" fill="#4B2C33"/>
<path d="M62 49H61V50H62V49Z" fill="#4B2C33"/>
<path d="M63 49H62V50H63V49Z" fill="#4B2C33"/>
<path d="M64 49H63V50H64V49Z" fill="#753027"/>
<path d="M65 49H64V50H65V49Z" fill="#CD6957"/>
<path d="M16 50H15V51H16V50Z" fill="#D47459"/>
<path d="M17 50H16V51H17V50Z" fill="#181614"/>
<path d="M18 50H17V51H18V50Z" fill="#181614"/>
<path d="M19 50H18V51H19V50Z" fill="#181614"/>
<path d="M20 50H19V51H20V50Z" fill="#181614"/>
<path d="M21 50H20V51H21V50Z" fill="#181614"/>
<path d="M22 50H21V51H22V50Z" fill="#181614"/>
<path d="M23 50H22V51H23V50Z" fill="#181614"/>
<path d="M24 50H23V51H24V50Z" fill="#191614"/>
<path d="M25 50H24V51H25V50Z" fill="#191614"/>
<path d="M26 50H25V51H26V50Z" fill="#191614"/>
<path d="M27 50H26V51H27V50Z" fill="#191614"/>
<path d="M28 50H27V51H28V50Z" fill="#191614"/>
<path d="M29 50H28V51H29V50Z" fill="#EC9A5F"/>
<path d="M32 50H31V51H32V50Z" fill="#DE845C"/>
<path d="M33 50H32V51H33V50Z" fill="#38597D"/>
<path d="M34 50H33V51H34V50Z" fill="#5983A0"/>
<path d="M35 50H34V51H35V50Z" fill="#5983A0"/>
<path d="M36 50H35V51H36V50Z" fill="#5983A0"/>
<path d="M37 50H36V51H37V50Z" fill="#5983A0"/>
<path d="M38 50H37V51H38V50Z" fill="#5983A0"/>
<path d="M39 50H38V51H39V50Z" fill="#5983A0"/>
<path d="M40 50H39V51H40V50Z" fill="#5983A0"/>
<path d="M41 50H40V51H41V50Z" fill="#A6C2D8"/>
<path d="M42 50H41V51H42V50Z" fill="#A6C2D8"/>
<path d="M43 50H42V51H43V50Z" fill="#A6C2D8"/>
<path d="M44 50H43V51H44V50Z" fill="#A6C2D8"/>
<path d="M45 50H44V51H45V50Z" fill="#A6C2D8"/>
<path d="M46 50H45V51H46V50Z" fill="#A6C2D8"/>
<path d="M47 50H46V51H47V50Z" fill="#A6C2D8"/>
<path d="M48 50H47V51H48V50Z" fill="#81B0D2"/>
<path d="M49 50H48V51H49V50Z" fill="#C45B55"/>
<path d="M52 50H51V51H52V50Z" fill="#C45B55"/>
<path d="M53 50H52V51H53V50Z" fill="#4B2C33"/>
<path d="M54 50H53V51H54V50Z" fill="#4B2C33"/>
<path d="M55 50H54V51H55V50Z" fill="#4B2C33"/>
<path d="M56 50H55V51H56V50Z" fill="#4B2C33"/>
<path d="M57 50H56V51H57V50Z" fill="#4B2C33"/>
<path d="M58 50H57V51H58V50Z" fill="#4B2C33"/>
<path d="M59 50H58V51H59V50Z" fill="#4B2C33"/>
<path d="M60 50H59V51H60V50Z" fill="#4B2C33"/>
<path d="M61 50H60V51H61V50Z" fill="#4B2C33"/>
<path d="M62 50H61V51H62V50Z" fill="#4B2C33"/>
<path d="M63 50H62V51H63V50Z" fill="#4B2C33"/>
<path d="M64 50H63V51H64V50Z" fill="#753027"/>
<path d="M65 50H64V51H65V50Z" fill="#CD6957"/>
<path d="M16 51H15V52H16V51Z" fill="#D47459"/>
<path d="M17 51H16V52H17V51Z" fill="#5C460B"/>
<path d="M18 51H17V52H18V51Z" fill="#181614"/>
<path d="M19 51H18V52H19V51Z" fill="#181614"/>
<path d="M20 51H19V52H20V51Z" fill="#181614"/>
<path d="M21 51H20V52H21V51Z" fill="#181614"/>
<path d="M22 51H21V52H22V51Z" fill="#181614"/>
<path d="M23 51H22V52H23V51Z" fill="#181614"/>
<path d="M24 51H23V52H24V51Z" fill="#191614"/>
<path d="M25 51H24V52H25V51Z" fill="#191614"/>
<path d="M26 51H25V52H26V51Z" fill="#191614"/>
<path d="M27 51H26V52H27V51Z" fill="#191614"/>
<path d="M28 51H27V52H28V51Z" fill="#38351B"/>
<path d="M29 51H28V52H29V51Z" fill="#DE845C"/>
<path d="M32 51H31V52H32V51Z" fill="#D47459"/>
<path d="M33 51H32V52H33V51Z" fill="#38597D"/>
<path d="M34 51H33V52H34V51Z" fill="#38597D"/>
<path d="M35 51H34V52H35V51Z" fill="#38597D"/>
<path d="M36 51H35V52H36V51Z" fill="#38597D"/>
<path d="M37 51H36V52H37V51Z" fill="#5983A0"/>
<path d="M38 51H37V52H38V51Z" fill="#5983A0"/>
<path d="M39 51H38V52H39V51Z" fill="#5983A0"/>
<path d="M40 51H39V52H40V51Z" fill="#A6C2D8"/>
<path d="M41 51H40V52H41V51Z" fill="#A6C2D8"/>
<path d="M42 51H41V52H42V51Z" fill="#A6C2D8"/>
<path d="M43 51H42V52H43V51Z" fill="#A6C2D8"/>
<path d="M44 51H43V52H44V51Z" fill="#A6C2D8"/>
<path d="M45 51H44V52H45V51Z" fill="#A6C2D8"/>
<path d="M46 51H45V52H46V51Z" fill="#A6C2D8"/>
<path d="M47 51H46V52H47V51Z" fill="#A6C2D8"/>
<path d="M48 51H47V52H48V51Z" fill="#A6C2D8"/>
<path d="M49 51H48V52H49V51Z" fill="#C15754"/>
<path d="M52 51H51V52H52V51Z" fill="#C86156"/>
<path d="M53 51H52V52H53V51Z" fill="#4B2C33"/>
<path d="M54 51H53V52H54V51Z" fill="#4B2C33"/>
<path d="M55 51H54V52H55V51Z" fill="#4B2C33"/>
<path d="M56 51H55V52H56V51Z" fill="#4B2C33"/>
<path d="M57 51H56V52H57V51Z" fill="#4B2C33"/>
<path d="M58 51H57V52H58V51Z" fill="#4B2C33"/>
<path d="M59 51H58V52H59V51Z" fill="#4B2C33"/>
<path d="M60 51H59V52H60V51Z" fill="#4B2C33"/>
<path d="M61 51H60V52H61V51Z" fill="#4B2C33"/>
<path d="M62 51H61V52H62V51Z" fill="#432930"/>
<path d="M63 51H62V52H63V51Z" fill="#432930"/>
<path d="M64 51H63V52H64V51Z" fill="#663524"/>
<path d="M65 51H64V52H65V51Z" fill="#D47459"/>
<path d="M16 52H15V53H16V52Z" fill="#D47459"/>
<path d="M17 52H16V53H17V52Z" fill="#181614"/>
<path d="M18 52H17V53H18V52Z" fill="#181614"/>
<path d="M19 52H18V53H19V52Z" fill="#181614"/>
<path d="M20 52H19V53H20V52Z" fill="#181614"/>
<path d="M21 52H20V53H21V52Z" fill="#181614"/>
<path d="M22 52H21V53H22V52Z" fill="#181614"/>
<path d="M23 52H22V53H23V52Z" fill="#191614"/>
<path d="M24 52H23V53H24V52Z" fill="#38351B"/>
<path d="M25 52H24V53H25V52Z" fill="#38351B"/>
<path d="M26 52H25V53H26V52Z" fill="#38351B"/>
<path d="M27 52H26V53H27V52Z" fill="#38351B"/>
<path d="M28 52H27V53H28V52Z" fill="#38351B"/>
<path d="M29 52H28V53H29V52Z" fill="#CD6957"/>
<path d="M32 52H31V53H32V52Z" fill="#CD6957"/>
<path d="M33 52H32V53H33V52Z" fill="#CD6957"/>
<path d="M34 52H33V53H34V52Z" fill="#38597D"/>
<path d="M35 52H34V53H35V52Z" fill="#38597D"/>
<path d="M36 52H35V53H36V52Z" fill="#38597D"/>
<path d="M37 52H36V53H37V52Z" fill="#38597D"/>
<path d="M38 52H37V53H38V52Z" fill="#38597D"/>
<path d="M39 52H38V53H39V52Z" fill="#38597D"/>
<path d="M40 52H39V53H40V52Z" fill="#38597D"/>
<path d="M41 52H40V53H41V52Z" fill="#A6C2D8"/>
<path d="M42 52H41V53H42V52Z" fill="#A6C2D8"/>
<path d="M43 52H42V53H43V52Z" fill="#A6C2D8"/>
<path d="M44 52H43V53H44V52Z" fill="#A6C2D8"/>
<path d="M45 52H44V53H45V52Z" fill="#A6C2D8"/>
<path d="M46 52H45V53H46V52Z" fill="#A6C2D8"/>
<path d="M47 52H46V53H47V52Z" fill="#A6C2D8"/>
<path d="M48 52H47V53H48V52Z" fill="#A6C2D8"/>
<path d="M49 52H48V53H49V52Z" fill="#C15754"/>
<path d="M52 52H51V53H52V52Z" fill="#C15754"/>
<path d="M53 52H52V53H53V52Z" fill="#4B2C33"/>
<path d="M54 52H53V53H54V52Z" fill="#4B2C33"/>
<path d="M55 52H54V53H55V52Z" fill="#4B2C33"/>
<path d="M56 52H55V53H56V52Z" fill="#4B2C33"/>
<path d="M57 52H56V53H57V52Z" fill="#4B2C33"/>
<path d="M58 52H57V53H58V52Z" fill="#4B2C33"/>
<path d="M59 52H58V53H59V52Z" fill="#4B2C33"/>
<path d="M60 52H59V53H60V52Z" fill="#4B2C33"/>
<path d="M61 52H60V53H61V52Z" fill="#4B2C33"/>
<path d="M62 52H61V53H62V52Z" fill="#432930"/>
<path d="M63 52H62V53H63V52Z" fill="#432930"/>
<path d="M64 52H63V53H64V52Z" fill="#D47459"/>
<path d="M16 53H15V54H16V53Z" fill="#D47459"/>
<path d="M17 53H16V54H17V53Z" fill="#181614"/>
<path d="M18 53H17V54H18V53Z" fill="#181614"/>
<path d="M19 53H18V54H19V53Z" fill="#181614"/>
<path d="M20 53H19V54H20V53Z" fill="#181614"/>
<path d="M21 53H20V54H21V53Z" fill="#181614"/>
<path d="M22 53H21V54H22V53Z" fill="#494440"/>
<path d="M23 53H22V54H23V53Z" fill="#494440"/>
<path d="M24 53H23V54H24V53Z" fill="#38351B"/>
<path d="M25 53H24V54H25V53Z" fill="#38351B"/>
<path d="M26 53H25V54H26V53Z" fill="#38351B"/>
<path d="M27 53H26V54H27V53Z" fill="#38351B"/>
<path d="M28 53H27V54H28V53Z" fill="#38351B"/>
<path d="M29 53H28V54H29V53Z" fill="#CD6957"/>
<path d="M34 53H33V54H34V53Z" fill="#D47459"/>
<path d="M35 53H34V54H35V53Z" fill="#CD6957"/>
<path d="M36 53H35V54H36V53Z" fill="#38597D"/>
<path d="M37 53H36V54H37V53Z" fill="#38597D"/>
<path d="M38 53H37V54H38V53Z" fill="#38597D"/>
<path d="M39 53H38V54H39V53Z" fill="#38597D"/>
<path d="M40 53H39V54H40V53Z" fill="#38597D"/>
<path d="M41 53H40V54H41V53Z" fill="#38597D"/>
<path d="M42 53H41V54H42V53Z" fill="#38597D"/>
<path d="M43 53H42V54H43V53Z" fill="#38597D"/>
<path d="M44 53H43V54H44V53Z" fill="#38597D"/>
<path d="M45 53H44V54H45V53Z" fill="#A6C2D8"/>
<path d="M46 53H45V54H46V53Z" fill="#A6C2D8"/>
<path d="M47 53H46V54H47V53Z" fill="#A6C2D8"/>
<path d="M48 53H47V54H48V53Z" fill="#A6C2D8"/>
<path d="M49 53H48V54H49V53Z" fill="#C45B55"/>
<path d="M52 53H51V54H52V53Z" fill="#C15754"/>
<path d="M53 53H52V54H53V53Z" fill="#4B2C33"/>
<path d="M54 53H53V54H54V53Z" fill="#4B2C33"/>
<path d="M55 53H54V54H55V53Z" fill="#4B2C33"/>
<path d="M56 53H55V54H56V53Z" fill="#4B2C33"/>
<path d="M57 53H56V54H57V53Z" fill="#4B2C33"/>
<path d="M58 53H57V54H58V53Z" fill="#4B2C33"/>
<path d="M59 53H58V54H59V53Z" fill="#432930"/>
<path d="M60 53H59V54H60V53Z" fill="#432930"/>
<path d="M61 53H60V54H61V53Z" fill="#432930"/>
<path d="M62 53H61V54H62V53Z" fill="#FFB964"/>
<path d="M63 53H62V54H63V53Z" fill="#DE845C"/>
<path d="M16 54H15V55H16V54Z" fill="#CD6957"/>
<path d="M17 54H16V55H17V54Z" fill="#5C460B"/>
<path d="M18 54H17V55H18V54Z" fill="#181614"/>
<path d="M19 54H18V55H19V54Z" fill="#181614"/>
<path d="M20 54H19V55H20V54Z" fill="#181614"/>
<path d="M21 54H20V55H21V54Z" fill="#494440"/>
<path d="M22 54H21V55H22V54Z" fill="#494440"/>
<path d="M23 54H22V55H23V54Z" fill="#494440"/>
<path d="M24 54H23V55H24V54Z" fill="#38351B"/>
<path d="M25 54H24V55H25V54Z" fill="#38351B"/>
<path d="M26 54H25V55H26V54Z" fill="#38351B"/>
<path d="M27 54H26V55H27V54Z" fill="#504A48"/>
<path d="M28 54H27V55H28V54Z" fill="#CD6957"/>
<path d="M36 54H35V55H36V54Z" fill="#D47459"/>
<path d="M37 54H36V55H37V54Z" fill="#D47459"/>
<path d="M38 54H37V55H38V54Z" fill="#38597D"/>
<path d="M39 54H38V55H39V54Z" fill="#38597D"/>
<path d="M40 54H39V55H40V54Z" fill="#38597D"/>
<path d="M41 54H40V55H41V54Z" fill="#38597D"/>
<path d="M42 54H41V55H42V54Z" fill="#38597D"/>
<path d="M43 54H42V55H43V54Z" fill="#38597D"/>
<path d="M44 54H43V55H44V54Z" fill="#38597D"/>
<path d="M45 54H44V55H45V54Z" fill="#38597D"/>
<path d="M46 54H45V55H46V54Z" fill="#38597D"/>
<path d="M47 54H46V55H47V54Z" fill="#38597D"/>
<path d="M48 54H47V55H48V54Z" fill="#A6C2D8"/>
<path d="M49 54H48V55H49V54Z" fill="#BE5254"/>
<path d="M52 54H51V55H52V54Z" fill="#BE5254"/>
<path d="M53 54H52V55H53V54Z" fill="#4B2C33"/>
<path d="M54 54H53V55H54V54Z" fill="#4B2C33"/>
<path d="M55 54H54V55H55V54Z" fill="#4B2C33"/>
<path d="M56 54H55V55H56V54Z" fill="#4B2C33"/>
<path d="M57 54H56V55H57V54Z" fill="#432930"/>
<path d="M58 54H57V55H58V54Z" fill="#432930"/>
<path d="M59 54H58V55H59V54Z" fill="#CD6957"/>
<path d="M60 54H59V55H60V54Z" fill="#DE845C"/>
<path d="M61 54H60V55H61V54Z" fill="#DE845C"/>
<path d="M16 55H15V56H16V55Z" fill="#D47459"/>
<path d="M17 55H16V56H17V55Z" fill="#181614"/>
<path d="M18 55H17V56H18V55Z" fill="#181614"/>
<path d="M19 55H18V56H19V55Z" fill="#181614"/>
<path d="M20 55H19V56H20V55Z" fill="#494440"/>
<path d="M21 55H20V56H21V55Z" fill="#494440"/>
<path d="M22 55H21V56H22V55Z" fill="#494440"/>
<path d="M23 55H22V56H23V55Z" fill="#4F4947"/>
<path d="M24 55H23V56H24V55Z" fill="#504A48"/>
<path d="M25 55H24V56H25V55Z" fill="#504A48"/>
<path d="M26 55H25V56H26V55Z" fill="#CD6957"/>
<path d="M27 55H26V56H27V55Z" fill="#CD6957"/>
<path d="M38 55H37V56H38V55Z" fill="#C86156"/>
<path d="M39 55H38V56H39V55Z" fill="#CD6957"/>
<path d="M40 55H39V56H40V55Z" fill="#38597D"/>
<path d="M41 55H40V56H41V55Z" fill="#38597D"/>
<path d="M42 55H41V56H42V55Z" fill="#38597D"/>
<path d="M43 55H42V56H43V55Z" fill="#38597D"/>
<path d="M44 55H43V56H44V55Z" fill="#38597D"/>
<path d="M45 55H44V56H45V55Z" fill="#38597D"/>
<path d="M46 55H45V56H46V55Z" fill="#38597D"/>
<path d="M47 55H46V56H47V55Z" fill="#38597D"/>
<path d="M48 55H47V56H48V55Z" fill="#38597D"/>
<path d="M49 55H48V56H49V55Z" fill="#BE5254"/>
<path d="M52 55H51V56H52V55Z" fill="#BF5454"/>
<path d="M53 55H52V56H53V55Z" fill="#30232A"/>
<path d="M54 55H53V56H54V55Z" fill="#30232A"/>
<path d="M55 55H54V56H55V55Z" fill="#30232A"/>
<path d="M56 55H55V56H56V55Z" fill="#D47459"/>
<path d="M57 55H56V56H57V55Z" fill="#D47459"/>
<path d="M58 55H57V56H58V55Z" fill="#DE845C"/>
<path d="M16 56H15V57H16V56Z" fill="#C45B55"/>
<path d="M17 56H16V57H17V56Z" fill="#2C2828"/>
<path d="M18 56H17V57H18V56Z" fill="#181614"/>
<path d="M19 56H18V57H19V56Z" fill="#181614"/>
<path d="M20 56H19V57H20V56Z" fill="#181614"/>
<path d="M21 56H20V57H21V56Z" fill="#4F4947"/>
<path d="M22 56H21V57H22V56Z" fill="#4F4947"/>
<path d="M23 56H22V57H23V56Z" fill="#D47459"/>
<path d="M24 56H23V57H24V56Z" fill="#D47459"/>
<path d="M25 56H24V57H25V56Z" fill="#CD6957"/>
<path d="M40 56H39V57H40V56Z" fill="#C86156"/>
<path d="M41 56H40V57H41V56Z" fill="#C86156"/>
<path d="M42 56H41V57H42V56Z" fill="#38597D"/>
<path d="M43 56H42V57H43V56Z" fill="#38597D"/>
<path d="M44 56H43V57H44V56Z" fill="#38597D"/>
<path d="M45 56H44V57H45V56Z" fill="#38597D"/>
<path d="M46 56H45V57H46V56Z" fill="#38597D"/>
<path d="M47 56H46V57H47V56Z" fill="#38597D"/>
<path d="M48 56H47V57H48V56Z" fill="#38597D"/>
<path d="M49 56H48V57H49V56Z" fill="#BE5254"/>
<path d="M53 56H52V57H53V56Z" fill="#C86156"/>
<path d="M54 56H53V57H54V56Z" fill="#CD6957"/>
<path d="M55 56H54V57H55V56Z" fill="#D47459"/>
<path d="M16 57H15V58H16V57Z" fill="#C86156"/>
<path d="M17 57H16V58H17V57Z" fill="#6D6260"/>
<path d="M18 57H17V58H18V57Z" fill="#6D6260"/>
<path d="M19 57H18V58H19V57Z" fill="#6D6260"/>
<path d="M20 57H19V58H20V57Z" fill="#CD6957"/>
<path d="M21 57H20V58H21V57Z" fill="#DE845C"/>
<path d="M22 57H21V58H22V57Z" fill="#D47459"/>
<path d="M42 57H41V58H42V57Z" fill="#BF5454"/>
<path d="M43 57H42V58H43V57Z" fill="#C15754"/>
<path d="M44 57H43V58H44V57Z" fill="#7BAAB3"/>
<path d="M45 57H44V58H45V57Z" fill="#38597D"/>
<path d="M46 57H45V58H46V57Z" fill="#38597D"/>
<path d="M47 57H46V58H47V57Z" fill="#38597D"/>
<path d="M48 57H47V58H48V57Z" fill="#38597D"/>
<path d="M49 57H48V58H49V57Z" fill="#C15754"/>
<path d="M17 58H16V59H17V58Z" fill="#CD6957"/>
<path d="M18 58H17V59H18V58Z" fill="#DE845C"/>
<path d="M19 58H18V59H19V58Z" fill="#DE845C"/>
<path d="M44 58H43V59H44V58Z" fill="#C86156"/>
<path d="M45 58H44V59H45V58Z" fill="#C15754"/>
<path d="M46 58H45V59H46V58Z" fill="#7BAAB3"/>
<path d="M47 58H46V59H47V58Z" fill="#7BAAB3"/>
<path d="M48 58H47V59H48V58Z" fill="#7BAAB3"/>
<path d="M49 58H48V59H49V58Z" fill="#C15754"/>
<path d="M46 59H45V60H46V59Z" fill="#C45B55"/>
<path d="M47 59H46V60H47V59Z" fill="#D47459"/>
<path d="M48 59H47V60H48V59Z" fill="#DE845C"/>
<path d="M8.05946 73V64.2727H9.8748V67.554H9.9302C10.0097 67.3778 10.1248 67.1989 10.2754 67.017C10.4288 66.8324 10.6276 66.679 10.872 66.5568C11.1191 66.4318 11.4259 66.3693 11.7924 66.3693C12.2697 66.3693 12.71 66.4943 13.1134 66.7443C13.5168 66.9915 13.8393 67.3651 14.0808 67.8651C14.3222 68.3622 14.443 68.9858 14.443 69.7358C14.443 70.4659 14.3251 71.0824 14.0893 71.5852C13.8563 72.0852 13.5382 72.4645 13.1347 72.723C12.7342 72.9787 12.2853 73.1065 11.7882 73.1065C11.4359 73.1065 11.1362 73.0483 10.889 72.9318C10.6447 72.8153 10.4444 72.669 10.2882 72.4929C10.1319 72.3139 10.0126 72.1335 9.9302 71.9517H9.84923V73H8.05946ZM9.83645 69.7273C9.83645 70.1165 9.89043 70.456 9.99838 70.7457C10.1063 71.0355 10.2626 71.2614 10.4671 71.4233C10.6717 71.5824 10.9203 71.6619 11.2129 71.6619C11.5083 71.6619 11.7583 71.581 11.9629 71.419C12.1674 71.2543 12.3222 71.027 12.4274 70.7372C12.5353 70.4446 12.5893 70.108 12.5893 69.7273C12.5893 69.3494 12.5367 69.017 12.4316 68.7301C12.3265 68.4432 12.1717 68.2187 11.9671 68.0568C11.7626 67.8949 11.5112 67.8139 11.2129 67.8139C10.9174 67.8139 10.6674 67.892 10.4629 68.0483C10.2612 68.2045 10.1063 68.4261 9.99838 68.7131C9.89043 69 9.83645 69.3381 9.83645 69.7273ZM17.2841 75.4545C17.054 75.4545 16.8381 75.4361 16.6363 75.3991C16.4375 75.3651 16.2727 75.321 16.142 75.267L16.5511 73.9119C16.7642 73.9773 16.956 74.0128 17.1264 74.0185C17.2997 74.0241 17.4488 73.9844 17.5738 73.8991C17.7017 73.8139 17.8054 73.669 17.8849 73.4645L17.9915 73.1875L15.6435 66.4545H17.5525L18.9077 71.2614H18.9758L20.3437 66.4545H22.2656L19.7216 73.7074C19.5994 74.0597 19.4332 74.3665 19.223 74.6278C19.0156 74.892 18.7528 75.0952 18.4346 75.2372C18.1165 75.3821 17.7329 75.4545 17.2841 75.4545ZM29.0792 73L26.5053 64.2727H29.1474L30.3406 69.642H30.4087L31.8235 64.2727H33.9031L35.3178 69.6591H35.386L36.5792 64.2727H39.2212L36.6474 73H34.3803L32.8974 68.125H32.8292L31.3462 73H29.0792ZM45.8731 64.2727H48.2424V69.8636C48.2424 70.5284 48.0833 71.1037 47.7651 71.5895C47.4498 72.0724 47.0094 72.446 46.4441 72.7102C45.8787 72.9716 45.2225 73.1023 44.4753 73.1023C43.7225 73.1023 43.0634 72.9716 42.4981 72.7102C41.9327 72.446 41.4924 72.0724 41.177 71.5895C40.8645 71.1037 40.7083 70.5284 40.7083 69.8636V64.2727H43.0776V69.6591C43.0776 69.929 43.1373 70.1705 43.2566 70.3835C43.3759 70.5937 43.5407 70.7585 43.7509 70.8778C43.964 70.9972 44.2054 71.0568 44.4753 71.0568C44.7481 71.0568 44.9895 70.9972 45.1998 70.8778C45.41 70.7585 45.5748 70.5937 45.6941 70.3835C45.8134 70.1705 45.8731 69.929 45.8731 69.6591V64.2727ZM58.543 68.6364C58.543 69.608 58.3541 70.4276 57.9762 71.0952C57.5984 71.7599 57.0884 72.2642 56.4464 72.608C55.8043 72.9489 55.0884 73.1193 54.2987 73.1193C53.5032 73.1193 52.7845 72.9474 52.1424 72.6037C51.5032 72.2571 50.9947 71.7514 50.6168 71.0866C50.2418 70.419 50.0543 69.6023 50.0543 68.6364C50.0543 67.6648 50.2418 66.8466 50.6168 66.1818C50.9947 65.5142 51.5032 65.0099 52.1424 64.669C52.7845 64.3253 53.5032 64.1534 54.2987 64.1534C55.0884 64.1534 55.8043 64.3253 56.4464 64.669C57.0884 65.0099 57.5984 65.5142 57.9762 66.1818C58.3541 66.8466 58.543 67.6648 58.543 68.6364ZM56.1055 68.6364C56.1055 68.1136 56.0359 67.6733 55.8967 67.3153C55.7603 66.9545 55.5572 66.6818 55.2873 66.4972C55.0203 66.3097 54.6907 66.2159 54.2987 66.2159C53.9066 66.2159 53.5757 66.3097 53.3058 66.4972C53.0387 66.6818 52.8356 66.9545 52.6964 67.3153C52.56 67.6733 52.4918 68.1136 52.4918 68.6364C52.4918 69.1591 52.56 69.6009 52.6964 69.9616C52.8356 70.3196 53.0387 70.5923 53.3058 70.7798C53.5757 70.9645 53.9066 71.0568 54.2987 71.0568C54.6907 71.0568 55.0203 70.9645 55.2873 70.7798C55.5572 70.5923 55.7603 70.3196 55.8967 69.9616C56.0359 69.6009 56.1055 69.1591 56.1055 68.6364ZM59.7104 66.1818V64.2727H67.2957V66.1818H64.6707V73H62.3354V66.1818H59.7104ZM68.9073 73V64.2727H75.1971V66.1818H71.2767V67.6818H74.8733V69.5909H71.2767V71.0909H75.1801V73H68.9073Z" fill="#EE2B2C"/>
</svg>
