<svg width="80" height="95" viewBox="0 0 80 95" fill="none" xmlns="http://www.w3.org/2000/svg">
<g clip-path="url(#clip0_418_2)">
<path d="M50.5859 3.75H58.6667V5.15625H59.9596V11.5625H66.5859V12.8125H68.0404V20.625H66.5859V21.875H59.9596V28.2812H58.6667V29.5312H55.9192V30.9375H54.6263V32.1875H53.3333V33.4375H52.0404V34.6875H50.5859V36.0938H49.2929V37.3438H48V38.5938H46.7071V39.8438H45.2525V41.25H43.9596V42.5H42.6667V43.75H41.3737V45H38.6263V43.75H37.3333V42.5H36.0404V41.25H34.7475V39.8438H33.2929V38.5938H32V37.3438H30.7071V36.0938H29.4141V34.6875H27.9596V33.4375H26.6667V32.1875H25.3737V30.9375H24.0808V29.5312H22.6263V28.2812H21.3333V25.7812H20.0404V17.9688H21.3333V15.4688H22.6263V14.0625H24.0808V12.8125H26.6667V11.5625H34.7475V12.8125H36.0404V14.0625H37.3333V15.4688H38.6263V16.7188H41.3737V12.8125H42.6667V11.5625H49.2929V5.15625H50.5859V3.75Z" fill="#F2BB4E"/>
<path d="M64 30.9375H70.6262V32.1875H71.9191V33.4375H73.2121V65.625H71.9191V67.0312H70.6262V68.2812H68.0404V69.5312H64V70.7812H59.9596V72.1875H55.9191V70.7812H54.6262V38.5938H55.9191V37.3438H57.3737V36.0938H58.6666V34.6875H59.9596V33.4375H61.2525V32.1875H64V30.9375Z" fill="#AE2431"/>
<path d="M16 33.4375H20.0404V34.6875H21.3333V36.0938H22.6262V37.3438H24.0808V38.5938H25.3737V68.2812H24.0808V69.5312H22.6262V70.7812H20.0404V72.1875H16V73.4375H11.9596V74.6875H8.08077V73.4375H6.62622V41.25H8.08077V39.8438H9.3737V38.5938H10.6666V37.3438H11.9596V36.0938H13.4141V34.6875H16V33.4375Z" fill="#37351A"/>
<path d="M27.9596 42.5H29.4141V43.75H30.7071V45H32V46.4062H33.2929V47.6562H34.7475V48.9062H36.0404V50.1562H37.3333V51.5625H38.6263V52.8125H41.3737V51.5625H42.6667V50.1562H43.9596V48.9062H45.2525V47.6562H46.7071V46.4062H48V45H49.2929V43.75H50.5859V42.5H52.0404V74.6875H50.5859V75.9375H46.7071V74.6875H43.9596V73.4375H41.3737V72.1875H38.6263V70.7812H36.0404V69.5312H33.2929V68.2812H30.7071V67.0312H27.9596V42.5Z" fill="#81B0D2"/>
<path d="M29.4142 16.7188H34.7475V17.9688H36.0404V19.2188H37.3334V20.625H38.6263V21.875H49.293V29.5312H48V30.9375H46.7071V32.1875H48V33.4375H46.7071V34.6875H45.2526V36.0938H43.9596V37.3438H42.6667V38.5938H41.3738V39.8438H38.6263V38.5938H37.3334V37.3438H36.0404V36.0938H34.7475V34.6875H33.293V33.4375H32V32.1875H30.7071V30.9375H29.4142V29.5312H27.9596V28.2812H26.6667V27.0312H25.3738V20.625H26.6667V19.2188H27.9596V17.9688H29.4142V16.7188Z" fill="#F65858"/>
<path d="M65.2929 42.5H70.6263V48.9062H68.0404V50.1562H62.7071V51.5625H61.2525V55.3125H59.9596V56.7188H61.2525V57.9688H59.9596V59.2188H61.2525V60.4688H62.7071V59.2188H65.2929V57.9688H70.6263V56.7188H71.9192V65.625H70.6263V68.2812H68.0404V69.5312H64V70.7812H59.9596V72.1875H55.9192V46.4062H57.3737V45H61.2525V43.75H65.2929V42.5Z" fill="#4B2C33"/>
<path d="M48 45H49.293V46.4062H48V45ZM46.7071 46.4062H48V47.6562H46.7071V46.4062ZM45.2526 47.6562H46.7071V48.9062H45.2526V47.6562ZM43.9596 48.9062H45.2526V50.1562H43.9596V48.9062ZM42.6667 50.1562H43.9596V51.5625H42.6667V50.1562ZM37.3334 51.5625H38.6263V52.8125H37.3334V51.5625ZM41.3738 51.5625H42.6667V52.8125H41.3738V51.5625ZM38.6263 52.8125H41.3738V54.0625H38.6263V52.8125ZM50.5859 42.5H52.0404V74.6875H50.5859V75.9375H46.7071V74.6875H43.9596V73.4375H41.3738V72.1875H38.6263V70.7812H36.0404V69.5312H33.293V68.2812H30.7071V65.625H29.4142V59.2188H34.7475V60.4688H38.6263V61.875H39.9192V64.375H38.6263V65.625H39.9192V67.0312H45.2526V68.2812H49.293V69.5312H50.5859V45H49.293V43.75H50.5859V42.5Z" fill="#38597D"/>
<path d="M53.3333 6.40625H55.9192V7.65625H57.3737V12.8125H58.6666V14.0625H64V15.4688H65.2929V17.9688H64V19.2188H58.6666V20.625H57.3737V27.0312H53.3333V28.2812H52.0404V27.0312H50.5858V25.7812H52.0404V21.875H50.5858V20.625H49.2929V19.2188H46.707V20.625H45.2525V19.2188H43.9596V17.9688H42.6666V16.7188H43.9596V15.4688H45.2525V14.0625H50.5858V12.8125H52.0404V7.65625H53.3333V6.40625Z" fill="white"/>
<path d="M17.2929 50.1562H20.0404V61.875H21.3333V63.125H22.6263V61.875H24.0808V68.2812H22.6263V69.5312H20.0404V70.7812H16V72.1875H8.08081V63.125H11.9596V61.875H14.7071V60.4688H17.2929V56.7188H16V57.9688H13.4141V56.7188H11.9596V55.3125H16V54.0625H17.2929V50.1562Z" fill="#181614"/>
<path d="M26.6667 11.5625H34.7475V12.8125H36.0404V14.0625H37.3333V15.4688H38.6263V16.7188H41.3737V19.2188H38.6263V17.9688H37.3333V16.7188H36.0404V15.4688H33.2929V14.0625H27.9596V15.4688H25.3737V16.7188H24.0808V19.2188H22.6263V25.7812H24.0808V28.2812H25.3737V29.5312H26.6667V30.9375H27.9596V32.1875H29.4141V33.4375H30.7071V34.6875H32V36.0938H33.2929V37.3438H34.7475V38.5938H36.0404V39.8438H37.3333V41.25H38.6263V42.5H41.3737V41.25H42.6667V39.8438H43.9596V38.5938H45.2525V37.3438H46.7071V36.0938H48V34.6875H49.2929V33.4375H50.5859V32.1875H52.0404V30.9375H53.3333V29.5312H55.9192V30.9375H54.6263V32.1875H53.3333V33.4375H52.0404V34.6875H50.5859V36.0938H49.2929V37.3438H48V38.5938H46.7071V39.8438H45.2525V41.25H43.9596V42.5H42.6667V43.75H41.3737V45H38.6263V43.75H37.3333V42.5H36.0404V41.25H34.7475V39.8438H33.2929V38.5938H32V37.3438H30.7071V36.0938H29.4141V34.6875H27.9596V33.4375H26.6667V32.1875H25.3737V30.9375H24.0808V29.5312H22.6263V28.2812H21.3333V25.7812H20.0404V17.9688H21.3333V15.4688H22.6263V14.0625H24.0808V12.8125H26.6667V11.5625Z" fill="#826855"/>
<path d="M16 33.4375H20.0404V34.6875H16V33.4375ZM13.4141 34.6875H16V36.0938H13.4141V34.6875ZM20.0404 34.6875H21.3333V36.0938H20.0404V34.6875ZM11.9596 36.0938H13.4141V37.3438H11.9596V36.0938ZM21.3333 36.0938H22.6262V37.3438H21.3333V36.0938ZM10.6666 37.3438H11.9596V38.5938H10.6666V37.3438ZM22.6262 37.3438H24.0808V38.5938H22.6262V37.3438ZM9.3737 38.5938H10.6666V39.8438H9.3737V38.5938ZM24.0808 38.5938H25.3737V68.2812H24.0808V38.5938ZM8.08077 39.8438H9.3737V41.25H8.08077V39.8438ZM6.62622 41.25H8.08077V59.2188H11.9596V57.9688H16V56.7188H17.2929V60.4688H14.707V61.875H11.9596V63.125H8.08077V72.1875H16V73.4375H11.9596V74.6875H8.08077V73.4375H6.62622V41.25ZM22.6262 68.2812H24.0808V69.5312H22.6262V68.2812ZM20.0404 69.5312H22.6262V70.7812H20.0404V69.5312ZM16 70.7812H20.0404V72.1875H16V70.7812Z" fill="#D47459"/>
<path d="M65.2929 42.5H70.6263V48.9062H68.0404V50.1562H62.7071V51.5625H59.9596V54.0625H55.9192V46.4062H57.3737V45H61.2525V43.75H65.2929V42.5Z" fill="#30232A"/>
<path d="M16 34.6875H20.0404V36.0938H21.3333V37.3438H22.6263V38.5938H24.0808V42.5H22.6263V43.75H20.0404V41.25H16V42.5H13.4141V45H11.9596V46.4062H10.6667V47.6562H9.37374V48.9062H8.08081V41.25H9.37374V39.8438H10.6667V38.5938H11.9596V37.3438H13.4141V36.0938H16V34.6875Z" fill="#161616"/>
<path d="M64 30.9375H70.6262V32.1875H64V30.9375ZM61.2525 32.1875H64V33.4375H61.2525V32.1875ZM70.6262 32.1875H71.9191V33.4375H70.6262V32.1875ZM59.9596 33.4375H61.2525V34.6875H59.9596V33.4375ZM71.9191 33.4375H73.2121V65.625H71.9191V33.4375ZM58.6666 34.6875H59.9596V36.0938H58.6666V34.6875ZM57.3737 36.0938H58.6666V37.3438H57.3737V36.0938ZM55.9191 37.3438H57.3737V38.5938H55.9191V37.3438ZM54.6262 38.5938H55.9191V70.7812H54.6262V38.5938ZM70.6262 65.625H71.9191V67.0312H70.6262V65.625Z" fill="#FFB964"/>
<path d="M68.0404 48.9062H71.9192V56.7188H70.6263V57.9688H65.2929V59.2188H62.7071V60.4688H61.2525V59.2188H59.9596V57.9688H61.2525V56.7188H59.9596V55.3125H61.2525V51.5625H62.7071V50.1562H68.0404V48.9062Z" fill="#A92531"/>
<path d="M50.5859 3.75H58.6667V5.15625H59.9596V11.5625H66.5859V12.8125H68.0404V15.4688H66.7475V15.625H66.5859V15.4688H65.293V14.0625H64V12.8125H58.6667V7.65625H57.3738V6.40625H55.9192V5.15625H53.3334V6.40625H52.0404V12.8125H50.5859V14.0625H45.2526V15.4688H43.9596V16.7188H42.6667V15.4688H41.3738V12.8125H42.6667V11.5625H49.293V5.15625H50.5859V3.75Z" fill="#FFD88B"/>
<path d="M29.4142 16.7188H34.7475V17.9688H36.0404V19.2188H37.3334V20.625H38.6263V21.875H42.6667V23.125H41.3738V24.375H38.6263V23.125H37.3334V21.875H36.0404V20.625H34.7475V19.2188H29.4142V20.625H27.9596V21.875H26.6667V25.7812H27.9596V27.0312H29.4142V28.2812H30.7071V29.5312H32V30.9375H33.293V32.1875H34.7475V33.4375H36.0404V34.6875H37.3334V36.0938H38.6263V37.3438H42.6667V38.5938H41.3738V39.8438H38.6263V38.5938H37.3334V37.3438H36.0404V36.0938H34.7475V34.6875H33.293V33.4375H32V32.1875H30.7071V30.9375H29.4142V29.5312H27.9596V28.2812H26.6667V27.0312H25.3738V20.625H26.6667V19.2188H27.9596V17.9688H29.4142V16.7188Z" fill="#AA7A57"/>
<path d="M53.3333 5.15625H55.9192V6.40625H53.3333V5.15625ZM52.0404 6.40625H53.3333V7.65625H52.0404V6.40625ZM55.9192 6.40625H57.3737V7.65625H55.9192V6.40625ZM57.3737 7.65625H58.6667V12.8125H57.3737V7.65625ZM58.6667 12.8125H64V14.0625H58.6667V12.8125ZM64 14.0625H65.2929V15.4688H64V14.0625ZM65.2929 15.4688H66.5859V15.625H66.7475V15.4688H68.0404V20.625H66.5859V21.875H59.9596V28.2812H58.6667V29.5312H55.9192V28.2812H53.3333V27.0312H57.3737V20.625H58.6667V19.2188H64V17.9688H65.2929V15.4688Z" fill="#FFD88B"/>
<path d="M29.4141 19.2188H32V20.625H30.707V21.875H29.4141V23.125H27.9596V24.375H29.4141V25.7812H30.707V27.0312H32V28.2812H33.2929V29.5312H34.7474V30.9375H36.0404V32.1875H37.3333V33.4375H38.6262V34.6875H41.3737V33.4375H42.6666V32.1875H43.9596V30.9375H45.2525V29.5312H46.707V28.2812H48V27.0312H49.2929V29.5312H48V30.9375H46.707V32.1875H48V33.4375H46.707V34.6875H45.2525V36.0938H43.9596V37.3438H38.6262V36.0938H37.3333V34.6875H36.0404V33.4375H34.7474V32.1875H33.2929V30.9375H32V29.5312H30.707V28.2812H29.4141V27.0312H27.9596V25.7812H26.6666V21.875H27.9596V20.625H29.4141V19.2188Z" fill="#DB5656"/>
<path d="M16 33.4375H20.0404V34.6875H16V33.4375ZM13.4141 34.6875H16V36.0938H13.4141V34.6875ZM20.0404 34.6875H21.3333V36.0938H20.0404V34.6875ZM11.9596 36.0938H13.4141V37.3438H11.9596V36.0938ZM21.3333 36.0938H22.6262V37.3438H21.3333V36.0938ZM10.6666 37.3438H11.9596V38.5938H10.6666V37.3438ZM22.6262 37.3438H24.0808V38.5938H22.6262V37.3438ZM9.3737 38.5938H10.6666V39.8438H9.3737V38.5938ZM24.0808 38.5938H25.3737V63.125H24.0808V38.5938ZM8.08077 39.8438H9.3737V41.25H8.08077V39.8438ZM6.62622 41.25H8.08077V60.4688H6.62622V41.25Z" fill="#FFB964"/>
<path d="M27.9596 14.0625H30.707V16.7188H29.4141V17.9688H27.9596V19.2188H26.6666V20.625H25.3737V27.0312H26.6666V28.2812H27.9596V29.5312H29.4141V30.9375H30.707V32.1875H32V33.4375H33.2929V34.6875H34.7474V36.0938H36.0404V37.3438H37.3333V38.5938H38.6262V39.8438H36.0404V38.5938H34.7474V37.3438H33.2929V36.0938H32V34.6875H30.707V33.4375H29.4141V32.1875H27.9596V30.9375H26.6666V29.5312H25.3737V28.2812H24.0808V25.7812H22.6262V19.2188H24.0808V16.7188H25.3737V15.4688H27.9596V14.0625Z" fill="#F2BB4E"/>
<path d="M50.5859 42.5H52.0404V74.6875H50.5859V45H49.293V43.75H50.5859V42.5ZM48 45H49.293V46.4062H48V45ZM46.7071 46.4062H48V47.6562H46.7071V46.4062ZM45.2526 47.6562H46.7071V48.9062H45.2526V47.6562ZM43.9596 48.9062H45.2526V50.1562H43.9596V48.9062ZM42.6667 50.1562H43.9596V51.5625H42.6667V50.1562ZM37.3334 51.5625H38.6263V52.8125H37.3334V51.5625ZM41.3738 51.5625H42.6667V52.8125H41.3738V51.5625ZM38.6263 52.8125H41.3738V54.0625H38.6263V52.8125Z" fill="#BE5254"/>
<path d="M49.2929 45H50.5859V59.2188H48V57.9688H45.2525V54.0625H43.9596V52.8125H45.2525V48.9062H46.7071V47.6562H48V46.4062H49.2929V45Z" fill="#A6C2D8"/>
<path d="M49.293 27.0312H50.5859V28.2812H52.0404V28.4375H52.2021V28.2812H55.9192V29.5312H53.3334V30.9375H52.0404V32.1875H50.5859V33.4375H49.293V34.6875H48V36.0938H46.7071V37.3438H45.2526V38.5938H43.9596V39.8438H42.6667V41.25H41.3738V42.5H38.6263V41.25H37.3334V39.8438H41.3738V38.5938H42.6667V37.3438H43.9596V36.0938H45.2526V34.6875H46.7071V33.4375H48V32.1875H46.7071V30.9375H48V29.5312H49.293V27.0312Z" fill="#F2BB4E"/>
<path d="M39.9191 61.875H43.9596V63.125H49.2929V64.375H50.5858V69.5312H49.2929V68.2812H45.2525V67.0312H39.9191V65.625H38.6262V64.375H39.9191V61.875Z" fill="#A6C2D8"/>
<path d="M53.3333 29.5312H55.9192V30.9375H54.6262V32.1875H53.3333V33.4375H52.0404V34.6875H50.5858V36.0938H49.2929V37.3438H48V38.5938H46.707V39.8438H45.2525V41.25H43.9596V42.5H42.6666V43.75H41.3737V45H38.6262V43.75H37.3333V42.5H36.0404V41.25H34.7474V39.8438H37.3333V41.25H38.6262V42.5H41.3737V41.25H42.6666V39.8438H43.9596V38.5938H45.2525V37.3438H46.707V36.0938H48V34.6875H49.2929V33.4375H50.5858V32.1875H52.0404V30.9375H53.3333V29.5312Z" fill="#826855"/>
<path d="M29.4142 59.2188H34.7475V60.4688H38.6263V61.875H39.9192V64.375H38.6263V65.625H34.7475V64.375H30.7071V63.125H29.4142V59.2188Z" fill="#5983A0"/>
<path d="M22.6263 64.375H24.0808V68.2812H22.6263V69.5312H20.0404V70.7812H16V72.1875H13.4141V70.7812H11.9596V69.5312H13.4141V68.2812H14.7071V67.0312H17.2929V65.625H22.6263V64.375Z" fill="#38351B"/>
<path d="M27.9596 42.5H29.4141V43.75H30.7071V45H29.4141V65.625H30.7071V67.0312H27.9596V42.5ZM30.7071 45H32V46.4062H30.7071V45ZM32 46.4062H33.2929V47.6562H32V46.4062ZM33.2929 47.6562H34.7475V48.9062H33.2929V47.6562ZM34.7475 48.9062H36.0404V50.1562H34.7475V48.9062ZM36.0404 50.1562H37.3333V51.5625H36.0404V50.1562Z" fill="#EC9A5F"/>
<path d="M11.9596 37.3438H13.4141V38.5938H11.9596V37.3438ZM10.6667 38.5938H11.9596V39.8438H13.4141V45H11.9596V46.4062H10.6667V47.6562H9.37374V48.9062H8.08081V41.25H9.37374V39.8438H10.6667V38.5938Z" fill="#181614"/>
<path d="M59.9596 51.5625H61.2525V55.3125H59.9596V56.7188H61.2525V57.9688H59.9596V59.2188H61.2525V60.4688H58.6667V61.875H55.9192V54.0625H59.9596V51.5625Z" fill="#7E312C"/>
<path d="M64 32.1875H70.6263V33.4375H71.9192V34.6875H66.5859V36.0938H62.7071V37.3438H58.6667V36.0938H59.9596V34.6875H61.2526V33.4375H64V32.1875ZM57.3738 37.3438H58.6667V38.5938H57.3738V37.3438Z" fill="#9A2A2F"/>
<path d="M26.6666 27.0312H29.4141V28.2812H30.707V29.5312H32V30.9375H33.2929V32.1875H34.7474V33.4375H36.0404V34.6875H37.3333V36.0938H38.6262V37.3438H42.6666V38.5938H41.3737V39.8438H38.6262V38.5938H37.3333V37.3438H36.0404V36.0938H34.7474V34.6875H33.2929V33.4375H32V32.1875H30.707V30.9375H29.4141V29.5312H27.9596V28.2812H26.6666V27.0312Z" fill="#864A39"/>
<path d="M22.6263 25.7812H24.0808V28.2812H25.3738V29.5312H26.6667V30.9375H27.9596V32.1875H29.4142V33.4375H30.7071V34.6875H32V36.0938H33.293V37.3438H34.7475V38.5938H36.0404V39.8438H33.293V38.5938H32V37.3438H30.7071V36.0938H29.4142V34.6875H27.9596V33.4375H26.6667V32.1875H25.3738V30.9375H24.0808V29.5312H22.6263V28.2812H21.3334V27.0312H22.6263V25.7812Z" fill="#AA7A57"/>
<path d="M58.6667 37.3438H61.2525V39.8438H59.9596V42.5H61.2525V43.75H59.9596V45H57.3737V46.4062H55.9192V38.5938H58.6667V37.3438Z" fill="#A22730"/>
<path d="M68.0404 64.375H70.6263V68.2812H68.0404V69.5312H64V70.7812H59.9596V69.5312H61.2525V68.2812H64V67.0312H68.0404V64.375ZM55.9192 70.7812H59.9596V72.1875H55.9192V70.7812Z" fill="#432930"/>
<path d="M16 56.7188H17.2929V60.4688H14.7071V61.875H11.9596V63.125H8.08081V59.2188H11.9596V57.9688H16V56.7188Z" fill="#9C8A29"/>
<path d="M29.4142 45H30.7071V46.4062H32V47.6562H33.293V48.9062H34.7475V50.1562H33.293V54.0625H29.4142V45ZM33.293 54.0625H34.7475V55.3125H33.293V54.0625Z" fill="#38597D"/>
<path d="M71.9191 45H73.2121V65.625H71.9191V45ZM70.6262 65.625H71.9191V67.0312H70.6262V65.625Z" fill="#D47459"/>
<path d="M20.0404 55.3125H24.0808V61.875H22.6263V63.125H21.3333V61.875H20.0404V55.3125Z" fill="#5C572D"/>
<path d="M26.6666 29.5312H29.4141V30.9375H30.707V32.1875H32V33.4375H33.2929V34.6875H34.7474V36.0938H36.0404V37.3438H37.3333V38.5938H38.6262V39.8438H36.0404V38.5938H34.7474V37.3438H33.2929V36.0938H32V34.6875H30.707V33.4375H29.4141V32.1875H27.9596V30.9375H26.6666V29.5312Z" fill="#FFF4DE"/>
<path d="M54.6262 50.1562H55.9191V70.7812H54.6262V50.1562Z" fill="#CD6957"/>
<path d="M50.5859 42.5H52.0404V48.9062H50.5859V45H49.293V43.75H50.5859V42.5ZM48 45H49.293V46.4062H48V45ZM46.7071 46.4062H48V47.6562H46.7071V46.4062ZM45.2526 47.6562H46.7071V48.9062H45.2526V47.6562ZM43.9596 48.9062H45.2526V50.1562H43.9596V48.9062ZM42.6667 50.1562H43.9596V51.5625H42.6667V50.1562ZM37.3334 51.5625H38.6263V52.8125H37.3334V51.5625ZM41.3738 51.5625H42.6667V52.8125H41.3738V51.5625ZM38.6263 52.8125H41.3738V54.0625H38.6263V52.8125Z" fill="#FFB964"/>
<path d="M53.3333 5.15625H55.9192V6.40625H53.3333V5.15625ZM52.0404 6.40625H53.3333V7.65625H52.0404V6.40625ZM55.9192 6.40625H57.3737V7.65625H55.9192V6.40625ZM57.3737 7.65625H58.6667V12.8125H57.3737V7.65625ZM58.6667 12.8125H64V14.0625H58.6667V12.8125ZM64 14.0625H65.2929V15.4688H64V14.0625ZM65.2929 15.4688H66.5859V17.9688H65.2929V15.4688Z" fill="#F2BB4E"/>
<path d="M58.8282 7.65625H59.9596V11.5625H66.5858V12.8125H68.0404V15.4688H66.7474V15.625H66.5858V15.4688H65.2929V14.0625H64V12.8125H58.6666V7.8125H58.8282V7.65625Z" fill="#FFD88B"/>
<path d="M27.9596 42.5H29.4141V43.75H30.7071V45H29.4141V51.5625H27.9596V42.5ZM30.7071 45H32V46.4062H30.7071V45ZM32 46.4062H33.2929V47.6562H32V46.4062ZM33.2929 47.6562H34.7475V48.9062H33.2929V47.6562ZM34.7475 48.9062H36.0404V50.1562H34.7475V48.9062ZM36.0404 50.1562H37.3333V51.5625H36.0404V50.1562Z" fill="#FFB964"/>
<path d="M24.0808 63.125H25.3737V68.2812H24.0808V63.125ZM22.6263 68.2812H24.0808V69.5312H22.6263V68.2812ZM20.0404 69.5312H22.6263V70.7812H20.0404V69.5312ZM16 70.7812H20.0404V72.1875H16V70.7812ZM11.9596 72.1875H16V73.4375H11.9596V72.1875Z" fill="#CD6957"/>
<path d="M33.293 16.7188H34.7475V17.9688H36.0404V19.2188H37.3334V20.625H38.6263V21.875H42.6667V23.125H41.3738V24.375H38.6263V23.125H37.3334V21.875H36.0404V20.625H34.7475V19.2188H33.293V16.7188Z" fill="#AA7A57"/>
<path d="M33.293 50.1562H36.0404V51.5625H37.3334V52.8125H38.6263V54.0625H39.9192V55.3125H34.7475V54.0625H33.293V50.1562Z" fill="#A6C2D8"/>
<path d="M14.7071 67.0312H17.2929V69.5312H20.0404V70.7812H16V72.1875H13.4141V70.7812H11.9596V69.5312H13.4141V68.2812H14.7071V67.0312Z" fill="#494440"/>
<path d="M29.4142 54.0625H33.293V57.9688H34.7475V59.2188H29.4142V54.0625Z" fill="#7BAAB3"/>
<path d="M6.62622 46.4062H8.08077V60.4688H6.62622V46.4062Z" fill="#EC9A5F"/>
<path d="M66.5859 19.2188H68.0404V20.625H66.5859V19.2188ZM59.9596 20.625H66.5859V21.875H59.9596V20.625ZM58.6667 21.875H59.9596V28.2812H58.6667V21.875ZM57.3738 28.2812H58.6667V29.5312H57.3738V28.2812Z" fill="#F2BB4E"/>
<path d="M50.5859 3.75H52.0404V5.15625H50.5859V3.75ZM49.293 5.15625H50.5859V11.5625H49.293V5.15625ZM42.6667 11.5625H49.293V12.8125H42.6667V11.5625ZM41.3738 12.8125H42.6667V14.0625H41.3738V12.8125Z" fill="#F2BB4E"/>
<path d="M24.0808 48.9062H25.3737V63.125H24.0808V48.9062Z" fill="#DE845C"/>
<path d="M42.6667 21.875H45.2526V23.125H43.9596V24.375H42.6667V25.7812H41.3738V27.0312H38.6263V25.7812H37.3334V24.375H41.3738V23.125H42.6667V21.875Z" fill="#DB5656"/>
<path d="M34.7474 39.8438H37.3333V41.25H38.6262V42.5H42.6666V43.75H41.3737V45H38.6262V43.75H37.3333V42.5H36.0404V41.25H34.7474V39.8438Z" fill="#675243"/>
<path d="M30.707 14.0625H33.2929V15.4688H36.0404V16.7188H37.3333V17.9688H38.6262V19.2188H36.0404V17.9688H34.7474V16.7188H30.707V14.0625Z" fill="#FFD88B"/>
<path d="M14.7071 47.6562H17.2929V51.5625H13.4141V50.1562H11.9596V48.9062H14.7071V47.6562Z" fill="#5B562C"/>
<path d="M50.5858 48.9062H52.0404V59.2188H50.5858V48.9062Z" fill="#C86156"/>
<path d="M37.3334 19.2188H42.6667V20.625H43.9596V21.875H38.6263V20.625H37.3334V19.2188Z" fill="#D7976A"/>
<path d="M32 19.2188H34.7475V20.625H36.0404V21.875H37.3333V23.125H38.6263V24.375H36.0404V23.125H34.7475V21.875H33.2929V20.625H32V19.2188Z" fill="#FF8181"/>
<path d="M45.2526 32.1875H48V33.4375H46.7071V34.6875H45.2526V36.0938H43.9596V37.3438H41.3738V36.0938H42.6667V34.6875H43.9596V33.4375H45.2526V32.1875Z" fill="#A65F4C"/>
<path d="M49.2929 27.0312H50.5858V28.2812H52.0404V29.5312H50.5858V30.9375H49.2929V32.1875H46.707V30.9375H48V29.5312H49.2929V27.0312Z" fill="#D7976A"/>
<path d="M71.9191 57.9688H73.2121V65.625H71.9191V57.9688ZM70.6262 65.625H71.9191V67.0312H70.6262V65.625Z" fill="#CD6957"/>
<path d="M70.6262 39.8438H71.9191V48.9062H70.6262V39.8438Z" fill="#B12232"/>
<path d="M70.6262 56.7188H71.9191V65.625H70.6262V56.7188Z" fill="#753027"/>
<path d="M71.9192 36.0938H73.2121V45H71.9192V36.0938Z" fill="#EC9A5F"/>
<path d="M37.3334 39.8438H42.6667V41.25H41.3738V42.5H38.6263V41.25H37.3334V39.8438Z" fill="#D7976A"/>
<path d="M59.9596 69.5312H64V70.7812H59.9596V69.5312ZM55.9192 70.7812H59.9596V72.1875H55.9192V70.7812Z" fill="#D47459"/>
<path d="M41.3738 15.4688H42.6667V17.9688H43.9596V19.2188H45.2526V20.625H44.1213V20.7812H43.9596V20.625H42.6667V19.2188H41.3738V15.4688Z" fill="#F2BB4E"/>
<path d="M70.6262 48.9062H71.9191V56.7188H70.6262V48.9062Z" fill="#932B2D"/>
<path d="M37.3334 21.875H42.6667V23.125H41.3738V24.375H38.6263V23.125H37.3334V21.875Z" fill="#A65F4C"/>
<path d="M49.2929 45H50.5858V48.9062H46.707V47.6562H48V46.4062H49.2929V45Z" fill="#81B0D2"/>
<path d="M16 70.7812H18.7475V72.1875H16V70.7812ZM11.9596 72.1875H16V73.4375H11.9596V72.1875Z" fill="#D47459"/>
<path d="M64 11.5625H66.5859V12.8125H68.0404V15.4688H66.5859V14.0625H65.2929V12.8125H64V11.5625Z" fill="#FFF4DE"/>
<path d="M55.9192 3.75H58.6667V5.15625H59.9596V7.65625H58.6667V6.40625H57.3737V5.15625H55.9192V3.75Z" fill="#FFF4DE"/>
<path d="M16 69.5312H20.0404V70.7812H16V69.5312ZM13.4142 70.7812H16V72.1875H13.4142V70.7812Z" fill="#4F4947"/>
<path d="M25.3738 21.875H26.6667V25.7812H27.9596V27.0312H25.3738V21.875Z" fill="#A65F4C"/>
<path d="M25.3737 15.4688H27.9596V16.7188H26.6667V17.9688H25.3737V19.2188H24.0808V16.7188H25.3737V15.4688Z" fill="#D7976A"/>
<path d="M27.9596 63.125H29.4141V65.625H30.7071V67.0312H27.9596V63.125Z" fill="#CD6957"/>
<path d="M50.5858 59.2188H52.0404V64.375H50.5858V59.2188Z" fill="#C45B55"/>
<path d="M27.9596 51.5625H29.4141V56.7188H27.9596V51.5625Z" fill="#EC9A5F"/>
<path d="M32 37.3438H34.7475V38.5938H36.0404V39.8438H33.2929V38.5938H32V37.3438Z" fill="#826855"/>
<path d="M21.3333 23.125H22.6263V27.0312H21.3333V25.7812H20.0404V24.375H21.3333V23.125Z" fill="#675243"/>
<path d="M54.6262 65.625H55.9191V70.7812H54.6262V65.625Z" fill="#C15754"/>
<path d="M24.0808 57.9688H25.3737V63.125H24.0808V57.9688Z" fill="#FFB964"/>
<path d="M70.6262 34.6875H71.9191V39.8438H70.6262V34.6875Z" fill="#A72530"/>
<path d="M34.7474 37.3438H37.3333V38.5938H38.6262V39.8438H36.0404V38.5938H34.7474V37.3438Z" fill="#FFD88B"/>
<path d="M24.0808 27.0312H26.6667V28.2812H27.9596V29.5312H25.3737V28.2812H24.0808V27.0312Z" fill="#FFD88B"/>
<path d="M30.707 16.7188H33.2929V19.2188H30.707V16.7188Z" fill="#A65F4C"/>
<path d="M50.5858 64.375H52.0404V68.2812H50.5858V64.375Z" fill="#C15754"/>
<path d="M50.5858 48.9062H52.0404V52.8125H50.5858V48.9062Z" fill="#DE845C"/>
<path d="M50.5858 21.875H52.0404V25.7812H50.5858V21.875Z" fill="#FFD88B"/>
<path d="M22.6262 24.375H25.3737V27.0312H24.0808V25.7812H22.6262V24.375Z" fill="#D7976A"/>
<path d="M6.62622 56.7188H8.08077V60.4688H6.62622V56.7188Z" fill="#DE845C"/>
<path d="M42.6666 16.7188H43.9596V17.9688H42.6666V16.7188ZM43.9596 17.9688H45.2525V19.2188H43.9596V17.9688ZM45.2525 19.2188H46.707V20.625H45.2525V19.2188Z" fill="#FFF4DE"/>
<path d="M55.9192 69.5312H59.9596V70.7812H55.9192V69.5312Z" fill="#30232A"/>
<path d="M64 68.2812H68.0404V69.5312H64V68.2812Z" fill="#DE845C"/>
<path d="M24.0808 54.0625H25.3737V57.9688H24.0808V54.0625Z" fill="#EC9A5F"/>
<path d="M54.6262 50.1562H55.9191V54.0625H54.6262V50.1562Z" fill="#CD6957"/>
<path d="M71.9192 45H73.2121V48.9062H71.9192V45Z" fill="#D47459"/>
<path d="M59.9596 34.6875H61.2526V36.0938H59.9596V34.6875ZM58.6667 36.0938H59.9596V37.3438H58.6667V36.0938ZM57.3738 37.3438H58.6667V38.5938H57.3738V37.3438Z" fill="#753027"/>
<path d="M46.707 74.6875H50.5858V75.9375H46.707V74.6875Z" fill="#D47459"/>
<path d="M46.707 73.4375H50.5858V74.6875H46.707V73.4375Z" fill="#7BAAB3"/>
<path d="M8.08081 73.4375H11.9596V74.6875H8.08081V73.4375Z" fill="#DE845C"/>
<path d="M8.08081 72.1875H11.9596V73.4375H8.08081V72.1875Z" fill="#6D6260"/>
<path d="M54.6262 61.875H55.9191V65.625H54.6262V61.875Z" fill="#C45B55"/>
<path d="M55.9192 70.7812H58.6667V72.1875H55.9192V70.7812Z" fill="#C86156"/>
<path d="M38.6262 70.7812H41.3737V72.1875H38.6262V70.7812Z" fill="#C86156"/>
<path d="M6.62622 70.7812H8.08077V73.4375H6.62622V70.7812Z" fill="#C45B55"/>
<path d="M66.5859 19.2188H68.0404V20.625H66.5859V19.2188ZM65.293 20.625H66.5859V21.875H65.293V20.625Z" fill="#D7976A"/>
<path d="M50.5859 3.75H52.0404V5.15625H50.5859V3.75ZM49.293 5.15625H50.5859V6.40625H49.293V5.15625Z" fill="#D7976A"/>
<path d="M50.5858 72.1875H52.0404V74.6875H50.5858V72.1875Z" fill="#C15754"/>
<path d="M27.9596 63.125H29.4141V65.625H27.9596V63.125Z" fill="#D47459"/>
<path d="M50.5858 52.8125H52.0404V55.3125H50.5858V52.8125Z" fill="#CD6957"/>
<path d="M49.293 19.2188H50.5859V20.625H49.293V19.2188ZM50.5859 20.625H52.0404V21.875H50.5859V20.625Z" fill="#FFF4DE"/>
<path d="M46.707 19.2188H49.2929V20.625H46.707V19.2188Z" fill="#FFD88B"/>
<path d="M43.9596 73.4375H46.7071V74.6875H43.9596V73.4375Z" fill="#C15754"/>
<path d="M33.293 68.2812H36.0404V69.5312H33.293V68.2812Z" fill="#D47459"/>
<path d="M71.9191 64.375H73.2121V65.625H71.9191V64.375ZM70.6262 65.625H71.9191V67.0312H70.6262V65.625Z" fill="#D47459"/>
<path d="M71.9192 55.3125H73.2121V57.9688H71.9192V55.3125Z" fill="#D47459"/>
<path d="M54.6262 54.0625H55.9191V56.7188H54.6262V54.0625Z" fill="#C45B55"/>
<path d="M8.08081 50.1562H9.37374V52.8125H8.08081V50.1562Z" fill="#5A552C"/>
<path d="M50.5858 25.7812H52.0404V27.0312H50.5858V25.7812ZM52.0404 27.0312H53.3333V28.2812H52.0404V27.0312Z" fill="#FFF4DE"/>
<path d="M42.6666 17.9688H43.9596V19.2188H42.6666V17.9688ZM43.9596 19.2188H45.2525V20.625H43.9596V19.2188Z" fill="#FFD88B"/>
<path d="M65.293 11.5625H66.5859V12.8125H65.293V11.5625ZM66.5859 12.8125H68.0404V14.0625H66.5859V12.8125Z" fill="#D7976A"/>
<path d="M57.3738 3.75H58.6667V5.15625H57.3738V3.75ZM58.6667 5.15625H59.9596V6.40625H58.6667V5.15625Z" fill="#D7976A"/>
<path d="M41.3738 72.1875H43.9596V73.4375H41.3738V72.1875Z" fill="#C15754"/>
<path d="M54.6262 68.2812H55.9191V70.7812H54.6262V68.2812Z" fill="#BF5454"/>
<path d="M36.0404 69.5312H38.6263V70.7812H36.0404V69.5312Z" fill="#CD6957"/>
<path d="M68.0404 67.0312H70.6263V68.2812H68.0404V67.0312Z" fill="#DE845C"/>
<path d="M30.707 67.0312H33.2929V68.2812H30.707V67.0312Z" fill="#CD6957"/>
<path d="M24.0808 63.125H25.3737V65.625H24.0808V63.125Z" fill="#DE845C"/>
<path d="M71.9192 61.875H73.2121V64.375H71.9192V61.875Z" fill="#CD6957"/>
<path d="M54.6262 56.7188H55.9191V59.2188H54.6262V56.7188Z" fill="#D47459"/>
<path d="M37.3334 51.5625H38.6263V52.8125H37.3334V51.5625ZM38.6263 52.8125H39.9192V54.0625H38.6263V52.8125Z" fill="#EC9A5F"/>
<path d="M58.6667 27.0312H59.9596V28.2812H58.6667V27.0312ZM57.3738 28.2812H58.6667V29.5312H57.3738V28.2812Z" fill="#D7976A"/>
<path d="M42.6667 11.5625H43.9596V12.8125H42.6667V11.5625ZM41.3738 12.8125H42.6667V14.0625H41.3738V12.8125Z" fill="#D7976A"/>
<path d="M27.9596 55.3125H29.4141V56.7188H27.9596V55.3125Z" fill="#FFB964"/>
<path d="M6.62622 55.3125H8.08077V56.7188H6.62622V55.3125Z" fill="#FFB964"/>
<path d="M11.9596 72.1875H13.4141V73.4375H11.9596V72.1875Z" fill="#CD6957"/>
<path d="M6.62622 72.1875H8.08077V73.4375H6.62622V72.1875Z" fill="#C86156"/>
<path d="M57.3738 70.7812H58.6667V72.1875H57.3738V70.7812Z" fill="#CD6957"/>
<path d="M8.08081 70.7812H9.37374V72.1875H8.08081V70.7812Z" fill="#2C2828"/>
<path d="M6.62622 69.5312H8.08077V70.7812H6.62622V69.5312Z" fill="#D47459"/>
<path d="M6.62622 68.2812H8.08077V69.5312H6.62622V68.2812Z" fill="#CD6957"/>
<path d="M50.5858 67.0312H52.0404V68.2812H50.5858V67.0312Z" fill="#C45B55"/>
<path d="M50.5858 63.125H52.0404V64.375H50.5858V63.125Z" fill="#C45B55"/>
<path d="M27.9596 63.125H29.4141V64.375H27.9596V63.125Z" fill="#DE845C"/>
<path d="M50.5858 61.875H52.0404V63.125H50.5858V61.875Z" fill="#C86156"/>
<path d="M71.9192 60.4688H73.2121V61.875H71.9192V60.4688Z" fill="#C86156"/>
<path d="M50.5858 57.9688H52.0404V59.2188H50.5858V57.9688Z" fill="#C86156"/>
<path d="M50.5858 56.7188H52.0404V57.9688H50.5858V56.7188Z" fill="#C15754"/>
<path d="M6.62622 56.7188H8.08077V57.9688H6.62622V56.7188Z" fill="#EC9A5F"/>
<path d="M54.6262 50.1562H55.9191V51.5625H54.6262V50.1562Z" fill="#DE845C"/>
<path d="M49.293 74.6875H50.5859V75.9375H49.293V74.6875Z" fill="#DE845C"/>
<path d="M46.707 74.6875H48V75.9375H46.707V74.6875Z" fill="#C45B55"/>
<path d="M43.9596 73.4375H45.2525V74.6875H43.9596V73.4375Z" fill="#C86156"/>
<path d="M8.08081 73.4375H9.37374V74.6875H8.08081V73.4375Z" fill="#CD6957"/>
<path d="M43.9596 72.1875H45.2525V73.4375H43.9596V72.1875Z" fill="#7BAAB3"/>
<path d="M41.3738 72.1875H42.6667V73.4375H41.3738V72.1875Z" fill="#BF5454"/>
<path d="M13.4142 72.1875H14.7071V73.4375H13.4142V72.1875Z" fill="#DE845C"/>
<path d="M62.707 69.5312H64V70.7812H62.707V69.5312Z" fill="#DE845C"/>
<path d="M36.0404 69.5312H37.3333V70.7812H36.0404V69.5312Z" fill="#C86156"/>
<path d="M64 68.2812H65.2929V69.5312H64V68.2812Z" fill="#CD6957"/>
<path d="M54.6262 68.2812H55.9191V69.5312H54.6262V68.2812Z" fill="#BE5254"/>
<path d="M21.3334 68.2812H22.6263V69.5312H21.3334V68.2812Z" fill="#504A48"/>
<path d="M8.08081 68.2812H9.37374V69.5312H8.08081V68.2812Z" fill="#5C460B"/>
<path d="M68.0404 67.0312H69.3333V68.2812H68.0404V67.0312Z" fill="#FFB964"/>
<path d="M30.707 67.0312H32V68.2812H30.707V67.0312Z" fill="#D47459"/>
<path d="M70.6262 64.375H71.9191V65.625H70.6262V64.375Z" fill="#663524"/>
<path d="M54.6262 64.375H55.9191V65.625H54.6262V64.375Z" fill="#C86156"/>
<path d="M8.08081 64.375H9.37374V65.625H8.08081V64.375Z" fill="#5C460B"/>
<path d="M24.0808 63.125H25.3737V64.375H24.0808V63.125Z" fill="#EC9A5F"/>
<path d="M54.6262 61.875H55.9191V63.125H54.6262V61.875Z" fill="#C86156"/>
<path d="M71.9192 57.9688H73.2121V59.2188H71.9192V57.9688Z" fill="#C86156"/>
<path d="M71.9192 54.0625H73.2121V55.3125H71.9192V54.0625Z" fill="#DE845C"/>
<path d="M54.6262 54.0625H55.9191V55.3125H54.6262V54.0625Z" fill="#C86156"/>
<path d="M8.08081 54.0625H9.37374V55.3125H8.08081V54.0625Z" fill="#5A552C"/>
<path d="M71.9192 52.8125H73.2121V54.0625H71.9192V52.8125Z" fill="#CD6957"/>
<path d="M54.6262 51.5625H55.9191V52.8125H54.6262V51.5625Z" fill="#D47459"/>
<path d="M71.9192 48.9062H73.2121V50.1562H71.9192V48.9062Z" fill="#DE845C"/>
<path d="M24.0808 48.9062H25.3737V50.1562H24.0808V48.9062Z" fill="#EC9A5F"/>
<path d="M71.9192 47.6562H73.2121V48.9062H71.9192V47.6562Z" fill="#CD6957"/>
<path d="M70.6262 33.4375H71.9191V34.6875H70.6262V33.4375Z" fill="#753027"/>
<path d="M22.6262 61.875H22.7878V62.0312H22.6262V61.875Z" fill="#191614"/>
<path d="M16 56.7188H16.1616V56.875H16V56.7188Z" fill="#9C8B2A"/>
<path d="M20.0404 55.3125H20.202V55.4688H20.0404V55.3125Z" fill="#5C582D"/>
<path d="M8.08081 55.3125H8.24243V55.4688H8.08081V55.3125Z" fill="#36351A"/>
<path d="M8.08081 52.8125H8.24243V52.9688H8.08081V52.8125Z" fill="#36351A"/>
<path d="M17.293 50.1562H17.4546V50.3125H17.293V50.1562Z" fill="#191614"/>
<path d="M8.08081 48.9062H8.24243V49.0625H8.08081V48.9062Z" fill="#36351A"/>
<path d="M9.37378 47.6562H9.5354V47.8125H9.37378V47.6562Z" fill="#36351A"/>
<path d="M10.6666 46.4062H10.8282V46.5625H10.6666V46.4062Z" fill="#36351A"/>
<path d="M22.6262 42.5H22.7878V42.6562H22.6262V42.5Z" fill="#38351B"/>
<path d="M7.85946 89V80.2727H9.6748V83.554H9.7302C9.80974 83.3778 9.9248 83.1989 10.0754 83.017C10.2288 82.8324 10.4276 82.679 10.672 82.5568C10.9191 82.4318 11.2259 82.3693 11.5924 82.3693C12.0697 82.3693 12.51 82.4943 12.9134 82.7443C13.3168 82.9915 13.6393 83.3651 13.8808 83.8651C14.1222 84.3622 14.243 84.9858 14.243 85.7358C14.243 86.4659 14.1251 87.0824 13.8893 87.5852C13.6563 88.0852 13.3382 88.4645 12.9347 88.723C12.5342 88.9787 12.0853 89.1065 11.5882 89.1065C11.2359 89.1065 10.9362 89.0483 10.689 88.9318C10.4447 88.8153 10.2444 88.669 10.0882 88.4929C9.9319 88.3139 9.81258 88.1335 9.7302 87.9517H9.64923V89H7.85946ZM9.63645 85.7273C9.63645 86.1165 9.69042 86.456 9.79838 86.7457C9.90633 87.0355 10.0626 87.2614 10.2671 87.4233C10.4717 87.5824 10.7203 87.6619 11.0129 87.6619C11.3083 87.6619 11.5583 87.581 11.7629 87.419C11.9674 87.2543 12.1222 87.027 12.2274 86.7372C12.3353 86.4446 12.3893 86.108 12.3893 85.7273C12.3893 85.3494 12.3367 85.017 12.2316 84.7301C12.1265 84.4432 11.9717 84.2187 11.7671 84.0568C11.5626 83.8949 11.3112 83.8139 11.0129 83.8139C10.7174 83.8139 10.4674 83.892 10.2629 84.0483C10.0612 84.2045 9.90633 84.4261 9.79838 84.7131C9.69042 85 9.63645 85.3381 9.63645 85.7273ZM17.0841 91.4545C16.854 91.4545 16.6381 91.4361 16.4363 91.3991C16.2375 91.3651 16.0727 91.321 15.942 91.267L16.3511 89.9119C16.5642 89.9773 16.756 90.0128 16.9264 90.0185C17.0997 90.0241 17.2488 89.9844 17.3738 89.8991C17.5017 89.8139 17.6054 89.669 17.6849 89.4645L17.7915 89.1875L15.4435 82.4545H17.3525L18.7077 87.2614H18.7758L20.1437 82.4545H22.0656L19.5216 89.7074C19.3994 90.0597 19.2332 90.3665 19.023 90.6278C18.8156 90.892 18.5528 91.0952 18.2346 91.2372C17.9165 91.3821 17.5329 91.4545 17.0841 91.4545ZM28.8792 89L26.3053 80.2727H28.9474L30.1406 85.642H30.2087L31.6235 80.2727H33.7031L35.1178 85.6591H35.186L36.3792 80.2727H39.0212L36.4474 89H34.1803L32.6974 84.125H32.6292L31.1462 89H28.8792ZM45.6731 80.2727H48.0424V85.8636C48.0424 86.5284 47.8833 87.1037 47.5651 87.5895C47.2498 88.0724 46.8094 88.446 46.2441 88.7102C45.6787 88.9716 45.0225 89.1023 44.2753 89.1023C43.5225 89.1023 42.8634 88.9716 42.2981 88.7102C41.7327 88.446 41.2924 88.0724 40.977 87.5895C40.6645 87.1037 40.5083 86.5284 40.5083 85.8636V80.2727H42.8776V85.6591C42.8776 85.929 42.9373 86.1705 43.0566 86.3835C43.1759 86.5937 43.3407 86.7585 43.5509 86.8778C43.764 86.9972 44.0054 87.0568 44.2753 87.0568C44.5481 87.0568 44.7895 86.9972 44.9998 86.8778C45.21 86.7585 45.3748 86.5937 45.4941 86.3835C45.6134 86.1705 45.6731 85.929 45.6731 85.6591V80.2727ZM58.343 84.6364C58.343 85.608 58.1541 86.4276 57.7762 87.0952C57.3984 87.7599 56.8884 88.2642 56.2464 88.608C55.6043 88.9489 54.8884 89.1193 54.0987 89.1193C53.3032 89.1193 52.5845 88.9474 51.9424 88.6037C51.3032 88.2571 50.7947 87.7514 50.4168 87.0866C50.0418 86.419 49.8543 85.6023 49.8543 84.6364C49.8543 83.6648 50.0418 82.8466 50.4168 82.1818C50.7947 81.5142 51.3032 81.0099 51.9424 80.669C52.5845 80.3253 53.3032 80.1534 54.0987 80.1534C54.8884 80.1534 55.6043 80.3253 56.2464 80.669C56.8884 81.0099 57.3984 81.5142 57.7762 82.1818C58.1541 82.8466 58.343 83.6648 58.343 84.6364ZM55.9055 84.6364C55.9055 84.1136 55.8359 83.6733 55.6967 83.3153C55.5603 82.9545 55.3572 82.6818 55.0873 82.4972C54.8203 82.3097 54.4907 82.2159 54.0987 82.2159C53.7066 82.2159 53.3757 82.3097 53.1058 82.4972C52.8387 82.6818 52.6356 82.9545 52.4964 83.3153C52.36 83.6733 52.2918 84.1136 52.2918 84.6364C52.2918 85.1591 52.36 85.6009 52.4964 85.9616C52.6356 86.3196 52.8387 86.5923 53.1058 86.7798C53.3757 86.9645 53.7066 87.0568 54.0987 87.0568C54.4907 87.0568 54.8203 86.9645 55.0873 86.7798C55.3572 86.5923 55.5603 86.3196 55.6967 85.9616C55.8359 85.6009 55.9055 85.1591 55.9055 84.6364ZM59.5104 82.1818V80.2727H67.0957V82.1818H64.4707V89H62.1354V82.1818H59.5104ZM68.7073 89V80.2727H74.9971V82.1818H71.0767V83.6818H74.6733V85.5909H71.0767V87.0909H74.9801V89H68.7073Z" fill="#EE2B2C"/>
</g>
<defs>
<clipPath id="clip0_418_2">
<rect width="80" height="95" fill="white"/>
</clipPath>
</defs>
</svg>
