<svg width="1400" height="1676" viewBox="0 0 1400 1676" fill="none" xmlns="http://www.w3.org/2000/svg">
<path d="M409.398 1606L354.489 1419.82H410.852L436.307 1534.36H437.761L467.943 1419.82H512.307L542.489 1534.73H543.943L569.398 1419.82H625.761L570.852 1606H522.489L490.852 1502H489.398L457.761 1606H409.398ZM752.307 1419.82H802.852V1539.09C802.852 1553.27 799.458 1565.54 792.67 1575.91C785.943 1586.21 776.549 1594.18 764.489 1599.82C752.428 1605.39 738.428 1608.18 722.489 1608.18C706.428 1608.18 692.367 1605.39 680.307 1599.82C668.246 1594.18 658.852 1586.21 652.125 1575.91C645.458 1565.54 642.125 1553.27 642.125 1539.09V1419.82H692.67V1534.73C692.67 1540.48 693.943 1545.64 696.489 1550.18C699.034 1554.67 702.549 1558.18 707.034 1560.73C711.58 1563.27 716.731 1564.54 722.489 1564.54C728.307 1564.54 733.458 1563.27 737.943 1560.73C742.428 1558.18 745.943 1554.67 748.489 1550.18C751.034 1545.64 752.307 1540.48 752.307 1534.73V1419.82ZM1007.24 1512.91C1007.24 1533.64 1003.21 1551.12 995.148 1565.36C987.087 1579.54 976.208 1590.3 962.511 1597.64C948.814 1604.91 933.542 1608.54 916.693 1608.54C899.723 1608.54 884.39 1604.88 870.693 1597.54C857.057 1590.15 846.208 1579.36 838.148 1565.18C830.148 1550.94 826.148 1533.51 826.148 1512.91C826.148 1492.18 830.148 1474.73 838.148 1460.54C846.208 1446.3 857.057 1435.54 870.693 1428.27C884.39 1420.94 899.723 1417.27 916.693 1417.27C933.542 1417.27 948.814 1420.94 962.511 1428.27C976.208 1435.54 987.087 1446.3 995.148 1460.54C1003.21 1474.73 1007.24 1492.18 1007.24 1512.91ZM955.239 1512.91C955.239 1501.76 953.754 1492.36 950.784 1484.73C947.875 1477.03 943.542 1471.21 937.784 1467.27C932.087 1463.27 925.057 1461.27 916.693 1461.27C908.33 1461.27 901.269 1463.27 895.511 1467.27C889.814 1471.21 885.481 1477.03 882.511 1484.73C879.602 1492.36 878.148 1501.76 878.148 1512.91C878.148 1524.06 879.602 1533.48 882.511 1541.18C885.481 1548.82 889.814 1554.64 895.511 1558.64C901.269 1562.58 908.33 1564.54 916.693 1564.54C925.057 1564.54 932.087 1562.58 937.784 1558.64C943.542 1554.64 947.875 1548.82 950.784 1541.18C953.754 1533.48 955.239 1524.06 955.239 1512.91ZM1016.78 1460.54V1419.82H1178.6V1460.54H1122.6V1606H1072.78V1460.54H1016.78ZM1197.62 1606V1419.82H1331.81V1460.54H1248.17V1492.54H1324.9V1533.27H1248.17V1565.27H1331.44V1606H1197.62Z" fill="white"/>
<g clip-path="url(#clip0_504_1054)">
<circle cx="181" cy="1503" r="118.5" fill="#005784" stroke="white" stroke-width="5"/>
<path d="M254.691 1438.27V1438.28H254.956V1443.92H223.627V1482.39H268.317V1488.03H223.627V1526.69H272.187V1532.33H223.589V1534.88C223.589 1541.27 222.088 1546.89 219.138 1551.8L219.136 1551.81C216.212 1556.7 212.077 1560.58 206.66 1563.46C201.289 1566.28 194.908 1567.73 187.438 1567.73C180.198 1567.73 173.98 1566.36 168.714 1563.71L168.208 1563.45C162.796 1560.58 158.646 1556.7 155.69 1551.8C152.773 1546.89 151.288 1541.27 151.288 1534.88V1489.59L146.379 1488.92L125.037 1565.98H116.416L90.5918 1471.54H97.6123L117.913 1550.65L118.395 1552.53H123.236L123.725 1550.66L144.406 1471.54H158.33V1533.91C158.33 1539.15 159.486 1543.9 161.857 1548.1L161.861 1548.11C164.236 1552.29 167.624 1555.57 171.96 1557.95L171.981 1557.96C176.399 1560.33 181.583 1561.47 187.438 1561.47C193.295 1561.47 198.478 1560.33 202.896 1557.96L202.91 1557.96C207.282 1555.57 210.677 1552.29 213.023 1548.1L213.022 1548.1C215.392 1543.89 216.547 1539.14 216.547 1533.91V1471.54H216.548V1443.91H185.4V1438.27H254.691Z" fill="white" stroke="white" stroke-width="5"/>
<path d="M187.143 1492.08C188.447 1494.74 190.518 1498.74 193.04 1502.84C195.86 1507.43 198.517 1512.02 200.467 1516.37C202.431 1520.74 203.575 1524.65 203.575 1527.92C203.575 1539.78 195.671 1548.59 186.906 1548.59L186.905 1548.59C178.14 1548.58 170.246 1539.78 170.246 1527.92C170.246 1522.32 172.592 1516.34 180.29 1504.36C182.811 1500.44 184.871 1496.62 186.303 1493.78C186.612 1493.17 186.892 1492.6 187.143 1492.08Z" fill="black"/>
<path d="M187.143 1492.08C188.447 1494.74 190.518 1498.74 193.04 1502.84C195.86 1507.43 198.517 1512.02 200.467 1516.37C202.431 1520.74 203.575 1524.65 203.575 1527.92C203.575 1539.78 195.671 1548.59 186.906 1548.59L186.905 1548.59C178.14 1548.58 170.246 1539.78 170.246 1527.92C170.246 1522.32 172.592 1516.34 180.29 1504.36C182.811 1500.44 184.871 1496.62 186.303 1493.78C186.612 1493.17 186.892 1492.6 187.143 1492.08Z" fill="#3EA34B"/>
<path d="M187.143 1492.08C188.447 1494.74 190.518 1498.74 193.04 1502.84C195.86 1507.43 198.517 1512.02 200.467 1516.37C202.431 1520.74 203.575 1524.65 203.575 1527.92C203.575 1539.78 195.671 1548.59 186.906 1548.59L186.905 1548.59C178.14 1548.58 170.246 1539.78 170.246 1527.92C170.246 1522.32 172.592 1516.34 180.29 1504.36C182.811 1500.44 184.871 1496.62 186.303 1493.78C186.612 1493.17 186.892 1492.6 187.143 1492.08Z" stroke="white" stroke-width="5"/>
<mask id="path-5-inside-1_504_1054" fill="white">
<path d="M175.154 1533.7C175.099 1533.23 175.44 1532.8 175.91 1532.75C176.379 1532.69 176.806 1533.03 176.861 1533.5C177.305 1537.41 180.748 1541.8 185.173 1542.12C185.646 1542.16 186 1542.57 185.966 1543.04C185.932 1543.5 185.557 1543.85 185.113 1543.85C185.092 1543.85 185.07 1543.85 185.049 1543.84C179.775 1543.46 175.679 1538.28 175.159 1533.7L175.154 1533.7Z"/>
</mask>
<path d="M175.154 1533.7C175.099 1533.23 175.44 1532.8 175.91 1532.75C176.379 1532.69 176.806 1533.03 176.861 1533.5C177.305 1537.41 180.748 1541.8 185.173 1542.12C185.646 1542.16 186 1542.57 185.966 1543.04C185.932 1543.5 185.557 1543.85 185.113 1543.85C185.092 1543.85 185.07 1543.85 185.049 1543.84C179.775 1543.46 175.679 1538.28 175.159 1533.7L175.154 1533.7Z" fill="white"/>
<path d="M175.154 1533.7L170.189 1534.29L171.39 1544.49L178.678 1537.25L175.154 1533.7ZM175.91 1532.75L176.498 1537.71L176.498 1537.71L175.91 1532.75ZM176.861 1533.5L181.829 1532.94L181.828 1532.93L181.827 1532.92L176.861 1533.5ZM185.173 1542.12L184.806 1547.11L184.812 1547.11L185.173 1542.12ZM185.966 1543.04L190.952 1543.42L190.953 1543.41L185.966 1543.04ZM185.049 1543.84L186.032 1538.94L185.725 1538.88L185.413 1538.85L185.049 1543.84ZM175.159 1533.7L180.127 1533.13L178.962 1522.87L171.635 1530.15L175.159 1533.7ZM175.154 1533.7L180.12 1533.12C180.391 1535.41 178.743 1537.45 176.498 1537.71L175.91 1532.75L175.321 1527.78C172.137 1528.16 169.807 1531.05 170.189 1534.29L175.154 1533.7ZM175.91 1532.75L176.498 1537.71C174.169 1537.99 172.157 1536.31 171.895 1534.09L176.861 1533.5L181.827 1532.92C181.454 1529.76 178.589 1527.39 175.321 1527.78L175.91 1532.75ZM176.861 1533.5L171.893 1534.07C172.245 1537.17 173.721 1540.19 175.814 1542.51C177.923 1544.84 181.013 1546.83 184.806 1547.11L185.173 1542.12L185.539 1537.14C184.908 1537.09 184.064 1536.72 183.234 1535.8C182.389 1534.87 181.921 1533.75 181.829 1532.94L176.861 1533.5ZM185.173 1542.12L184.812 1547.11C182.502 1546.94 180.816 1544.94 180.979 1542.68L185.966 1543.04L190.953 1543.41C191.185 1540.21 188.791 1537.37 185.533 1537.14L185.173 1542.12ZM185.966 1543.04L180.98 1542.67C181.14 1540.54 182.912 1538.85 185.113 1538.85V1543.85V1548.85C188.201 1548.85 190.724 1546.45 190.952 1543.42L185.966 1543.04ZM185.113 1543.85V1538.85C185.081 1538.85 185.196 1538.84 185.331 1538.85C185.483 1538.86 185.731 1538.88 186.032 1538.94L185.049 1543.84L184.065 1548.74C184.388 1548.81 184.658 1548.83 184.831 1548.84C184.918 1548.84 184.989 1548.84 185.034 1548.84C185.076 1548.85 185.113 1548.85 185.113 1548.85V1543.85ZM185.049 1543.84L185.413 1538.85C184.338 1538.78 183.116 1538.18 182.014 1536.97C180.893 1535.75 180.255 1534.26 180.127 1533.13L175.159 1533.7L170.191 1534.26C170.583 1537.72 172.253 1541.11 174.629 1543.71C177.023 1546.34 180.486 1548.52 184.685 1548.83L185.049 1543.84ZM175.159 1533.7L171.635 1530.15L171.631 1530.15L175.154 1533.7L178.678 1537.25L178.682 1537.25L175.159 1533.7Z" fill="white" mask="url(#path-5-inside-1_504_1054)"/>
</g>
<mask id="mask0_504_1054" style="mask-type:luminance" maskUnits="userSpaceOnUse" x="0" y="1" width="1400" height="1668">
<path d="M1400 1.55322H0V1668.01H1400V1.55322Z" fill="white"/>
</mask>
<g mask="url(#mask0_504_1054)">
<path d="M885.252 67.3337H1026.67V92.0016H1049.29V204.377H1165.25V226.304H1190.71V363.348H1165.25V385.275H1049.29V497.65H1026.67V519.577H978.585V544.246H955.959V566.173H933.332V588.1H910.706V610.027H885.252V634.696H862.625V656.623H839.999V678.55H817.373V700.477H791.918V725.144H769.292V747.071H746.666V768.998H724.039V790.925H675.959V768.998H653.332V747.071H630.706V725.144H608.08V700.477H582.625V678.55H559.999V656.623H537.373V634.696H514.746V610.027H489.292V588.1H466.666V566.173H444.039V544.246H421.413V519.577H395.959V497.65H373.332V453.796H350.706V316.754H373.332V272.9H395.959V248.231H421.413V226.304H466.666V204.377H608.08V226.304H630.706V248.231H653.332V272.9H675.959V294.827H724.039V226.304H746.666V204.377H862.625V92.0016H885.252V67.3337Z" fill="#F2BB4E"/>
<path d="M1120 544.246H1235.96V566.173H1258.59V588.1H1281.21V1152.72H1258.59V1177.39H1235.96V1199.31H1190.71V1221.24H1120V1243.17H1049.3V1267.84H978.587V1243.17H955.961V678.55H978.587V656.623H1004.04V634.696H1026.67V610.027H1049.3V588.1H1071.92V566.173H1120V544.246Z" fill="#AE2431"/>
<path d="M280.001 588.101H350.708V610.028H373.334V634.697H395.96V656.624H421.415V678.551H444.041V1199.31H421.415V1221.24H395.96V1243.17H350.708V1267.84H280.001V1289.76H209.294V1311.69H141.415V1289.76H115.96V725.145H141.415V700.478H164.041V678.551H186.667V656.624H209.294V634.697H234.748V610.028H280.001V588.101Z" fill="#37351A"/>
<path d="M489.294 747.071H514.748V768.998H537.375V790.925H560.001V815.592H582.627V837.519H608.082V859.446H630.708V881.373H653.334V906.041H675.961V927.968H724.041V906.041H746.668V881.373H769.294V859.446H791.92V837.519H817.375V815.592H840.001V790.925H862.627V768.998H885.254V747.071H910.708V1311.69H885.254V1333.62H817.375V1311.69H769.294V1289.76H724.041V1267.84H675.961V1243.17H630.708V1221.24H582.627V1199.31H537.375V1177.39H489.294V747.071Z" fill="#81B0D2"/>
<path d="M514.747 294.827H608.08V316.754H630.706V338.681H653.333V363.348H675.959V385.275H862.626V519.577H839.999V544.246H817.373V566.173H839.999V588.1H817.373V610.027H791.919V634.696H769.292V656.623H746.666V678.55H724.04V700.477H675.959V678.55H653.333V656.623H630.706V634.696H608.08V610.027H582.626V588.1H559.999V566.173H537.373V544.246H514.747V519.577H489.292V497.65H466.666V475.723H444.04V363.348H466.666V338.681H489.292V316.754H514.747V294.827Z" fill="#F65858"/>
<path d="M1142.63 747.072H1235.96V859.447H1190.71V881.374H1097.38V906.042H1071.92V971.823H1049.29V996.492H1071.92V1018.42H1049.29V1040.35H1071.92V1062.27H1097.38V1040.35H1142.63V1018.42H1235.96V996.492H1258.59V1152.72H1235.96V1199.32H1190.71V1221.24H1120V1243.17H1049.29V1267.84H978.588V815.593H1004.04V790.926H1071.92V768.999H1142.63V747.072Z" fill="#4B2C33"/>
<path d="M840.002 790.926H862.629V815.593H840.002V790.926ZM817.376 815.593H840.002V837.52H817.376V815.593ZM791.922 837.52H817.376V859.447H791.922V837.52ZM769.294 859.447H791.922V881.374H769.294V859.447ZM746.669 881.374H769.294V906.042H746.669V881.374ZM653.336 906.042H675.962V927.969H653.336V906.042ZM724.043 906.042H746.669V927.969H724.043V906.042ZM675.962 927.969H724.043V949.896H675.962V927.969ZM885.255 747.072H910.709V1311.69H885.255V1333.62H817.376V1311.69H769.294V1289.76H724.043V1267.84H675.962V1243.17H630.709V1221.24H582.629V1199.32H537.376V1152.72H514.75V1040.35H608.083V1062.27H675.962V1086.94H698.588V1130.79H675.962V1152.72H698.588V1177.39H791.922V1199.32H862.629V1221.24H885.255V790.926H862.629V768.999H885.255V747.072Z" fill="#38597D"/>
<path d="M933.333 113.929H978.587V135.856H1004.04V226.305H1026.67V248.232H1120V272.901H1142.63V316.755H1120V338.682H1026.67V363.349H1004.04V475.724H933.333V497.651H910.708V475.724H885.252V453.797H910.708V385.276H885.252V363.349H862.626V338.682H817.373V363.349H791.919V338.682H769.294V316.755H746.666V294.828H769.294V272.901H791.919V248.232H885.252V226.305H910.708V135.856H933.333V113.929Z" fill="white"/>
<path d="M302.628 881.373H350.709V1086.94H373.335V1108.87H395.962V1086.94H421.416V1199.31H395.962V1221.24H350.709V1243.17H280.002V1267.84H141.416V1108.87H209.295V1086.94H257.376V1062.27H302.628V996.491H280.002V1018.42H234.749V996.491H209.295V971.822H280.002V949.895H302.628V881.373Z" fill="#181614"/>
<path d="M466.666 204.378H608.08V226.305H630.706V248.232H653.332V272.9H675.959V294.827H724.039V338.681H675.959V316.754H653.332V294.827H630.706V272.9H582.625V248.232H489.292V272.9H444.039V294.827H421.413V338.681H395.959V453.796H421.413V497.65H444.039V519.577H466.666V544.246H489.292V566.173H514.746V588.1H537.373V610.027H559.999V634.696H582.625V656.623H608.08V678.55H630.706V700.477H653.332V725.144H675.959V747.071H724.039V725.144H746.666V700.477H769.292V678.55H791.918V656.623H817.373V634.696H839.999V610.027H862.625V588.1H885.252V566.173H910.706V544.246H933.332V519.577H978.585V544.246H955.959V566.173H933.332V588.1H910.706V610.027H885.252V634.696H862.625V656.623H839.999V678.55H817.373V700.477H791.918V725.144H769.292V747.071H746.666V768.998H724.039V790.925H675.959V768.998H653.332V747.071H630.706V725.144H608.08V700.477H582.625V678.55H559.999V656.623H537.373V634.696H514.746V610.027H489.292V588.1H466.666V566.173H444.039V544.246H421.413V519.577H395.959V497.65H373.332V453.796H350.706V316.754H373.332V272.9H395.959V248.232H421.413V226.305H466.666V204.378Z" fill="#826855"/>
<path d="M280.001 588.101H350.708V610.028H280.001V588.101ZM234.748 610.028H280.001V634.697H234.748V610.028ZM350.708 610.028H373.334V634.697H350.708V610.028ZM209.294 634.697H234.748V656.624H209.294V634.697ZM373.334 634.697H395.96V656.624H373.334V634.697ZM186.667 656.624H209.294V678.551H186.667V656.624ZM395.96 656.624H421.415V678.551H395.96V656.624ZM164.041 678.551H186.667V700.478H164.041V678.551ZM421.415 678.551H444.041V1199.31H421.415V678.551ZM141.415 700.478H164.041V725.145H141.415V700.478ZM115.96 725.145H141.415V1040.35H209.294V1018.42H280.001V996.492H302.627V1062.27H257.374V1086.94H209.294V1108.87H141.415V1267.84H280.001V1289.76H209.294V1311.69H141.415V1289.76H115.96V725.145ZM395.96 1199.31H421.415V1221.24H395.96V1199.31ZM350.708 1221.24H395.96V1243.17H350.708V1221.24ZM280.001 1243.17H350.708V1267.84H280.001V1243.17Z" fill="#D47459"/>
<path d="M1142.63 747.072H1235.96V859.447H1190.71V881.374H1097.38V906.042H1049.29V949.896H978.588V815.593H1004.04V790.926H1071.92V768.999H1142.63V747.072Z" fill="#30232A"/>
<path d="M280.002 610.028H350.709V634.697H373.335V656.624H395.962V678.551H421.416V747.072H395.962V768.999H350.709V725.145H280.002V747.072H234.749V790.926H209.295V815.593H186.669V837.52H164.042V859.447H141.416V725.145H164.042V700.478H186.669V678.551H209.295V656.624H234.749V634.697H280.002V610.028Z" fill="#161616"/>
<path d="M1120 544.246H1235.96V566.173H1120V544.246ZM1071.92 566.173H1120V588.1H1071.92V566.173ZM1235.96 566.173H1258.59V588.1H1235.96V566.173ZM1049.3 588.1H1071.92V610.027H1049.3V588.1ZM1258.59 588.1H1281.21V1152.72H1258.59V588.1ZM1026.67 610.027H1049.3V634.696H1026.67V610.027ZM1004.04 634.696H1026.67V656.623H1004.04V634.696ZM978.587 656.623H1004.04V678.55H978.587V656.623ZM955.961 678.55H978.587V1243.17H955.961V678.55ZM1235.96 1152.72H1258.59V1177.39H1235.96V1152.72Z" fill="#FFB964"/>
<path d="M1190.71 859.446H1258.59V996.491H1235.96V1018.42H1142.63V1040.35H1097.38V1062.27H1071.92V1040.35H1049.29V1018.42H1071.92V996.491H1049.29V971.823H1071.92V906.042H1097.38V881.373H1190.71V859.446Z" fill="#A92531"/>
<path d="M885.251 67.3337H1026.66V92.0016H1049.29V204.377H1165.25V226.304H1190.7V272.9H1168.08V275.64H1165.25V272.9H1142.63V248.231H1120V226.304H1026.66V135.856H1004.04V113.929H978.584V92.0016H933.332V113.929H910.705V226.304H885.251V248.231H791.918V272.9H769.291V294.827H746.665V272.9H724.039V226.304H746.665V204.377H862.625V92.0016H885.251V67.3337Z" fill="#FFD88B"/>
<path d="M514.747 294.827H608.08V316.754H630.706V338.681H653.333V363.348H675.959V385.275H746.666V407.202H724.04V429.129H675.959V407.202H653.333V385.275H630.706V363.348H608.08V338.681H514.747V363.348H489.292V385.275H466.666V453.796H489.292V475.723H514.747V497.65H537.373V519.577H559.999V544.246H582.626V566.173H608.08V588.1H630.706V610.027H653.333V634.696H675.959V656.623H746.666V678.55H724.04V700.477H675.959V678.55H653.333V656.623H630.706V634.696H608.08V610.027H582.626V588.1H559.999V566.173H537.373V544.246H514.747V519.577H489.292V497.65H466.666V475.723H444.04V363.348H466.666V338.681H489.292V316.754H514.747V294.827Z" fill="#AA7A57"/>
<path d="M933.333 92.0015H978.586V113.928H933.333V92.0015ZM910.707 113.928H933.333V135.855H910.707V113.928ZM978.586 113.928H1004.04V135.855H978.586V113.928ZM1004.04 135.855H1026.67V226.304H1004.04V135.855ZM1026.67 226.304H1120V248.231H1026.67V226.304ZM1120 248.231H1142.63V272.9H1120V248.231ZM1142.63 272.9H1165.25V275.64H1168.08V272.9H1190.71V363.348H1165.25V385.275H1049.29V497.65H1026.67V519.577H978.586V497.65H933.333V475.723H1004.04V363.348H1026.67V338.681H1120V316.754H1142.63V272.9Z" fill="#FFD88B"/>
<path d="M514.746 338.682H560V363.349H537.372V385.276H514.746V407.203H489.293V429.13H514.746V453.797H537.372V475.724H560V497.651H582.625V519.578H608.079V544.247H630.707V566.174H653.332V588.101H675.958V610.028H724.039V588.101H746.665V566.174H769.293V544.247H791.918V519.578H817.372V497.651H840V475.724H862.625V519.578H840V544.247H817.372V566.174H840V588.101H817.372V610.028H791.918V634.696H769.293V656.623H675.958V634.696H653.332V610.028H630.707V588.101H608.079V566.174H582.625V544.247H560V519.578H537.372V497.651H514.746V475.724H489.293V453.797H466.665V385.276H489.293V363.349H514.746V338.682Z" fill="#DB5656"/>
<path d="M280.001 588.101H350.708V610.028H280.001V588.101ZM234.748 610.028H280.001V634.697H234.748V610.028ZM350.708 610.028H373.334V634.697H350.708V610.028ZM209.294 634.697H234.748V656.624H209.294V634.697ZM373.334 634.697H395.96V656.624H373.334V634.697ZM186.667 656.624H209.294V678.551H186.667V656.624ZM395.96 656.624H421.415V678.551H395.96V656.624ZM164.041 678.551H186.667V700.478H164.041V678.551ZM421.415 678.551H444.041V1108.87H421.415V678.551ZM141.415 700.478H164.041V725.145H141.415V700.478ZM115.96 725.145H141.415V1062.27H115.96V725.145Z" fill="#FFB964"/>
<path d="M489.294 248.232H537.374V294.828H514.748V316.755H489.294V338.682H466.667V363.349H444.041V475.724H466.667V497.651H489.294V519.578H514.748V544.247H537.374V566.174H560.001V588.101H582.627V610.028H608.081V634.697H630.708V656.624H653.334V678.551H675.96V700.478H630.708V678.551H608.081V656.624H582.627V634.697H560.001V610.028H537.374V588.101H514.748V566.174H489.294V544.247H466.667V519.578H444.041V497.651H421.415V453.797H395.96V338.682H421.415V294.828H444.041V272.901H489.294V248.232Z" fill="#F2BB4E"/>
<path d="M885.253 747.071H910.706V1311.69H885.253V790.925H862.627V768.998H885.253V747.071ZM839.999 790.925H862.627V815.592H839.999V790.925ZM817.374 815.592H839.999V837.519H817.374V815.592ZM791.92 837.519H817.374V859.446H791.92V837.519ZM769.292 859.446H791.92V881.373H769.292V859.446ZM746.667 881.373H769.292V906.041H746.667V881.373ZM653.334 906.041H675.96V927.968H653.334V906.041ZM724.041 906.041H746.667V927.968H724.041V906.041ZM675.96 927.968H724.041V949.895H675.96V927.968Z" fill="#BE5254"/>
<path d="M862.626 790.925H885.253V1040.35H840V1018.42H791.919V949.896H769.293V927.969H791.919V859.446H817.374V837.519H840V815.592H862.626V790.925Z" fill="#A6C2D8"/>
<path d="M862.627 475.724H885.253V497.651H910.706V500.392H913.536V497.651H978.585V519.578H933.334V544.246H910.706V566.173H885.253V588.1H862.627V610.027H839.999V634.696H817.374V656.623H791.92V678.55H769.292V700.477H746.667V725.144H724.041V747.071H675.96V725.144H653.334V700.477H724.041V678.55H746.667V656.623H769.292V634.696H791.92V610.027H817.374V588.1H839.999V566.173H817.374V544.246H839.999V519.578H862.627V475.724Z" fill="#F2BB4E"/>
<path d="M698.587 1086.94H769.295V1108.87H862.628V1130.79H885.254V1221.24H862.628V1199.31H791.921V1177.39H698.587V1152.72H675.961V1130.79H698.587V1086.94Z" fill="#A6C2D8"/>
<path d="M933.333 519.577H978.587V544.246H955.959V566.173H933.333V588.1H910.708V610.027H885.252V634.696H862.626V656.623H840.001V678.55H817.373V700.477H791.919V725.144H769.294V747.071H746.666V768.998H724.04V790.925H675.959V768.998H653.333V747.071H630.708V725.144H608.08V700.477H653.333V725.144H675.959V747.071H724.04V725.144H746.666V700.477H769.294V678.55H791.919V656.623H817.373V634.696H840.001V610.027H862.626V588.1H885.252V566.173H910.708V544.246H933.333V519.577Z" fill="#826855"/>
<path d="M514.75 1040.34H608.083V1062.27H675.962V1086.94H698.588V1130.79H675.962V1152.72H608.083V1130.79H537.376V1108.87H514.75V1040.34Z" fill="#5983A0"/>
<path d="M395.961 1130.79H421.415V1199.31H395.961V1221.24H350.708V1243.17H280.001V1267.84H234.748V1243.17H209.294V1221.24H234.748V1199.31H257.375V1177.39H302.627V1152.72H395.961V1130.79Z" fill="#38351B"/>
<path d="M489.294 747.071H514.748V768.998H537.375V790.925H514.748V1152.72H537.375V1177.39H489.294V747.071ZM537.375 790.925H560.001V815.592H537.375V790.925ZM560.001 815.592H582.627V837.519H560.001V815.592ZM582.627 837.519H608.082V859.446H582.627V837.519ZM608.082 859.446H630.708V881.373H608.082V859.446ZM630.708 881.373H653.334V906.041H630.708V881.373Z" fill="#EC9A5F"/>
<path d="M209.295 656.624H234.749V678.551H209.295V656.624ZM186.669 678.551H209.295V700.478H234.749V790.926H209.295V815.593H186.669V837.519H164.042V859.446H141.416V725.145H164.042V700.478H186.669V678.551Z" fill="#181614"/>
<path d="M1049.29 906.042H1071.92V971.823H1049.29V996.492H1071.92V1018.42H1049.29V1040.35H1071.92V1062.27H1026.67V1086.94H978.588V949.896H1049.29V906.042Z" fill="#7E312C"/>
<path d="M1120 566.173H1235.96V588.1H1258.58V610.027H1165.25V634.696H1097.37V656.623H1026.66V634.696H1049.29V610.027H1071.92V588.1H1120V566.173ZM1004.04 656.623H1026.66V678.55H1004.04V656.623Z" fill="#9A2A2F"/>
<path d="M466.665 475.724H514.746V497.651H537.372V519.578H560V544.246H582.625V566.173H608.079V588.1H630.707V610.027H653.332V634.696H675.958V656.623H746.665V678.55H724.039V700.477H675.958V678.55H653.332V656.623H630.707V634.696H608.079V610.027H582.625V588.1H560V566.173H537.372V544.246H514.746V519.578H489.293V497.651H466.665V475.724Z" fill="#864A39"/>
<path d="M395.961 453.797H421.414V497.651H444.042V519.578H466.668V544.247H489.293V566.174H514.749V588.101H537.375V610.028H560V634.696H582.628V656.623H608.082V678.55H630.707V700.477H582.628V678.55H560V656.623H537.375V634.696H514.749V610.028H489.293V588.101H466.668V566.174H444.042V544.247H421.414V519.578H395.961V497.651H373.335V475.724H395.961V453.797Z" fill="#AA7A57"/>
<path d="M1026.67 656.624H1071.92V700.478H1049.29V747.072H1071.92V768.999H1049.29V790.926H1004.04V815.593H978.588V678.551H1026.67V656.624Z" fill="#A22730"/>
<path d="M1190.71 1130.79H1235.96V1199.31H1190.71V1221.24H1120V1243.17H1049.29V1221.24H1071.92V1199.31H1120V1177.39H1190.71V1130.79ZM978.588 1243.17H1049.29V1267.84H978.588V1243.17Z" fill="#432930"/>
<path d="M280.002 996.492H302.628V1062.27H257.376V1086.94H209.295V1108.87H141.416V1040.35H209.295V1018.42H280.002V996.492Z" fill="#9C8A29"/>
<path d="M514.75 790.925H537.376V815.592H560.002V837.519H582.629V859.446H608.083V881.373H582.629V949.896H514.75V790.925ZM582.629 949.896H608.083V971.823H582.629V949.896Z" fill="#38597D"/>
<path d="M1258.58 790.925H1281.21V1152.72H1258.58V790.925ZM1235.96 1152.72H1258.58V1177.39H1235.96V1152.72Z" fill="#D47459"/>
<path d="M350.706 971.822H421.413V1086.94H395.959V1108.87H373.332V1086.94H350.706V971.822Z" fill="#5C572D"/>
<path d="M466.665 519.577H514.746V544.246H537.372V566.173H560V588.1H582.625V610.027H608.079V634.696H630.707V656.623H653.332V678.55H675.958V700.477H630.707V678.55H608.079V656.623H582.625V634.696H560V610.027H537.372V588.1H514.746V566.173H489.293V544.246H466.665V519.577Z" fill="#FFF4DE"/>
<path d="M955.961 881.373H978.587V1243.17H955.961V881.373Z" fill="#CD6957"/>
<path d="M885.253 747.071H910.706V859.446H885.253V790.925H862.627V768.998H885.253V747.071ZM839.999 790.925H862.627V815.592H839.999V790.925ZM817.374 815.592H839.999V837.519H817.374V815.592ZM791.92 837.519H817.374V859.446H791.92V837.519ZM769.292 859.446H791.92V881.373H769.292V859.446ZM746.667 881.373H769.292V906.041H746.667V881.373ZM653.334 906.041H675.96V927.968H653.334V906.041ZM724.041 906.041H746.667V927.968H724.041V906.041ZM675.96 927.968H724.041V949.895H675.96V927.968Z" fill="#FFB964"/>
<path d="M933.333 92.0015H978.586V113.928H933.333V92.0015ZM910.707 113.928H933.333V135.855H910.707V113.928ZM978.586 113.928H1004.04V135.855H978.586V113.928ZM1004.04 135.855H1026.67V226.304H1004.04V135.855ZM1026.67 226.304H1120V248.231H1026.67V226.304ZM1120 248.231H1142.63V272.9H1120V248.231ZM1142.63 272.9H1165.25V316.754H1142.63V272.9Z" fill="#F2BB4E"/>
<path d="M1029.49 135.856H1049.29V204.378H1165.25V226.305H1190.71V272.901H1168.08V275.641H1165.25V272.901H1142.63V248.232H1120V226.305H1026.67V138.597H1029.49V135.856Z" fill="#FFD88B"/>
<path d="M489.294 747.071H514.748V768.998H537.375V790.925H514.748V906.041H489.294V747.071ZM537.375 790.925H560.001V815.592H537.375V790.925ZM560.001 815.592H582.627V837.519H560.001V815.592ZM582.627 837.519H608.082V859.446H582.627V837.519ZM608.082 859.446H630.708V881.373H608.082V859.446ZM630.708 881.373H653.334V906.041H630.708V881.373Z" fill="#FFB964"/>
<path d="M421.415 1108.87H444.041V1199.32H421.415V1108.87ZM395.961 1199.32H421.415V1221.24H395.961V1199.32ZM350.708 1221.24H395.961V1243.17H350.708V1221.24ZM280.001 1243.17H350.708V1267.84H280.001V1243.17ZM209.294 1267.84H280.001V1289.76H209.294V1267.84Z" fill="#CD6957"/>
<path d="M582.629 294.828H608.083V316.755H630.708V338.682H653.336V363.349H675.962V385.276H746.669V407.203H724.043V429.13H675.962V407.203H653.336V385.276H630.708V363.349H608.083V338.682H582.629V294.828Z" fill="#AA7A57"/>
<path d="M582.629 881.373H630.708V906.041H653.336V927.968H675.962V949.895H698.587V971.822H608.083V949.895H582.629V881.373Z" fill="#A6C2D8"/>
<path d="M257.375 1177.39H302.627V1221.24H350.708V1243.17H280.001V1267.84H234.748V1243.17H209.294V1221.24H234.748V1199.31H257.375V1177.39Z" fill="#494440"/>
<path d="M514.75 949.896H582.629V1018.42H608.083V1040.35H514.75V949.896Z" fill="#7BAAB3"/>
<path d="M115.96 815.592H141.415V1062.27H115.96V815.592Z" fill="#EC9A5F"/>
<path d="M1165.25 338.681H1190.7V363.348H1165.25V338.681ZM1049.29 363.348H1165.25V385.275H1049.29V363.348ZM1026.66 385.275H1049.29V497.65H1026.66V385.275ZM1004.04 497.65H1026.66V519.577H1004.04V497.65Z" fill="#F2BB4E"/>
<path d="M885.251 67.3337H910.705V92.0016H885.251V67.3337ZM862.625 92.0016H885.251V204.377H862.625V92.0016ZM746.665 204.377H862.625V226.304H746.665V204.377ZM724.039 226.304H746.665V248.231H724.039V226.304Z" fill="#F2BB4E"/>
<path d="M421.416 859.446H444.042V1108.87H421.416V859.446Z" fill="#DE845C"/>
<path d="M746.667 385.275H791.92V407.202H769.292V429.129H746.667V453.796H724.041V475.723H675.96V453.796H653.334V429.129H724.041V407.202H746.667V385.275Z" fill="#DB5656"/>
<path d="M608.08 700.477H653.333V725.144H675.959V747.071H746.666V768.998H724.04V790.925H675.959V768.998H653.333V747.071H630.708V725.144H608.08V700.477Z" fill="#675243"/>
<path d="M537.375 248.231H582.628V272.9H630.71V294.827H653.335V316.754H675.961V338.681H630.71V316.754H608.082V294.827H537.375V248.231Z" fill="#FFD88B"/>
<path d="M257.375 837.519H302.627V906.042H234.748V881.373H209.294V859.446H257.375V837.519Z" fill="#5B562C"/>
<path d="M885.254 859.446H910.709V1040.35H885.254V859.446Z" fill="#C86156"/>
<path d="M653.334 338.682H746.667V363.349H769.292V385.276H675.96V363.349H653.334V338.682Z" fill="#D7976A"/>
<path d="M560 338.682H608.081V363.349H630.707V385.276H653.333V407.203H675.96V429.13H630.707V407.203H608.081V385.276H582.626V363.349H560V338.682Z" fill="#FF8181"/>
<path d="M791.918 566.173H839.998V588.1H817.372V610.027H791.918V634.696H769.291V656.623H724.039V634.696H746.665V610.027H769.291V588.1H791.918V566.173Z" fill="#A65F4C"/>
<path d="M862.628 475.724H885.254V497.651H910.71V519.578H885.254V544.246H862.628V566.173H817.375V544.246H840.002V519.578H862.628V475.724Z" fill="#D7976A"/>
<path d="M1258.58 1018.42H1281.21V1152.72H1258.58V1018.42ZM1235.96 1152.72H1258.58V1177.39H1235.96V1152.72Z" fill="#CD6957"/>
<path d="M1235.96 700.477H1258.58V859.446H1235.96V700.477Z" fill="#B12232"/>
<path d="M1235.96 996.492H1258.58V1152.72H1235.96V996.492Z" fill="#753027"/>
<path d="M1258.59 634.696H1281.21V790.925H1258.59V634.696Z" fill="#EC9A5F"/>
<path d="M653.334 700.477H746.667V725.144H724.041V747.071H675.96V725.144H653.334V700.477Z" fill="#D7976A"/>
<path d="M1049.29 1221.24H1120V1243.17H1049.29V1221.24ZM978.588 1243.17H1049.29V1267.84H978.588V1243.17Z" fill="#D47459"/>
<path d="M724.039 272.9H746.665V316.754H769.291V338.681H791.918V363.348H772.12V366.088H769.291V363.348H746.665V338.681H724.039V272.9Z" fill="#F2BB4E"/>
<path d="M1235.96 859.446H1258.58V996.491H1235.96V859.446Z" fill="#932B2D"/>
<path d="M653.334 385.275H746.667V407.202H724.041V429.129H675.96V407.202H653.334V385.275Z" fill="#A65F4C"/>
<path d="M862.628 790.925H885.254V859.446H817.375V837.519H840.002V815.592H862.628V790.925Z" fill="#81B0D2"/>
<path d="M280.001 1243.17H328.082V1267.84H280.001V1243.17ZM209.294 1267.84H280.001V1289.76H209.294V1267.84Z" fill="#D47459"/>
<path d="M1120 204.378H1165.25V226.305H1190.71V272.9H1165.25V248.232H1142.63V226.305H1120V204.378Z" fill="#FFF4DE"/>
<path d="M978.588 67.3337H1026.67V92.0016H1049.29V135.856H1026.67V113.929H1004.04V92.0016H978.588V67.3337Z" fill="#FFF4DE"/>
<path d="M280.002 1221.24H350.709V1243.17H280.002V1221.24ZM234.751 1243.17H280.002V1267.84H234.751V1243.17Z" fill="#4F4947"/>
<path d="M444.04 385.275H466.666V453.796H489.292V475.723H444.04V385.275Z" fill="#A65F4C"/>
<path d="M444.042 272.9H489.295V294.827H466.669V316.754H444.042V338.681H421.416V294.827H444.042V272.9Z" fill="#D7976A"/>
<path d="M489.294 1108.87H514.748V1152.72H537.375V1177.39H489.294V1108.87Z" fill="#CD6957"/>
<path d="M885.254 1040.34H910.709V1130.79H885.254V1040.34Z" fill="#C45B55"/>
<path d="M489.294 906.042H514.748V996.491H489.294V906.042Z" fill="#EC9A5F"/>
<path d="M560 656.624H608.081V678.551H630.707V700.478H582.626V678.551H560V656.624Z" fill="#826855"/>
<path d="M373.332 407.202H395.959V475.723H373.332V453.796H350.706V429.129H373.332V407.202Z" fill="#675243"/>
<path d="M955.961 1152.72H978.587V1243.17H955.961V1152.72Z" fill="#C15754"/>
<path d="M421.416 1018.42H444.042V1108.87H421.416V1018.42Z" fill="#FFB964"/>
<path d="M1235.96 610.028H1258.58V700.478H1235.96V610.028Z" fill="#A72530"/>
<path d="M608.08 656.624H653.333V678.551H675.959V700.478H630.708V678.551H608.08V656.624Z" fill="#FFD88B"/>
<path d="M421.416 475.724H466.669V497.651H489.295V519.578H444.042V497.651H421.416V475.724Z" fill="#FFD88B"/>
<path d="M537.375 294.827H582.628V338.681H537.375V294.827Z" fill="#A65F4C"/>
<path d="M885.254 1130.79H910.709V1199.31H885.254V1130.79Z" fill="#C15754"/>
<path d="M885.254 859.446H910.709V927.969H885.254V859.446Z" fill="#DE845C"/>
<path d="M885.254 385.275H910.709V453.796H885.254V385.275Z" fill="#FFD88B"/>
<path d="M395.96 429.13H444.041V475.724H421.415V453.797H395.96V429.13Z" fill="#D7976A"/>
<path d="M115.96 996.492H141.415V1062.27H115.96V996.492Z" fill="#DE845C"/>
<path d="M746.666 294.828H769.294V316.755H746.666V294.828ZM769.294 316.755H791.919V338.682H769.294V316.755ZM791.919 338.682H817.373V363.349H791.919V338.682Z" fill="#FFF4DE"/>
<path d="M978.588 1221.24H1049.29V1243.17H978.588V1221.24Z" fill="#30232A"/>
<path d="M1120 1199.31H1190.71V1221.24H1120V1199.31Z" fill="#DE845C"/>
<path d="M421.416 949.896H444.042V1018.42H421.416V949.896Z" fill="#EC9A5F"/>
<path d="M955.961 881.373H978.587V949.895H955.961V881.373Z" fill="#CD6957"/>
<path d="M1258.59 790.925H1281.21V859.446H1258.59V790.925Z" fill="#D47459"/>
<path d="M1049.29 610.027H1071.92V634.695H1049.29V610.027ZM1026.66 634.695H1049.29V656.622H1026.66V634.695ZM1004.04 656.622H1026.66V678.549H1004.04V656.622Z" fill="#753027"/>
<path d="M817.375 1311.69H885.254V1333.62H817.375V1311.69Z" fill="#D47459"/>
<path d="M817.375 1289.76H885.254V1311.69H817.375V1289.76Z" fill="#7BAAB3"/>
<path d="M141.416 1289.76H209.295V1311.69H141.416V1289.76Z" fill="#DE845C"/>
<path d="M141.416 1267.84H209.295V1289.76H141.416V1267.84Z" fill="#6D6260"/>
<path d="M955.961 1086.94H978.587V1152.72H955.961V1086.94Z" fill="#C45B55"/>
<path d="M978.588 1243.17H1026.67V1267.84H978.588V1243.17Z" fill="#C86156"/>
<path d="M675.961 1243.17H724.042V1267.84H675.961V1243.17Z" fill="#C86156"/>
<path d="M115.96 1243.17H141.415V1289.76H115.96V1243.17Z" fill="#C45B55"/>
<path d="M1165.25 338.682H1190.71V363.349H1165.25V338.682ZM1142.63 363.349H1165.25V385.276H1142.63V363.349Z" fill="#D7976A"/>
<path d="M885.255 67.3337H910.708V92.0016H885.255V67.3337ZM862.629 92.0016H885.255V113.929H862.629V92.0016Z" fill="#D7976A"/>
<path d="M885.254 1267.84H910.709V1311.69H885.254V1267.84Z" fill="#C15754"/>
<path d="M489.294 1108.87H514.748V1152.72H489.294V1108.87Z" fill="#D47459"/>
<path d="M885.254 927.968H910.709V971.822H885.254V927.968Z" fill="#CD6957"/>
<path d="M862.629 338.682H885.255V363.349H862.629V338.682ZM885.255 363.349H910.708V385.276H885.255V363.349Z" fill="#FFF4DE"/>
<path d="M817.375 338.681H862.628V363.348H817.375V338.681Z" fill="#FFD88B"/>
<path d="M769.293 1289.76H817.374V1311.69H769.293V1289.76Z" fill="#C15754"/>
<path d="M582.629 1199.31H630.708V1221.24H582.629V1199.31Z" fill="#D47459"/>
<path d="M1258.58 1130.79H1281.21V1152.72H1258.58V1130.79ZM1235.96 1152.72H1258.58V1177.39H1235.96V1152.72Z" fill="#D47459"/>
<path d="M1258.59 971.822H1281.21V1018.42H1258.59V971.822Z" fill="#D47459"/>
<path d="M955.961 949.896H978.587V996.492H955.961V949.896Z" fill="#C45B55"/>
<path d="M141.416 881.373H164.042V927.968H141.416V881.373Z" fill="#5A552C"/>
<path d="M885.254 453.796H910.709V475.723H885.254V453.796ZM910.709 475.723H933.335V497.65H910.709V475.723Z" fill="#FFF4DE"/>
<path d="M746.666 316.755H769.294V338.682H746.666V316.755ZM769.294 338.682H791.919V363.349H769.294V338.682Z" fill="#FFD88B"/>
<path d="M1142.63 204.378H1165.25V226.305H1142.63V204.378ZM1165.25 226.305H1190.71V248.232H1165.25V226.305Z" fill="#D7976A"/>
<path d="M1004.04 67.3337H1026.66V92.0016H1004.04V67.3337ZM1026.66 92.0016H1049.29V113.929H1026.66V92.0016Z" fill="#D7976A"/>
<path d="M724.039 1267.84H769.291V1289.76H724.039V1267.84Z" fill="#C15754"/>
<path d="M955.961 1199.31H978.587V1243.17H955.961V1199.31Z" fill="#BF5454"/>
<path d="M630.707 1221.24H675.96V1243.17H630.707V1221.24Z" fill="#CD6957"/>
<path d="M1190.71 1177.39H1235.96V1199.31H1190.71V1177.39Z" fill="#DE845C"/>
<path d="M537.375 1177.39H582.628V1199.31H537.375V1177.39Z" fill="#CD6957"/>
<path d="M421.416 1108.87H444.042V1152.72H421.416V1108.87Z" fill="#DE845C"/>
<path d="M1258.59 1086.94H1281.21V1130.79H1258.59V1086.94Z" fill="#CD6957"/>
<path d="M955.961 996.492H978.587V1040.35H955.961V996.492Z" fill="#D47459"/>
<path d="M653.334 906.042H675.96V927.968H653.334V906.042ZM675.96 927.968H698.585V949.895H675.96V927.968Z" fill="#EC9A5F"/>
<path d="M1026.66 475.724H1049.29V497.651H1026.66V475.724ZM1004.04 497.651H1026.66V519.578H1004.04V497.651Z" fill="#D7976A"/>
<path d="M746.665 204.378H769.291V226.305H746.665V204.378ZM724.039 226.305H746.665V248.232H724.039V226.305Z" fill="#D7976A"/>
<path d="M489.294 971.823H514.748V996.492H489.294V971.823Z" fill="#FFB964"/>
<path d="M115.96 971.823H141.415V996.492H115.96V971.823Z" fill="#FFB964"/>
<path d="M209.294 1267.84H234.748V1289.76H209.294V1267.84Z" fill="#CD6957"/>
<path d="M115.96 1267.84H141.415V1289.76H115.96V1267.84Z" fill="#C86156"/>
<path d="M1004.04 1243.17H1026.66V1267.84H1004.04V1243.17Z" fill="#CD6957"/>
<path d="M141.416 1243.17H164.042V1267.84H141.416V1243.17Z" fill="#2C2828"/>
<path d="M115.96 1221.24H141.415V1243.17H115.96V1221.24Z" fill="#D47459"/>
<path d="M115.96 1199.31H141.415V1221.24H115.96V1199.31Z" fill="#CD6957"/>
<path d="M885.254 1177.39H910.709V1199.31H885.254V1177.39Z" fill="#C45B55"/>
<path d="M885.254 1108.87H910.709V1130.79H885.254V1108.87Z" fill="#C45B55"/>
<path d="M489.294 1108.87H514.748V1130.79H489.294V1108.87Z" fill="#DE845C"/>
<path d="M885.254 1086.94H910.709V1108.87H885.254V1086.94Z" fill="#C86156"/>
<path d="M1258.59 1062.27H1281.21V1086.94H1258.59V1062.27Z" fill="#C86156"/>
<path d="M885.254 1018.42H910.709V1040.35H885.254V1018.42Z" fill="#C86156"/>
<path d="M885.254 996.491H910.709V1018.42H885.254V996.491Z" fill="#C15754"/>
<path d="M115.96 996.492H141.415V1018.42H115.96V996.492Z" fill="#EC9A5F"/>
<path d="M955.961 881.373H978.587V906.041H955.961V881.373Z" fill="#DE845C"/>
<path d="M862.629 1311.69H885.255V1333.62H862.629V1311.69Z" fill="#DE845C"/>
<path d="M817.375 1311.69H840.002V1333.62H817.375V1311.69Z" fill="#C45B55"/>
<path d="M769.293 1289.76H791.919V1311.69H769.293V1289.76Z" fill="#C86156"/>
<path d="M141.416 1289.76H164.042V1311.69H141.416V1289.76Z" fill="#CD6957"/>
<path d="M769.293 1267.84H791.919V1289.76H769.293V1267.84Z" fill="#7BAAB3"/>
<path d="M724.039 1267.84H746.665V1289.76H724.039V1267.84Z" fill="#BF5454"/>
<path d="M234.751 1267.84H257.377V1289.76H234.751V1267.84Z" fill="#DE845C"/>
<path d="M1097.38 1221.24H1120V1243.17H1097.38V1221.24Z" fill="#DE845C"/>
<path d="M630.707 1221.24H653.333V1243.17H630.707V1221.24Z" fill="#C86156"/>
<path d="M1120 1199.31H1142.63V1221.24H1120V1199.31Z" fill="#CD6957"/>
<path d="M955.961 1199.31H978.587V1221.24H955.961V1199.31Z" fill="#BE5254"/>
<path d="M373.335 1199.31H395.961V1221.24H373.335V1199.31Z" fill="#504A48"/>
<path d="M141.416 1199.31H164.042V1221.24H141.416V1199.31Z" fill="#5C460B"/>
<path d="M1190.71 1177.39H1213.33V1199.31H1190.71V1177.39Z" fill="#FFB964"/>
<path d="M537.375 1177.39H560.002V1199.31H537.375V1177.39Z" fill="#D47459"/>
<path d="M1235.96 1130.79H1258.58V1152.72H1235.96V1130.79Z" fill="#663524"/>
<path d="M955.961 1130.79H978.587V1152.72H955.961V1130.79Z" fill="#C86156"/>
<path d="M141.416 1130.79H164.042V1152.72H141.416V1130.79Z" fill="#5C460B"/>
<path d="M421.416 1108.87H444.042V1130.79H421.416V1108.87Z" fill="#EC9A5F"/>
<path d="M955.961 1086.94H978.587V1108.87H955.961V1086.94Z" fill="#C86156"/>
<path d="M1258.59 1018.42H1281.21V1040.35H1258.59V1018.42Z" fill="#C86156"/>
<path d="M1258.59 949.896H1281.21V971.823H1258.59V949.896Z" fill="#DE845C"/>
<path d="M955.961 949.896H978.587V971.823H955.961V949.896Z" fill="#C86156"/>
<path d="M141.416 949.896H164.042V971.823H141.416V949.896Z" fill="#5A552C"/>
<path d="M1258.59 927.968H1281.21V949.895H1258.59V927.968Z" fill="#CD6957"/>
<path d="M955.961 906.042H978.587V927.968H955.961V906.042Z" fill="#D47459"/>
<path d="M1258.59 859.446H1281.21V881.373H1258.59V859.446Z" fill="#DE845C"/>
<path d="M421.416 859.446H444.042V881.373H421.416V859.446Z" fill="#EC9A5F"/>
<path d="M1258.59 837.52H1281.21V859.447H1258.59V837.52Z" fill="#CD6957"/>
<path d="M1235.96 588.101H1258.58V610.028H1235.96V588.101Z" fill="#753027"/>
<path d="M395.96 1086.94H398.788V1089.68H395.96V1086.94Z" fill="#191614"/>
<path d="M280 996.492H282.828V999.232H280V996.492Z" fill="#9C8B2A"/>
<path d="M350.706 971.822H353.534V974.564H350.706V971.822Z" fill="#5C582D"/>
<path d="M141.416 971.823H144.244V974.565H141.416V971.823Z" fill="#36351A"/>
<path d="M141.416 927.968H144.244V930.71H141.416V927.968Z" fill="#36351A"/>
<path d="M302.629 881.373H305.457V884.114H302.629V881.373Z" fill="#191614"/>
<path d="M141.416 859.446H144.244V862.188H141.416V859.446Z" fill="#36351A"/>
<path d="M164.04 837.52H166.868V840.262H164.04V837.52Z" fill="#36351A"/>
<path d="M186.665 815.592H189.493V818.334H186.665V815.592Z" fill="#36351A"/>
<path d="M395.96 747.071H398.788V749.811H395.96V747.071Z" fill="#38351B"/>
</g>
<defs>
<clipPath id="clip0_504_1054">
<rect width="242" height="242" fill="white" transform="translate(60 1382)"/>
</clipPath>
</defs>
</svg>
