<svg width="651" height="129" viewBox="0 0 651 129" fill="none" xmlns="http://www.w3.org/2000/svg">
    <path
        d="M34.2138 101L46.2876 28.2727H73.5604C79.1475 28.2727 83.6811 29.2434 87.1612 31.1847C90.6413 33.1259 93.0679 35.8485 94.4411 39.3523C95.8142 42.8324 96.1101 46.8925 95.3288 51.5327C94.5713 56.1728 92.9141 60.2093 90.3572 63.642C87.8241 67.0511 84.4742 69.6908 80.3075 71.5611C76.1645 73.4313 71.2995 74.3665 65.7124 74.3665H46.2876L48.1342 63.429H65.8189C69.0859 63.429 71.8322 62.9792 74.0575 62.0795C76.2829 61.1562 78.0348 59.8187 79.3132 58.0668C80.6153 56.2912 81.4794 54.1132 81.9055 51.5327C82.308 48.9522 82.1541 46.7505 81.4439 44.9276C80.7573 43.081 79.4434 41.6842 77.5021 40.7372C75.5845 39.7666 72.9922 39.2812 69.7251 39.2812H57.6513L47.3885 101H34.2138ZM77.2536 68.0455L89.7891 101H75.0874L62.8714 68.0455H77.2536ZM153.734 28.2727H166.909L159.026 75.7869C158.173 80.9953 156.185 85.5762 153.06 89.5298C149.958 93.4834 146.005 96.5729 141.199 98.7983C136.393 101 131.043 102.101 125.148 102.101C119.205 102.101 114.21 101 110.162 98.7983C106.114 96.5729 103.19 93.4834 101.391 89.5298C99.6151 85.5762 99.1534 80.9953 100.006 75.7869L107.889 28.2727H121.064L113.358 74.6861C112.861 77.7164 113.086 80.4152 114.033 82.7827C115.003 85.1264 116.589 86.973 118.791 88.3224C121.017 89.6719 123.798 90.3466 127.136 90.3466C130.474 90.3466 133.481 89.6719 136.156 88.3224C138.831 86.973 141.021 85.1264 142.726 82.7827C144.43 80.4152 145.531 77.7164 146.028 74.6861L153.734 28.2727ZM237.167 28.2727L225.093 101H213.374L187.344 51.4616H186.776L178.502 101H165.327L177.401 28.2727H189.191L215.185 77.8466H215.86L224.063 28.2727H237.167Z"
        fill="#F16B46" />
    <path
        d="M272.092 118L290.203 8.90909H366.907L362.859 32.7727H315.771L312.788 51.5227H355.189L351.14 75.3864H308.74L301.708 118H272.092ZM368.662 118H336.702L390.822 8.90909H431.305L449.202 118H417.242L406.589 38.9517H405.736L368.662 118ZM369.941 74.9602H430.026L426.191 97.1193H366.106L369.941 74.9602ZM517.884 43C518.203 39.4844 517.351 36.7322 515.327 34.7436C513.303 32.7195 509.894 31.7074 505.1 31.7074C502.046 31.7074 499.489 32.0625 497.429 32.7727C495.405 33.483 493.825 34.4595 492.688 35.7024C491.588 36.9453 490.895 38.3835 490.611 40.017C490.291 41.2955 490.309 42.4673 490.664 43.5327C491.055 44.5625 491.783 45.5035 492.848 46.3558C493.949 47.2081 495.387 47.9716 497.163 48.6463C498.974 49.321 501.122 49.9247 503.608 50.4574L512.131 52.375C517.955 53.6534 522.838 55.3402 526.779 57.4354C530.757 59.495 533.882 61.9453 536.154 64.7862C538.427 67.6271 539.919 70.8054 540.629 74.321C541.374 77.8366 541.392 81.6719 540.682 85.8267C539.475 93 536.687 99.0724 532.319 104.044C527.951 109.016 522.252 112.798 515.22 115.39C508.189 117.982 500.057 119.278 490.824 119.278C481.378 119.278 473.352 117.876 466.747 115.07C460.178 112.229 455.419 107.897 452.472 102.073C449.56 96.2138 448.85 88.7386 450.341 79.6477H478.466C478.04 82.9858 478.395 85.7912 479.531 88.0639C480.668 90.3366 482.497 92.0589 485.018 93.2308C487.539 94.4027 490.682 94.9886 494.446 94.9886C497.642 94.9886 500.377 94.598 502.649 93.8168C504.922 93.0355 506.715 91.9524 508.029 90.5675C509.343 89.1825 510.142 87.6023 510.426 85.8267C510.71 84.1932 510.426 82.7372 509.574 81.4588C508.722 80.1804 507.177 79.0263 504.94 77.9964C502.703 76.9666 499.631 76.0256 495.725 75.1733L485.284 72.8295C476.016 70.6989 469.02 67.1832 464.297 62.2827C459.574 57.3821 457.905 50.6705 459.29 42.1477C460.426 35.1875 463.285 29.1151 467.866 23.9304C472.482 18.7102 478.342 14.6619 485.444 11.7855C492.582 8.87358 500.483 7.41761 509.148 7.41761C517.955 7.41761 525.323 8.89133 531.254 11.8388C537.22 14.7862 541.499 18.9233 544.091 24.25C546.719 29.5767 547.429 35.8267 546.222 43H517.884ZM551.959 32.7727L556.007 8.90909H650.822L646.774 32.7727H613.961L599.899 118H570.709L584.771 32.7727H551.959Z"
        fill="url(#paint0_linear_194_57)" />
    <path
        d="M35.4327 4.93844H255.433C260.956 4.93844 264.732 9.36047 263.868 14.8153L248.225 113.584C247.361 119.039 242.183 123.461 236.661 123.461H16.6605C11.1377 123.461 7.36092 119.039 8.22488 113.584L23.8683 14.8153C24.7323 9.36048 29.9098 4.93844 35.4327 4.93844Z"
        stroke="#F16B46" stroke-width="10" />
    <defs>
        <linearGradient id="paint0_linear_194_57" x1="271" y1="63.5" x2="645.045" y2="63.5"
            gradientUnits="userSpaceOnUse">
            <stop stop-color="#F16B46" />
            <stop offset="1" stop-color="#EE2B2C" />
        </linearGradient>
    </defs>
</svg>