<svg width="20" height="20" viewBox="0 0 20 20" fill="none" xmlns="http://www.w3.org/2000/svg">
<g clip-path="url(#clip0_460_8)">
<path d="M6.875 17.7942V13.7562C6.875 13.2418 7.295 12.8244 7.8125 12.8244H9.6875C10.205 12.8244 10.625 13.2418 10.625 13.7562V17.7942M10.625 17.7942H14.375V3.33619M10.625 17.7942H16.875V9.30409M14.375 3.33619L15.625 2.88477M14.375 3.33619L5.625 6.49947M16.875 9.30409L14.375 8.47579M16.875 9.30409L18.125 9.71824M1.875 17.7942H3.125M3.125 17.7942H18.125M3.125 17.7942V2.88477H5.625V6.49947M1.875 7.85457L5.625 6.49947" stroke="white" stroke-linecap="round" stroke-linejoin="round"/>
</g>
<defs>
<clipPath id="clip0_460_8">
<rect width="20" height="20" fill="white"/>
</clipPath>
</defs>
</svg>
