<svg width="383" height="256" viewBox="0 0 383 256" fill="none" xmlns="http://www.w3.org/2000/svg">
<path d="M55.6202 4.93844H285.33C290.853 4.93844 294.63 9.36048 293.766 14.8153L278.056 114.002C277.192 119.457 272.015 123.879 266.492 123.879H36.7819C31.259 123.879 27.4822 119.457 28.3462 114.002L44.0558 14.8153C44.9198 9.36047 50.0973 4.93844 55.6202 4.93844Z" stroke="url(#paint0_linear_180_13)" stroke-width="10"/>
<path d="M62.403 100.909L74.4768 28.1814H99.0507C104.733 28.1814 109.231 29.1402 112.545 31.0578C115.883 32.9755 118.144 35.6151 119.328 38.9769C120.535 42.3386 120.784 46.1738 120.073 50.4826C119.363 54.7439 117.848 58.5318 115.528 61.8462C113.232 65.1606 110.107 67.7648 106.153 69.6587C102.223 71.5526 97.4408 72.4996 91.8064 72.4996H71.92L73.3405 64.5451H92.9427C96.8253 64.5451 100.045 63.9769 102.602 62.8405C105.159 61.7041 107.147 60.0825 108.568 57.9755C109.988 55.8684 110.935 53.3708 111.409 50.4826C111.882 47.5469 111.752 45.002 111.018 42.8476C110.308 40.6696 108.852 38.9887 106.65 37.805C104.472 36.5976 101.418 35.9939 97.4882 35.9939H82.0052L71.2098 100.909H62.403ZM102.034 68.2382L114.534 100.909H104.306L92.0905 68.2382H102.034ZM182.341 28.1814H191.148L183.193 76.3348C182.364 81.3064 180.459 85.7453 177.476 89.6516C174.493 93.5342 170.693 96.6 166.077 98.849C161.46 101.074 156.299 102.187 150.594 102.187C144.888 102.187 140.106 101.074 136.247 98.849C132.388 96.6 129.618 93.5342 127.937 89.6516C126.257 85.7453 125.83 81.3064 126.659 76.3348L134.614 28.1814H143.42L135.537 75.6246C134.969 79.1757 135.241 82.3362 136.354 85.1061C137.466 87.8523 139.337 90.0185 141.964 91.6047C144.616 93.1672 147.966 93.9485 152.014 93.9485C156.062 93.9485 159.673 93.1672 162.845 91.6047C166.017 90.0185 168.598 87.8523 170.587 85.1061C172.599 82.3362 173.889 79.1757 174.457 75.6246L182.341 28.1814ZM262.577 28.1814L250.503 100.909H241.98L211.867 43.8064H211.157L201.639 100.909H192.833L204.907 28.1814H213.429L243.685 85.4257H244.395L253.912 28.1814H262.577Z" fill="url(#paint1_linear_180_13)"/>
<path d="M1.09197 254L19.2028 144.909H95.9073L91.859 168.773H44.771L41.788 187.523H84.1886L80.1403 211.386H37.7397L30.7085 254H1.09197ZM97.6625 254H65.7022L119.822 144.909H160.305L178.202 254H146.242L135.589 174.952H134.736L97.6625 254ZM98.9409 210.96H159.026L155.191 233.119H95.1056L98.9409 210.96ZM249.884 179C250.203 175.484 249.351 172.732 247.327 170.744C245.303 168.719 241.894 167.707 237.1 167.707C234.046 167.707 231.489 168.062 229.429 168.773C227.405 169.483 225.825 170.46 224.688 171.702C223.588 172.945 222.895 174.384 222.611 176.017C222.291 177.295 222.309 178.467 222.664 179.533C223.055 180.562 223.783 181.504 224.848 182.356C225.949 183.208 227.387 183.972 229.163 184.646C230.974 185.321 233.122 185.925 235.608 186.457L244.131 188.375C249.955 189.653 254.838 191.34 258.779 193.435C262.757 195.495 265.882 197.945 268.154 200.786C270.427 203.627 271.919 206.805 272.629 210.321C273.374 213.837 273.392 217.672 272.682 221.827C271.475 229 268.687 235.072 264.319 240.044C259.951 245.016 254.252 248.798 247.22 251.39C240.189 253.982 232.057 255.278 222.824 255.278C213.378 255.278 205.352 253.876 198.747 251.07C192.178 248.229 187.419 243.897 184.472 238.073C181.56 232.214 180.85 224.739 182.341 215.648H210.466C210.04 218.986 210.395 221.791 211.531 224.064C212.668 226.337 214.497 228.059 217.018 229.231C219.539 230.403 222.682 230.989 226.446 230.989C229.642 230.989 232.377 230.598 234.649 229.817C236.922 229.036 238.715 227.952 240.029 226.567C241.343 225.183 242.142 223.602 242.426 221.827C242.71 220.193 242.426 218.737 241.574 217.459C240.722 216.18 239.177 215.026 236.94 213.996C234.703 212.967 231.631 212.026 227.725 211.173L217.284 208.83C208.016 206.699 201.02 203.183 196.297 198.283C191.574 193.382 189.905 186.67 191.29 178.148C192.426 171.187 195.285 165.115 199.866 159.93C204.482 154.71 210.342 150.662 217.444 147.786C224.582 144.874 232.483 143.418 241.148 143.418C249.955 143.418 257.323 144.891 263.254 147.839C269.22 150.786 273.499 154.923 276.091 160.25C278.719 165.577 279.429 171.827 278.222 179H249.884ZM283.959 168.773L288.007 144.909H382.822L378.774 168.773H345.961L331.899 254H302.709L316.771 168.773H283.959Z" fill="url(#paint2_linear_180_13)"/>
<defs>
<linearGradient id="paint0_linear_180_13" x1="21" y1="64" x2="380.482" y2="7.06363" gradientUnits="userSpaceOnUse">
<stop stop-color="#F16B46"/>
<stop offset="1" stop-color="#EE2B2C"/>
</linearGradient>
<linearGradient id="paint1_linear_180_13" x1="58" y1="64" x2="383.5" y2="64" gradientUnits="userSpaceOnUse">
<stop stop-color="#F16B46"/>
<stop offset="1" stop-color="#EE2B2C"/>
</linearGradient>
<linearGradient id="paint2_linear_180_13" x1="0" y1="199.5" x2="377.045" y2="199.5" gradientUnits="userSpaceOnUse">
<stop stop-color="#F16B46"/>
<stop offset="1" stop-color="#EE2B2C"/>
</linearGradient>
</defs>
</svg>
