<?xml version="1.0" standalone="no"?>
<!DOCTYPE svg PUBLIC "-//W3C//DTD SVG 20010904//EN"
 "http://www.w3.org/TR/2001/REC-SVG-20010904/DTD/svg10.dtd">
<svg version="1.0" xmlns="http://www.w3.org/2000/svg"
 width="500.000000pt" height="500.000000pt" viewBox="0 0 500.000000 500.000000"
 preserveAspectRatio="xMidYMid meet">
<metadata>
Created by potrace 1.14, written by Peter Selinger 2001-2017
</metadata>
<g transform="translate(0.000000,500.000000) scale(0.100000,-0.100000)"
fill="#000000" stroke="none">
<path d="M0 2500 l0 -2500 2500 0 2500 0 0 2500 0 2500 -2500 0 -2500 0 0
-2500z m4384 1282 c165 -62 275 -188 306 -347 8 -43 10 -315 8 -970 l-3 -910
-22 -55 c-52 -126 -148 -222 -271 -272 l-57 -23 -1810 -3 c-1347 -2 -1824 0
-1865 8 -184 39 -333 199 -360 385 -13 97 -13 1729 1 1815 12 75 54 172 100
229 62 78 177 142 284 160 28 5 856 8 1840 7 l1790 -1 59 -23z"/>
<path d="M652 3564 c-29 -14 -64 -40 -77 -58 -58 -76 -55 -27 -55 -1006 0
-993 -3 -939 63 -1008 18 -19 50 -43 72 -55 l40 -22 1785 -3 c1346 -2 1796 0
1828 9 60 17 116 60 149 116 l28 48 0 915 0 915 -22 41 c-25 48 -83 101 -129
120 -28 12 -329 14 -1832 14 l-1798 0 -52 -26z m1026 -506 l2 -308 -385 0
-385 0 0 -110 0 -110 385 0 385 0 0 -440 0 -440 -490 0 -490 0 0 95 0 95 380
0 380 0 0 245 0 245 -380 0 -380 0 0 305 0 305 380 0 380 0 0 115 0 115 -380
0 -380 0 0 100 0 100 488 -2 487 -3 3 -307z m652 -553 l0 -865 -110 0 -110 0
0 858 c0 472 3 862 7 865 3 4 53 7 110 7 l103 0 0 -865z m1980 0 l0 -865 -110
0 -110 0 0 200 0 200 -265 0 -265 0 0 -200 0 -200 -105 0 -105 0 0 200 0 200
-260 0 -260 0 0 -200 0 -200 -115 0 -115 0 0 865 0 865 855 0 855 0 0 -865z"/>
<path d="M2830 2710 l0 -470 263 2 262 3 0 465 0 465 -262 3 -263 2 0 -470z"/>
<path d="M3570 2710 l0 -470 260 0 260 0 0 470 0 470 -260 0 -260 0 0 -470z"/>
</g>
</svg>
