<?xml version="1.0" standalone="no"?>
<!DOCTYPE svg PUBLIC "-//W3C//DTD SVG 20010904//EN"
 "http://www.w3.org/TR/2001/REC-SVG-20010904/DTD/svg10.dtd">
<svg version="1.0" xmlns="http://www.w3.org/2000/svg"
 width="766.000000pt" height="766.000000pt" viewBox="0 0 766.000000 766.000000"
 preserveAspectRatio="xMidYMid meet">
<metadata>
Created by potrace 1.14, written by Peter Selinger 2001-2017
</metadata>
<g transform="translate(0.000000,766.000000) scale(0.100000,-0.100000)"
fill="#000000" stroke="none">
<path d="M995 6367 c-127 -56 -197 -150 -219 -292 -3 -16 -14 -88 -25 -160
-11 -71 -22 -146 -25 -165 -3 -19 -7 -44 -10 -55 -2 -11 -7 -42 -10 -70 -4
-27 -9 -57 -11 -65 -2 -8 -6 -35 -9 -60 -3 -25 -8 -56 -11 -70 -2 -13 -7 -40
-10 -60 -3 -20 -7 -45 -9 -55 -2 -11 -7 -40 -10 -65 -3 -25 -8 -54 -10 -65 -2
-11 -7 -40 -10 -65 -3 -25 -8 -55 -10 -66 -2 -12 -7 -39 -10 -60 -3 -22 -8
-50 -11 -64 -3 -14 -7 -41 -9 -60 -6 -43 -9 -67 -46 -290 -16 -96 -31 -193
-35 -215 -7 -50 -13 -91 -20 -130 -25 -135 -23 -208 5 -268 35 -74 95 -125
175 -146 11 -3 1082 -5 2380 -6 l2360 0 47 22 c134 61 200 164 222 343 3 25 8
56 11 69 2 12 7 42 9 65 3 22 8 52 11 66 6 26 12 65 20 128 3 20 7 48 10 62 2
14 7 40 10 58 3 17 7 44 9 60 3 15 7 45 11 67 3 23 7 52 10 65 3 13 7 42 10
65 3 22 10 63 15 90 5 28 14 86 21 130 6 44 13 89 16 100 2 11 6 34 8 50 3 31
12 90 20 135 3 14 7 43 11 65 8 61 15 104 34 215 5 30 12 73 15 95 3 23 7 52
10 65 3 13 7 41 10 62 13 86 16 105 22 143 27 158 -22 271 -142 330 -39 20
-72 20 -2410 22 l-2370 2 -50 -22z m4760 -191 c25 -18 25 -63 0 -210 -3 -17
-8 -44 -11 -61 -2 -16 -6 -41 -9 -55 -4 -24 -12 -74 -20 -135 -3 -16 -7 -41
-10 -55 -3 -14 -8 -44 -11 -66 -2 -23 -7 -53 -9 -65 -3 -13 -8 -44 -11 -69 -3
-25 -8 -54 -10 -65 -2 -11 -6 -36 -9 -55 -3 -19 -7 -46 -10 -60 -3 -14 -7 -41
-10 -60 -3 -19 -7 -44 -9 -56 -2 -12 -7 -45 -11 -74 -4 -29 -9 -62 -11 -74 -6
-28 -11 -62 -19 -111 -7 -46 -8 -57 -29 -185 -8 -52 -17 -111 -20 -130 -3 -19
-8 -46 -10 -60 -2 -14 -7 -47 -11 -73 -4 -27 -8 -57 -10 -67 -2 -9 -6 -33 -9
-51 -3 -19 -7 -43 -10 -54 -3 -17 -13 -83 -21 -145 -3 -21 -22 -62 -38 -82
-38 -48 69 -46 -2401 -45 l-2320 0 -22 22 c-24 24 -24 23 -3 150 6 33 12 74
14 90 2 17 6 42 8 57 3 14 11 62 17 105 7 43 14 85 15 95 2 9 7 38 11 65 3 26
8 55 10 65 1 9 6 38 10 65 3 26 8 57 11 68 2 11 6 38 9 60 3 22 9 63 14 90 6
28 12 68 15 90 2 22 7 51 10 65 3 14 8 43 10 65 3 22 10 65 15 95 11 66 16 93
30 185 12 77 16 103 25 155 3 19 8 51 10 70 2 19 9 64 16 100 6 36 13 79 15
95 2 17 6 41 9 55 3 14 8 45 11 70 14 112 36 159 87 184 29 14 259 16 2358 16
1961 0 2328 -2 2344 -14z"/>
<path d="M1489 5826 c-2 -3 -7 -36 -13 -85 -4 -29 -8 -56 -10 -60 -2 -3 -7
-26 -10 -51 -3 -25 -8 -55 -10 -66 -5 -24 -13 -75 -22 -131 -3 -21 -7 -45 -9
-53 -2 -8 -7 -35 -10 -60 -3 -25 -8 -58 -12 -75 -3 -16 -7 -39 -8 -50 -2 -11
-8 -47 -13 -80 -6 -33 -14 -78 -17 -100 -3 -22 -7 -47 -10 -55 -2 -8 -6 -37
-10 -64 -3 -27 -8 -52 -9 -55 -2 -3 -7 -28 -10 -56 -4 -27 -13 -86 -21 -130
-8 -44 -17 -98 -20 -120 -3 -22 -10 -64 -15 -94 -6 -30 -10 -58 -10 -63 0 -10
167 -11 173 0 3 4 8 30 11 57 4 28 9 57 11 65 2 8 6 33 9 55 4 22 8 51 11 65
13 70 16 87 20 115 2 17 9 57 15 90 6 33 12 71 14 85 3 25 4 25 105 25 55 0
101 3 101 7 0 3 8 4 18 2 9 -3 44 -6 76 -7 l60 -2 27 -70 c15 -38 63 -164 106
-280 l78 -210 104 -2 c94 -3 102 -1 96 15 -4 9 -18 46 -31 82 -14 36 -28 74
-33 85 -5 11 -23 58 -41 105 -17 47 -36 94 -40 105 -5 11 -24 62 -44 113 l-35
93 27 11 c15 5 34 14 42 19 8 5 28 16 45 25 98 55 187 185 222 325 13 56 12
190 -3 232 -9 23 -17 48 -18 55 -1 8 -21 36 -44 62 -45 53 -135 103 -207 115
-31 6 -632 16 -636 11z m593 -173 c110 -38 149 -92 149 -207 0 -77 -6 -106
-38 -174 -60 -124 -181 -178 -393 -172 -30 0 -59 1 -65 1 -5 0 -32 -1 -60 -1
-96 -2 -136 0 -131 8 2 4 7 26 10 48 4 22 9 51 11 64 7 33 12 66 20 115 3 22
7 47 10 55 2 8 6 35 9 60 3 25 8 56 11 70 3 14 8 43 11 65 11 71 12 80 13 83
1 2 91 2 201 1 143 -1 213 -6 242 -16z"/>
<path d="M2691 5806 c-5 -11 -11 -41 -15 -66 -3 -25 -8 -61 -11 -80 -4 -19 -8
-46 -10 -60 -2 -14 -6 -36 -9 -50 -2 -14 -7 -43 -10 -65 -3 -22 -8 -49 -10
-60 -2 -11 -7 -40 -11 -65 -4 -25 -9 -54 -11 -65 -2 -10 -6 -35 -9 -55 -3 -20
-8 -47 -10 -60 -3 -14 -8 -43 -10 -65 -3 -22 -8 -47 -10 -55 -3 -8 -7 -35 -10
-60 -3 -25 -10 -68 -16 -97 -12 -61 -14 -172 -4 -228 25 -144 151 -268 314
-310 65 -16 214 -22 281 -10 142 24 294 100 368 184 13 14 35 39 49 54 57 65
107 194 127 331 4 21 8 48 11 60 2 12 7 39 10 61 9 64 50 312 61 370 3 17 7
44 9 60 2 17 10 68 19 115 8 47 18 103 21 125 3 22 8 56 10 76 l5 36 -86 -1
c-69 -1 -88 -4 -90 -16 -1 -8 -5 -33 -8 -55 -4 -22 -9 -49 -11 -61 -3 -12 -7
-39 -10 -60 -4 -21 -8 -50 -11 -64 -2 -14 -7 -41 -10 -60 -2 -19 -9 -57 -14
-85 -5 -27 -12 -68 -15 -90 -8 -56 -14 -92 -25 -150 -5 -27 -12 -68 -15 -90
-9 -57 -16 -96 -21 -125 -2 -14 -9 -54 -15 -90 -29 -166 -133 -290 -294 -346
-39 -14 -51 -15 -140 -19 -216 -9 -349 105 -347 295 1 41 4 86 7 100 3 14 7
36 9 50 3 14 12 68 21 120 9 52 18 109 21 125 4 35 12 82 18 110 2 11 7 40 11
65 4 25 9 52 10 60 2 8 6 38 9 65 4 28 9 57 11 65 2 8 6 31 9 50 3 19 8 46 10
60 29 158 34 145 -62 146 -77 2 -84 0 -91 -20z"/>
<path d="M4096 5810 c-3 -8 -8 -37 -12 -65 -3 -27 -8 -59 -10 -70 -2 -11 -6
-31 -9 -45 -4 -26 -62 -372 -71 -425 -2 -16 -9 -55 -14 -85 -5 -30 -11 -71
-14 -90 -3 -19 -8 -46 -11 -60 -3 -14 -8 -45 -11 -70 -3 -25 -7 -52 -9 -60 -3
-8 -7 -33 -10 -55 -6 -39 -19 -120 -30 -180 -2 -16 -8 -50 -11 -75 -3 -25 -8
-48 -10 -51 -2 -4 -6 -29 -10 -57 l-6 -51 88 2 c69 2 88 5 90 17 1 8 5 33 9
55 3 22 8 51 11 65 2 14 7 42 10 63 7 47 12 72 14 72 1 0 3 16 5 35 2 19 7 51
10 70 4 19 9 46 10 60 4 26 22 135 31 180 2 14 7 41 10 60 6 37 11 68 18 110
6 30 35 212 42 255 12 76 17 96 26 93 9 -3 33 -45 165 -298 36 -69 80 -152 98
-185 18 -33 58 -108 89 -168 75 -143 137 -260 203 -384 l54 -102 84 0 c47 0
85 3 86 7 0 4 2 16 4 27 6 31 36 206 40 235 8 54 15 96 20 120 5 26 11 62 20
128 3 20 10 64 17 97 6 33 12 67 13 75 1 8 5 33 9 55 3 22 9 56 12 75 10 67
13 87 45 270 17 102 33 199 35 215 3 17 7 41 10 55 3 14 8 41 10 61 l4 36 -85
-1 -84 0 -11 -51 c-5 -27 -12 -63 -14 -80 -27 -163 -47 -284 -50 -300 -2 -11
-7 -42 -11 -70 -5 -27 -9 -52 -10 -55 -1 -4 -5 -29 -21 -135 -2 -16 -11 -66
-19 -110 -7 -44 -16 -96 -19 -115 -3 -19 -8 -46 -10 -60 -3 -14 -10 -56 -16
-95 -11 -67 -16 -83 -24 -74 -2 2 -22 39 -45 82 -73 138 -122 230 -178 337
-31 58 -76 143 -101 190 -24 47 -49 91 -55 98 -5 6 -6 12 -2 12 4 0 2 6 -4 14
-6 7 -23 35 -37 61 -41 77 -135 256 -161 306 l-24 45 -84 0 c-68 0 -86 -3 -89
-16z"/>
<path d="M4679 3516 c-2 -2 -29 -6 -59 -10 -30 -3 -70 -10 -87 -15 -18 -5 -33
-7 -33 -4 0 3 -7 0 -15 -7 -8 -7 -15 -10 -15 -6 0 7 -101 -31 -185 -69 -128
-59 -252 -160 -331 -272 -49 -67 -100 -173 -109 -224 -3 -18 -8 -36 -11 -41
-5 -7 -14 -80 -18 -143 -4 -53 22 -164 50 -215 14 -26 45 -67 68 -91 45 -46
152 -118 206 -139 19 -7 39 -17 44 -22 6 -4 19 -8 31 -8 12 0 26 -5 33 -12 7
-7 12 -9 12 -5 0 3 11 2 25 -3 14 -5 36 -12 48 -14 12 -3 54 -12 92 -21 39 -8
88 -19 110 -24 180 -41 270 -83 301 -142 20 -39 18 -82 -7 -126 -29 -52 -50
-70 -117 -100 -46 -21 -76 -26 -157 -29 -226 -7 -346 78 -347 246 l-1 57 -278
-1 c-152 -1 -281 -4 -285 -8 -9 -10 -11 -253 -2 -300 12 -59 46 -142 79 -191
34 -52 111 -130 149 -152 75 -43 177 -86 235 -101 47 -11 58 -14 90 -18 17 -3
48 -8 70 -11 62 -11 265 -12 357 -3 91 9 208 32 278 55 45 15 196 82 215 95
52 38 135 108 158 132 57 62 117 166 147 254 67 199 57 365 -28 501 -55 88
-155 170 -262 215 -92 38 -116 47 -140 52 -14 3 -36 7 -49 10 -14 3 -28 7 -32
10 -7 4 -163 39 -224 50 -45 8 -156 54 -185 76 -42 33 -59 75 -48 122 25 111
108 164 269 170 172 8 267 -55 274 -179 l2 -40 282 -3 c256 -2 282 -1 288 15
8 20 8 177 1 218 -3 17 -11 44 -18 60 -6 17 -11 31 -10 33 1 2 -10 28 -26 59
-42 86 -142 181 -244 231 -74 36 -116 51 -232 79 -28 6 -352 15 -359 9z"/>
<path d="M428 3492 c-37 -2 -48 -7 -49 -20 -1 -19 -3 -37 -19 -127 -6 -33 -13
-73 -15 -90 -5 -35 -13 -81 -20 -113 -3 -12 -8 -42 -11 -66 -2 -24 -7 -55 -10
-67 -2 -13 -7 -40 -10 -59 -3 -19 -7 -46 -10 -60 -3 -14 -7 -41 -10 -60 -2
-19 -8 -57 -14 -85 -5 -27 -12 -66 -14 -85 -3 -19 -8 -46 -10 -60 -13 -73 -67
-403 -70 -427 -3 -15 -12 -71 -21 -123 -9 -52 -18 -106 -20 -120 -6 -36 -35
-210 -41 -240 -2 -14 -13 -81 -24 -150 -11 -69 -24 -147 -29 -173 -6 -35 -5
-50 3 -53 6 -2 139 -3 296 -2 l285 3 12 65 c6 36 15 88 19 115 4 28 8 59 9 70
2 11 6 35 9 53 15 80 18 99 21 122 5 33 13 83 26 150 5 30 12 69 14 85 16 125
25 169 35 179 6 6 184 9 425 9 467 0 416 -9 430 72 3 17 12 71 20 120 9 50 18
104 21 120 3 17 7 37 9 45 2 8 7 39 10 68 l6 52 -422 0 -422 0 8 53 c16 114
45 288 50 307 4 13 65 15 472 15 l467 0 7 27 c4 15 10 45 13 65 8 55 17 104
22 133 2 14 7 43 10 65 4 22 12 71 19 108 11 56 11 69 0 73 -14 6 -1400 11
-1477 6z"/>
<path d="M2425 3492 c-30 -3 -38 -16 -302 -550 -149 -301 -391 -788 -537
-1083 -146 -295 -266 -539 -266 -542 0 -4 143 -7 318 -7 l317 1 17 37 c9 20
40 87 68 147 29 61 65 138 81 172 l28 61 360 0 361 0 1 -22 c0 -11 2 -28 4
-36 4 -19 12 -74 25 -180 17 -131 21 -154 25 -167 3 -10 76 -13 320 -13 293 0
315 1 315 18 0 9 -9 67 -19 127 -11 61 -22 128 -25 150 -4 22 -11 65 -16 95
-16 94 -39 233 -46 280 -4 25 -8 54 -10 65 -2 11 -8 47 -13 80 -6 33 -12 71
-15 85 -5 25 -14 81 -21 130 -4 26 -32 196 -39 240 -3 14 -7 41 -10 60 -4 28
-97 592 -120 730 -4 19 -9 53 -12 75 -3 22 -8 42 -10 44 -4 4 -736 7 -779 3z
m290 -628 c1 -10 5 -37 9 -59 3 -22 8 -60 11 -85 3 -25 8 -62 11 -83 7 -46 10
-67 18 -142 4 -33 9 -71 11 -85 7 -38 13 -79 20 -135 3 -27 8 -62 11 -77 l4
-28 -225 0 c-124 0 -225 2 -225 5 0 2 25 56 54 118 55 115 88 184 165 352 94
202 116 245 125 242 5 -2 10 -12 11 -23z"/>
<path d="M5808 3492 c-27 -2 -48 -5 -48 -6 0 -2 -7 -39 -14 -82 -8 -44 -17
-95 -20 -114 -3 -19 -8 -46 -10 -60 -3 -14 -7 -42 -10 -62 -3 -21 -9 -55 -14
-75 -18 -85 -47 -78 308 -79 360 -2 343 -2 336 -12 -2 -4 -7 -26 -10 -48 -4
-22 -8 -51 -11 -64 -3 -13 -7 -40 -10 -60 -3 -20 -7 -45 -9 -57 -3 -11 -7 -36
-10 -54 -3 -19 -12 -79 -21 -134 -15 -95 -19 -117 -29 -175 -6 -29 -53 -316
-62 -374 -3 -21 -7 -48 -10 -59 -2 -12 -6 -37 -9 -57 -3 -20 -8 -47 -10 -60
-3 -14 -8 -41 -11 -60 -2 -19 -7 -46 -9 -60 -6 -35 -16 -90 -21 -125 -3 -16
-6 -39 -8 -50 -2 -11 -7 -40 -10 -65 -3 -25 -8 -56 -11 -70 -5 -21 -12 -63
-18 -105 -1 -6 103 -11 291 -13 160 -1 292 1 293 5 1 20 8 63 18 118 6 33 13
76 16 95 3 19 7 46 10 60 3 14 7 43 10 65 2 22 7 51 10 65 3 14 8 41 11 60 3
19 8 49 10 65 3 17 7 46 10 65 2 19 6 42 9 50 2 8 7 35 11 60 7 54 10 74 19
120 11 66 16 95 20 120 2 14 6 41 10 60 3 19 8 46 10 60 6 44 16 104 21 130 3
14 7 41 10 60 2 19 7 46 9 60 3 14 8 41 11 60 3 19 7 42 9 50 4 13 13 75 19
130 1 8 5 31 9 50 4 19 9 45 10 57 2 12 6 26 11 30 4 4 152 7 329 8 l321 0 7
35 c4 19 10 53 13 75 4 22 15 90 26 150 10 61 22 126 25 145 3 19 8 43 11 53
4 14 -1 17 -28 18 -136 2 -1783 3 -1820 1z"/>
</g>
</svg>
