<svg width="1560" height="600" viewBox="0 0 156 60" fill="none" xmlns="http://www.w3.org/2000/svg">
<path d="M24.3475 0.987688H140.061C147.793 0.987927 153.081 7.17868 151.871 14.8153L147.061 45.1848C145.852 52.8214 138.603 59.0122 130.871 59.0125H15.1573C7.42532 59.0124 2.13787 52.8215 3.34734 45.1848L8.15739 14.8153C9.36694 7.17853 16.6155 0.987689 24.3475 0.987688Z" fill="#024A70" stroke="white" stroke-width="2"/>
<path d="M19.8717 40.151C19.8717 40.2735 19.9204 40.391 20.007 40.4776C20.0936 40.5642 20.2111 40.6128 20.3336 40.6128C20.456 40.6128 20.5735 40.5642 20.6601 40.4776C20.7467 40.391 20.7954 40.2735 20.7954 40.151V38.4618C20.7954 38.3393 20.7467 38.2219 20.6601 38.1353C20.5735 38.0487 20.456 38 20.3336 38C20.2111 38 20.0936 38.0487 20.007 38.1353C19.9204 38.2219 19.8717 38.3393 19.8717 38.4618V40.151ZM24.0281 40.1833C24.1122 40.0963 24.1588 39.9796 24.1577 39.8585C24.1567 39.7374 24.1081 39.6216 24.0225 39.536C23.9369 39.4504 23.821 39.4018 23.7 39.4008C23.5789 39.3997 23.4622 39.4463 23.3751 39.5304L22.1808 40.7246C22.1367 40.7672 22.1015 40.8181 22.0773 40.8745C22.0531 40.9308 22.0404 40.9914 22.0399 41.0527C22.0393 41.114 22.051 41.1748 22.0742 41.2316C22.0975 41.2883 22.1318 41.3399 22.1751 41.3833C22.2185 41.4266 22.27 41.4609 22.3268 41.4841C22.3835 41.5073 22.4444 41.519 22.5057 41.5185C22.567 41.518 22.6276 41.5052 22.6839 41.481C22.7403 41.4568 22.7912 41.4216 22.8339 41.3775L24.0281 40.1833ZM17.8333 41.3775C17.8759 41.4216 17.9268 41.4568 17.9832 41.481C18.0395 41.5052 18.1001 41.518 18.1614 41.5185C18.2227 41.519 18.2836 41.5073 18.3403 41.4841C18.3971 41.4609 18.4486 41.4266 18.492 41.3833C18.5354 41.3399 18.5696 41.2883 18.5929 41.2316C18.6161 41.1748 18.6278 41.114 18.6272 41.0527C18.6267 40.9914 18.614 40.9308 18.5898 40.8745C18.5656 40.8181 18.5304 40.7672 18.4863 40.7246L17.292 39.5304C17.2049 39.4463 17.0882 39.3997 16.9672 39.4008C16.8461 39.4018 16.7302 39.4504 16.6446 39.536C16.559 39.6216 16.5104 39.7374 16.5094 39.8585C16.5083 39.9796 16.5549 40.0963 16.639 40.1833L17.8333 41.3775ZM17.2597 43.6865C17.3822 43.6865 17.4996 43.6378 17.5862 43.5512C17.6728 43.4646 17.7215 43.3472 17.7215 43.2247C17.7215 43.1022 17.6728 42.9848 17.5862 42.8982C17.4996 42.8116 17.3822 42.7629 17.2597 42.7629H15.5703C15.4479 42.7629 15.3304 42.8116 15.2438 42.8982C15.1572 42.9848 15.1085 43.1022 15.1085 43.2247C15.1085 43.3472 15.1572 43.4646 15.2438 43.5512C15.3304 43.6378 15.4479 43.6865 15.5703 43.6865H17.2597ZM25.0968 43.6865C25.2193 43.6865 25.3367 43.6378 25.4233 43.5512C25.5099 43.4646 25.5586 43.3472 25.5586 43.2247C25.5586 43.1022 25.5099 42.9848 25.4233 42.8982C25.3367 42.8116 25.2193 42.7629 25.0968 42.7629H23.4074C23.285 42.7629 23.1675 42.8116 23.0809 42.8982C22.9943 42.9848 22.9456 43.1022 22.9456 43.2247C22.9456 43.3472 22.9943 43.4646 23.0809 43.5512C23.1675 43.6378 23.285 43.6865 23.4074 43.6865H25.0968ZM23.3751 46.919C23.4177 46.9631 23.4687 46.9983 23.525 47.0225C23.5814 47.0467 23.642 47.0594 23.7033 47.06C23.7646 47.0605 23.8254 47.0488 23.8822 47.0256C23.9389 47.0024 23.9905 46.9681 24.0338 46.9247C24.0772 46.8814 24.1115 46.8298 24.1347 46.7731C24.1579 46.7163 24.1696 46.6555 24.1691 46.5942C24.1686 46.5329 24.1558 46.4723 24.1316 46.4159C24.1074 46.3596 24.0722 46.3086 24.0281 46.266L22.8339 45.0719C22.7912 45.0278 22.7403 44.9926 22.6839 44.9684C22.6276 44.9442 22.567 44.9314 22.5057 44.9309C22.4444 44.9304 22.3835 44.942 22.3268 44.9653C22.27 44.9885 22.2185 45.0228 22.1751 45.0661C22.1318 45.1095 22.0975 45.1611 22.0742 45.2178C22.051 45.2746 22.0393 45.3354 22.0399 45.3967C22.0404 45.458 22.0531 45.5186 22.0773 45.5749C22.1015 45.6313 22.1367 45.6822 22.1808 45.7248L23.3751 46.919ZM19.8717 47.9876C19.8717 48.1101 19.9204 48.2275 20.007 48.3141C20.0936 48.4007 20.2111 48.4494 20.3336 48.4494C20.456 48.4494 20.5735 48.4007 20.6601 48.3141C20.7467 48.2275 20.7954 48.1101 20.7954 47.9876V46.2984C20.7954 46.1759 20.7467 46.0584 20.6601 45.9718C20.5735 45.8852 20.456 45.8366 20.3336 45.8366C20.2111 45.8366 20.0936 45.8852 20.007 45.9718C19.9204 46.0584 19.8717 46.1759 19.8717 46.2984V47.9876ZM21.5842 43.2801C21.6705 43.1936 21.7189 43.0763 21.7189 42.9541C21.7189 42.8319 21.6705 42.7146 21.5842 42.6281L20.9302 41.9742C20.8436 41.8876 20.7262 41.839 20.6037 41.839C20.4813 41.839 20.3638 41.8876 20.2772 41.9742L19.0829 43.1693C18.9964 43.2559 18.9477 43.3733 18.9477 43.4958C18.9477 43.6182 18.9964 43.7357 19.0829 43.8223L19.7369 44.4761C19.8235 44.5627 19.9409 44.6114 20.0634 44.6114C20.1858 44.6114 20.3033 44.5627 20.3899 44.4761L21.5842 43.282V43.2801ZM18.8132 46.0509C18.8995 45.9643 18.948 45.8471 18.948 45.7248C18.948 45.6026 18.8995 45.4854 18.8132 45.3988L18.1593 44.7449C18.0727 44.6583 17.9553 44.6097 17.8328 44.6097C17.7103 44.6097 17.5929 44.6583 17.5063 44.7449L11.6938 50.5579C11.6072 50.6445 11.5586 50.762 11.5586 50.8844C11.5586 51.0069 11.6072 51.1243 11.6938 51.2109L12.3477 51.8648C12.4344 51.9514 12.5518 52 12.6743 52C12.7967 52 12.9142 51.9514 13.0008 51.8648L18.8132 46.0509Z" fill="white"/>
<path d="M49.5472 13.3636L47.6154 25H45.229L41.7234 18.2841H41.6438L40.5245 25H37.712L39.6438 13.3636H42.0643L45.5415 20.0682H45.6381L46.7404 13.3636H49.5472ZM52.6521 25.1648C51.7316 25.1648 50.9721 24.9754 50.3737 24.5966C49.779 24.2178 49.3604 23.6894 49.118 23.0114C48.8755 22.3333 48.8282 21.5455 48.9759 20.6477C49.1237 19.7538 49.4286 18.9697 49.8907 18.2955C50.3528 17.6212 50.9437 17.0966 51.6634 16.7216C52.3831 16.3466 53.1994 16.1591 54.1123 16.1591C55.029 16.1591 55.7846 16.3485 56.3793 16.7273C56.9778 17.1061 57.3983 17.6345 57.6407 18.3125C57.8869 18.9905 57.9362 19.7803 57.7884 20.6818C57.6407 21.5758 57.3339 22.3598 56.868 23.0341C56.4021 23.7045 55.8112 24.2273 55.0952 24.6023C54.3793 24.9773 53.5649 25.1648 52.6521 25.1648ZM52.9646 23.0682C53.3055 23.0682 53.6104 22.9659 53.8793 22.7614C54.1521 22.5568 54.3812 22.2708 54.5668 21.9034C54.7524 21.536 54.885 21.1098 54.9646 20.625C55.0441 20.1477 55.0517 19.7292 54.9873 19.3693C54.9267 19.0057 54.7979 18.7235 54.6009 18.5227C54.404 18.3182 54.1369 18.2159 53.7998 18.2159C53.4589 18.2159 53.1521 18.3201 52.8793 18.5284C52.6066 18.733 52.3774 19.0189 52.1918 19.3864C52.01 19.75 51.8793 20.1761 51.7998 20.6648C51.7202 21.142 51.7108 21.5606 51.7714 21.9205C51.832 22.2803 51.9627 22.5625 52.1634 22.767C52.3642 22.9678 52.6312 23.0682 52.9646 23.0682ZM57.6901 25L59.1447 16.2727H61.9231L60.4685 25H57.6901ZM60.7299 15.25C60.336 15.25 60.0159 15.1193 59.7697 14.858C59.5235 14.5966 59.4269 14.2841 59.4799 13.9205C59.5329 13.553 59.7185 13.2405 60.0367 12.983C60.3549 12.7254 60.7091 12.5966 61.0992 12.5966C61.4932 12.5966 61.8094 12.7254 62.0481 12.983C62.2905 13.2405 62.3852 13.553 62.3322 13.9205C62.2867 14.2841 62.1049 14.5966 61.7867 14.858C61.4723 15.1193 61.1201 15.25 60.7299 15.25ZM67.8177 16.2727L67.4711 18.3182H61.9654L62.312 16.2727H67.8177ZM63.8063 14.1818H66.5847L65.2438 22.2557C65.2173 22.4261 65.2211 22.5644 65.2552 22.6705C65.2931 22.7727 65.3612 22.8466 65.4597 22.892C65.562 22.9337 65.687 22.9545 65.8347 22.9545C65.937 22.9545 66.0506 22.9432 66.1756 22.9205C66.3006 22.8977 66.3953 22.8807 66.4597 22.8693L66.5506 24.875C66.4029 24.9167 66.204 24.964 65.954 25.017C65.7078 25.0739 65.42 25.1098 65.0904 25.125C64.4237 25.1515 63.8726 25.0739 63.437 24.892C63.0052 24.7064 62.7003 24.4186 62.5222 24.0284C62.348 23.6383 62.3139 23.1496 62.42 22.5625L63.8063 14.1818ZM69.4183 25.1477C68.8652 25.1477 68.3879 25.0549 67.9864 24.8693C67.5887 24.6799 67.297 24.3939 67.1114 24.0114C66.9296 23.6288 66.8861 23.1515 66.9808 22.5795C67.0641 22.0947 67.2175 21.6875 67.441 21.358C67.6683 21.0246 67.9467 20.7538 68.2762 20.5455C68.6095 20.3371 68.9808 20.178 69.3898 20.0682C69.7989 19.9583 70.227 19.8845 70.6739 19.8466C71.1739 19.8011 71.5792 19.7519 71.8898 19.6989C72.2042 19.6458 72.4391 19.572 72.5944 19.4773C72.7497 19.3788 72.8444 19.2424 72.8785 19.0682V19.0398C72.9239 18.7481 72.8614 18.5227 72.691 18.3636C72.5205 18.2045 72.2648 18.125 71.9239 18.125C71.5603 18.125 71.2497 18.2045 70.9921 18.3636C70.7345 18.5227 70.5546 18.7424 70.4523 19.0227L67.9069 18.9318C68.066 18.4015 68.3387 17.928 68.7251 17.5114C69.1114 17.0909 69.602 16.7614 70.1967 16.5227C70.7951 16.2803 71.4864 16.1591 72.2705 16.1591C72.8236 16.1591 73.3236 16.2254 73.7705 16.358C74.2175 16.4867 74.5944 16.6761 74.9012 16.9261C75.2118 17.1723 75.4334 17.4754 75.566 17.8352C75.6986 18.1951 75.727 18.6061 75.6512 19.0682L74.6569 25H72.0433L72.2478 23.7841H72.1796C71.9751 24.0795 71.7345 24.3295 71.458 24.5341C71.1853 24.7386 70.8785 24.892 70.5376 24.9943C70.1967 25.0966 69.8236 25.1477 69.4183 25.1477ZM70.5887 23.3295C70.8804 23.3295 71.1569 23.2689 71.4183 23.1477C71.6796 23.0265 71.8993 22.8598 72.0773 22.6477C72.2592 22.4318 72.3747 22.1818 72.4239 21.8977L72.5546 21.0682C72.4751 21.1098 72.3747 21.1477 72.2535 21.1818C72.1323 21.2159 72.0035 21.2481 71.8671 21.2784C71.7308 21.3049 71.5906 21.3314 71.4467 21.358C71.3065 21.3807 71.172 21.4015 71.0433 21.4205C70.7705 21.4621 70.5338 21.5265 70.333 21.6136C70.1323 21.7008 69.9713 21.8144 69.8501 21.9545C69.7326 22.0909 69.6607 22.2538 69.6342 22.4432C69.5887 22.7273 69.655 22.947 69.833 23.1023C70.0111 23.2538 70.2629 23.3295 70.5887 23.3295ZM77.4876 13.3636H80.9705L82.7319 20.5682H82.8683L87.016 13.3636H90.4989L88.5671 25H85.8285L87.016 17.8523H86.9194L82.9535 24.9261H81.2092L79.5955 17.8125H79.4989L78.2944 25H75.5558L77.4876 13.3636ZM91.9589 25.1477C91.4058 25.1477 90.9286 25.0549 90.5271 24.8693C90.1293 24.6799 89.8377 24.3939 89.6521 24.0114C89.4702 23.6288 89.4267 23.1515 89.5214 22.5795C89.6047 22.0947 89.7581 21.6875 89.9816 21.358C90.2089 21.0246 90.4873 20.7538 90.8168 20.5455C91.1502 20.3371 91.5214 20.178 91.9305 20.0682C92.3396 19.9583 92.7676 19.8845 93.2146 19.8466C93.7146 19.8011 94.1199 19.7519 94.4305 19.6989C94.7449 19.6458 94.9797 19.572 95.135 19.4773C95.2903 19.3788 95.385 19.2424 95.4191 19.0682V19.0398C95.4646 18.7481 95.4021 18.5227 95.2316 18.3636C95.0612 18.2045 94.8055 18.125 94.4646 18.125C94.1009 18.125 93.7903 18.2045 93.5327 18.3636C93.2752 18.5227 93.0952 18.7424 92.993 19.0227L90.4475 18.9318C90.6066 18.4015 90.8793 17.928 91.2657 17.5114C91.6521 17.0909 92.1426 16.7614 92.7373 16.5227C93.3358 16.2803 94.0271 16.1591 94.8112 16.1591C95.3642 16.1591 95.8642 16.2254 96.3112 16.358C96.7581 16.4867 97.135 16.6761 97.4418 16.9261C97.7524 17.1723 97.974 17.4754 98.1066 17.8352C98.2392 18.1951 98.2676 18.6061 98.1918 19.0682L97.1975 25H94.5839L94.7884 23.7841H94.7202C94.5157 24.0795 94.2752 24.3295 93.9987 24.5341C93.7259 24.7386 93.4191 24.892 93.0782 24.9943C92.7373 25.0966 92.3642 25.1477 91.9589 25.1477ZM93.1293 23.3295C93.421 23.3295 93.6975 23.2689 93.9589 23.1477C94.2202 23.0265 94.4399 22.8598 94.618 22.6477C94.7998 22.4318 94.9153 22.1818 94.9646 21.8977L95.0952 21.0682C95.0157 21.1098 94.9153 21.1477 94.7941 21.1818C94.6729 21.2159 94.5441 21.2481 94.4077 21.2784C94.2714 21.3049 94.1312 21.3314 93.9873 21.358C93.8471 21.3807 93.7127 21.4015 93.5839 21.4205C93.3112 21.4621 93.0744 21.5265 92.8737 21.6136C92.6729 21.7008 92.5119 21.8144 92.3907 21.9545C92.2733 22.0909 92.2013 22.2538 92.1748 22.4432C92.1293 22.7273 92.1956 22.947 92.3737 23.1023C92.5517 23.2538 92.8036 23.3295 93.1293 23.3295ZM97.568 28.2727L99.5793 16.2727H102.329L102.085 17.767H102.17C102.322 17.5019 102.523 17.2462 102.773 17C103.026 16.7538 103.331 16.553 103.687 16.3977C104.043 16.2386 104.451 16.1591 104.909 16.1591C105.515 16.1591 106.055 16.3182 106.528 16.6364C107.002 16.9545 107.346 17.4451 107.562 18.108C107.778 18.7708 107.801 19.6155 107.63 20.642C107.468 21.6307 107.172 22.4583 106.744 23.125C106.32 23.7917 105.816 24.2917 105.233 24.625C104.649 24.9583 104.038 25.125 103.398 25.125C102.958 25.125 102.587 25.053 102.284 24.9091C101.985 24.7652 101.748 24.5758 101.574 24.3409C101.399 24.1061 101.278 23.8542 101.21 23.5852H101.13L100.358 28.2727H97.568ZM101.574 20.6364C101.498 21.1061 101.494 21.5152 101.562 21.8636C101.63 22.2121 101.769 22.483 101.977 22.6761C102.189 22.8655 102.464 22.9602 102.801 22.9602C103.142 22.9602 103.445 22.8655 103.71 22.6761C103.979 22.483 104.204 22.2121 104.386 21.8636C104.568 21.5152 104.701 21.1061 104.784 20.6364C104.856 20.1667 104.858 19.7595 104.79 19.4148C104.725 19.0701 104.591 18.803 104.386 18.6136C104.182 18.4242 103.907 18.3295 103.562 18.3295C103.225 18.3295 102.918 18.4223 102.642 18.608C102.369 18.7936 102.142 19.0587 101.96 19.4034C101.778 19.7481 101.649 20.1591 101.574 20.6364ZM109.21 25.1648C108.797 25.1648 108.46 25.0208 108.198 24.733C107.937 24.4451 107.823 24.0966 107.857 23.6875C107.895 23.286 108.073 22.9432 108.392 22.6591C108.71 22.375 109.073 22.233 109.482 22.233C109.873 22.233 110.2 22.375 110.465 22.6591C110.734 22.9432 110.85 23.286 110.812 23.6875C110.789 23.9602 110.696 24.2083 110.534 24.4318C110.375 24.6553 110.178 24.8333 109.943 24.9659C109.708 25.0985 109.464 25.1648 109.21 25.1648ZM115.688 25.1648C114.768 25.1648 114.008 24.9754 113.41 24.5966C112.815 24.2178 112.398 23.6913 112.16 23.017C111.921 22.339 111.878 21.5549 112.029 20.6648C112.173 19.7708 112.478 18.9867 112.944 18.3125C113.41 17.6345 114.004 17.1061 114.728 16.7273C115.451 16.3485 116.27 16.1591 117.182 16.1591C117.989 16.1591 118.667 16.3049 119.217 16.5966C119.77 16.8883 120.169 17.3011 120.415 17.8352C120.665 18.3655 120.739 18.9886 120.637 19.7045H118.04C118.063 19.2614 117.972 18.9129 117.768 18.6591C117.563 18.4015 117.266 18.2727 116.876 18.2727C116.546 18.2727 116.243 18.3636 115.967 18.5455C115.694 18.7235 115.461 18.9886 115.268 19.3409C115.078 19.6894 114.942 20.1212 114.859 20.6364C114.775 21.1515 114.77 21.5871 114.842 21.9432C114.917 22.2955 115.059 22.5625 115.268 22.7443C115.48 22.9223 115.749 23.0114 116.075 23.0114C116.332 23.0114 116.571 22.9564 116.79 22.8466C117.01 22.7367 117.201 22.5758 117.364 22.3636C117.527 22.1477 117.654 21.8864 117.745 21.5795H120.336C120.188 22.303 119.902 22.9337 119.478 23.4716C119.057 24.0057 118.525 24.4223 117.881 24.7216C117.237 25.017 116.506 25.1648 115.688 25.1648ZM124.452 25.1648C123.532 25.1648 122.772 24.9754 122.174 24.5966C121.579 24.2178 121.16 23.6894 120.918 23.0114C120.676 22.3333 120.628 21.5455 120.776 20.6477C120.924 19.7538 121.229 18.9697 121.691 18.2955C122.153 17.6212 122.744 17.0966 123.463 16.7216C124.183 16.3466 124.999 16.1591 125.912 16.1591C126.829 16.1591 127.585 16.3485 128.179 16.7273C128.778 17.1061 129.198 17.6345 129.441 18.3125C129.687 18.9905 129.736 19.7803 129.588 20.6818C129.441 21.5758 129.134 22.3598 128.668 23.0341C128.202 23.7045 127.611 24.2273 126.895 24.6023C126.179 24.9773 125.365 25.1648 124.452 25.1648ZM124.765 23.0682C125.105 23.0682 125.41 22.9659 125.679 22.7614C125.952 22.5568 126.181 22.2708 126.367 21.9034C126.552 21.536 126.685 21.1098 126.765 20.625C126.844 20.1477 126.852 19.7292 126.787 19.3693C126.727 19.0057 126.598 18.7235 126.401 18.5227C126.204 18.3182 125.937 18.2159 125.6 18.2159C125.259 18.2159 124.952 18.3201 124.679 18.5284C124.407 18.733 124.177 19.0189 123.992 19.3864C123.81 19.75 123.679 20.1761 123.6 20.6648C123.52 21.142 123.511 21.5606 123.571 21.9205C123.632 22.2803 123.763 22.5625 123.963 22.767C124.164 22.9678 124.431 23.0682 124.765 23.0682ZM129.507 25L130.962 16.2727H133.604L133.342 17.875H133.439C133.704 17.3447 134.079 16.9261 134.564 16.6193C135.049 16.3125 135.591 16.1591 136.189 16.1591C136.791 16.1591 137.282 16.3144 137.661 16.625C138.043 16.9356 138.25 17.3523 138.28 17.875H138.371C138.621 17.3561 139.007 16.9413 139.53 16.6307C140.056 16.3163 140.644 16.1591 141.291 16.1591C142.109 16.1591 142.733 16.4242 143.161 16.9545C143.592 17.4811 143.731 18.2045 143.575 19.125L142.598 25H139.825L140.712 19.7614C140.772 19.3258 140.708 18.9943 140.519 18.767C140.333 18.536 140.062 18.4205 139.706 18.4205C139.323 18.4205 139.003 18.5436 138.746 18.7898C138.492 19.036 138.335 19.3693 138.274 19.7898L137.394 25H134.717L135.609 19.733C135.666 19.3277 135.604 19.0076 135.422 18.7727C135.244 18.5379 134.973 18.4205 134.609 18.4205C134.371 18.4205 134.149 18.4792 133.945 18.5966C133.74 18.7102 133.568 18.8731 133.428 19.0852C133.291 19.2973 133.202 19.5473 133.161 19.8352L132.286 25H129.507Z" fill="white"/>
<path d="M32.0842 40.8182H32.7603L35.1467 50.1051H35.2113L40.6751 40.8182H41.3512L39.6609 51H39.0643L40.516 42.2947H40.4563L35.3207 51H34.734L32.5018 42.2947H32.4421L30.9904 51H30.3938L32.0842 40.8182ZM43.6926 51.1641C43.2518 51.1641 42.8623 51.0762 42.5243 50.9006C42.1895 50.7249 41.9393 50.468 41.7735 50.13C41.6078 49.7919 41.5631 49.3809 41.6393 48.897C41.6957 48.5788 41.8001 48.2988 41.9525 48.0568C42.105 47.8149 42.3138 47.6061 42.5789 47.4304C42.8441 47.2547 43.1689 47.1106 43.5534 46.9979C43.9412 46.8819 44.3936 46.7924 44.9106 46.7294C45.3083 46.683 45.663 46.6366 45.9745 46.5902C46.2861 46.5438 46.538 46.4725 46.7302 46.3764C46.9225 46.2803 47.0351 46.1361 47.0683 45.9439L47.118 45.6257C47.2108 45.0722 47.1163 44.6314 46.8346 44.3033C46.5529 43.9718 46.1038 43.8061 45.4873 43.8061C44.9438 43.8061 44.4565 43.9287 44.0257 44.174C43.5948 44.416 43.2733 44.7225 43.0612 45.0938L42.5342 44.88C42.7397 44.5154 42.9999 44.2121 43.3147 43.9702C43.6329 43.7282 43.9809 43.5476 44.3588 43.4283C44.7399 43.3089 45.1277 43.2493 45.5221 43.2493C45.8635 43.2493 46.1817 43.2973 46.4767 43.3935C46.7717 43.4896 47.0235 43.6354 47.2324 43.831C47.4445 44.0265 47.5953 44.2768 47.6848 44.5817C47.7776 44.8833 47.7875 45.2446 47.7146 45.6655L46.8297 51H46.2231L46.4568 49.6229H46.412C46.2331 49.9079 46.0077 50.1681 45.7359 50.4034C45.4674 50.6354 45.1609 50.821 44.8162 50.9602C44.4715 51.0961 44.0969 51.1641 43.6926 51.1641ZM43.8069 50.6023C44.2842 50.6023 44.7283 50.4863 45.1393 50.2543C45.5536 50.0189 45.9016 49.6974 46.1833 49.2898C46.4684 48.8821 46.6523 48.4197 46.7352 47.9027L46.9291 46.7791C46.8396 46.8454 46.7186 46.9051 46.5662 46.9581C46.4137 47.0078 46.243 47.0526 46.0541 47.0923C45.8685 47.1288 45.6746 47.1619 45.4724 47.1918C45.2735 47.2183 45.0797 47.2431 44.8907 47.2663C44.324 47.3326 43.855 47.4354 43.4838 47.5746C43.1126 47.7105 42.8259 47.8894 42.6237 48.1115C42.4248 48.3336 42.2972 48.602 42.2409 48.9169C42.158 49.4373 42.2641 49.8482 42.5591 50.1499C42.8574 50.4515 43.2733 50.6023 43.8069 50.6023ZM50.9496 54.0227C50.4757 54.0227 50.0597 53.9598 49.7017 53.8338C49.3438 53.7112 49.0488 53.5355 48.8168 53.3068C48.5881 53.0781 48.4307 52.8063 48.3445 52.4915L48.8914 52.2081C48.9643 52.4534 49.0869 52.6705 49.2593 52.8594C49.4316 53.0483 49.6603 53.1958 49.9453 53.3018C50.2337 53.4112 50.5834 53.4659 50.9944 53.4659C51.7301 53.4659 52.3499 53.2753 52.8537 52.8942C53.3575 52.5163 53.674 51.9363 53.8033 51.1541L54.1115 49.255H54.0519C53.8828 49.5864 53.6624 49.8814 53.3907 50.1399C53.1222 50.3951 52.8123 50.5956 52.461 50.7415C52.1096 50.8873 51.7252 50.9602 51.3076 50.9602C50.701 50.9602 50.1956 50.8045 49.7912 50.4929C49.3869 50.1813 49.1035 49.7438 48.9411 49.1804C48.782 48.6136 48.7654 47.9474 48.8914 47.1818C49.0206 46.4162 49.2593 45.7384 49.6073 45.1484C49.9553 44.5552 50.3845 44.0911 50.8949 43.7564C51.4087 43.4183 51.9738 43.2493 52.5902 43.2493C53.031 43.2493 53.3989 43.3338 53.6939 43.5028C53.9889 43.6686 54.2226 43.889 54.3949 44.1641C54.5673 44.4392 54.6882 44.7408 54.7578 45.0689H54.8275L55.1059 43.3636H55.6925L54.3999 51.179C54.2938 51.8187 54.0817 52.3473 53.7635 52.7649C53.4453 53.1858 53.0443 53.5007 52.5604 53.7095C52.0798 53.9183 51.5429 54.0227 50.9496 54.0227ZM51.407 50.3984C51.9141 50.3984 52.3781 50.2692 52.799 50.0107C53.2233 49.7488 53.5796 49.3776 53.8679 48.897C54.1563 48.4131 54.3568 47.8397 54.4695 47.1768C54.5756 46.5339 54.5722 45.9588 54.4596 45.4517C54.3469 44.9446 54.1298 44.5452 53.8083 44.2536C53.4901 43.9619 53.0708 43.8161 52.5505 43.8161C52.0268 43.8161 51.5528 43.9652 51.1286 44.2635C50.7077 44.5585 50.3563 44.9595 50.0746 45.4666C49.7929 45.9737 49.6007 46.5438 49.4979 47.1768C49.3918 47.8132 49.3935 48.3733 49.5029 48.8572C49.6123 49.3378 49.826 49.7157 50.1442 49.9908C50.4624 50.2625 50.8833 50.3984 51.407 50.3984ZM56.3013 51L57.574 43.3636H58.1756L56.9028 51H56.3013ZM58.1607 42.0064C58.0181 42.0064 57.8988 41.9583 57.8027 41.8622C57.7099 41.7628 57.6701 41.6418 57.6834 41.4993C57.69 41.38 57.743 41.2756 57.8425 41.1861C57.9419 41.0966 58.0562 41.0518 58.1855 41.0518C58.328 41.0518 58.4457 41.1016 58.5385 41.201C58.6313 41.2971 58.6727 41.4148 58.6628 41.554C58.6528 41.6766 58.5982 41.7827 58.4987 41.8722C58.4026 41.9616 58.2899 42.0064 58.1607 42.0064ZM61.5871 51.1591C60.9275 51.1591 60.3806 50.9867 59.9464 50.642C59.5123 50.2973 59.2073 49.8267 59.0317 49.2301C58.8593 48.6335 58.8345 47.959 58.9571 47.2067C59.0797 46.4477 59.33 45.7699 59.7078 45.1733C60.0857 44.5767 60.5513 44.1077 61.1048 43.7663C61.6583 43.4216 62.2549 43.2493 62.8946 43.2493C63.3818 43.2493 63.8077 43.3487 64.1723 43.5476C64.5369 43.7464 64.8203 44.0232 65.0224 44.3778C65.2246 44.7325 65.3241 45.1435 65.3207 45.6108H64.7043C64.6943 45.0805 64.5236 44.6496 64.1922 44.3182C63.8641 43.9834 63.4133 43.8161 62.8399 43.8161C62.3162 43.8161 61.8241 43.9619 61.3634 44.2536C60.906 44.5419 60.5182 44.9396 60.2 45.4467C59.8818 45.9538 59.668 46.5372 59.5587 47.1967C59.4526 47.843 59.4659 48.4231 59.5984 48.9368C59.7343 49.4472 59.9763 49.8516 60.3243 50.1499C60.6756 50.4482 61.1164 50.5973 61.6467 50.5973C62.0246 50.5973 62.3842 50.5227 62.7256 50.3736C63.067 50.2211 63.3669 50.009 63.6254 49.7372C63.8839 49.4621 64.0762 49.1406 64.2021 48.7727H64.8186C64.6661 49.2467 64.4292 49.6626 64.1077 50.0206C63.7895 50.3786 63.4133 50.6586 62.9791 50.8608C62.5482 51.0597 62.0842 51.1591 61.5871 51.1591ZM76.0166 43.3885C76.0564 42.7422 75.8807 42.2235 75.4896 41.8324C75.1018 41.438 74.5417 41.2408 73.8092 41.2408C73.3121 41.2408 72.8563 41.3319 72.442 41.5142C72.0277 41.6965 71.683 41.9467 71.408 42.2649C71.1362 42.5798 70.9655 42.9394 70.8959 43.3438C70.8528 43.6056 70.8644 43.8426 70.9307 44.0547C71.0003 44.2635 71.1146 44.4491 71.2737 44.6115C71.4328 44.7739 71.63 44.9181 71.8653 45.044C72.1007 45.1667 72.3642 45.2744 72.6558 45.3672L73.7148 45.6953C74.076 45.8113 74.4058 45.9455 74.7041 46.098C75.0057 46.2505 75.2593 46.4328 75.4648 46.6449C75.6703 46.8537 75.8161 47.099 75.9023 47.3807C75.9918 47.6624 76.005 47.9872 75.942 48.3551C75.8526 48.902 75.6371 49.3875 75.2957 49.8118C74.9544 50.236 74.5119 50.5675 73.9683 50.8061C73.4248 51.0447 72.7983 51.1641 72.0891 51.1641C71.4361 51.1641 70.8826 51.053 70.4286 50.831C69.9778 50.6089 69.6447 50.3007 69.4293 49.9062C69.2138 49.5085 69.131 49.0511 69.1807 48.5341H69.817C69.7806 48.955 69.8552 49.3196 70.0408 49.6278C70.2264 49.9328 70.5031 50.1681 70.871 50.3338C71.2422 50.4995 71.6814 50.5824 72.1885 50.5824C72.7387 50.5824 73.2358 50.4879 73.68 50.299C74.1274 50.1101 74.4953 49.8482 74.7837 49.5135C75.0753 49.1787 75.2576 48.791 75.3305 48.3501C75.3902 47.9922 75.3571 47.6839 75.2311 47.4254C75.1052 47.1669 74.8914 46.9448 74.5898 46.7592C74.2915 46.5703 73.912 46.4046 73.4513 46.2621L72.3078 45.9041C71.5521 45.6622 71.0003 45.334 70.6523 44.9197C70.3043 44.5021 70.18 43.9834 70.2794 43.3636C70.3722 42.83 70.5893 42.361 70.9307 41.9567C71.2721 41.5523 71.7013 41.2358 72.2183 41.0071C72.7354 40.7784 73.2988 40.6641 73.9087 40.6641C74.5152 40.6641 75.0306 40.7817 75.4548 41.017C75.8824 41.2491 76.1973 41.5705 76.3994 41.9815C76.6049 42.3925 76.6795 42.8615 76.6232 43.3885H76.0166ZM79.8855 51.1591C79.2259 51.1591 78.6791 50.9867 78.2449 50.642C77.8107 50.2973 77.5058 49.8267 77.3301 49.2301C77.1578 48.6335 77.1329 47.959 77.2555 47.2067C77.3782 46.4477 77.6284 45.7699 78.0062 45.1733C78.3841 44.5767 78.8498 44.1077 79.4033 43.7663C79.9568 43.4216 80.5534 43.2493 81.193 43.2493C81.6803 43.2493 82.1062 43.3487 82.4707 43.5476C82.8353 43.7464 83.1187 44.0232 83.3209 44.3778C83.5231 44.7325 83.6225 45.1435 83.6192 45.6108H83.0027C82.9928 45.0805 82.8221 44.6496 82.4906 44.3182C82.1625 43.9834 81.7117 43.8161 81.1384 43.8161C80.6147 43.8161 80.1225 43.9619 79.6618 44.2536C79.2044 44.5419 78.8166 44.9396 78.4984 45.4467C78.1803 45.9538 77.9665 46.5372 77.8571 47.1967C77.751 47.843 77.7643 48.4231 77.8969 48.9368C78.0328 49.4472 78.2747 49.8516 78.6227 50.1499C78.9741 50.4482 79.4149 50.5973 79.9452 50.5973C80.323 50.5973 80.6826 50.5227 81.024 50.3736C81.3654 50.2211 81.6653 50.009 81.9239 49.7372C82.1824 49.4621 82.3746 49.1406 82.5006 48.7727H83.117C82.9646 49.2467 82.7276 49.6626 82.4061 50.0206C82.0879 50.3786 81.7117 50.6586 81.2776 50.8608C80.8467 51.0597 80.3827 51.1591 79.8855 51.1591ZM84.1074 51L85.3801 43.3636H85.9717L85.7729 44.5568H85.8276C86.0529 44.1657 86.3844 43.8525 86.8219 43.6172C87.2594 43.3786 87.73 43.2592 88.2338 43.2592C88.2902 43.2592 88.3432 43.2592 88.3929 43.2592C88.4426 43.2592 88.4923 43.2609 88.542 43.2642L88.4376 43.8757C88.3979 43.8724 88.3498 43.8674 88.2935 43.8608C88.2404 43.8509 88.1741 43.8459 88.0946 43.8459C87.6704 43.8459 87.2776 43.937 86.9163 44.1193C86.5551 44.3016 86.2535 44.5535 86.0115 44.875C85.7696 45.1932 85.6154 45.5578 85.5491 45.9688L84.7139 51H84.1074ZM90.9045 51.1591C90.2152 51.1591 89.6434 50.9884 89.1893 50.647C88.7353 50.3056 88.4188 49.8383 88.2398 49.245C88.0608 48.6518 88.0343 47.9756 88.1602 47.2166C88.2862 46.4543 88.5381 45.7749 88.9159 45.1783C89.2938 44.5817 89.7561 44.111 90.303 43.7663C90.8499 43.4216 91.4398 43.2493 92.0729 43.2493C92.5004 43.2493 92.8899 43.3355 93.2412 43.5078C93.5958 43.6802 93.8941 43.9271 94.1361 44.2486C94.378 44.5668 94.5454 44.9529 94.6382 45.407C94.731 45.861 94.731 46.3714 94.6382 46.9382L94.5686 47.3161H88.5232L88.6176 46.7642H94.0516C94.1444 46.214 94.1179 45.7169 93.972 45.2727C93.8262 44.8253 93.5842 44.4706 93.2462 44.2088C92.9114 43.947 92.5004 43.8161 92.0132 43.8161C91.5161 43.8161 91.0421 43.9602 90.5913 44.2486C90.1439 44.5336 89.7594 44.9148 89.4379 45.392C89.1197 45.8693 88.9076 46.3946 88.8016 46.968L88.7419 47.2763C88.6358 47.9325 88.6491 48.5109 88.7817 49.0114C88.9176 49.5085 89.1695 49.898 89.5374 50.1797C89.9053 50.4581 90.3858 50.5973 90.9791 50.5973C91.3934 50.5973 91.7613 50.5277 92.0828 50.3885C92.4076 50.246 92.6827 50.0736 92.9081 49.8714C93.1368 49.6693 93.3158 49.4737 93.445 49.2848L93.9472 49.5085C93.7947 49.7637 93.5759 50.0189 93.2909 50.2741C93.0059 50.526 92.6628 50.7365 92.2618 50.9055C91.8607 51.0746 91.4083 51.1591 90.9045 51.1591ZM98.312 51.1591C97.6226 51.1591 97.0508 50.9884 96.5968 50.647C96.1427 50.3056 95.8262 49.8383 95.6472 49.245C95.4682 48.6518 95.4417 47.9756 95.5676 47.2166C95.6936 46.4543 95.9455 45.7749 96.3233 45.1783C96.7012 44.5817 97.1635 44.111 97.7104 43.7663C98.2573 43.4216 98.8472 43.2493 99.4803 43.2493C99.9078 43.2493 100.297 43.3355 100.649 43.5078C101.003 43.6802 101.302 43.9271 101.544 44.2486C101.785 44.5668 101.953 44.9529 102.046 45.407C102.138 45.861 102.138 46.3714 102.046 46.9382L101.976 47.3161H95.9306L96.025 46.7642H101.459C101.552 46.214 101.525 45.7169 101.379 45.2727C101.234 44.8253 100.992 44.4706 100.654 44.2088C100.319 43.947 99.9078 43.8161 99.4206 43.8161C98.9235 43.8161 98.4495 43.9602 97.9988 44.2486C97.5513 44.5336 97.1668 44.9148 96.8453 45.392C96.5272 45.8693 96.315 46.3946 96.209 46.968L96.1493 47.2763C96.0433 47.9325 96.0565 48.5109 96.1891 49.0114C96.325 49.5085 96.5769 49.898 96.9448 50.1797C97.3127 50.4581 97.7933 50.5973 98.3865 50.5973C98.8008 50.5973 99.1687 50.5277 99.4902 50.3885C99.815 50.246 100.09 50.0736 100.316 49.8714C100.544 49.6693 100.723 49.4737 100.852 49.2848L101.355 49.5085C101.202 49.7637 100.983 50.0189 100.698 50.2741C100.413 50.526 100.07 50.7365 99.6692 50.9055C99.2682 51.0746 98.8158 51.1591 98.312 51.1591ZM104.188 46.0483L103.368 51H102.761L104.034 43.3636H104.626L104.427 44.5717H104.486C104.725 44.1773 105.063 43.8608 105.501 43.6222C105.938 43.3835 106.429 43.2642 106.972 43.2642C107.483 43.2642 107.915 43.3736 108.27 43.5923C108.624 43.8111 108.878 44.1226 109.03 44.527C109.183 44.928 109.213 45.407 109.12 45.9638L108.28 51H107.673L108.508 45.9886C108.615 45.339 108.512 44.817 108.2 44.4226C107.892 44.0249 107.421 43.826 106.788 43.826C106.361 43.826 105.963 43.9188 105.595 44.1044C105.231 44.29 104.924 44.5502 104.675 44.8849C104.427 45.2164 104.264 45.6042 104.188 46.0483ZM115.947 45.0092L115.365 45.1484C115.316 44.8667 115.226 44.6264 115.097 44.4276C114.968 44.2254 114.789 44.0713 114.56 43.9652C114.334 43.8558 114.051 43.8011 113.71 43.8011C113.136 43.8011 112.647 43.9437 112.243 44.2287C111.839 44.5137 111.6 44.8816 111.527 45.3324C111.468 45.6903 111.537 45.9853 111.736 46.2173C111.935 46.4493 112.271 46.6267 112.745 46.7493L113.879 47.0426C114.455 47.1918 114.868 47.437 115.117 47.7784C115.369 48.1198 115.453 48.5374 115.37 49.0312C115.304 49.4522 115.13 49.8234 114.848 50.1449C114.57 50.4631 114.215 50.7116 113.784 50.8906C113.353 51.0696 112.873 51.1591 112.343 51.1591C111.627 51.1591 111.066 50.9917 110.662 50.657C110.258 50.3189 110.041 49.8366 110.011 49.2102L110.612 49.0909C110.636 49.5848 110.798 49.9609 111.1 50.2195C111.401 50.4747 111.83 50.6023 112.387 50.6023C113.02 50.6023 113.556 50.4515 113.993 50.1499C114.431 49.8482 114.687 49.4638 114.764 48.9964C114.82 48.6484 114.755 48.3568 114.57 48.1214C114.384 47.8861 114.073 47.7138 113.635 47.6044L112.477 47.3061C111.874 47.1503 111.441 46.9018 111.179 46.5604C110.921 46.2157 110.833 45.7947 110.916 45.2976C110.985 44.8932 111.151 44.5369 111.413 44.2287C111.678 43.9205 112.013 43.6802 112.417 43.5078C112.821 43.3355 113.267 43.2493 113.754 43.2493C114.407 43.2493 114.913 43.4034 115.271 43.7116C115.629 44.0166 115.854 44.4491 115.947 45.0092ZM117.868 46.0483L117.048 51H116.441L118.132 40.8182H118.738L118.122 44.5717H118.181C118.42 44.174 118.756 43.8575 119.191 43.6222C119.625 43.3835 120.119 43.2642 120.672 43.2642C121.186 43.2642 121.62 43.3736 121.975 43.5923C122.329 43.8078 122.583 44.1177 122.735 44.522C122.888 44.9231 122.918 45.4036 122.825 45.9638L121.985 51H121.383L122.218 45.9886C122.324 45.3357 122.22 44.812 121.905 44.4176C121.594 44.0232 121.121 43.826 120.488 43.826C120.057 43.826 119.656 43.9188 119.285 44.1044C118.917 44.29 118.607 44.5502 118.355 44.8849C118.107 45.2164 117.944 45.6042 117.868 46.0483ZM126.648 51.1591C126.011 51.1591 125.473 50.9884 125.032 50.647C124.595 50.3023 124.283 49.8284 124.097 49.2251C123.912 48.6219 123.884 47.9325 124.013 47.157C124.139 46.4013 124.387 45.7301 124.759 45.1435C125.133 44.5535 125.591 44.0911 126.131 43.7564C126.671 43.4183 127.251 43.2493 127.871 43.2493C128.51 43.2493 129.049 43.4233 129.487 43.7713C129.927 44.116 130.241 44.5916 130.426 45.1982C130.612 45.8014 130.643 46.4891 130.521 47.2614C130.395 48.0137 130.143 48.6849 129.765 49.2749C129.39 49.8615 128.933 50.3222 128.393 50.657C127.853 50.9917 127.271 51.1591 126.648 51.1591ZM126.658 50.5973C127.201 50.5973 127.702 50.4448 128.159 50.1399C128.617 49.835 128.999 49.4223 129.308 48.902C129.619 48.3816 129.826 47.8 129.929 47.157C130.032 46.5339 130.017 45.9704 129.884 45.4666C129.752 44.9595 129.515 44.5585 129.173 44.2635C128.832 43.9652 128.399 43.8161 127.876 43.8161C127.336 43.8161 126.835 43.9702 126.374 44.2784C125.917 44.5866 125.533 45.0009 125.221 45.5213C124.909 46.0417 124.702 46.6217 124.599 47.2614C124.493 47.8812 124.507 48.4446 124.639 48.9517C124.775 49.4555 125.014 49.8565 125.355 50.1548C125.7 50.4498 126.134 50.5973 126.658 50.5973ZM135.256 43.3636L135.161 43.9055H131.83L131.92 43.3636H135.256ZM133.347 41.5341H133.948L132.686 49.1953C132.633 49.5069 132.649 49.7621 132.735 49.9609C132.825 50.1565 132.959 50.3023 133.138 50.3984C133.32 50.4912 133.527 50.5376 133.759 50.5376C133.862 50.5376 133.955 50.5294 134.038 50.5128C134.121 50.4929 134.204 50.4714 134.286 50.4482L134.341 51C134.238 51.0365 134.129 51.0663 134.013 51.0895C133.897 51.1127 133.763 51.1243 133.61 51.1243C133.292 51.1243 133.004 51.053 132.745 50.9105C132.49 50.768 132.296 50.5608 132.164 50.2891C132.034 50.0173 132.003 49.6892 132.069 49.3047L133.347 41.5341Z" fill="white"/>
<g clip-path="url(#clip0_2409_286)">
<mask id="mask0_2409_286" style="mask-type:luminance" maskUnits="userSpaceOnUse" x="15" y="6" width="22" height="21">
<path d="M36.5586 6H15.5586V27H36.5586V6Z" fill="white"/>
</mask>
<g mask="url(#mask0_2409_286)">
<path d="M19.5586 13C21.7686 13 23.5586 14.755 23.5586 16.92C23.5586 14.755 25.3486 13 27.5586 13C29.7686 13 31.5586 14.755 31.5586 16.92C31.5586 20.183 28.3246 21.334 23.9506 26.528C23.9024 26.585 23.8424 26.6309 23.7747 26.6623C23.707 26.6938 23.6332 26.7101 23.5586 26.7101C23.4839 26.7101 23.4102 26.6938 23.3425 26.6623C23.2748 26.6309 23.2148 26.585 23.1666 26.528C18.7926 21.334 15.5586 20.183 15.5586 16.92C15.5586 14.755 17.3486 13 19.5586 13Z" fill="#C10007"/>
<path d="M30.0586 8.5V18.5" stroke="#FFB900" stroke-width="3" stroke-linecap="round"/>
<path d="M35.0586 13.5H25.0586" stroke="#FFB900" stroke-width="3" stroke-linecap="round"/>
</g>
</g>
<path d="M5.55859 34L148.559 34" stroke="white"/>
<defs>
<clipPath id="clip0_2409_286">
<rect width="21" height="21" fill="white" transform="translate(15.5586 6)"/>
</clipPath>
</defs>
</svg>
