<svg width="1553" height="600" viewBox="0 0 1553 600" fill="none" xmlns="http://www.w3.org/2000/svg">
<path d="M243.467 9.87688H1400.6C1477.92 9.87688 1530.8 71.7853 1518.7 148.153L1470.6 451.846C1458.51 528.214 1386.02 590.123 1308.7 590.124H151.565C74.2452 590.123 21.3705 528.215 33.4657 451.847L81.5661 148.153C93.6616 71.7853 166.147 9.87688 243.467 9.87688Z" fill="#024A70" stroke="white" stroke-width="20"/>
<path d="M198.729 401.51C198.729 402.735 199.216 403.91 200.082 404.776C200.948 405.642 202.122 406.128 203.347 406.128C204.572 406.128 205.747 405.642 206.613 404.776C207.479 403.91 207.965 402.735 207.965 401.51V384.618C207.965 383.393 207.479 382.219 206.613 381.353C205.747 380.487 204.572 380 203.347 380C202.122 380 200.948 380.487 200.082 381.353C199.216 382.219 198.729 383.393 198.729 384.618V401.51ZM240.293 401.833C241.134 400.963 241.6 399.796 241.589 398.585C241.579 397.374 241.093 396.216 240.237 395.36C239.38 394.504 238.222 394.018 237.011 394.008C235.8 393.997 234.634 394.463 233.763 395.304L221.82 407.246C221.379 407.672 221.027 408.181 220.785 408.745C220.543 409.308 220.416 409.914 220.41 410.527C220.405 411.14 220.522 411.748 220.754 412.316C220.986 412.883 221.329 413.399 221.763 413.833C222.196 414.266 222.712 414.609 223.28 414.841C223.847 415.073 224.455 415.19 225.069 415.185C225.682 415.18 226.288 415.052 226.851 414.81C227.415 414.568 227.924 414.216 228.35 413.775L240.293 401.833ZM178.344 413.775C178.77 414.216 179.28 414.568 179.843 414.81C180.407 415.052 181.013 415.18 181.626 415.185C182.239 415.19 182.847 415.073 183.415 414.841C183.982 414.609 184.498 414.266 184.932 413.833C185.365 413.399 185.708 412.883 185.94 412.316C186.173 411.748 186.289 411.14 186.284 410.527C186.279 409.914 186.151 409.308 185.909 408.745C185.667 408.181 185.316 407.672 184.874 407.246L172.932 395.304C172.061 394.463 170.894 393.997 169.683 394.008C168.472 394.018 167.314 394.504 166.458 395.36C165.602 396.216 165.116 397.374 165.105 398.585C165.095 399.796 165.56 400.963 166.402 401.833L178.344 413.775ZM172.608 436.865C173.833 436.865 175.008 436.378 175.874 435.512C176.74 434.646 177.227 433.472 177.227 432.247C177.227 431.022 176.74 429.848 175.874 428.982C175.008 428.116 173.833 427.629 172.608 427.629H155.715C154.49 427.629 153.316 428.116 152.449 428.982C151.583 429.848 151.097 431.022 151.097 432.247C151.097 433.472 151.583 434.646 152.449 435.512C153.316 436.378 154.49 436.865 155.715 436.865H172.608ZM250.979 436.865C252.204 436.865 253.379 436.378 254.245 435.512C255.111 434.646 255.598 433.472 255.598 432.247C255.598 431.022 255.111 429.848 254.245 428.982C253.379 428.116 252.204 427.629 250.979 427.629H234.086C232.861 427.629 231.687 428.116 230.82 428.982C229.954 429.848 229.468 431.022 229.468 432.247C229.468 433.472 229.954 434.646 230.82 435.512C231.687 436.378 232.861 436.865 234.086 436.865H250.979ZM233.763 469.19C234.189 469.631 234.698 469.983 235.262 470.225C235.825 470.467 236.431 470.594 237.044 470.6C237.658 470.605 238.266 470.488 238.833 470.256C239.401 470.024 239.917 469.681 240.35 469.247C240.784 468.814 241.127 468.298 241.359 467.731C241.591 467.163 241.708 466.555 241.703 465.942C241.697 465.329 241.57 464.723 241.328 464.159C241.086 463.596 240.734 463.086 240.293 462.66L228.35 450.719C227.924 450.278 227.415 449.926 226.851 449.684C226.288 449.442 225.682 449.314 225.069 449.309C224.455 449.304 223.847 449.42 223.28 449.653C222.712 449.885 222.196 450.228 221.763 450.661C221.329 451.095 220.986 451.611 220.754 452.178C220.522 452.746 220.405 453.354 220.41 453.967C220.416 454.58 220.543 455.186 220.785 455.749C221.027 456.313 221.379 456.822 221.82 457.248L233.763 469.19ZM198.729 479.876C198.729 481.101 199.216 482.275 200.082 483.141C200.948 484.007 202.122 484.494 203.347 484.494C204.572 484.494 205.747 484.007 206.613 483.141C207.479 482.275 207.965 481.101 207.965 479.876V462.984C207.965 461.759 207.479 460.584 206.613 459.718C205.747 458.852 204.572 458.366 203.347 458.366C202.122 458.366 200.948 458.852 200.082 459.718C199.216 460.584 198.729 461.759 198.729 462.984V479.876ZM215.853 432.801C216.716 431.936 217.201 430.763 217.201 429.541C217.201 428.319 216.716 427.146 215.853 426.281L209.314 419.742C208.448 418.876 207.273 418.39 206.049 418.39C204.824 418.39 203.65 418.876 202.784 419.742L190.841 431.693C189.975 432.559 189.489 433.733 189.489 434.958C189.489 436.182 189.975 437.357 190.841 438.223L197.381 444.761C198.247 445.627 199.421 446.114 200.646 446.114C201.87 446.114 203.045 445.627 203.911 444.761L215.853 432.82V432.801ZM188.144 460.509C189.007 459.643 189.492 458.471 189.492 457.248C189.492 456.026 189.007 454.854 188.144 453.988L181.605 447.449C180.739 446.583 179.564 446.097 178.34 446.097C177.115 446.097 175.941 446.583 175.075 447.449L116.95 505.579C116.084 506.445 115.598 507.62 115.598 508.844C115.598 510.069 116.084 511.243 116.95 512.109L123.489 518.648C124.355 519.514 125.53 520 126.754 520C127.979 520 129.153 519.514 130.019 518.648L188.144 460.509Z" fill="white"/>
<path d="M495.464 129.636L476.146 246H452.283L417.226 178.841H416.43L405.237 246H377.112L396.43 129.636H420.635L455.408 196.682H456.374L467.396 129.636H495.464ZM526.513 247.648C517.308 247.648 509.714 245.754 503.729 241.966C497.782 238.178 493.596 232.894 491.172 226.114C488.748 219.333 488.274 211.455 489.751 202.477C491.229 193.538 494.278 185.697 498.899 178.955C503.52 172.212 509.429 166.966 516.626 163.216C523.823 159.466 531.986 157.591 541.115 157.591C550.282 157.591 557.839 159.485 563.786 163.273C569.77 167.061 573.975 172.345 576.399 179.125C578.861 185.905 579.354 193.803 577.876 202.818C576.399 211.758 573.331 219.598 568.672 226.341C564.013 233.045 558.104 238.273 550.945 242.023C543.786 245.773 535.642 247.648 526.513 247.648ZM529.638 226.682C533.047 226.682 536.096 225.659 538.786 223.614C541.513 221.568 543.804 218.708 545.661 215.034C547.517 211.36 548.842 207.098 549.638 202.25C550.433 197.477 550.509 193.292 549.865 189.693C549.259 186.057 547.971 183.235 546.001 181.227C544.032 179.182 541.361 178.159 537.99 178.159C534.581 178.159 531.513 179.201 528.786 181.284C526.058 183.33 523.767 186.189 521.911 189.864C520.092 193.5 518.786 197.761 517.99 202.648C517.195 207.42 517.1 211.606 517.706 215.205C518.312 218.803 519.619 221.625 521.626 223.67C523.634 225.678 526.304 226.682 529.638 226.682ZM576.893 246L591.439 158.727H619.223L604.678 246H576.893ZM607.291 148.5C603.352 148.5 600.151 147.193 597.689 144.58C595.227 141.966 594.261 138.841 594.791 135.205C595.321 131.53 597.178 128.405 600.359 125.83C603.541 123.254 607.083 121.966 610.984 121.966C614.924 121.966 618.087 123.254 620.473 125.83C622.897 128.405 623.844 131.53 623.314 135.205C622.859 138.841 621.041 141.966 617.859 144.58C614.715 147.193 611.193 148.5 607.291 148.5ZM678.169 158.727L674.703 179.182H619.646L623.112 158.727H678.169ZM638.055 137.818H665.839L652.43 218.557C652.165 220.261 652.203 221.644 652.544 222.705C652.923 223.727 653.605 224.466 654.589 224.92C655.612 225.337 656.862 225.545 658.339 225.545C659.362 225.545 660.499 225.432 661.749 225.205C662.999 224.977 663.946 224.807 664.589 224.693L665.499 244.75C664.021 245.167 662.033 245.64 659.533 246.17C657.071 246.739 654.192 247.098 650.896 247.25C644.23 247.515 638.718 246.739 634.362 244.92C630.044 243.064 626.995 240.186 625.214 236.284C623.472 232.383 623.131 227.496 624.192 221.625L638.055 137.818ZM694.175 247.477C688.644 247.477 683.872 246.549 679.857 244.693C675.879 242.799 672.963 239.939 671.107 236.114C669.288 232.288 668.853 227.515 669.8 221.795C670.633 216.947 672.167 212.875 674.402 209.58C676.675 206.246 679.459 203.538 682.754 201.455C686.088 199.371 689.8 197.78 693.891 196.682C697.982 195.583 702.262 194.845 706.732 194.466C711.732 194.011 715.785 193.519 718.891 192.989C722.035 192.458 724.383 191.72 725.936 190.773C727.489 189.788 728.436 188.424 728.777 186.682V186.398C729.232 183.481 728.607 181.227 726.902 179.636C725.197 178.045 722.641 177.25 719.232 177.25C715.595 177.25 712.489 178.045 709.913 179.636C707.338 181.227 705.538 183.424 704.516 186.227L679.061 185.318C680.652 180.015 683.379 175.28 687.243 171.114C691.107 166.909 696.012 163.614 701.959 161.227C707.944 158.803 714.857 157.591 722.697 157.591C728.228 157.591 733.228 158.254 737.697 159.58C742.167 160.867 745.936 162.761 749.004 165.261C752.11 167.723 754.326 170.754 755.652 174.352C756.978 177.951 757.262 182.061 756.504 186.682L746.561 246H720.425L722.47 233.841H721.788C719.743 236.795 717.338 239.295 714.572 241.341C711.845 243.386 708.777 244.92 705.368 245.943C701.959 246.966 698.228 247.477 694.175 247.477ZM705.879 229.295C708.796 229.295 711.561 228.689 714.175 227.477C716.788 226.265 718.985 224.598 720.766 222.477C722.584 220.318 723.739 217.818 724.232 214.977L725.538 206.682C724.743 207.098 723.739 207.477 722.527 207.818C721.315 208.159 720.027 208.481 718.663 208.784C717.3 209.049 715.898 209.314 714.459 209.58C713.057 209.807 711.713 210.015 710.425 210.205C707.697 210.621 705.33 211.265 703.322 212.136C701.315 213.008 699.705 214.144 698.493 215.545C697.319 216.909 696.599 218.538 696.334 220.432C695.879 223.273 696.542 225.47 698.322 227.023C700.103 228.538 702.622 229.295 705.879 229.295ZM774.868 129.636H809.697L827.311 201.682H828.675L870.152 129.636H904.982L885.663 246H858.277L870.152 174.523H869.186L829.527 245.261H812.084L795.947 174.125H794.982L782.936 246H755.55L774.868 129.636ZM919.581 247.477C914.051 247.477 909.278 246.549 905.263 244.693C901.286 242.799 898.369 239.939 896.513 236.114C894.695 232.288 894.259 227.515 895.206 221.795C896.039 216.947 897.573 212.875 899.808 209.58C902.081 206.246 904.865 203.538 908.161 201.455C911.494 199.371 915.206 197.78 919.297 196.682C923.388 195.583 927.668 194.845 932.138 194.466C937.138 194.011 941.191 193.519 944.297 192.989C947.441 192.458 949.789 191.72 951.342 190.773C952.895 189.788 953.842 188.424 954.183 186.682V186.398C954.638 183.481 954.013 181.227 952.308 179.636C950.604 178.045 948.047 177.25 944.638 177.25C941.001 177.25 937.895 178.045 935.32 179.636C932.744 181.227 930.945 183.424 929.922 186.227L904.467 185.318C906.058 180.015 908.786 175.28 912.649 171.114C916.513 166.909 921.418 163.614 927.365 161.227C933.35 158.803 940.263 157.591 948.104 157.591C953.634 157.591 958.634 158.254 963.104 159.58C967.573 160.867 971.342 162.761 974.411 165.261C977.517 167.723 979.732 170.754 981.058 174.352C982.384 177.951 982.668 182.061 981.911 186.682L971.967 246H945.831L947.876 233.841H947.195C945.149 236.795 942.744 239.295 939.979 241.341C937.251 243.386 934.183 244.92 930.774 245.943C927.365 246.966 923.634 247.477 919.581 247.477ZM931.286 229.295C934.202 229.295 936.967 228.689 939.581 227.477C942.195 226.265 944.392 224.598 946.172 222.477C947.99 220.318 949.145 217.818 949.638 214.977L950.945 206.682C950.149 207.098 949.145 207.477 947.933 207.818C946.721 208.159 945.433 208.481 944.07 208.784C942.706 209.049 941.304 209.314 939.865 209.58C938.464 209.807 937.119 210.015 935.831 210.205C933.104 210.621 930.736 211.265 928.729 212.136C926.721 213.008 925.111 214.144 923.899 215.545C922.725 216.909 922.005 218.538 921.74 220.432C921.286 223.273 921.948 225.47 923.729 227.023C925.509 228.538 928.028 229.295 931.286 229.295ZM975.672 278.727L995.786 158.727H1023.29L1020.84 173.67H1021.69C1023.21 171.019 1025.22 168.462 1027.72 166C1030.26 163.538 1033.3 161.53 1036.87 159.977C1040.43 158.386 1044.5 157.591 1049.08 157.591C1055.14 157.591 1060.54 159.182 1065.27 162.364C1070.01 165.545 1073.46 170.451 1075.62 177.08C1077.77 183.708 1078 192.155 1076.3 202.42C1074.67 212.307 1071.71 220.583 1067.43 227.25C1063.19 233.917 1058.15 238.917 1052.32 242.25C1046.49 245.583 1040.37 247.25 1033.97 247.25C1029.57 247.25 1025.86 246.53 1022.83 245.091C1019.84 243.652 1017.47 241.758 1015.73 239.409C1013.99 237.061 1012.77 234.542 1012.09 231.852H1011.3L1003.57 278.727H975.672ZM1015.73 202.364C1014.97 207.061 1014.93 211.152 1015.62 214.636C1016.3 218.121 1017.68 220.83 1019.76 222.761C1021.88 224.655 1024.63 225.602 1028 225.602C1031.41 225.602 1034.44 224.655 1037.09 222.761C1039.78 220.83 1042.04 218.121 1043.85 214.636C1045.67 211.152 1047 207.061 1047.83 202.364C1048.55 197.667 1048.57 193.595 1047.89 190.148C1047.24 186.701 1045.9 184.03 1043.85 182.136C1041.81 180.242 1039.06 179.295 1035.62 179.295C1032.24 179.295 1029.18 180.223 1026.41 182.08C1023.68 183.936 1021.41 186.587 1019.59 190.034C1017.77 193.481 1016.49 197.591 1015.73 202.364ZM1092.09 247.648C1087.96 247.648 1084.59 246.208 1081.98 243.33C1079.36 240.451 1078.23 236.966 1078.57 232.875C1078.95 228.86 1080.73 225.432 1083.91 222.591C1087.09 219.75 1090.73 218.33 1094.82 218.33C1098.72 218.33 1101.99 219.75 1104.65 222.591C1107.34 225.432 1108.49 228.86 1108.11 232.875C1107.88 235.602 1106.96 238.083 1105.33 240.318C1103.74 242.553 1101.77 244.333 1099.42 245.659C1097.07 246.985 1094.63 247.648 1092.09 247.648ZM1156.87 247.648C1147.67 247.648 1140.07 245.754 1134.09 241.966C1128.14 238.178 1123.98 232.913 1121.59 226.17C1119.2 219.39 1118.77 211.549 1120.28 202.648C1121.72 193.708 1124.77 185.867 1129.43 179.125C1134.09 172.345 1140.04 167.061 1147.27 163.273C1154.51 159.485 1162.69 157.591 1171.82 157.591C1179.88 157.591 1186.67 159.049 1192.16 161.966C1197.69 164.883 1201.68 169.011 1204.15 174.352C1206.65 179.655 1207.38 185.886 1206.36 193.045H1180.4C1180.62 188.614 1179.71 185.129 1177.67 182.591C1175.62 180.015 1172.65 178.727 1168.75 178.727C1165.45 178.727 1162.42 179.636 1159.66 181.455C1156.93 183.235 1154.6 185.886 1152.67 189.409C1150.78 192.894 1149.41 197.212 1148.58 202.364C1147.74 207.515 1147.69 211.871 1148.41 215.432C1149.17 218.955 1150.59 221.625 1152.67 223.443C1154.79 225.223 1157.48 226.114 1160.74 226.114C1163.31 226.114 1165.7 225.564 1167.9 224.466C1170.09 223.367 1172.01 221.758 1173.63 219.636C1175.26 217.477 1176.53 214.864 1177.44 211.795H1203.35C1201.87 219.03 1199.01 225.337 1194.77 230.716C1190.57 236.057 1185.24 240.223 1178.81 243.216C1172.37 246.17 1165.06 247.648 1156.87 247.648ZM1244.51 247.648C1235.31 247.648 1227.71 245.754 1221.73 241.966C1215.78 238.178 1211.6 232.894 1209.17 226.114C1206.75 219.333 1206.27 211.455 1207.75 202.477C1209.23 193.538 1212.28 185.697 1216.9 178.955C1221.52 172.212 1227.43 166.966 1234.63 163.216C1241.82 159.466 1249.99 157.591 1259.12 157.591C1268.28 157.591 1275.84 159.485 1281.79 163.273C1287.77 167.061 1291.97 172.345 1294.4 179.125C1296.86 185.905 1297.35 193.803 1295.88 202.818C1294.4 211.758 1291.33 219.598 1286.67 226.341C1282.01 233.045 1276.1 238.273 1268.94 242.023C1261.79 245.773 1253.64 247.648 1244.51 247.648ZM1247.64 226.682C1251.05 226.682 1254.1 225.659 1256.79 223.614C1259.51 221.568 1261.8 218.708 1263.66 215.034C1265.52 211.36 1266.84 207.098 1267.64 202.25C1268.43 197.477 1268.51 193.292 1267.87 189.693C1267.26 186.057 1265.97 183.235 1264 181.227C1262.03 179.182 1259.36 178.159 1255.99 178.159C1252.58 178.159 1249.51 179.201 1246.79 181.284C1244.06 183.33 1241.77 186.189 1239.91 189.864C1238.09 193.5 1236.79 197.761 1235.99 202.648C1235.19 207.42 1235.1 211.606 1235.71 215.205C1236.31 218.803 1237.62 221.625 1239.63 223.67C1241.63 225.678 1244.3 226.682 1247.64 226.682ZM1295.06 246L1309.61 158.727H1336.03L1333.42 174.75H1334.38C1337.03 169.447 1340.78 165.261 1345.63 162.193C1350.48 159.125 1355.9 157.591 1361.88 157.591C1367.9 157.591 1372.81 159.144 1376.6 162.25C1380.42 165.356 1382.49 169.523 1382.79 174.75H1383.7C1386.2 169.561 1390.06 165.413 1395.29 162.307C1400.56 159.163 1406.43 157.591 1412.9 157.591C1421.09 157.591 1427.32 160.242 1431.6 165.545C1435.92 170.811 1437.3 178.045 1435.75 187.25L1425.97 246H1398.25L1407.11 193.614C1407.72 189.258 1407.07 185.943 1405.18 183.67C1403.32 181.36 1400.61 180.205 1397.05 180.205C1393.23 180.205 1390.03 181.436 1387.45 183.898C1384.91 186.36 1383.34 189.693 1382.73 193.898L1373.93 246H1347.17L1356.09 193.33C1356.65 189.277 1356.03 186.076 1354.21 183.727C1352.43 181.379 1349.72 180.205 1346.09 180.205C1343.7 180.205 1341.48 180.792 1339.44 181.966C1337.39 183.102 1335.67 184.731 1334.27 186.852C1332.9 188.973 1332.01 191.473 1331.6 194.352L1322.85 246H1295.06Z" fill="white"/>
<path d="M318.447 403.182H333.163L353.845 487.699H355.038L403.561 403.182H418.277L401.374 505H389.839L402.766 427.642H401.771L357.027 505H345.891L326.999 427.642H326.004L313.078 505H301.544L318.447 403.182ZM439.777 506.79C434.938 506.79 430.695 505.878 427.049 504.055C423.404 502.199 420.702 499.531 418.946 496.051C417.189 492.538 416.708 488.295 417.504 483.324C418.266 478.949 419.741 475.402 421.929 472.685C424.116 469.934 426.768 467.779 429.883 466.222C433.032 464.631 436.413 463.454 440.025 462.692C443.671 461.896 447.3 461.283 450.913 460.852C455.619 460.256 459.448 459.792 462.397 459.46C465.347 459.129 467.568 458.582 469.059 457.82C470.551 457.057 471.462 455.748 471.794 453.892V453.494C472.589 448.622 471.943 444.827 469.855 442.109C467.767 439.358 464.038 437.983 458.669 437.983C453.1 437.983 448.444 439.209 444.699 441.662C440.953 444.115 438.186 446.733 436.396 449.517L426.055 445.54C428.773 440.9 432.021 437.287 435.799 434.702C439.578 432.083 443.538 430.26 447.681 429.233C451.824 428.172 455.818 427.642 459.663 427.642C462.116 427.642 464.883 427.94 467.966 428.537C471.048 429.1 473.931 430.277 476.616 432.067C479.334 433.857 481.372 436.558 482.731 440.17C484.123 443.783 484.322 448.622 483.328 454.688L474.975 505H463.243L465.032 494.659H464.436C463.375 496.316 461.751 498.089 459.564 499.979C457.409 501.868 454.675 503.475 451.36 504.801C448.079 506.127 444.218 506.79 439.777 506.79ZM443.157 496.25C447.797 496.25 451.858 495.339 455.338 493.516C458.851 491.693 461.668 489.339 463.789 486.456C465.944 483.572 467.286 480.54 467.816 477.358L469.606 466.619C469.01 467.216 467.833 467.763 466.076 468.26C464.32 468.724 462.331 469.138 460.11 469.503C457.923 469.834 455.785 470.133 453.697 470.398C451.642 470.63 449.985 470.829 448.725 470.994C445.61 471.392 442.644 472.038 439.826 472.933C437.042 473.795 434.689 475.104 432.767 476.861C430.877 478.584 429.701 480.937 429.237 483.92C428.541 487.997 429.519 491.08 432.17 493.168C434.822 495.223 438.484 496.25 443.157 496.25ZM515.442 535.227C509.741 535.227 504.968 534.498 501.124 533.04C497.279 531.615 494.196 529.725 491.876 527.372C489.556 525.052 487.8 522.566 486.607 519.915L497.146 513.352C497.942 514.744 498.969 516.335 500.229 518.125C501.488 519.948 503.394 521.522 505.946 522.848C508.531 524.207 512.161 524.886 516.834 524.886C522.965 524.886 528.335 523.395 532.942 520.412C537.549 517.429 540.399 512.756 541.493 506.392L543.879 490.881H542.885C541.824 492.273 540.349 493.996 538.46 496.051C536.571 498.073 534.036 499.879 530.854 501.47C527.672 503.028 523.595 503.807 518.624 503.807C512.426 503.807 507.123 502.348 502.714 499.432C498.306 496.515 495.141 492.273 493.219 486.705C491.33 481.136 491.048 474.375 492.374 466.42C493.666 458.598 496.152 451.787 499.831 445.987C503.543 440.154 508.117 435.646 513.553 432.464C518.988 429.25 524.921 427.642 531.351 427.642C536.322 427.642 540.134 428.471 542.786 430.128C545.47 431.752 547.426 433.608 548.652 435.696C549.878 437.751 550.806 439.441 551.436 440.767H552.629L554.618 428.636H565.953L553.027 507.188C551.933 513.75 549.563 519.086 545.918 523.196C542.272 527.339 537.797 530.372 532.494 532.294C527.191 534.25 521.507 535.227 515.442 535.227ZM521.607 493.267C526.28 493.267 530.439 492.19 534.085 490.036C537.764 487.881 540.813 484.782 543.233 480.739C545.652 476.695 547.326 471.856 548.254 466.222C549.182 460.72 549.116 455.864 548.055 451.655C546.995 447.446 544.99 444.148 542.04 441.761C539.123 439.375 535.295 438.182 530.555 438.182C525.551 438.182 521.225 439.441 517.58 441.96C513.967 444.479 511.034 447.86 508.78 452.102C506.526 456.345 504.968 461.051 504.107 466.222C503.245 471.525 503.278 476.214 504.206 480.291C505.134 484.335 507.023 487.517 509.874 489.837C512.757 492.124 516.668 493.267 521.607 493.267ZM567.703 505L580.43 428.636H592.163L579.436 505H567.703ZM589.876 415.71C587.589 415.71 585.617 414.931 583.96 413.374C582.336 411.816 581.524 409.943 581.524 407.756C581.524 405.568 582.336 403.696 583.96 402.138C585.617 400.58 587.589 399.801 589.876 399.801C592.163 399.801 594.119 400.58 595.743 402.138C597.4 403.696 598.229 405.568 598.229 407.756C598.229 409.943 597.4 411.816 595.743 413.374C594.119 414.931 592.163 415.71 589.876 415.71ZM624.75 506.591C617.557 506.591 611.658 504.901 607.051 501.52C602.477 498.139 599.295 493.482 597.505 487.55C595.716 481.617 595.45 474.839 596.71 467.216C597.969 459.46 600.521 452.616 604.366 446.683C608.211 440.717 613 436.061 618.734 432.713C624.468 429.332 630.782 427.642 637.676 427.642C643.045 427.642 647.718 428.636 651.696 430.625C655.673 432.614 658.739 435.398 660.893 438.977C663.047 442.557 664.058 446.733 663.926 451.506H652.193C651.861 448.026 650.37 444.943 647.718 442.259C645.1 439.541 641.222 438.182 636.085 438.182C631.511 438.182 627.302 439.375 623.457 441.761C619.612 444.115 616.381 447.446 613.762 451.754C611.144 456.03 609.371 461.051 608.443 466.818C607.449 472.718 607.531 477.855 608.691 482.23C609.851 486.605 611.956 490.002 615.005 492.422C618.055 494.841 621.899 496.051 626.539 496.051C629.589 496.051 632.439 495.521 635.091 494.46C637.742 493.4 640.095 491.875 642.15 489.886C644.205 487.898 645.829 485.511 647.022 482.727H658.755C657.297 487.235 654.96 491.295 651.745 494.908C648.53 498.487 644.636 501.338 640.062 503.459C635.488 505.547 630.384 506.591 624.75 506.591ZM767.305 429.432C767.305 423.963 765.499 419.82 761.886 417.003C758.273 414.152 753.385 412.727 747.22 412.727C742.712 412.727 738.652 413.456 735.039 414.915C731.427 416.373 728.477 418.378 726.19 420.93C723.903 423.482 722.494 426.383 721.964 429.631C721.533 432.348 721.815 434.685 722.809 436.641C723.804 438.563 725.212 440.17 727.035 441.463C728.891 442.723 730.88 443.767 733.001 444.595C735.122 445.391 737.078 446.037 738.868 446.534L748.811 449.318C751.297 450.014 754.064 450.975 757.113 452.202C760.163 453.428 763.013 455.102 765.664 457.223C768.316 459.311 770.338 461.996 771.73 465.277C773.155 468.558 773.47 472.585 772.674 477.358C771.746 482.86 769.476 487.831 765.863 492.273C762.284 496.714 757.544 500.244 751.645 502.862C745.778 505.481 738.934 506.79 731.112 506.79C723.82 506.79 717.689 505.613 712.717 503.26C707.779 500.907 704.133 497.625 701.779 493.416C699.459 489.207 698.565 484.318 699.095 478.75H711.822C711.491 482.595 712.253 485.777 714.109 488.295C715.965 490.781 718.55 492.637 721.865 493.864C725.179 495.057 728.858 495.653 732.902 495.653C737.608 495.653 741.95 494.891 745.927 493.366C749.938 491.809 753.252 489.654 755.87 486.903C758.522 484.119 760.146 480.871 760.743 477.159C761.339 473.778 760.875 471.027 759.35 468.906C757.826 466.785 755.622 465.062 752.738 463.736C749.855 462.41 746.69 461.25 743.243 460.256L731.311 456.676C723.754 454.389 718.003 451.125 714.059 446.882C710.148 442.64 708.74 437.088 709.833 430.227C710.828 424.527 713.231 419.555 717.042 415.312C720.854 411.037 725.577 407.723 731.211 405.369C736.846 402.983 742.911 401.79 749.407 401.79C755.97 401.79 761.588 402.983 766.261 405.369C770.934 407.723 774.414 410.987 776.701 415.163C778.988 419.306 779.833 424.062 779.237 429.432H767.305ZM810.605 506.591C803.413 506.591 797.513 504.901 792.906 501.52C788.332 498.139 785.151 493.482 783.361 487.55C781.571 481.617 781.306 474.839 782.565 467.216C783.825 459.46 786.377 452.616 790.222 446.683C794.066 440.717 798.856 436.061 804.589 432.713C810.323 429.332 816.637 427.642 823.531 427.642C828.901 427.642 833.574 428.636 837.551 430.625C841.528 432.614 844.594 435.398 846.749 438.977C848.903 442.557 849.914 446.733 849.781 451.506H838.048C837.717 448.026 836.225 444.943 833.574 442.259C830.955 439.541 827.078 438.182 821.94 438.182C817.366 438.182 813.157 439.375 809.312 441.761C805.468 444.115 802.236 447.446 799.618 451.754C797 456.03 795.226 461.051 794.298 466.818C793.304 472.718 793.387 477.855 794.547 482.23C795.707 486.605 797.812 490.002 800.861 492.422C803.91 494.841 807.755 496.051 812.395 496.051C815.444 496.051 818.295 495.521 820.946 494.46C823.598 493.4 825.951 491.875 828.006 489.886C830.061 487.898 831.685 485.511 832.878 482.727H844.611C843.152 487.235 840.816 491.295 837.601 494.908C834.386 498.487 830.491 501.338 825.918 503.459C821.344 505.547 816.24 506.591 810.605 506.591ZM850.984 505L863.712 428.636H875.047L873.058 440.17H873.854C875.842 436.392 878.875 433.326 882.952 430.973C887.028 428.62 891.354 427.443 895.928 427.443C896.822 427.443 897.9 427.46 899.159 427.493C900.419 427.493 901.396 427.543 902.092 427.642L900.104 439.574C899.706 439.474 898.811 439.325 897.419 439.126C896.027 438.894 894.536 438.778 892.945 438.778C889.232 438.778 885.802 439.557 882.653 441.115C879.505 442.64 876.87 444.761 874.749 447.479C872.627 450.163 871.268 453.229 870.672 456.676L862.717 505H850.984ZM925.842 506.591C918.517 506.591 912.468 504.967 907.695 501.719C902.923 498.438 899.592 493.864 897.702 487.997C895.813 482.098 895.515 475.237 896.808 467.415C898.1 459.593 900.669 452.699 904.513 446.733C908.358 440.734 913.147 436.061 918.881 432.713C924.615 429.332 930.913 427.642 937.773 427.642C941.751 427.642 945.579 428.305 949.258 429.631C952.937 430.956 956.119 433.111 958.803 436.094C961.488 439.044 963.361 442.955 964.421 447.827C965.482 452.699 965.415 458.698 964.222 465.824L963.427 470.795H904.563L906.154 460.653H953.086C953.848 456.345 953.649 452.5 952.489 449.119C951.362 445.739 949.39 443.071 946.573 441.115C943.789 439.16 940.259 438.182 935.984 438.182C931.576 438.182 927.466 439.375 923.654 441.761C919.843 444.115 916.661 447.098 914.109 450.71C911.557 454.29 909.966 457.936 909.336 461.648L907.944 470.398C906.95 476.728 907.099 481.766 908.391 485.511C909.717 489.257 912.021 491.958 915.302 493.615C918.583 495.239 922.693 496.051 927.631 496.051C930.78 496.051 933.68 495.62 936.332 494.759C938.983 493.864 941.353 492.538 943.441 490.781C945.529 488.991 947.286 486.771 948.711 484.119L959.45 487.301C957.627 491.146 955.058 494.527 951.744 497.443C948.462 500.327 944.618 502.58 940.21 504.205C935.835 505.795 931.045 506.591 925.842 506.591ZM1000.6 506.591C993.275 506.591 987.226 504.967 982.453 501.719C977.68 498.438 974.349 493.864 972.46 487.997C970.571 482.098 970.273 475.237 971.565 467.415C972.858 459.593 975.427 452.699 979.271 446.733C983.116 440.734 987.905 436.061 993.639 432.713C999.373 429.332 1005.67 427.642 1012.53 427.642C1016.51 427.642 1020.34 428.305 1024.02 429.631C1027.69 430.956 1030.88 433.111 1033.56 436.094C1036.25 439.044 1038.12 442.955 1039.18 447.827C1040.24 452.699 1040.17 458.698 1038.98 465.824L1038.18 470.795H979.321L980.912 460.653H1027.84C1028.61 456.345 1028.41 452.5 1027.25 449.119C1026.12 445.739 1024.15 443.071 1021.33 441.115C1018.55 439.16 1015.02 438.182 1010.74 438.182C1006.33 438.182 1002.22 439.375 998.412 441.761C994.6 444.115 991.419 447.098 988.866 450.71C986.314 454.29 984.723 457.936 984.094 461.648L982.702 470.398C981.707 476.728 981.857 481.766 983.149 485.511C984.475 489.257 986.778 491.958 990.06 493.615C993.341 495.239 997.451 496.051 1002.39 496.051C1005.54 496.051 1008.44 495.62 1011.09 494.759C1013.74 493.864 1016.11 492.538 1018.2 490.781C1020.29 488.991 1022.04 486.771 1023.47 484.119L1034.21 487.301C1032.38 491.146 1029.82 494.527 1026.5 497.443C1023.22 500.327 1019.38 502.58 1014.97 504.205C1010.59 505.795 1005.8 506.591 1000.6 506.591ZM1062.83 459.062L1055.27 505H1043.54L1056.27 428.636H1067.6L1065.61 440.568H1066.61C1068.99 436.69 1072.23 433.575 1076.3 431.222C1080.38 428.835 1085.3 427.642 1091.07 427.642C1096.17 427.642 1100.48 428.703 1103.99 430.824C1107.54 432.912 1110.04 436.094 1111.5 440.369C1112.99 444.612 1113.21 449.981 1112.15 456.477L1103.99 505H1092.26L1100.22 457.273C1101.21 451.307 1100.43 446.634 1097.88 443.253C1095.36 439.872 1091.37 438.182 1085.9 438.182C1082.12 438.182 1078.62 438.994 1075.41 440.618C1072.23 442.242 1069.52 444.612 1067.3 447.727C1065.12 450.843 1063.62 454.621 1062.83 459.062ZM1182.47 445.739L1171.33 448.722C1170.93 446.932 1170.24 445.208 1169.24 443.551C1168.28 441.861 1166.79 440.485 1164.77 439.425C1162.78 438.331 1160.06 437.784 1156.62 437.784C1151.94 437.784 1147.88 438.861 1144.44 441.016C1140.99 443.137 1139.02 445.838 1138.52 449.119C1138.02 452.003 1138.68 454.306 1140.51 456.03C1142.33 457.753 1145.38 459.162 1149.66 460.256L1160.59 463.04C1167.16 464.73 1171.83 467.266 1174.61 470.646C1177.43 473.994 1178.39 478.352 1177.5 483.722C1176.77 488.097 1174.86 492.008 1171.78 495.455C1168.7 498.902 1164.75 501.619 1159.95 503.608C1155.14 505.597 1149.79 506.591 1143.89 506.591C1136.03 506.591 1129.84 504.901 1125.29 501.52C1120.75 498.106 1118.33 493.168 1118.04 486.705L1129.77 483.92C1130.07 487.997 1131.53 491.08 1134.14 493.168C1136.8 495.223 1140.51 496.25 1145.28 496.25C1150.75 496.25 1155.31 495.09 1158.95 492.77C1162.6 490.417 1164.67 487.599 1165.17 484.318C1165.66 481.634 1165.13 479.396 1163.58 477.607C1162.05 475.817 1159.4 474.474 1155.62 473.58L1143.49 470.597C1136.73 468.906 1131.99 466.321 1129.27 462.841C1126.59 459.361 1125.69 454.986 1126.59 449.716C1127.32 445.407 1129.17 441.596 1132.16 438.281C1135.17 434.967 1138.95 432.365 1143.49 430.476C1148.06 428.587 1153.04 427.642 1158.41 427.642C1165.96 427.642 1171.61 429.299 1175.36 432.614C1179.1 435.895 1181.47 440.27 1182.47 445.739ZM1203.87 459.062L1196.31 505H1184.58L1201.48 403.182H1213.21L1207.05 440.568H1208.04C1210.43 436.591 1213.61 433.442 1217.59 431.122C1221.6 428.802 1226.64 427.642 1232.7 427.642C1237.87 427.642 1242.23 428.686 1245.78 430.774C1249.36 432.829 1251.88 435.994 1253.34 440.27C1254.83 444.512 1255.04 449.915 1253.98 456.477L1245.83 505H1234.1L1242.05 457.273C1243.04 451.207 1242.23 446.518 1239.61 443.203C1237.03 439.856 1233 438.182 1227.53 438.182C1223.69 438.182 1220.11 438.994 1216.79 440.618C1213.51 442.242 1210.73 444.612 1208.44 447.727C1206.19 450.843 1204.66 454.621 1203.87 459.062ZM1291.81 506.591C1284.79 506.591 1278.9 504.917 1274.16 501.57C1269.42 498.222 1266.08 493.532 1264.12 487.5C1262.2 481.468 1261.88 474.441 1263.18 466.42C1264.44 458.598 1266.94 451.787 1270.68 445.987C1274.46 440.154 1279.15 435.646 1284.75 432.464C1290.39 429.25 1296.59 427.642 1303.35 427.642C1310.37 427.642 1316.24 429.332 1320.95 432.713C1325.69 436.061 1329.03 440.767 1330.99 446.832C1332.94 452.865 1333.28 459.924 1331.98 468.011C1330.72 475.767 1328.19 482.545 1324.38 488.345C1320.6 494.112 1315.91 498.603 1310.31 501.818C1304.74 505 1298.57 506.591 1291.81 506.591ZM1292.01 496.051C1297.38 496.051 1302.04 494.676 1305.98 491.925C1309.96 489.174 1313.17 485.545 1315.63 481.037C1318.11 476.529 1319.79 471.657 1320.65 466.42C1321.44 461.449 1321.41 456.825 1320.55 452.55C1319.69 448.241 1317.85 444.777 1315.03 442.159C1312.21 439.508 1308.25 438.182 1303.15 438.182C1297.78 438.182 1293.09 439.574 1289.08 442.358C1285.1 445.142 1281.89 448.804 1279.43 453.345C1276.98 457.886 1275.34 462.775 1274.51 468.011C1273.72 472.983 1273.73 477.607 1274.56 481.882C1275.42 486.125 1277.26 489.555 1280.08 492.173C1282.93 494.759 1286.91 496.051 1292.01 496.051ZM1382.77 428.636L1381.17 438.58H1341.6L1343.19 428.636H1382.77ZM1357.71 410.341H1369.44L1357.31 483.125C1356.78 486.439 1356.86 488.925 1357.56 490.582C1358.29 492.206 1359.38 493.3 1360.84 493.864C1362.33 494.394 1363.94 494.659 1365.66 494.659C1366.96 494.659 1368.02 494.593 1368.85 494.46C1369.67 494.295 1370.34 494.162 1370.83 494.062L1371.63 504.602C1370.73 504.901 1369.52 505.199 1368 505.497C1366.51 505.829 1364.67 505.994 1362.48 505.994C1359.17 505.994 1356.05 505.282 1353.13 503.857C1350.22 502.431 1347.98 500.26 1346.42 497.344C1344.87 494.427 1344.45 490.748 1345.18 486.307L1357.71 410.341Z" fill="white"/>
<g clip-path="url(#clip0_2409_286)">
<mask id="mask0_2409_286" style="mask-type:luminance" maskUnits="userSpaceOnUse" x="155" y="60" width="211" height="210">
<path d="M365.578 60H155.578V270H365.578V60Z" fill="white"/>
</mask>
<g mask="url(#mask0_2409_286)">
<path d="M195.578 130C217.678 130 235.578 147.55 235.578 169.2C235.578 147.55 253.478 130 275.578 130C297.678 130 315.578 147.55 315.578 169.2C315.578 201.83 283.238 213.34 239.498 265.28C239.017 265.85 238.416 266.309 237.739 266.623C237.062 266.938 236.325 267.101 235.578 267.101C234.832 267.101 234.094 266.938 233.417 266.623C232.74 266.309 232.14 265.85 231.658 265.28C187.918 213.34 155.578 201.83 155.578 169.2C155.578 147.55 173.478 130 195.578 130Z" fill="#C10007"/>
<path d="M300.578 85V185" stroke="#FFB900" stroke-width="30" stroke-linecap="round"/>
<path d="M350.578 135H250.578" stroke="#FFB900" stroke-width="30" stroke-linecap="round"/>
</g>
</g>
<path d="M55.5781 340L1485.58 340" stroke="white" stroke-width="10"/>
<defs>
<clipPath id="clip0_2409_286">
<rect width="210" height="210" fill="white" transform="translate(155.578 60)"/>
</clipPath>
</defs>
</svg>
